M48
;GenerationSoftware,Autodesk,EAGLE,9.1.3*%
;CreationDate,2018-10-12T19:53:34Z*%
FMAT,2
ICI,OFF
METRIC,TZ,000.000
T8C0.350
T7C0.508
T6C1.000
T5C1.016
T4C1.524
T3C2.540
T2C3.400
T1C3.988
%
G90
M71
T1
X15494Y27686
X15494Y35306
T2
X69113Y46968
X69113Y34008
X69088Y30204
X69088Y24864
X17272Y41272
X17272Y46612
T3
X23114Y31496
T4
X25654Y34036
X25654Y28956
T5
X45720Y36068
X48260Y36068
X45720Y33528
X48260Y33528
X45720Y46228
X48260Y46228
X45720Y43688
X48260Y43688
X45720Y41148
X48260Y41148
X45720Y38608
X48260Y38608
T6
X46609Y52959
X49149Y50419
X49149Y52959
X51689Y52959
X54229Y50419
X54229Y52959
X56769Y50419
X56769Y52959
X59309Y50419
X59309Y52959
X61849Y50419
X61849Y52959
X64389Y50419
X64389Y52959
X8509Y2159
X8509Y4699
X11049Y2159
X11049Y4699
X13589Y2159
X13589Y4699
X16129Y2159
X16129Y4699
X18669Y2159
X51689Y50419
X18669Y4699
X21209Y2159
X21209Y4699
X23749Y2159
X26289Y2159
X26289Y4699
X28829Y2159
X28829Y4699
X31369Y2159
X31369Y4699
X33909Y2159
X33909Y4699
X36449Y2159
X36449Y4699
X38989Y2159
X38989Y4699
X41529Y2159
X41529Y4699
X44069Y2159
X44069Y4699
X46609Y2159
X46609Y4699
X49149Y2159
X49149Y4699
X51689Y2159
X51689Y4699
X54229Y4699
X56769Y2159
X56769Y4699
X59309Y2159
X59309Y4699
X61849Y2159
X61849Y4699
X64389Y2159
X64389Y4699
X54229Y2159
X21209Y52959
X8509Y50419
X8509Y52959
X11049Y50419
X11049Y52959
X13589Y50419
X13589Y52959
X16129Y50419
X16129Y52959
X18669Y50419
X18669Y52959
X21209Y50419
X23749Y4699
X23749Y50419
X23749Y52959
X26289Y50419
X26289Y52959
X28829Y50419
X28829Y52959
X31369Y50419
X31369Y52959
X33909Y50419
X33909Y52959
X36449Y50419
X36449Y52959
X38989Y50419
X38989Y52959
X41529Y50419
X41529Y52959
X44069Y50419
X44069Y52959
X46609Y50419
T7
X35052Y39116
X26670Y37719
X29972Y36449
X26416Y40767
X29972Y39751
X32512Y39751
X32512Y36449
X37592Y35433
X37592Y32639
X35560Y32639
X55372Y33655
X58166Y33655
X56388Y31369
X53848Y31115
X40894Y37973
X42164Y35941
X40640Y43307
X42418Y41529
X12700Y8509
X10922Y8509
X26924Y13335
X38862Y7493
X35052Y7493
X54864Y42037
X53594Y38481
X50673Y43815
X50775Y40361
X31242Y7493
X58039Y15399
T8
X31242Y10922
X58674Y30734
X11430Y43180
X13970Y43180
X20320Y43180
X22352Y43180
X22352Y39878
X20320Y39878
X13970Y39878
X11430Y39878
X22352Y36322
X19812Y33274
X19812Y36322
X11684Y27178
X19812Y24130
X14224Y24130
X19812Y27178
X22352Y27178
X11430Y13208
X11430Y10668
X14224Y11176
X14224Y13208
X17018Y13208
X17018Y11176
X19812Y13208
X22352Y10668
X11684Y36322
X11430Y24130
X19812Y30226
X17018Y24130
X34726Y37012
X28194Y24511
X43434Y27940
X40894Y23495
X50450Y9600
X28194Y40259
X11684Y31496
X22352Y24130
X22352Y15240
X19812Y15240
X17018Y15240
X14224Y15240
X11430Y15240
X23368Y11684
X24384Y12700
X43815Y22987
M30