G04 EAGLE Gerber X2 export*
%TF.Part,Single*%
%TF.FileFunction,Profile,NP*%
%TF.FilePolarity,Positive*%
%TF.GenerationSoftware,Autodesk,EAGLE,9.1.3*%
%TF.CreationDate,2018-10-12T19:53:35Z*%
G75*
%MOMM*%
%FSLAX34Y34*%
%LPD*%
%AMOC8*
5,1,8,0,0,1.08239X$1,22.5*%
G01*
%ADD10C,0.254000*%


D10*
X40640Y2540D02*
X627380Y2540D01*
X639069Y2540D01*
X650713Y3559D01*
X662224Y5589D01*
X673514Y8615D01*
X684498Y12613D01*
X695092Y17553D01*
X705214Y23397D01*
X714789Y30102D01*
X723743Y37615D01*
X732008Y45881D01*
X739521Y54835D01*
X746225Y64410D01*
X752070Y74533D01*
X757009Y85126D01*
X761007Y96110D01*
X764032Y107401D01*
X766061Y118912D01*
X767080Y130556D01*
X767080Y422656D01*
X766092Y434102D01*
X764111Y445418D01*
X761151Y456519D01*
X757234Y467319D01*
X752391Y477737D01*
X746659Y487693D01*
X740080Y497112D01*
X732706Y505922D01*
X724592Y514055D01*
X715800Y521450D01*
X706397Y528051D01*
X696455Y533807D01*
X686048Y538674D01*
X675257Y542616D01*
X664164Y545603D01*
X652852Y547611D01*
X641409Y548626D01*
X629920Y548640D01*
X40640Y548640D01*
X40640Y421640D01*
X45621Y421423D01*
X50564Y420772D01*
X55432Y419693D01*
X60186Y418193D01*
X64793Y416286D01*
X69215Y413983D01*
X73420Y411305D01*
X77375Y408269D01*
X81051Y404901D01*
X84419Y401225D01*
X87455Y397270D01*
X90133Y393065D01*
X92436Y388643D01*
X94343Y384036D01*
X95843Y379282D01*
X96922Y374414D01*
X97573Y369471D01*
X97790Y364490D01*
X97790Y186690D01*
X97573Y181709D01*
X96922Y176766D01*
X95843Y171899D01*
X94343Y167144D01*
X92436Y162537D01*
X90133Y158115D01*
X87455Y153910D01*
X84419Y149955D01*
X81051Y146279D01*
X77375Y142911D01*
X73420Y139875D01*
X69215Y137197D01*
X64793Y134895D01*
X60186Y132987D01*
X55432Y131487D01*
X50564Y130408D01*
X45621Y129757D01*
X40640Y129540D01*
X40640Y2540D01*
X691691Y486676D02*
X692801Y486603D01*
X693905Y486458D01*
X694996Y486241D01*
X696071Y485953D01*
X697125Y485595D01*
X698154Y485169D01*
X699152Y484677D01*
X700116Y484120D01*
X701041Y483502D01*
X701924Y482824D01*
X702761Y482090D01*
X703548Y481303D01*
X704282Y480466D01*
X704960Y479583D01*
X705578Y478658D01*
X706135Y477694D01*
X706627Y476696D01*
X707053Y475667D01*
X707411Y474613D01*
X707699Y473538D01*
X707916Y472447D01*
X708061Y471343D01*
X708134Y470233D01*
X708134Y469119D01*
X708061Y468009D01*
X707916Y466905D01*
X707699Y465814D01*
X707411Y464739D01*
X707053Y463685D01*
X706627Y462656D01*
X706135Y461658D01*
X705578Y460694D01*
X704960Y459769D01*
X704282Y458886D01*
X703548Y458049D01*
X702761Y457262D01*
X701924Y456528D01*
X701041Y455850D01*
X700116Y455232D01*
X699152Y454675D01*
X698154Y454183D01*
X697125Y453757D01*
X696071Y453399D01*
X694996Y453111D01*
X693905Y452894D01*
X692801Y452749D01*
X691691Y452676D01*
X690577Y452676D01*
X689467Y452749D01*
X688363Y452894D01*
X687272Y453111D01*
X686197Y453399D01*
X685143Y453757D01*
X684114Y454183D01*
X683116Y454675D01*
X682152Y455232D01*
X681227Y455850D01*
X680344Y456528D01*
X679507Y457262D01*
X678720Y458049D01*
X677986Y458886D01*
X677308Y459769D01*
X676690Y460694D01*
X676133Y461658D01*
X675641Y462656D01*
X675215Y463685D01*
X674857Y464739D01*
X674569Y465814D01*
X674352Y466905D01*
X674207Y468009D01*
X674134Y469119D01*
X674134Y470233D01*
X674207Y471343D01*
X674352Y472447D01*
X674569Y473538D01*
X674857Y474613D01*
X675215Y475667D01*
X675641Y476696D01*
X676133Y477694D01*
X676690Y478658D01*
X677308Y479583D01*
X677986Y480466D01*
X678720Y481303D01*
X679507Y482090D01*
X680344Y482824D01*
X681227Y483502D01*
X682152Y484120D01*
X683116Y484677D01*
X684114Y485169D01*
X685143Y485595D01*
X686197Y485953D01*
X687272Y486241D01*
X688363Y486458D01*
X689467Y486603D01*
X690577Y486676D01*
X691691Y486676D01*
X691691Y357076D02*
X692801Y357003D01*
X693905Y356858D01*
X694996Y356641D01*
X696071Y356353D01*
X697125Y355995D01*
X698154Y355569D01*
X699152Y355077D01*
X700116Y354520D01*
X701041Y353902D01*
X701924Y353224D01*
X702761Y352490D01*
X703548Y351703D01*
X704282Y350866D01*
X704960Y349983D01*
X705578Y349058D01*
X706135Y348094D01*
X706627Y347096D01*
X707053Y346067D01*
X707411Y345013D01*
X707699Y343938D01*
X707916Y342847D01*
X708061Y341743D01*
X708134Y340633D01*
X708134Y339519D01*
X708061Y338409D01*
X707916Y337305D01*
X707699Y336214D01*
X707411Y335139D01*
X707053Y334085D01*
X706627Y333056D01*
X706135Y332058D01*
X705578Y331094D01*
X704960Y330169D01*
X704282Y329286D01*
X703548Y328449D01*
X702761Y327662D01*
X701924Y326928D01*
X701041Y326250D01*
X700116Y325632D01*
X699152Y325075D01*
X698154Y324583D01*
X697125Y324157D01*
X696071Y323799D01*
X694996Y323511D01*
X693905Y323294D01*
X692801Y323149D01*
X691691Y323076D01*
X690577Y323076D01*
X689467Y323149D01*
X688363Y323294D01*
X687272Y323511D01*
X686197Y323799D01*
X685143Y324157D01*
X684114Y324583D01*
X683116Y325075D01*
X682152Y325632D01*
X681227Y326250D01*
X680344Y326928D01*
X679507Y327662D01*
X678720Y328449D01*
X677986Y329286D01*
X677308Y330169D01*
X676690Y331094D01*
X676133Y332058D01*
X675641Y333056D01*
X675215Y334085D01*
X674857Y335139D01*
X674569Y336214D01*
X674352Y337305D01*
X674207Y338409D01*
X674134Y339519D01*
X674134Y340633D01*
X674207Y341743D01*
X674352Y342847D01*
X674569Y343938D01*
X674857Y345013D01*
X675215Y346067D01*
X675641Y347096D01*
X676133Y348094D01*
X676690Y349058D01*
X677308Y349983D01*
X677986Y350866D01*
X678720Y351703D01*
X679507Y352490D01*
X680344Y353224D01*
X681227Y353902D01*
X682152Y354520D01*
X683116Y355077D01*
X684114Y355569D01*
X685143Y355995D01*
X686197Y356353D01*
X687272Y356641D01*
X688363Y356858D01*
X689467Y357003D01*
X690577Y357076D01*
X691691Y357076D01*
X691437Y319036D02*
X692547Y318963D01*
X693651Y318818D01*
X694742Y318601D01*
X695817Y318313D01*
X696871Y317955D01*
X697900Y317529D01*
X698898Y317037D01*
X699862Y316480D01*
X700787Y315862D01*
X701670Y315184D01*
X702507Y314450D01*
X703294Y313663D01*
X704028Y312826D01*
X704706Y311943D01*
X705324Y311018D01*
X705881Y310054D01*
X706373Y309056D01*
X706799Y308027D01*
X707157Y306973D01*
X707445Y305898D01*
X707662Y304807D01*
X707807Y303703D01*
X707880Y302593D01*
X707880Y301479D01*
X707807Y300369D01*
X707662Y299265D01*
X707445Y298174D01*
X707157Y297099D01*
X706799Y296045D01*
X706373Y295016D01*
X705881Y294018D01*
X705324Y293054D01*
X704706Y292129D01*
X704028Y291246D01*
X703294Y290409D01*
X702507Y289622D01*
X701670Y288888D01*
X700787Y288210D01*
X699862Y287592D01*
X698898Y287035D01*
X697900Y286543D01*
X696871Y286117D01*
X695817Y285759D01*
X694742Y285471D01*
X693651Y285254D01*
X692547Y285109D01*
X691437Y285036D01*
X690323Y285036D01*
X689213Y285109D01*
X688109Y285254D01*
X687018Y285471D01*
X685943Y285759D01*
X684889Y286117D01*
X683860Y286543D01*
X682862Y287035D01*
X681898Y287592D01*
X680973Y288210D01*
X680090Y288888D01*
X679253Y289622D01*
X678466Y290409D01*
X677732Y291246D01*
X677054Y292129D01*
X676436Y293054D01*
X675879Y294018D01*
X675387Y295016D01*
X674961Y296045D01*
X674603Y297099D01*
X674315Y298174D01*
X674098Y299265D01*
X673953Y300369D01*
X673880Y301479D01*
X673880Y302593D01*
X673953Y303703D01*
X674098Y304807D01*
X674315Y305898D01*
X674603Y306973D01*
X674961Y308027D01*
X675387Y309056D01*
X675879Y310054D01*
X676436Y311018D01*
X677054Y311943D01*
X677732Y312826D01*
X678466Y313663D01*
X679253Y314450D01*
X680090Y315184D01*
X680973Y315862D01*
X681898Y316480D01*
X682862Y317037D01*
X683860Y317529D01*
X684889Y317955D01*
X685943Y318313D01*
X687018Y318601D01*
X688109Y318818D01*
X689213Y318963D01*
X690323Y319036D01*
X691437Y319036D01*
X691437Y265636D02*
X692547Y265563D01*
X693651Y265418D01*
X694742Y265201D01*
X695817Y264913D01*
X696871Y264555D01*
X697900Y264129D01*
X698898Y263637D01*
X699862Y263080D01*
X700787Y262462D01*
X701670Y261784D01*
X702507Y261050D01*
X703294Y260263D01*
X704028Y259426D01*
X704706Y258543D01*
X705324Y257618D01*
X705881Y256654D01*
X706373Y255656D01*
X706799Y254627D01*
X707157Y253573D01*
X707445Y252498D01*
X707662Y251407D01*
X707807Y250303D01*
X707880Y249193D01*
X707880Y248079D01*
X707807Y246969D01*
X707662Y245865D01*
X707445Y244774D01*
X707157Y243699D01*
X706799Y242645D01*
X706373Y241616D01*
X705881Y240618D01*
X705324Y239654D01*
X704706Y238729D01*
X704028Y237846D01*
X703294Y237009D01*
X702507Y236222D01*
X701670Y235488D01*
X700787Y234810D01*
X699862Y234192D01*
X698898Y233635D01*
X697900Y233143D01*
X696871Y232717D01*
X695817Y232359D01*
X694742Y232071D01*
X693651Y231854D01*
X692547Y231709D01*
X691437Y231636D01*
X690323Y231636D01*
X689213Y231709D01*
X688109Y231854D01*
X687018Y232071D01*
X685943Y232359D01*
X684889Y232717D01*
X683860Y233143D01*
X682862Y233635D01*
X681898Y234192D01*
X680973Y234810D01*
X680090Y235488D01*
X679253Y236222D01*
X678466Y237009D01*
X677732Y237846D01*
X677054Y238729D01*
X676436Y239654D01*
X675879Y240618D01*
X675387Y241616D01*
X674961Y242645D01*
X674603Y243699D01*
X674315Y244774D01*
X674098Y245865D01*
X673953Y246969D01*
X673880Y248079D01*
X673880Y249193D01*
X673953Y250303D01*
X674098Y251407D01*
X674315Y252498D01*
X674603Y253573D01*
X674961Y254627D01*
X675387Y255656D01*
X675879Y256654D01*
X676436Y257618D01*
X677054Y258543D01*
X677732Y259426D01*
X678466Y260263D01*
X679253Y261050D01*
X680090Y261784D01*
X680973Y262462D01*
X681898Y263080D01*
X682862Y263637D01*
X683860Y264129D01*
X684889Y264555D01*
X685943Y264913D01*
X687018Y265201D01*
X688109Y265418D01*
X689213Y265563D01*
X690323Y265636D01*
X691437Y265636D01*
X172163Y395720D02*
X171053Y395793D01*
X169949Y395938D01*
X168858Y396155D01*
X167783Y396443D01*
X166729Y396801D01*
X165700Y397227D01*
X164702Y397719D01*
X163738Y398276D01*
X162813Y398894D01*
X161930Y399572D01*
X161093Y400306D01*
X160306Y401093D01*
X159572Y401930D01*
X158894Y402813D01*
X158276Y403738D01*
X157719Y404702D01*
X157227Y405700D01*
X156801Y406729D01*
X156443Y407783D01*
X156155Y408858D01*
X155938Y409949D01*
X155793Y411053D01*
X155720Y412163D01*
X155720Y413277D01*
X155793Y414387D01*
X155938Y415491D01*
X156155Y416582D01*
X156443Y417657D01*
X156801Y418711D01*
X157227Y419740D01*
X157719Y420738D01*
X158276Y421702D01*
X158894Y422627D01*
X159572Y423510D01*
X160306Y424347D01*
X161093Y425134D01*
X161930Y425868D01*
X162813Y426546D01*
X163738Y427164D01*
X164702Y427721D01*
X165700Y428213D01*
X166729Y428639D01*
X167783Y428997D01*
X168858Y429285D01*
X169949Y429502D01*
X171053Y429647D01*
X172163Y429720D01*
X173277Y429720D01*
X174387Y429647D01*
X175491Y429502D01*
X176582Y429285D01*
X177657Y428997D01*
X178711Y428639D01*
X179740Y428213D01*
X180738Y427721D01*
X181702Y427164D01*
X182627Y426546D01*
X183510Y425868D01*
X184347Y425134D01*
X185134Y424347D01*
X185868Y423510D01*
X186546Y422627D01*
X187164Y421702D01*
X187721Y420738D01*
X188213Y419740D01*
X188639Y418711D01*
X188997Y417657D01*
X189285Y416582D01*
X189502Y415491D01*
X189647Y414387D01*
X189720Y413277D01*
X189720Y412163D01*
X189647Y411053D01*
X189502Y409949D01*
X189285Y408858D01*
X188997Y407783D01*
X188639Y406729D01*
X188213Y405700D01*
X187721Y404702D01*
X187164Y403738D01*
X186546Y402813D01*
X185868Y401930D01*
X185134Y401093D01*
X184347Y400306D01*
X183510Y399572D01*
X182627Y398894D01*
X181702Y398276D01*
X180738Y397719D01*
X179740Y397227D01*
X178711Y396801D01*
X177657Y396443D01*
X176582Y396155D01*
X175491Y395938D01*
X174387Y395793D01*
X173277Y395720D01*
X172163Y395720D01*
X172163Y449120D02*
X171053Y449193D01*
X169949Y449338D01*
X168858Y449555D01*
X167783Y449843D01*
X166729Y450201D01*
X165700Y450627D01*
X164702Y451119D01*
X163738Y451676D01*
X162813Y452294D01*
X161930Y452972D01*
X161093Y453706D01*
X160306Y454493D01*
X159572Y455330D01*
X158894Y456213D01*
X158276Y457138D01*
X157719Y458102D01*
X157227Y459100D01*
X156801Y460129D01*
X156443Y461183D01*
X156155Y462258D01*
X155938Y463349D01*
X155793Y464453D01*
X155720Y465563D01*
X155720Y466677D01*
X155793Y467787D01*
X155938Y468891D01*
X156155Y469982D01*
X156443Y471057D01*
X156801Y472111D01*
X157227Y473140D01*
X157719Y474138D01*
X158276Y475102D01*
X158894Y476027D01*
X159572Y476910D01*
X160306Y477747D01*
X161093Y478534D01*
X161930Y479268D01*
X162813Y479946D01*
X163738Y480564D01*
X164702Y481121D01*
X165700Y481613D01*
X166729Y482039D01*
X167783Y482397D01*
X168858Y482685D01*
X169949Y482902D01*
X171053Y483047D01*
X172163Y483120D01*
X173277Y483120D01*
X174387Y483047D01*
X175491Y482902D01*
X176582Y482685D01*
X177657Y482397D01*
X178711Y482039D01*
X179740Y481613D01*
X180738Y481121D01*
X181702Y480564D01*
X182627Y479946D01*
X183510Y479268D01*
X184347Y478534D01*
X185134Y477747D01*
X185868Y476910D01*
X186546Y476027D01*
X187164Y475102D01*
X187721Y474138D01*
X188213Y473140D01*
X188639Y472111D01*
X188997Y471057D01*
X189285Y469982D01*
X189502Y468891D01*
X189647Y467787D01*
X189720Y466677D01*
X189720Y465563D01*
X189647Y464453D01*
X189502Y463349D01*
X189285Y462258D01*
X188997Y461183D01*
X188639Y460129D01*
X188213Y459100D01*
X187721Y458102D01*
X187164Y457138D01*
X186546Y456213D01*
X185868Y455330D01*
X185134Y454493D01*
X184347Y453706D01*
X183510Y452972D01*
X182627Y452294D01*
X181702Y451676D01*
X180738Y451119D01*
X179740Y450627D01*
X178711Y450201D01*
X177657Y449843D01*
X176582Y449555D01*
X175491Y449338D01*
X174387Y449193D01*
X173277Y449120D01*
X172163Y449120D01*
X231639Y327660D02*
X232634Y327582D01*
X233620Y327426D01*
X234590Y327193D01*
X235539Y326884D01*
X236461Y326502D01*
X237350Y326049D01*
X238201Y325528D01*
X239009Y324941D01*
X239767Y324293D01*
X240473Y323587D01*
X241121Y322829D01*
X241708Y322021D01*
X242229Y321170D01*
X242682Y320281D01*
X243064Y319359D01*
X243373Y318410D01*
X243606Y317440D01*
X243762Y316454D01*
X243840Y315459D01*
X243840Y314461D01*
X243762Y313466D01*
X243606Y312480D01*
X243373Y311510D01*
X243064Y310561D01*
X242682Y309639D01*
X242229Y308750D01*
X241708Y307899D01*
X241121Y307091D01*
X240473Y306333D01*
X239767Y305627D01*
X239009Y304979D01*
X238201Y304392D01*
X237350Y303871D01*
X236461Y303418D01*
X235539Y303036D01*
X234590Y302727D01*
X233620Y302494D01*
X232634Y302338D01*
X231639Y302260D01*
X230641Y302260D01*
X229646Y302338D01*
X228660Y302494D01*
X227690Y302727D01*
X226741Y303036D01*
X225819Y303418D01*
X224930Y303871D01*
X224079Y304392D01*
X223271Y304979D01*
X222513Y305627D01*
X221807Y306333D01*
X221159Y307091D01*
X220572Y307899D01*
X220051Y308750D01*
X219598Y309639D01*
X219216Y310561D01*
X218907Y311510D01*
X218674Y312480D01*
X218518Y313466D01*
X218440Y314461D01*
X218440Y315459D01*
X218518Y316454D01*
X218674Y317440D01*
X218907Y318410D01*
X219216Y319359D01*
X219598Y320281D01*
X220051Y321170D01*
X220572Y322021D01*
X221159Y322829D01*
X221807Y323587D01*
X222513Y324293D01*
X223271Y324941D01*
X224079Y325528D01*
X224930Y326049D01*
X225819Y326502D01*
X226741Y326884D01*
X227690Y327193D01*
X228660Y327426D01*
X229646Y327582D01*
X230641Y327660D01*
X231639Y327660D01*
X155543Y372999D02*
X156745Y372926D01*
X157941Y372781D01*
X159127Y372564D01*
X160297Y372275D01*
X161447Y371917D01*
X162574Y371490D01*
X163673Y370995D01*
X164740Y370435D01*
X165771Y369812D01*
X166763Y369127D01*
X167711Y368384D01*
X168613Y367585D01*
X169465Y366733D01*
X170264Y365831D01*
X171007Y364883D01*
X171692Y363891D01*
X172315Y362860D01*
X172875Y361793D01*
X173370Y360694D01*
X173797Y359567D01*
X174155Y358417D01*
X174444Y357247D01*
X174661Y356061D01*
X174806Y354865D01*
X174879Y353663D01*
X174879Y352458D01*
X174806Y351255D01*
X174661Y350059D01*
X174444Y348873D01*
X174155Y347703D01*
X173797Y346553D01*
X173370Y345426D01*
X172875Y344327D01*
X172315Y343260D01*
X171692Y342229D01*
X171007Y341238D01*
X170264Y340289D01*
X169465Y339387D01*
X168613Y338535D01*
X167711Y337736D01*
X166763Y336993D01*
X165771Y336308D01*
X164740Y335685D01*
X163673Y335125D01*
X162574Y334630D01*
X161447Y334203D01*
X160297Y333845D01*
X159127Y333556D01*
X157941Y333339D01*
X156745Y333194D01*
X155543Y333121D01*
X154338Y333121D01*
X153135Y333194D01*
X151939Y333339D01*
X150753Y333556D01*
X149583Y333845D01*
X148433Y334203D01*
X147306Y334630D01*
X146207Y335125D01*
X145140Y335685D01*
X144109Y336308D01*
X143118Y336993D01*
X142169Y337736D01*
X141267Y338535D01*
X140415Y339387D01*
X139616Y340289D01*
X138873Y341238D01*
X138188Y342229D01*
X137565Y343260D01*
X137005Y344327D01*
X136510Y345426D01*
X136083Y346553D01*
X135725Y347703D01*
X135436Y348873D01*
X135219Y350059D01*
X135074Y351255D01*
X135001Y352458D01*
X135001Y353663D01*
X135074Y354865D01*
X135219Y356061D01*
X135436Y357247D01*
X135725Y358417D01*
X136083Y359567D01*
X136510Y360694D01*
X137005Y361793D01*
X137565Y362860D01*
X138188Y363891D01*
X138873Y364883D01*
X139616Y365831D01*
X140415Y366733D01*
X141267Y367585D01*
X142169Y368384D01*
X143118Y369127D01*
X144109Y369812D01*
X145140Y370435D01*
X146207Y370995D01*
X147306Y371490D01*
X148433Y371917D01*
X149583Y372275D01*
X150753Y372564D01*
X151939Y372781D01*
X153135Y372926D01*
X154338Y372999D01*
X155543Y372999D01*
X155543Y296799D02*
X156745Y296726D01*
X157941Y296581D01*
X159127Y296364D01*
X160297Y296075D01*
X161447Y295717D01*
X162574Y295290D01*
X163673Y294795D01*
X164740Y294235D01*
X165771Y293612D01*
X166763Y292927D01*
X167711Y292184D01*
X168613Y291385D01*
X169465Y290533D01*
X170264Y289631D01*
X171007Y288683D01*
X171692Y287691D01*
X172315Y286660D01*
X172875Y285593D01*
X173370Y284494D01*
X173797Y283367D01*
X174155Y282217D01*
X174444Y281047D01*
X174661Y279861D01*
X174806Y278665D01*
X174879Y277463D01*
X174879Y276258D01*
X174806Y275055D01*
X174661Y273859D01*
X174444Y272673D01*
X174155Y271503D01*
X173797Y270353D01*
X173370Y269226D01*
X172875Y268127D01*
X172315Y267060D01*
X171692Y266029D01*
X171007Y265038D01*
X170264Y264089D01*
X169465Y263187D01*
X168613Y262335D01*
X167711Y261536D01*
X166763Y260793D01*
X165771Y260108D01*
X164740Y259485D01*
X163673Y258925D01*
X162574Y258430D01*
X161447Y258003D01*
X160297Y257645D01*
X159127Y257356D01*
X157941Y257139D01*
X156745Y256994D01*
X155543Y256921D01*
X154338Y256921D01*
X153135Y256994D01*
X151939Y257139D01*
X150753Y257356D01*
X149583Y257645D01*
X148433Y258003D01*
X147306Y258430D01*
X146207Y258925D01*
X145140Y259485D01*
X144109Y260108D01*
X143118Y260793D01*
X142169Y261536D01*
X141267Y262335D01*
X140415Y263187D01*
X139616Y264089D01*
X138873Y265038D01*
X138188Y266029D01*
X137565Y267060D01*
X137005Y268127D01*
X136510Y269226D01*
X136083Y270353D01*
X135725Y271503D01*
X135436Y272673D01*
X135219Y273859D01*
X135074Y275055D01*
X135001Y276258D01*
X135001Y277463D01*
X135074Y278665D01*
X135219Y279861D01*
X135436Y281047D01*
X135725Y282217D01*
X136083Y283367D01*
X136510Y284494D01*
X137005Y285593D01*
X137565Y286660D01*
X138188Y287691D01*
X138873Y288683D01*
X139616Y289631D01*
X140415Y290533D01*
X141267Y291385D01*
X142169Y292184D01*
X143118Y292927D01*
X144109Y293612D01*
X145140Y294235D01*
X146207Y294795D01*
X147306Y295290D01*
X148433Y295717D01*
X149583Y296075D01*
X150753Y296364D01*
X151939Y296581D01*
X153135Y296726D01*
X154338Y296799D01*
X155543Y296799D01*
M02*
