G04 EAGLE Gerber X2 export*
%TF.Part,Single*%
%TF.FileFunction,Soldermask,Bot,1*%
%TF.FilePolarity,Negative*%
%TF.GenerationSoftware,Autodesk,EAGLE,9.1.3*%
%TF.CreationDate,2018-10-12T19:53:35Z*%
G75*
%MOMM*%
%FSLAX34Y34*%
%LPD*%
%AMOC8*
5,1,8,0,0,1.08239X$1,22.5*%
G01*
%ADD10R,1.711200X1.711200*%
%ADD11C,1.711200*%
%ADD12C,3.603200*%
%ADD13P,2.254402X8X112.500000*%
%ADD14C,2.489200*%
%ADD15C,2.743200*%
%ADD16C,4.191000*%
%ADD17C,1.117600*%
%ADD18C,0.959600*%


D10*
X85090Y504190D03*
D11*
X85090Y529590D03*
X110490Y504190D03*
X110490Y529590D03*
X135890Y504190D03*
X135890Y529590D03*
X161290Y504190D03*
X161290Y529590D03*
X186690Y504190D03*
X186690Y529590D03*
X212090Y504190D03*
X212090Y529590D03*
X237490Y504190D03*
X237490Y529590D03*
X262890Y504190D03*
X262890Y529590D03*
X288290Y504190D03*
X288290Y529590D03*
X313690Y504190D03*
X313690Y529590D03*
X339090Y504190D03*
X339090Y529590D03*
X364490Y504190D03*
X364490Y529590D03*
X389890Y504190D03*
X389890Y529590D03*
X415290Y504190D03*
X415290Y529590D03*
X440690Y504190D03*
X440690Y529590D03*
X466090Y504190D03*
X466090Y529590D03*
X491490Y504190D03*
X491490Y529590D03*
X516890Y504190D03*
X516890Y529590D03*
X542290Y504190D03*
X542290Y529590D03*
X567690Y504190D03*
X567690Y529590D03*
X593090Y504190D03*
X593090Y529590D03*
X618490Y504190D03*
X618490Y529590D03*
X643890Y504190D03*
X643890Y529590D03*
D10*
X85090Y21590D03*
D11*
X85090Y46990D03*
X110490Y21590D03*
X110490Y46990D03*
X135890Y21590D03*
X135890Y46990D03*
X161290Y21590D03*
X161290Y46990D03*
X186690Y21590D03*
X186690Y46990D03*
X212090Y21590D03*
X212090Y46990D03*
X237490Y21590D03*
X237490Y46990D03*
X262890Y21590D03*
X262890Y46990D03*
X288290Y21590D03*
X288290Y46990D03*
X313690Y21590D03*
X313690Y46990D03*
X339090Y21590D03*
X339090Y46990D03*
X364490Y21590D03*
X364490Y46990D03*
X389890Y21590D03*
X389890Y46990D03*
X415290Y21590D03*
X415290Y46990D03*
X440690Y21590D03*
X440690Y46990D03*
X466090Y21590D03*
X466090Y46990D03*
X491490Y21590D03*
X491490Y46990D03*
X516890Y21590D03*
X516890Y46990D03*
X542290Y21590D03*
X542290Y46990D03*
X567690Y21590D03*
X567690Y46990D03*
X593090Y21590D03*
X593090Y46990D03*
X618490Y21590D03*
X618490Y46990D03*
X643890Y21590D03*
X643890Y46990D03*
D12*
X691134Y469676D03*
X691134Y340076D03*
X690880Y302036D03*
X690880Y248636D03*
X172720Y412720D03*
X172720Y466120D03*
D13*
X482600Y335280D03*
X457200Y335280D03*
X482600Y360680D03*
X457200Y360680D03*
X482600Y386080D03*
X457200Y386080D03*
X482600Y411480D03*
X457200Y411480D03*
X482600Y436880D03*
X457200Y436880D03*
X482600Y462280D03*
X457200Y462280D03*
D14*
X256540Y289560D03*
X256540Y340360D03*
D15*
X231140Y314960D03*
D16*
X154940Y353060D03*
X154940Y276860D03*
D17*
X350520Y391160D03*
X266700Y377190D03*
X299720Y364490D03*
X264160Y407670D03*
X299720Y397510D03*
X325120Y397510D03*
X325120Y364490D03*
X375920Y354330D03*
X375920Y326390D03*
X355600Y326390D03*
X553720Y336550D03*
X581660Y336550D03*
X563880Y313690D03*
X538480Y311150D03*
X408940Y379730D03*
X421640Y359410D03*
X406400Y433070D03*
X424180Y415290D03*
X127000Y85090D03*
X109220Y85090D03*
X269240Y133350D03*
X388620Y74930D03*
X350520Y74930D03*
X312420Y74930D03*
X548640Y420370D03*
X535940Y384810D03*
D18*
X281940Y245110D03*
X281940Y402590D03*
D17*
X506730Y438150D03*
X507750Y403610D03*
D18*
X312420Y109220D03*
X586740Y307340D03*
X114300Y431800D03*
X139700Y431800D03*
X203200Y431800D03*
X223520Y431800D03*
X223520Y398780D03*
X203200Y398780D03*
X139700Y398780D03*
X114300Y398780D03*
X223520Y363220D03*
X198120Y332740D03*
X198120Y363220D03*
X116840Y271780D03*
X198120Y241300D03*
X142240Y241300D03*
X198120Y271780D03*
X223520Y271780D03*
X114300Y132080D03*
X114300Y106680D03*
X142240Y111760D03*
X142240Y132080D03*
X170180Y132080D03*
X170180Y111760D03*
X198120Y132080D03*
X223520Y106680D03*
X116840Y363220D03*
X114300Y241300D03*
X198120Y302260D03*
X170180Y241300D03*
X243840Y127000D03*
X233680Y116840D03*
X114300Y152400D03*
X142240Y152400D03*
X170180Y152400D03*
X198120Y152400D03*
X223520Y152400D03*
X223520Y241300D03*
X116840Y314960D03*
D17*
X580390Y153988D03*
D18*
X504500Y96000D03*
X408940Y234950D03*
X438150Y229870D03*
X434340Y279400D03*
X347262Y370122D03*
M02*
