G04 EAGLE Gerber X2 export*
%TF.Part,Single*%
%TF.FileFunction,Paste,Top*%
%TF.FilePolarity,Positive*%
%TF.GenerationSoftware,Autodesk,EAGLE,9.1.3*%
%TF.CreationDate,2018-10-12T19:53:35Z*%
G75*
%MOMM*%
%FSLAX34Y34*%
%LPD*%
%AMOC8*
5,1,8,0,0,1.08239X$1,22.5*%
G01*
%ADD10R,3.175000X1.778000*%
%ADD11R,2.000000X4.100000*%
%ADD12R,1.600000X1.400000*%
%ADD13R,2.000000X2.000000*%
%ADD14R,10.800000X7.000000*%
%ADD15R,1.070000X2.160000*%
%ADD16R,5.330000X1.650000*%
%ADD17R,0.900000X0.800000*%
%ADD18C,0.050800*%
%ADD19R,3.250000X3.600000*%
%ADD20R,0.750000X0.650000*%
%ADD21R,4.300000X4.550000*%
%ADD22R,0.650000X0.650000*%
%ADD23R,2.000000X1.400000*%
%ADD24R,0.650000X0.750000*%
%ADD25R,4.550000X4.300000*%


D10*
X330454Y272288D03*
X330454Y338328D03*
D11*
X330454Y142936D03*
X330454Y229936D03*
D12*
X88138Y83536D03*
X88138Y111536D03*
D13*
X250764Y108458D03*
X290764Y108458D03*
D14*
X180340Y197410D03*
D15*
X205740Y90710D03*
X154940Y90710D03*
X180340Y90710D03*
D16*
X584234Y354076D03*
X584234Y379476D03*
X584234Y404876D03*
X584234Y430276D03*
X584234Y455676D03*
D17*
X533796Y364236D03*
X519796Y364236D03*
X533796Y404368D03*
X519796Y404368D03*
X533796Y439928D03*
X519796Y439928D03*
X533796Y350774D03*
X519796Y350774D03*
X533796Y416306D03*
X519796Y416306D03*
X534050Y451866D03*
X520050Y451866D03*
X533542Y463296D03*
X519542Y463296D03*
X533542Y427482D03*
X519542Y427482D03*
X533542Y339344D03*
X519542Y339344D03*
D16*
X583980Y262636D03*
X583980Y288036D03*
D18*
X572816Y150647D02*
X560624Y150647D01*
X572816Y150647D02*
X572816Y144805D01*
X560624Y144805D01*
X560624Y150647D01*
X560624Y145288D02*
X572816Y145288D01*
X572816Y145771D02*
X560624Y145771D01*
X560624Y146254D02*
X572816Y146254D01*
X572816Y146737D02*
X560624Y146737D01*
X560624Y147220D02*
X572816Y147220D01*
X572816Y147703D02*
X560624Y147703D01*
X560624Y148186D02*
X572816Y148186D01*
X572816Y148669D02*
X560624Y148669D01*
X560624Y149152D02*
X572816Y149152D01*
X572816Y149635D02*
X560624Y149635D01*
X560624Y150118D02*
X572816Y150118D01*
X572816Y150601D02*
X560624Y150601D01*
X560624Y160147D02*
X572816Y160147D01*
X572816Y154305D01*
X560624Y154305D01*
X560624Y160147D01*
X560624Y154788D02*
X572816Y154788D01*
X572816Y155271D02*
X560624Y155271D01*
X560624Y155754D02*
X572816Y155754D01*
X572816Y156237D02*
X560624Y156237D01*
X560624Y156720D02*
X572816Y156720D01*
X572816Y157203D02*
X560624Y157203D01*
X560624Y157686D02*
X572816Y157686D01*
X572816Y158169D02*
X560624Y158169D01*
X560624Y158652D02*
X572816Y158652D01*
X572816Y159135D02*
X560624Y159135D01*
X560624Y159618D02*
X572816Y159618D01*
X572816Y160101D02*
X560624Y160101D01*
X560624Y169647D02*
X572816Y169647D01*
X572816Y163805D01*
X560624Y163805D01*
X560624Y169647D01*
X560624Y164288D02*
X572816Y164288D01*
X572816Y164771D02*
X560624Y164771D01*
X560624Y165254D02*
X572816Y165254D01*
X572816Y165737D02*
X560624Y165737D01*
X560624Y166220D02*
X572816Y166220D01*
X572816Y166703D02*
X560624Y166703D01*
X560624Y167186D02*
X572816Y167186D01*
X572816Y167669D02*
X560624Y167669D01*
X560624Y168152D02*
X572816Y168152D01*
X572816Y168635D02*
X560624Y168635D01*
X560624Y169118D02*
X572816Y169118D01*
X572816Y169601D02*
X560624Y169601D01*
X546816Y150647D02*
X534624Y150647D01*
X546816Y150647D02*
X546816Y144805D01*
X534624Y144805D01*
X534624Y150647D01*
X534624Y145288D02*
X546816Y145288D01*
X546816Y145771D02*
X534624Y145771D01*
X534624Y146254D02*
X546816Y146254D01*
X546816Y146737D02*
X534624Y146737D01*
X534624Y147220D02*
X546816Y147220D01*
X546816Y147703D02*
X534624Y147703D01*
X534624Y148186D02*
X546816Y148186D01*
X546816Y148669D02*
X534624Y148669D01*
X534624Y149152D02*
X546816Y149152D01*
X546816Y149635D02*
X534624Y149635D01*
X534624Y150118D02*
X546816Y150118D01*
X546816Y150601D02*
X534624Y150601D01*
X534624Y169647D02*
X546816Y169647D01*
X546816Y163805D01*
X534624Y163805D01*
X534624Y169647D01*
X534624Y164288D02*
X546816Y164288D01*
X546816Y164771D02*
X534624Y164771D01*
X534624Y165254D02*
X546816Y165254D01*
X546816Y165737D02*
X534624Y165737D01*
X534624Y166220D02*
X546816Y166220D01*
X546816Y166703D02*
X534624Y166703D01*
X534624Y167186D02*
X546816Y167186D01*
X546816Y167669D02*
X534624Y167669D01*
X534624Y168152D02*
X546816Y168152D01*
X546816Y168635D02*
X534624Y168635D01*
X534624Y169118D02*
X546816Y169118D01*
X546816Y169601D02*
X534624Y169601D01*
D19*
X541836Y206502D03*
X580336Y206502D03*
D17*
X581548Y180594D03*
X567548Y180594D03*
X553608Y180340D03*
X539608Y180340D03*
X581772Y166624D03*
X595772Y166624D03*
X552562Y134112D03*
X566562Y134112D03*
D20*
X448310Y269124D03*
X448310Y256124D03*
X448310Y243124D03*
X448310Y230124D03*
D21*
X479060Y249624D03*
D22*
X503810Y230124D03*
X503810Y243124D03*
X503810Y256124D03*
X503810Y269124D03*
D23*
X528066Y250542D03*
X528066Y294542D03*
D24*
X351340Y403590D03*
X364340Y403590D03*
X377340Y403590D03*
X390340Y403590D03*
D25*
X370840Y434340D03*
D22*
X390340Y459090D03*
X377340Y459090D03*
X364340Y459090D03*
X351340Y459090D03*
D23*
X328930Y458880D03*
X328930Y414880D03*
D16*
X279620Y452120D03*
X279620Y426720D03*
D18*
X384094Y373151D02*
X396286Y373151D01*
X396286Y367309D01*
X384094Y367309D01*
X384094Y373151D01*
X384094Y367792D02*
X396286Y367792D01*
X396286Y368275D02*
X384094Y368275D01*
X384094Y368758D02*
X396286Y368758D01*
X396286Y369241D02*
X384094Y369241D01*
X384094Y369724D02*
X396286Y369724D01*
X396286Y370207D02*
X384094Y370207D01*
X384094Y370690D02*
X396286Y370690D01*
X396286Y371173D02*
X384094Y371173D01*
X384094Y371656D02*
X396286Y371656D01*
X396286Y372139D02*
X384094Y372139D01*
X384094Y372622D02*
X396286Y372622D01*
X396286Y373105D02*
X384094Y373105D01*
X384094Y382651D02*
X396286Y382651D01*
X396286Y376809D01*
X384094Y376809D01*
X384094Y382651D01*
X384094Y377292D02*
X396286Y377292D01*
X396286Y377775D02*
X384094Y377775D01*
X384094Y378258D02*
X396286Y378258D01*
X396286Y378741D02*
X384094Y378741D01*
X384094Y379224D02*
X396286Y379224D01*
X396286Y379707D02*
X384094Y379707D01*
X384094Y380190D02*
X396286Y380190D01*
X396286Y380673D02*
X384094Y380673D01*
X384094Y381156D02*
X396286Y381156D01*
X396286Y381639D02*
X384094Y381639D01*
X384094Y382122D02*
X396286Y382122D01*
X396286Y382605D02*
X384094Y382605D01*
X384094Y392151D02*
X396286Y392151D01*
X396286Y386309D01*
X384094Y386309D01*
X384094Y392151D01*
X384094Y386792D02*
X396286Y386792D01*
X396286Y387275D02*
X384094Y387275D01*
X384094Y387758D02*
X396286Y387758D01*
X396286Y388241D02*
X384094Y388241D01*
X384094Y388724D02*
X396286Y388724D01*
X396286Y389207D02*
X384094Y389207D01*
X384094Y389690D02*
X396286Y389690D01*
X396286Y390173D02*
X384094Y390173D01*
X384094Y390656D02*
X396286Y390656D01*
X396286Y391139D02*
X384094Y391139D01*
X384094Y391622D02*
X396286Y391622D01*
X396286Y392105D02*
X384094Y392105D01*
X370286Y373151D02*
X358094Y373151D01*
X370286Y373151D02*
X370286Y367309D01*
X358094Y367309D01*
X358094Y373151D01*
X358094Y367792D02*
X370286Y367792D01*
X370286Y368275D02*
X358094Y368275D01*
X358094Y368758D02*
X370286Y368758D01*
X370286Y369241D02*
X358094Y369241D01*
X358094Y369724D02*
X370286Y369724D01*
X370286Y370207D02*
X358094Y370207D01*
X358094Y370690D02*
X370286Y370690D01*
X370286Y371173D02*
X358094Y371173D01*
X358094Y371656D02*
X370286Y371656D01*
X370286Y372139D02*
X358094Y372139D01*
X358094Y372622D02*
X370286Y372622D01*
X370286Y373105D02*
X358094Y373105D01*
X358094Y392151D02*
X370286Y392151D01*
X370286Y386309D01*
X358094Y386309D01*
X358094Y392151D01*
X358094Y386792D02*
X370286Y386792D01*
X370286Y387275D02*
X358094Y387275D01*
X358094Y387758D02*
X370286Y387758D01*
X370286Y388241D02*
X358094Y388241D01*
X358094Y388724D02*
X370286Y388724D01*
X370286Y389207D02*
X358094Y389207D01*
X358094Y389690D02*
X370286Y389690D01*
X370286Y390173D02*
X358094Y390173D01*
X358094Y390656D02*
X370286Y390656D01*
X370286Y391139D02*
X358094Y391139D01*
X358094Y391622D02*
X370286Y391622D01*
X370286Y392105D02*
X358094Y392105D01*
X358094Y382651D02*
X370286Y382651D01*
X370286Y376809D01*
X358094Y376809D01*
X358094Y382651D01*
X358094Y377292D02*
X370286Y377292D01*
X370286Y377775D02*
X358094Y377775D01*
X358094Y378258D02*
X370286Y378258D01*
X370286Y378741D02*
X358094Y378741D01*
X358094Y379224D02*
X370286Y379224D01*
X370286Y379707D02*
X358094Y379707D01*
X358094Y380190D02*
X370286Y380190D01*
X370286Y380673D02*
X358094Y380673D01*
X358094Y381156D02*
X370286Y381156D01*
X370286Y381639D02*
X358094Y381639D01*
X358094Y382122D02*
X370286Y382122D01*
X370286Y382605D02*
X358094Y382605D01*
X402544Y260579D02*
X414736Y260579D01*
X402544Y260579D02*
X402544Y266421D01*
X414736Y266421D01*
X414736Y260579D01*
X414736Y261062D02*
X402544Y261062D01*
X402544Y261545D02*
X414736Y261545D01*
X414736Y262028D02*
X402544Y262028D01*
X402544Y262511D02*
X414736Y262511D01*
X414736Y262994D02*
X402544Y262994D01*
X402544Y263477D02*
X414736Y263477D01*
X414736Y263960D02*
X402544Y263960D01*
X402544Y264443D02*
X414736Y264443D01*
X414736Y264926D02*
X402544Y264926D01*
X402544Y265409D02*
X414736Y265409D01*
X414736Y265892D02*
X402544Y265892D01*
X402544Y266375D02*
X414736Y266375D01*
X414736Y251079D02*
X402544Y251079D01*
X402544Y256921D01*
X414736Y256921D01*
X414736Y251079D01*
X414736Y251562D02*
X402544Y251562D01*
X402544Y252045D02*
X414736Y252045D01*
X414736Y252528D02*
X402544Y252528D01*
X402544Y253011D02*
X414736Y253011D01*
X414736Y253494D02*
X402544Y253494D01*
X402544Y253977D02*
X414736Y253977D01*
X414736Y254460D02*
X402544Y254460D01*
X402544Y254943D02*
X414736Y254943D01*
X414736Y255426D02*
X402544Y255426D01*
X402544Y255909D02*
X414736Y255909D01*
X414736Y256392D02*
X402544Y256392D01*
X402544Y256875D02*
X414736Y256875D01*
X414736Y241579D02*
X402544Y241579D01*
X402544Y247421D01*
X414736Y247421D01*
X414736Y241579D01*
X414736Y242062D02*
X402544Y242062D01*
X402544Y242545D02*
X414736Y242545D01*
X414736Y243028D02*
X402544Y243028D01*
X402544Y243511D02*
X414736Y243511D01*
X414736Y243994D02*
X402544Y243994D01*
X402544Y244477D02*
X414736Y244477D01*
X414736Y244960D02*
X402544Y244960D01*
X402544Y245443D02*
X414736Y245443D01*
X414736Y245926D02*
X402544Y245926D01*
X402544Y246409D02*
X414736Y246409D01*
X414736Y246892D02*
X402544Y246892D01*
X402544Y247375D02*
X414736Y247375D01*
X428544Y260579D02*
X440736Y260579D01*
X428544Y260579D02*
X428544Y266421D01*
X440736Y266421D01*
X440736Y260579D01*
X440736Y261062D02*
X428544Y261062D01*
X428544Y261545D02*
X440736Y261545D01*
X440736Y262028D02*
X428544Y262028D01*
X428544Y262511D02*
X440736Y262511D01*
X440736Y262994D02*
X428544Y262994D01*
X428544Y263477D02*
X440736Y263477D01*
X440736Y263960D02*
X428544Y263960D01*
X428544Y264443D02*
X440736Y264443D01*
X440736Y264926D02*
X428544Y264926D01*
X428544Y265409D02*
X440736Y265409D01*
X440736Y265892D02*
X428544Y265892D01*
X428544Y266375D02*
X440736Y266375D01*
X440736Y241579D02*
X428544Y241579D01*
X428544Y247421D01*
X440736Y247421D01*
X440736Y241579D01*
X440736Y242062D02*
X428544Y242062D01*
X428544Y242545D02*
X440736Y242545D01*
X440736Y243028D02*
X428544Y243028D01*
X428544Y243511D02*
X440736Y243511D01*
X440736Y243994D02*
X428544Y243994D01*
X428544Y244477D02*
X440736Y244477D01*
X440736Y244960D02*
X428544Y244960D01*
X428544Y245443D02*
X440736Y245443D01*
X440736Y245926D02*
X428544Y245926D01*
X428544Y246409D02*
X440736Y246409D01*
X440736Y246892D02*
X428544Y246892D01*
X428544Y247375D02*
X440736Y247375D01*
X440736Y251079D02*
X428544Y251079D01*
X428544Y256921D01*
X440736Y256921D01*
X440736Y251079D01*
X440736Y251562D02*
X428544Y251562D01*
X428544Y252045D02*
X440736Y252045D01*
X440736Y252528D02*
X428544Y252528D01*
X428544Y253011D02*
X440736Y253011D01*
X440736Y253494D02*
X428544Y253494D01*
X428544Y253977D02*
X440736Y253977D01*
X440736Y254460D02*
X428544Y254460D01*
X428544Y254943D02*
X440736Y254943D01*
X440736Y255426D02*
X428544Y255426D01*
X428544Y255909D02*
X440736Y255909D01*
X440736Y256392D02*
X428544Y256392D01*
X428544Y256875D02*
X440736Y256875D01*
D12*
X517280Y109340D03*
X517280Y137340D03*
M02*
