M48
;GenerationSoftware,Autodesk,EAGLE,9.2.2*%
;CreationDate,2018-11-21T21:06:13Z*%
FMAT,2
ICI,OFF
METRIC,TZ,000.000
T9C0.305
T8C0.350
T7C0.650
T6C1.000
T5C1.350
T4C1.500
T3C1.610
T2C1.700
T1C3.400
%
G90
M71
T1
X22426Y81409
X22426Y76069
X48606Y3828
X53946Y3828
X57905Y3785
X70865Y3785
T2
X2606Y14664
T3
X5856Y14664
T4
X11856Y14664
T5
X5356Y9914
X5356Y19414
X10056Y19414
X10056Y9914
T6
X29431Y87406
X29431Y84866
X26891Y87406
X24351Y87406
X24351Y84866
X21811Y87406
X21811Y84866
X19271Y87406
X19271Y84866
X37051Y84866
X37051Y87406
X39591Y84866
X39591Y87406
X42131Y84866
X42131Y87406
X44671Y84866
X44671Y87406
X47211Y84866
X47211Y87406
X49751Y84866
X49751Y87406
X52291Y84866
X52291Y87406
X54831Y84866
X54831Y87406
X57371Y84866
X57371Y87406
X59911Y84866
X59911Y87406
X62451Y84866
X62451Y87406
X64991Y84866
X64991Y87406
X67531Y84866
X67531Y87406
X70071Y84866
X70071Y87406
X72611Y84866
X72611Y87406
X75151Y84866
X75151Y87406
X19271Y36606
X19271Y39146
X21811Y36606
X21811Y39146
X24351Y36606
X24351Y39146
X26891Y39146
X29431Y36606
X29431Y39146
X31971Y36606
X31971Y39146
X34511Y36606
X34511Y39146
X37051Y36606
X37051Y39146
X39591Y36606
X39591Y39146
X42131Y36606
X42131Y39146
X44671Y36606
X44671Y39146
X47211Y36606
X47211Y39146
X49751Y36606
X49751Y39146
X52291Y36606
X52291Y39146
X54831Y36606
X54831Y39146
X57371Y36606
X57371Y39146
X59911Y36606
X59911Y39146
X62451Y36606
X62451Y39146
X64991Y36606
X64991Y39146
X67531Y36606
X67531Y39146
X70071Y36606
X70071Y39146
X72611Y36606
X72611Y39146
X75151Y36606
X75151Y39146
X34511Y87406
X34511Y84866
X26891Y84866
X31971Y87406
X31971Y84866
X26891Y36606
T7
X42901Y31547
T8
X35560Y26035
X33655Y26035
X31750Y26035
X37465Y13335
X35560Y13335
X33655Y13335
X31750Y13335
X31750Y12065
X33655Y12065
X35560Y12065
X37465Y12065
X37465Y10160
X35560Y10160
X33655Y10160
X31750Y10160
X31750Y8255
X33655Y8255
X35560Y8255
X37465Y8255
X27940Y8255
X26035Y8255
X24130Y8255
X22225Y8255
X22225Y10160
X24130Y10160
X26035Y10160
X27940Y10160
X27940Y12065
X26035Y12065
X24130Y12065
X22225Y12065
X22225Y13970
X24130Y13970
X26035Y13970
X27940Y13970
X27940Y15875
X26035Y15875
X24130Y15875
X27940Y17780
X27940Y19685
X27940Y21590
X27940Y23495
X26035Y23495
X26035Y25400
X27940Y25400
X22225Y31750
X31115Y23495
X31115Y21590
X31115Y19685
X31115Y17780
X31115Y15875
X22225Y21590
X20320Y21590
X20320Y23495
X22225Y23495
X22225Y25400
X20320Y25400
X20320Y27305
X22225Y27305
X20320Y29210
X22225Y19685
X26670Y31115
X26670Y29210
X18415Y29210
X18415Y27305
X18415Y25400
X18415Y23495
X16510Y25400
X16510Y27305
X16510Y29210
X18415Y31115
X16510Y31115
X16510Y33020
X70739Y21361
X71069Y25806
X60221Y21085
X69147Y22019
X65303Y21336
X70742Y22553
X39370Y15875
X58064Y29413
X52959Y32766
X63322Y25273
X72542Y33045
X70711Y33045
X70104Y25806
X72517Y31166
X42393Y9449
X44425Y3849
X75565Y17780
X74295Y16510
X73025Y15240
X71755Y13970
X71755Y17780
X74549Y29362
X74549Y31208
X74549Y33028
X74549Y34849
X45771Y29185
X45771Y28346
X15240Y45085
X17145Y46990
X19050Y48895
X20955Y50800
X22860Y52705
X18415Y52705
X16510Y50800
X14605Y48895
X12700Y46990
X10795Y45085
X9017Y42545
X9017Y40005
X9017Y37465
X12700Y42545
X12065Y40005
X12065Y36195
X41275Y16510
X41275Y9525
X26314Y81915
X33858Y81991
X10795Y84455
X10795Y87630
X3175Y85725
X3175Y80645
X43561Y17424
X39370Y33020
X39370Y31115
X54915Y21590
X39370Y29210
X39370Y27305
X39370Y25400
X39370Y23495
X39370Y21590
X39370Y19685
X39370Y17780
X39370Y13970
X39370Y12065
X39370Y10160
X39370Y8255
X37465Y33020
X35560Y33020
X33655Y33020
X31750Y33020
X29845Y33020
X27940Y33020
X26670Y33020
X20955Y33020
X22225Y33020
X29845Y8255
X29845Y10160
X29845Y12065
X29845Y13970
X29845Y15875
X29845Y17780
X29845Y19685
X29845Y21590
X29845Y23495
X29845Y25400
X29845Y27305
X29845Y29210
X29845Y31115
X31750Y31115
X33655Y31115
X35560Y31115
X37465Y31115
X37465Y29210
X35560Y29210
X33655Y29210
X31750Y29210
X31750Y27305
X33655Y27305
X35560Y27305
X37465Y27305
X37465Y26035
T9
X49530Y28575
X47625Y28575
X53340Y30480
X51435Y30480
X49530Y30480
X47625Y30480
X31115Y68580
X33020Y68580
X34925Y68580
X36830Y68580
X38735Y68580
X40640Y68580
X42545Y68580
X44450Y68580
X44450Y70485
X44450Y72390
X42545Y72390
X40640Y72390
X38735Y72390
X38735Y74295
X27305Y70485
X27305Y72390
X27305Y74295
X27305Y76200
X27305Y78105
X29210Y78105
X29210Y76200
X29210Y74295
X29210Y72390
X29210Y70485
X31115Y70485
X31115Y72390
X31115Y74295
X31115Y76149
X33020Y76149
X33020Y74295
X33020Y72390
X33020Y70485
X34925Y70485
X34925Y72390
X34925Y74295
X34925Y76124
X36830Y76200
X36830Y74295
X36830Y72390
X36830Y70485
X38735Y70485
X40640Y70485
X42545Y70485
X77572Y62916
X76378Y64084
X78130Y59461
X76657Y59817
X75479Y61001
X74872Y61537
X77013Y57353
X74835Y58706
X70561Y66686
X68986Y65481
X78207Y62484
X76962Y63500
X75794Y64694
X77343Y59461
X76073Y60350
X77800Y57455
X76255Y57433
X75508Y58058
X70561Y65507
X69799Y65507
X81051Y70409
X81051Y66548
X81051Y68580
X82880Y67970
X81051Y67399
X81051Y69558
X27305Y68580
X29210Y68580
X47625Y26670
X47625Y24765
X47625Y22860
X47625Y20955
X47625Y17780
X47625Y19050
X49530Y20955
X49530Y22860
X49530Y24765
X49530Y26670
X55245Y26670
X55245Y28575
X53340Y28575
X51435Y28575
M30