G04 EAGLE Gerber RS-274X export*
G75*
%MOMM*%
%FSLAX34Y34*%
%LPD*%
%INBottom Copper*%
%IPPOS*%
%AMOC8*
5,1,8,0,0,1.08239X$1,22.5*%
G01*
%ADD10R,1.500000X1.500000*%
%ADD11C,1.500000*%
%ADD12C,2.300000*%
%ADD13C,2.415000*%
%ADD14C,2.550000*%
%ADD15C,2.100000*%
%ADD16C,0.604000*%
%ADD17C,1.270000*%
%ADD18C,0.975000*%
%ADD19C,0.304800*%
%ADD20C,0.558800*%
%ADD21C,0.508000*%
%ADD22C,0.203200*%
%ADD23C,0.254000*%

G36*
X460777Y23316D02*
X460777Y23316D01*
X460853Y23315D01*
X460950Y23336D01*
X461048Y23347D01*
X461119Y23373D01*
X461193Y23389D01*
X461283Y23431D01*
X461376Y23465D01*
X461440Y23506D01*
X461508Y23538D01*
X461586Y23600D01*
X461669Y23654D01*
X461721Y23708D01*
X461781Y23755D01*
X461842Y23833D01*
X461911Y23904D01*
X461950Y23969D01*
X461997Y24029D01*
X462039Y24118D01*
X462090Y24203D01*
X462113Y24275D01*
X462145Y24344D01*
X462166Y24441D01*
X462196Y24535D01*
X462202Y24611D01*
X462218Y24685D01*
X462216Y24784D01*
X462224Y24883D01*
X462213Y24957D01*
X462211Y25033D01*
X462187Y25129D01*
X462172Y25227D01*
X462144Y25298D01*
X462126Y25371D01*
X462061Y25508D01*
X462044Y25551D01*
X462033Y25566D01*
X462021Y25592D01*
X460748Y27796D01*
X458897Y34704D01*
X458897Y41856D01*
X460748Y48764D01*
X464324Y54957D01*
X469381Y60014D01*
X475574Y63590D01*
X482482Y65441D01*
X489634Y65441D01*
X496542Y63590D01*
X502735Y60014D01*
X507792Y54957D01*
X511439Y48641D01*
X511484Y48580D01*
X511521Y48514D01*
X511587Y48440D01*
X511646Y48361D01*
X511704Y48312D01*
X511755Y48256D01*
X511837Y48199D01*
X511912Y48135D01*
X511980Y48101D01*
X512042Y48058D01*
X512134Y48021D01*
X512222Y47976D01*
X512296Y47958D01*
X512366Y47930D01*
X512464Y47916D01*
X512561Y47892D01*
X512636Y47891D01*
X512711Y47880D01*
X512810Y47888D01*
X512909Y47886D01*
X512983Y47903D01*
X513059Y47909D01*
X513153Y47939D01*
X513250Y47960D01*
X513318Y47993D01*
X513390Y48016D01*
X513475Y48067D01*
X513564Y48110D01*
X513624Y48157D01*
X513689Y48196D01*
X513760Y48265D01*
X513837Y48327D01*
X513884Y48386D01*
X513938Y48439D01*
X514024Y48564D01*
X514053Y48600D01*
X514061Y48617D01*
X514077Y48641D01*
X517724Y54957D01*
X522781Y60014D01*
X528974Y63590D01*
X535882Y65441D01*
X543034Y65441D01*
X549942Y63590D01*
X556135Y60014D01*
X558392Y57757D01*
X558413Y57741D01*
X558429Y57721D01*
X558549Y57633D01*
X558665Y57541D01*
X558689Y57529D01*
X558710Y57514D01*
X558846Y57455D01*
X558980Y57392D01*
X559006Y57386D01*
X559030Y57376D01*
X559176Y57349D01*
X559321Y57318D01*
X559347Y57319D01*
X559373Y57314D01*
X559521Y57322D01*
X559669Y57324D01*
X559695Y57331D01*
X559721Y57332D01*
X559863Y57373D01*
X560007Y57409D01*
X560030Y57421D01*
X560056Y57429D01*
X560185Y57501D01*
X560317Y57569D01*
X560337Y57586D01*
X560360Y57599D01*
X560546Y57757D01*
X562373Y59584D01*
X568566Y63160D01*
X575474Y65011D01*
X582626Y65011D01*
X589534Y63160D01*
X595727Y59584D01*
X600784Y54527D01*
X604360Y48334D01*
X606211Y41426D01*
X606211Y34274D01*
X604360Y27366D01*
X603335Y25592D01*
X603305Y25523D01*
X603266Y25458D01*
X603236Y25363D01*
X603197Y25272D01*
X603183Y25198D01*
X603160Y25126D01*
X603152Y25027D01*
X603135Y24929D01*
X603138Y24854D01*
X603132Y24778D01*
X603147Y24680D01*
X603152Y24581D01*
X603173Y24508D01*
X603184Y24434D01*
X603220Y24341D01*
X603248Y24246D01*
X603285Y24180D01*
X603313Y24110D01*
X603369Y24028D01*
X603417Y23942D01*
X603468Y23886D01*
X603512Y23824D01*
X603585Y23757D01*
X603652Y23684D01*
X603714Y23641D01*
X603770Y23590D01*
X603857Y23542D01*
X603939Y23486D01*
X604009Y23458D01*
X604075Y23422D01*
X604171Y23395D01*
X604263Y23358D01*
X604338Y23347D01*
X604411Y23327D01*
X604561Y23315D01*
X604608Y23308D01*
X604626Y23309D01*
X604655Y23307D01*
X683045Y23307D01*
X683121Y23316D01*
X683196Y23315D01*
X683293Y23336D01*
X683392Y23347D01*
X683463Y23373D01*
X683537Y23389D01*
X683626Y23431D01*
X683720Y23465D01*
X683783Y23506D01*
X683852Y23538D01*
X683929Y23600D01*
X684013Y23654D01*
X684065Y23708D01*
X684124Y23755D01*
X684186Y23833D01*
X684255Y23904D01*
X684294Y23969D01*
X684341Y24029D01*
X684383Y24118D01*
X684434Y24203D01*
X684457Y24275D01*
X684489Y24344D01*
X684510Y24441D01*
X684540Y24535D01*
X684546Y24611D01*
X684562Y24685D01*
X684560Y24784D01*
X684568Y24883D01*
X684557Y24957D01*
X684555Y25033D01*
X684531Y25129D01*
X684516Y25227D01*
X684488Y25298D01*
X684470Y25371D01*
X684405Y25508D01*
X684387Y25551D01*
X684377Y25566D01*
X684365Y25592D01*
X683340Y27366D01*
X681489Y34274D01*
X681489Y41426D01*
X683340Y48334D01*
X686916Y54527D01*
X691973Y59584D01*
X698166Y63160D01*
X705074Y65011D01*
X712226Y65011D01*
X719134Y63160D01*
X725327Y59584D01*
X730384Y54527D01*
X733960Y48334D01*
X735811Y41426D01*
X735811Y34274D01*
X733960Y27366D01*
X732935Y25592D01*
X732905Y25523D01*
X732866Y25458D01*
X732836Y25363D01*
X732797Y25272D01*
X732783Y25198D01*
X732760Y25126D01*
X732752Y25027D01*
X732735Y24929D01*
X732738Y24854D01*
X732732Y24778D01*
X732747Y24680D01*
X732752Y24581D01*
X732773Y24508D01*
X732784Y24434D01*
X732820Y24341D01*
X732848Y24246D01*
X732885Y24180D01*
X732913Y24110D01*
X732969Y24028D01*
X733017Y23942D01*
X733068Y23886D01*
X733112Y23824D01*
X733185Y23757D01*
X733252Y23684D01*
X733314Y23641D01*
X733370Y23590D01*
X733457Y23542D01*
X733539Y23486D01*
X733609Y23458D01*
X733675Y23422D01*
X733771Y23395D01*
X733863Y23358D01*
X733938Y23347D01*
X734011Y23327D01*
X734161Y23315D01*
X734208Y23308D01*
X734226Y23309D01*
X734255Y23307D01*
X762658Y23307D01*
X762824Y23326D01*
X762989Y23344D01*
X762997Y23346D01*
X763005Y23347D01*
X763163Y23404D01*
X763319Y23458D01*
X763325Y23462D01*
X763333Y23465D01*
X763473Y23555D01*
X763613Y23644D01*
X763619Y23649D01*
X763626Y23654D01*
X763741Y23773D01*
X763858Y23892D01*
X763862Y23899D01*
X763868Y23904D01*
X763953Y24046D01*
X764040Y24189D01*
X764043Y24197D01*
X764047Y24203D01*
X764097Y24360D01*
X764150Y24520D01*
X764150Y24528D01*
X764153Y24535D01*
X764166Y24700D01*
X764181Y24867D01*
X764180Y24875D01*
X764181Y24883D01*
X764156Y25048D01*
X764133Y25212D01*
X764130Y25219D01*
X764129Y25227D01*
X764067Y25383D01*
X764008Y25537D01*
X764003Y25544D01*
X764000Y25551D01*
X763905Y25688D01*
X763812Y25826D01*
X763805Y25832D01*
X763801Y25837D01*
X763782Y25855D01*
X763638Y25997D01*
X762121Y27270D01*
X757360Y35515D01*
X755707Y44891D01*
X757360Y54268D01*
X762121Y62513D01*
X769414Y68633D01*
X778361Y71889D01*
X787882Y71889D01*
X796829Y68633D01*
X804122Y62513D01*
X808882Y54268D01*
X810536Y44891D01*
X808882Y35515D01*
X806341Y31113D01*
X806331Y31089D01*
X806316Y31068D01*
X806261Y30930D01*
X806202Y30793D01*
X806197Y30768D01*
X806188Y30744D01*
X806166Y30597D01*
X806140Y30450D01*
X806141Y30425D01*
X806137Y30399D01*
X806150Y30251D01*
X806157Y30102D01*
X806164Y30077D01*
X806166Y30052D01*
X806212Y29910D01*
X806253Y29767D01*
X806265Y29745D01*
X806273Y29720D01*
X806350Y29593D01*
X806423Y29463D01*
X806440Y29444D01*
X806453Y29422D01*
X806556Y29315D01*
X806657Y29205D01*
X806678Y29190D01*
X806696Y29172D01*
X806821Y29091D01*
X806944Y29007D01*
X806968Y28997D01*
X806989Y28984D01*
X807130Y28933D01*
X807268Y28879D01*
X807293Y28875D01*
X807318Y28867D01*
X807466Y28850D01*
X807613Y28829D01*
X807638Y28831D01*
X807664Y28828D01*
X807812Y28845D01*
X807960Y28858D01*
X807984Y28866D01*
X808010Y28869D01*
X808243Y28944D01*
X815813Y32080D01*
X815837Y32093D01*
X815863Y32101D01*
X816076Y32220D01*
X828026Y40205D01*
X828046Y40222D01*
X828070Y40236D01*
X828257Y40394D01*
X838419Y50556D01*
X838436Y50578D01*
X838456Y50595D01*
X838608Y50787D01*
X846592Y62737D01*
X846605Y62761D01*
X846622Y62782D01*
X846733Y63000D01*
X852233Y76277D01*
X852240Y76304D01*
X852253Y76328D01*
X852320Y76563D01*
X852575Y77849D01*
X852878Y79372D01*
X853181Y80895D01*
X853181Y80896D01*
X853787Y83942D01*
X854090Y85465D01*
X854393Y86988D01*
X854393Y86989D01*
X854696Y88511D01*
X854696Y88512D01*
X854999Y90035D01*
X855123Y90658D01*
X855126Y90690D01*
X855151Y90881D01*
X855504Y98067D01*
X855502Y98095D01*
X855506Y98141D01*
X855506Y766142D01*
X855503Y766165D01*
X855504Y766201D01*
X855149Y775248D01*
X855141Y775297D01*
X855131Y775427D01*
X852301Y793298D01*
X852298Y793310D01*
X852245Y793531D01*
X846654Y810740D01*
X846649Y810750D01*
X846562Y810961D01*
X838347Y827083D01*
X838341Y827093D01*
X838223Y827286D01*
X838158Y827376D01*
X838099Y827440D01*
X838047Y827511D01*
X837981Y827568D01*
X837922Y827633D01*
X837850Y827682D01*
X837784Y827739D01*
X837706Y827780D01*
X837634Y827829D01*
X837553Y827861D01*
X837475Y827901D01*
X837391Y827923D01*
X837309Y827955D01*
X837222Y827967D01*
X837138Y827989D01*
X837051Y827991D01*
X836964Y828004D01*
X836877Y827996D01*
X836790Y827998D01*
X836704Y827980D01*
X836617Y827973D01*
X836534Y827945D01*
X836448Y827928D01*
X836369Y827891D01*
X836286Y827864D01*
X836211Y827818D01*
X836132Y827781D01*
X836063Y827728D01*
X835988Y827682D01*
X835926Y827621D01*
X835857Y827567D01*
X835802Y827499D01*
X835740Y827438D01*
X835693Y827364D01*
X835638Y827296D01*
X835600Y827217D01*
X835553Y827143D01*
X835525Y827061D01*
X835487Y826982D01*
X835455Y826862D01*
X835439Y826814D01*
X835436Y826787D01*
X835425Y826745D01*
X834282Y820265D01*
X829522Y812020D01*
X822229Y805900D01*
X813282Y802644D01*
X803761Y802644D01*
X794814Y805900D01*
X787521Y812020D01*
X787449Y812144D01*
X787375Y812244D01*
X787307Y812350D01*
X787271Y812384D01*
X787242Y812424D01*
X787146Y812505D01*
X787056Y812592D01*
X787014Y812617D01*
X786976Y812649D01*
X786864Y812707D01*
X786757Y812771D01*
X786710Y812786D01*
X786666Y812808D01*
X786544Y812839D01*
X786425Y812877D01*
X786376Y812881D01*
X786328Y812893D01*
X786202Y812895D01*
X786078Y812905D01*
X786029Y812898D01*
X785979Y812898D01*
X785857Y812872D01*
X785733Y812853D01*
X785687Y812835D01*
X785639Y812824D01*
X785526Y812771D01*
X785409Y812724D01*
X785369Y812696D01*
X785324Y812675D01*
X785226Y812597D01*
X785123Y812526D01*
X785090Y812489D01*
X785051Y812458D01*
X784973Y812360D01*
X784890Y812267D01*
X784866Y812223D01*
X784835Y812184D01*
X784782Y812071D01*
X784721Y811962D01*
X784708Y811914D01*
X784687Y811869D01*
X784660Y811746D01*
X784626Y811626D01*
X784621Y811564D01*
X784614Y811528D01*
X784615Y811480D01*
X784607Y811383D01*
X784607Y629038D01*
X784621Y628912D01*
X784628Y628786D01*
X784641Y628740D01*
X784647Y628692D01*
X784689Y628573D01*
X784724Y628451D01*
X784748Y628409D01*
X784764Y628363D01*
X784833Y628257D01*
X784894Y628147D01*
X784934Y628101D01*
X784953Y628071D01*
X784988Y628037D01*
X785053Y627961D01*
X786385Y626629D01*
X786385Y623051D01*
X783855Y620521D01*
X783064Y620521D01*
X782964Y620510D01*
X782864Y620508D01*
X782792Y620490D01*
X782718Y620481D01*
X782623Y620448D01*
X782526Y620423D01*
X782460Y620389D01*
X782390Y620364D01*
X782305Y620309D01*
X782216Y620263D01*
X782159Y620215D01*
X782097Y620175D01*
X782027Y620103D01*
X781950Y620038D01*
X781906Y619978D01*
X781855Y619924D01*
X781803Y619838D01*
X781743Y619757D01*
X781714Y619689D01*
X781676Y619625D01*
X781645Y619529D01*
X781605Y619437D01*
X781592Y619364D01*
X781569Y619293D01*
X781561Y619193D01*
X781544Y619094D01*
X781547Y619020D01*
X781542Y618946D01*
X781556Y618846D01*
X781562Y618746D01*
X781582Y618675D01*
X781593Y618601D01*
X781630Y618508D01*
X781658Y618411D01*
X781694Y618346D01*
X781722Y618277D01*
X781779Y618195D01*
X781828Y618107D01*
X781893Y618031D01*
X781921Y617991D01*
X781947Y617967D01*
X781987Y617921D01*
X783845Y616063D01*
X783845Y598812D01*
X783859Y598686D01*
X783866Y598560D01*
X783879Y598514D01*
X783885Y598466D01*
X783927Y598347D01*
X783962Y598225D01*
X783986Y598183D01*
X784002Y598138D01*
X784071Y598031D01*
X784132Y597921D01*
X784172Y597875D01*
X784191Y597845D01*
X784226Y597811D01*
X784291Y597735D01*
X785623Y596403D01*
X785623Y592825D01*
X783093Y590295D01*
X779515Y590295D01*
X778444Y591366D01*
X778424Y591383D01*
X778407Y591403D01*
X778287Y591491D01*
X778171Y591583D01*
X778147Y591594D01*
X778126Y591610D01*
X777990Y591668D01*
X777856Y591732D01*
X777830Y591737D01*
X777806Y591748D01*
X777660Y591774D01*
X777515Y591805D01*
X777489Y591805D01*
X777463Y591809D01*
X777315Y591802D01*
X777167Y591799D01*
X777141Y591793D01*
X777115Y591791D01*
X776973Y591750D01*
X776829Y591714D01*
X776806Y591702D01*
X776780Y591695D01*
X776651Y591623D01*
X776519Y591555D01*
X776499Y591538D01*
X776476Y591525D01*
X776290Y591366D01*
X775219Y590295D01*
X772753Y590295D01*
X772653Y590284D01*
X772553Y590282D01*
X772481Y590264D01*
X772407Y590255D01*
X772312Y590222D01*
X772215Y590197D01*
X772149Y590163D01*
X772079Y590138D01*
X771994Y590083D01*
X771905Y590037D01*
X771848Y589989D01*
X771786Y589949D01*
X771716Y589877D01*
X771640Y589812D01*
X771595Y589752D01*
X771544Y589698D01*
X771492Y589612D01*
X771432Y589531D01*
X771403Y589463D01*
X771365Y589399D01*
X771334Y589303D01*
X771294Y589211D01*
X771281Y589138D01*
X771259Y589067D01*
X771251Y588967D01*
X771233Y588868D01*
X771237Y588794D01*
X771231Y588720D01*
X771246Y588620D01*
X771251Y588520D01*
X771271Y588449D01*
X771282Y588375D01*
X771319Y588282D01*
X771347Y588185D01*
X771384Y588120D01*
X771411Y588051D01*
X771468Y587969D01*
X771517Y587881D01*
X771583Y587805D01*
X771610Y587765D01*
X771636Y587741D01*
X771676Y587695D01*
X778608Y580763D01*
X780543Y578828D01*
X780543Y578746D01*
X780557Y578620D01*
X780564Y578494D01*
X780577Y578448D01*
X780583Y578400D01*
X780625Y578281D01*
X780660Y578159D01*
X780684Y578117D01*
X780700Y578072D01*
X780769Y577965D01*
X780830Y577855D01*
X780870Y577809D01*
X780889Y577779D01*
X780924Y577745D01*
X780989Y577669D01*
X782321Y576337D01*
X782321Y572759D01*
X779791Y570229D01*
X776213Y570229D01*
X775650Y570792D01*
X775629Y570809D01*
X775613Y570829D01*
X775493Y570917D01*
X775377Y571009D01*
X775353Y571020D01*
X775332Y571036D01*
X775196Y571094D01*
X775062Y571158D01*
X775036Y571163D01*
X775012Y571174D01*
X774866Y571200D01*
X774721Y571231D01*
X774695Y571231D01*
X774669Y571235D01*
X774521Y571228D01*
X774373Y571225D01*
X774347Y571219D01*
X774321Y571217D01*
X774179Y571176D01*
X774035Y571140D01*
X774012Y571128D01*
X773986Y571121D01*
X773857Y571049D01*
X773725Y570981D01*
X773705Y570964D01*
X773682Y570951D01*
X773496Y570792D01*
X771917Y569213D01*
X768339Y569213D01*
X767014Y570538D01*
X766994Y570555D01*
X766977Y570575D01*
X766857Y570663D01*
X766741Y570755D01*
X766717Y570766D01*
X766696Y570782D01*
X766560Y570840D01*
X766426Y570904D01*
X766400Y570909D01*
X766376Y570920D01*
X766230Y570946D01*
X766085Y570977D01*
X766059Y570977D01*
X766033Y570981D01*
X765885Y570974D01*
X765737Y570971D01*
X765711Y570965D01*
X765685Y570963D01*
X765543Y570922D01*
X765399Y570886D01*
X765376Y570874D01*
X765350Y570867D01*
X765221Y570794D01*
X765089Y570727D01*
X765069Y570710D01*
X765046Y570697D01*
X764860Y570538D01*
X764335Y570014D01*
X760757Y570014D01*
X758228Y572543D01*
X758228Y574739D01*
X758225Y574759D01*
X758227Y574776D01*
X758226Y574781D01*
X758227Y574791D01*
X758205Y574938D01*
X758188Y575085D01*
X758179Y575110D01*
X758175Y575136D01*
X758120Y575273D01*
X758070Y575413D01*
X758056Y575435D01*
X758046Y575460D01*
X757962Y575581D01*
X757881Y575706D01*
X757862Y575724D01*
X757847Y575746D01*
X757737Y575845D01*
X757631Y575948D01*
X757608Y575962D01*
X757589Y575979D01*
X757459Y576051D01*
X757331Y576127D01*
X757306Y576135D01*
X757283Y576148D01*
X757141Y576188D01*
X756999Y576233D01*
X756973Y576235D01*
X756948Y576242D01*
X756704Y576262D01*
X753290Y576262D01*
X751958Y577594D01*
X751859Y577673D01*
X751765Y577757D01*
X751723Y577781D01*
X751685Y577811D01*
X751571Y577864D01*
X751460Y577926D01*
X751414Y577939D01*
X751370Y577959D01*
X751247Y577986D01*
X751125Y578020D01*
X751064Y578025D01*
X751029Y578033D01*
X750981Y578032D01*
X750881Y578040D01*
X745510Y578040D01*
X739965Y583586D01*
X739965Y587787D01*
X739951Y587912D01*
X739944Y588039D01*
X739931Y588085D01*
X739925Y588133D01*
X739883Y588252D01*
X739848Y588374D01*
X739824Y588416D01*
X739808Y588461D01*
X739739Y588567D01*
X739677Y588678D01*
X739638Y588724D01*
X739619Y588754D01*
X739584Y588788D01*
X739519Y588864D01*
X708913Y619470D01*
X708913Y649224D01*
X708910Y649250D01*
X708912Y649276D01*
X708890Y649423D01*
X708873Y649570D01*
X708865Y649595D01*
X708861Y649621D01*
X708806Y649759D01*
X708756Y649898D01*
X708742Y649920D01*
X708732Y649945D01*
X708647Y650066D01*
X708567Y650191D01*
X708548Y650209D01*
X708533Y650231D01*
X708423Y650330D01*
X708316Y650433D01*
X708294Y650447D01*
X708274Y650464D01*
X708144Y650536D01*
X708017Y650612D01*
X707992Y650620D01*
X707969Y650633D01*
X707826Y650673D01*
X707685Y650718D01*
X707659Y650720D01*
X707634Y650728D01*
X707390Y650747D01*
X703823Y650747D01*
X702879Y651691D01*
X702859Y651708D01*
X702842Y651728D01*
X702722Y651816D01*
X702606Y651908D01*
X702582Y651919D01*
X702561Y651935D01*
X702425Y651993D01*
X702291Y652057D01*
X702265Y652062D01*
X702241Y652073D01*
X702095Y652099D01*
X701950Y652130D01*
X701924Y652130D01*
X701898Y652134D01*
X701750Y652127D01*
X701602Y652124D01*
X701576Y652118D01*
X701550Y652116D01*
X701408Y652075D01*
X701264Y652039D01*
X701241Y652027D01*
X701215Y652020D01*
X701086Y651947D01*
X700954Y651880D01*
X700934Y651863D01*
X700911Y651850D01*
X700725Y651691D01*
X699781Y650747D01*
X696203Y650747D01*
X695132Y651818D01*
X695112Y651835D01*
X695095Y651855D01*
X694975Y651943D01*
X694859Y652035D01*
X694835Y652046D01*
X694814Y652062D01*
X694678Y652120D01*
X694544Y652184D01*
X694518Y652189D01*
X694494Y652200D01*
X694348Y652226D01*
X694203Y652257D01*
X694177Y652257D01*
X694151Y652261D01*
X694003Y652254D01*
X693855Y652251D01*
X693829Y652245D01*
X693803Y652243D01*
X693661Y652202D01*
X693517Y652166D01*
X693494Y652154D01*
X693468Y652147D01*
X693339Y652074D01*
X693207Y652007D01*
X693187Y651990D01*
X693164Y651977D01*
X692978Y651818D01*
X691653Y650493D01*
X688075Y650493D01*
X685545Y653023D01*
X685545Y656601D01*
X686877Y657933D01*
X686956Y658032D01*
X687040Y658126D01*
X687064Y658168D01*
X687094Y658206D01*
X687148Y658320D01*
X687209Y658431D01*
X687222Y658477D01*
X687243Y658521D01*
X687269Y658644D01*
X687304Y658766D01*
X687309Y658827D01*
X687316Y658862D01*
X687315Y658910D01*
X687323Y659010D01*
X687323Y689197D01*
X687309Y689322D01*
X687302Y689448D01*
X687289Y689495D01*
X687283Y689543D01*
X687241Y689662D01*
X687206Y689783D01*
X687182Y689825D01*
X687166Y689871D01*
X687097Y689977D01*
X687036Y690087D01*
X686996Y690134D01*
X686977Y690164D01*
X686942Y690197D01*
X686877Y690274D01*
X549558Y827593D01*
X549459Y827672D01*
X549365Y827756D01*
X549323Y827780D01*
X549285Y827810D01*
X549171Y827864D01*
X549060Y827925D01*
X549013Y827938D01*
X548970Y827959D01*
X548846Y827985D01*
X548724Y828020D01*
X548664Y828025D01*
X548629Y828032D01*
X548581Y828031D01*
X548481Y828039D01*
X520664Y828039D01*
X507745Y840958D01*
X507745Y842455D01*
X507734Y842555D01*
X507732Y842655D01*
X507714Y842727D01*
X507705Y842801D01*
X507672Y842896D01*
X507647Y842993D01*
X507613Y843059D01*
X507588Y843129D01*
X507533Y843214D01*
X507487Y843303D01*
X507439Y843360D01*
X507399Y843422D01*
X507327Y843492D01*
X507262Y843568D01*
X507202Y843613D01*
X507148Y843664D01*
X507062Y843716D01*
X506981Y843775D01*
X506913Y843805D01*
X506849Y843843D01*
X506753Y843874D01*
X506661Y843913D01*
X506588Y843927D01*
X506517Y843949D01*
X506417Y843957D01*
X506318Y843975D01*
X506244Y843971D01*
X506170Y843977D01*
X506070Y843962D01*
X505970Y843957D01*
X505899Y843937D01*
X505825Y843926D01*
X505732Y843889D01*
X505635Y843861D01*
X505570Y843824D01*
X505501Y843797D01*
X505419Y843740D01*
X505331Y843691D01*
X505255Y843625D01*
X505215Y843598D01*
X505191Y843571D01*
X505145Y843532D01*
X502622Y841009D01*
X499305Y839635D01*
X495715Y839635D01*
X492398Y841009D01*
X489859Y843548D01*
X488485Y846865D01*
X488485Y850455D01*
X489859Y853772D01*
X492398Y856311D01*
X495715Y857685D01*
X499305Y857685D01*
X502622Y856311D01*
X505145Y853788D01*
X505223Y853726D01*
X505296Y853656D01*
X505360Y853618D01*
X505418Y853571D01*
X505509Y853528D01*
X505595Y853477D01*
X505666Y853454D01*
X505733Y853422D01*
X505831Y853401D01*
X505927Y853371D01*
X506001Y853365D01*
X506074Y853349D01*
X506174Y853351D01*
X506274Y853343D01*
X506348Y853354D01*
X506422Y853355D01*
X506519Y853379D01*
X506619Y853394D01*
X506688Y853422D01*
X506760Y853440D01*
X506849Y853486D01*
X506943Y853523D01*
X507004Y853566D01*
X507070Y853600D01*
X507146Y853665D01*
X507229Y853722D01*
X507279Y853777D01*
X507335Y853825D01*
X507395Y853906D01*
X507462Y853981D01*
X507498Y854046D01*
X507543Y854106D01*
X507582Y854198D01*
X507631Y854286D01*
X507651Y854357D01*
X507681Y854426D01*
X507698Y854525D01*
X507726Y854621D01*
X507734Y854721D01*
X507742Y854769D01*
X507740Y854805D01*
X507745Y854865D01*
X507745Y862488D01*
X514231Y868974D01*
X514278Y869034D01*
X514333Y869087D01*
X514386Y869170D01*
X514447Y869247D01*
X514480Y869316D01*
X514521Y869380D01*
X514554Y869473D01*
X514596Y869562D01*
X514612Y869637D01*
X514638Y869709D01*
X514649Y869807D01*
X514670Y869903D01*
X514668Y869979D01*
X514677Y870055D01*
X514665Y870153D01*
X514664Y870251D01*
X514645Y870325D01*
X514636Y870401D01*
X514590Y870543D01*
X514579Y870589D01*
X514570Y870606D01*
X514561Y870634D01*
X513885Y872265D01*
X513885Y875855D01*
X515259Y879172D01*
X516462Y880375D01*
X516525Y880454D01*
X516595Y880526D01*
X516633Y880590D01*
X516679Y880648D01*
X516722Y880739D01*
X516774Y880825D01*
X516796Y880896D01*
X516828Y880963D01*
X516849Y881062D01*
X516880Y881157D01*
X516886Y881231D01*
X516901Y881304D01*
X516900Y881404D01*
X516908Y881505D01*
X516897Y881578D01*
X516895Y881653D01*
X516871Y881750D01*
X516856Y881849D01*
X516829Y881918D01*
X516810Y881991D01*
X516764Y882080D01*
X516727Y882173D01*
X516685Y882234D01*
X516651Y882300D01*
X516586Y882377D01*
X516528Y882459D01*
X516473Y882509D01*
X516425Y882566D01*
X516344Y882625D01*
X516270Y882693D01*
X516204Y882729D01*
X516145Y882773D01*
X516053Y882813D01*
X515965Y882861D01*
X515893Y882882D01*
X515825Y882911D01*
X515726Y882929D01*
X515629Y882956D01*
X515529Y882964D01*
X515482Y882973D01*
X515446Y882971D01*
X515385Y882976D01*
X505035Y882976D01*
X504935Y882964D01*
X504834Y882962D01*
X504762Y882944D01*
X504688Y882936D01*
X504594Y882902D01*
X504496Y882877D01*
X504430Y882843D01*
X504360Y882818D01*
X504276Y882764D01*
X504187Y882718D01*
X504130Y882670D01*
X504068Y882629D01*
X503998Y882557D01*
X503921Y882492D01*
X503877Y882432D01*
X503825Y882379D01*
X503774Y882292D01*
X503714Y882212D01*
X503685Y882143D01*
X503646Y882080D01*
X503616Y881984D01*
X503576Y881892D01*
X503563Y881818D01*
X503540Y881748D01*
X503532Y881648D01*
X503514Y881549D01*
X503518Y881474D01*
X503512Y881400D01*
X503527Y881301D01*
X503532Y881201D01*
X503553Y881129D01*
X503564Y881056D01*
X503601Y880962D01*
X503629Y880866D01*
X503665Y880801D01*
X503693Y880732D01*
X503750Y880649D01*
X503799Y880562D01*
X503864Y880485D01*
X503892Y880446D01*
X503918Y880422D01*
X503958Y880375D01*
X505161Y879172D01*
X506535Y875855D01*
X506535Y872265D01*
X505161Y868948D01*
X502622Y866409D01*
X499305Y865035D01*
X495715Y865035D01*
X492398Y866409D01*
X489859Y868948D01*
X488485Y872265D01*
X488485Y875855D01*
X489859Y879172D01*
X491062Y880375D01*
X491125Y880454D01*
X491195Y880526D01*
X491233Y880590D01*
X491279Y880648D01*
X491322Y880739D01*
X491374Y880825D01*
X491396Y880896D01*
X491428Y880963D01*
X491449Y881062D01*
X491480Y881157D01*
X491486Y881231D01*
X491501Y881304D01*
X491500Y881404D01*
X491508Y881505D01*
X491497Y881578D01*
X491495Y881653D01*
X491471Y881750D01*
X491456Y881849D01*
X491429Y881918D01*
X491410Y881991D01*
X491364Y882080D01*
X491327Y882173D01*
X491285Y882234D01*
X491251Y882300D01*
X491186Y882377D01*
X491128Y882459D01*
X491073Y882509D01*
X491025Y882566D01*
X490944Y882625D01*
X490870Y882693D01*
X490804Y882729D01*
X490745Y882773D01*
X490653Y882813D01*
X490565Y882861D01*
X490493Y882882D01*
X490425Y882911D01*
X490326Y882929D01*
X490229Y882956D01*
X490129Y882964D01*
X490082Y882973D01*
X490046Y882971D01*
X489985Y882976D01*
X479635Y882976D01*
X479535Y882964D01*
X479434Y882962D01*
X479362Y882944D01*
X479288Y882936D01*
X479194Y882902D01*
X479096Y882877D01*
X479030Y882843D01*
X478960Y882818D01*
X478876Y882764D01*
X478787Y882718D01*
X478730Y882670D01*
X478668Y882629D01*
X478598Y882557D01*
X478521Y882492D01*
X478477Y882432D01*
X478425Y882379D01*
X478374Y882292D01*
X478314Y882212D01*
X478285Y882143D01*
X478246Y882080D01*
X478216Y881984D01*
X478176Y881892D01*
X478163Y881818D01*
X478140Y881748D01*
X478132Y881648D01*
X478114Y881549D01*
X478118Y881474D01*
X478112Y881400D01*
X478127Y881301D01*
X478132Y881201D01*
X478153Y881129D01*
X478164Y881056D01*
X478201Y880962D01*
X478229Y880866D01*
X478265Y880801D01*
X478293Y880732D01*
X478350Y880649D01*
X478399Y880562D01*
X478464Y880485D01*
X478492Y880446D01*
X478518Y880422D01*
X478558Y880375D01*
X479761Y879172D01*
X481135Y875855D01*
X481135Y872265D01*
X479761Y868948D01*
X477222Y866409D01*
X473905Y865035D01*
X470315Y865035D01*
X466998Y866409D01*
X464459Y868948D01*
X463085Y872265D01*
X463085Y875855D01*
X464459Y879172D01*
X465662Y880375D01*
X465725Y880454D01*
X465795Y880526D01*
X465833Y880590D01*
X465879Y880648D01*
X465922Y880739D01*
X465974Y880825D01*
X465996Y880896D01*
X466028Y880963D01*
X466049Y881062D01*
X466080Y881157D01*
X466086Y881231D01*
X466101Y881304D01*
X466100Y881404D01*
X466108Y881505D01*
X466097Y881578D01*
X466095Y881653D01*
X466071Y881750D01*
X466056Y881849D01*
X466029Y881918D01*
X466010Y881991D01*
X465964Y882080D01*
X465927Y882173D01*
X465885Y882234D01*
X465851Y882300D01*
X465786Y882377D01*
X465728Y882459D01*
X465673Y882509D01*
X465625Y882566D01*
X465544Y882625D01*
X465470Y882693D01*
X465404Y882729D01*
X465345Y882773D01*
X465253Y882813D01*
X465165Y882861D01*
X465093Y882882D01*
X465025Y882911D01*
X464926Y882929D01*
X464829Y882956D01*
X464729Y882964D01*
X464682Y882973D01*
X464646Y882971D01*
X464585Y882976D01*
X454235Y882976D01*
X454135Y882964D01*
X454034Y882962D01*
X453962Y882944D01*
X453888Y882936D01*
X453794Y882902D01*
X453696Y882877D01*
X453630Y882843D01*
X453560Y882818D01*
X453476Y882764D01*
X453387Y882718D01*
X453330Y882670D01*
X453268Y882629D01*
X453198Y882557D01*
X453121Y882492D01*
X453077Y882432D01*
X453025Y882379D01*
X452974Y882292D01*
X452914Y882212D01*
X452885Y882143D01*
X452846Y882080D01*
X452816Y881984D01*
X452776Y881892D01*
X452763Y881818D01*
X452740Y881748D01*
X452732Y881648D01*
X452714Y881549D01*
X452718Y881474D01*
X452712Y881400D01*
X452727Y881301D01*
X452732Y881201D01*
X452753Y881129D01*
X452764Y881056D01*
X452801Y880962D01*
X452829Y880866D01*
X452865Y880801D01*
X452893Y880732D01*
X452950Y880649D01*
X452999Y880562D01*
X453064Y880485D01*
X453092Y880446D01*
X453118Y880422D01*
X453158Y880375D01*
X454361Y879172D01*
X455735Y875855D01*
X455735Y872265D01*
X454361Y868948D01*
X451822Y866409D01*
X448505Y865035D01*
X444915Y865035D01*
X441598Y866409D01*
X439059Y868948D01*
X437685Y872265D01*
X437685Y875855D01*
X439059Y879172D01*
X440262Y880375D01*
X440325Y880454D01*
X440395Y880526D01*
X440433Y880590D01*
X440479Y880648D01*
X440522Y880739D01*
X440574Y880825D01*
X440596Y880896D01*
X440628Y880963D01*
X440649Y881062D01*
X440680Y881157D01*
X440686Y881231D01*
X440701Y881304D01*
X440700Y881404D01*
X440708Y881505D01*
X440697Y881578D01*
X440695Y881653D01*
X440671Y881750D01*
X440656Y881849D01*
X440629Y881918D01*
X440610Y881991D01*
X440564Y882080D01*
X440527Y882173D01*
X440485Y882234D01*
X440451Y882300D01*
X440386Y882377D01*
X440328Y882459D01*
X440273Y882509D01*
X440225Y882566D01*
X440144Y882625D01*
X440070Y882693D01*
X440004Y882729D01*
X439945Y882773D01*
X439853Y882813D01*
X439765Y882861D01*
X439693Y882882D01*
X439625Y882911D01*
X439526Y882929D01*
X439429Y882956D01*
X439329Y882964D01*
X439282Y882973D01*
X439246Y882971D01*
X439185Y882976D01*
X428835Y882976D01*
X428735Y882964D01*
X428634Y882962D01*
X428562Y882944D01*
X428488Y882936D01*
X428394Y882902D01*
X428296Y882877D01*
X428230Y882843D01*
X428160Y882818D01*
X428076Y882764D01*
X427987Y882718D01*
X427930Y882670D01*
X427868Y882629D01*
X427798Y882557D01*
X427721Y882492D01*
X427677Y882432D01*
X427625Y882379D01*
X427574Y882292D01*
X427514Y882212D01*
X427485Y882143D01*
X427446Y882080D01*
X427416Y881984D01*
X427376Y881892D01*
X427363Y881818D01*
X427340Y881748D01*
X427332Y881648D01*
X427314Y881549D01*
X427318Y881474D01*
X427312Y881400D01*
X427327Y881301D01*
X427332Y881201D01*
X427353Y881129D01*
X427364Y881056D01*
X427401Y880962D01*
X427429Y880866D01*
X427465Y880801D01*
X427493Y880732D01*
X427550Y880649D01*
X427599Y880562D01*
X427664Y880485D01*
X427692Y880446D01*
X427718Y880422D01*
X427758Y880375D01*
X428961Y879172D01*
X430335Y875855D01*
X430335Y872265D01*
X428961Y868948D01*
X426422Y866409D01*
X423105Y865035D01*
X419515Y865035D01*
X416198Y866409D01*
X413659Y868948D01*
X412285Y872265D01*
X412285Y875855D01*
X413659Y879172D01*
X414862Y880375D01*
X414925Y880454D01*
X414995Y880526D01*
X415033Y880590D01*
X415079Y880648D01*
X415122Y880739D01*
X415174Y880825D01*
X415196Y880896D01*
X415228Y880963D01*
X415249Y881062D01*
X415280Y881157D01*
X415286Y881231D01*
X415301Y881304D01*
X415300Y881404D01*
X415308Y881505D01*
X415297Y881578D01*
X415295Y881653D01*
X415271Y881750D01*
X415256Y881849D01*
X415229Y881918D01*
X415210Y881991D01*
X415164Y882080D01*
X415127Y882173D01*
X415085Y882234D01*
X415051Y882300D01*
X414986Y882377D01*
X414928Y882459D01*
X414873Y882509D01*
X414825Y882566D01*
X414744Y882625D01*
X414670Y882693D01*
X414604Y882729D01*
X414545Y882773D01*
X414453Y882813D01*
X414365Y882861D01*
X414293Y882882D01*
X414225Y882911D01*
X414126Y882929D01*
X414029Y882956D01*
X413929Y882964D01*
X413882Y882973D01*
X413846Y882971D01*
X413785Y882976D01*
X403435Y882976D01*
X403335Y882964D01*
X403234Y882962D01*
X403162Y882944D01*
X403088Y882936D01*
X402994Y882902D01*
X402896Y882877D01*
X402830Y882843D01*
X402760Y882818D01*
X402676Y882764D01*
X402587Y882718D01*
X402530Y882670D01*
X402468Y882629D01*
X402398Y882557D01*
X402321Y882492D01*
X402277Y882432D01*
X402225Y882379D01*
X402174Y882292D01*
X402114Y882212D01*
X402085Y882143D01*
X402046Y882080D01*
X402016Y881984D01*
X401976Y881892D01*
X401963Y881818D01*
X401940Y881748D01*
X401932Y881648D01*
X401914Y881549D01*
X401918Y881474D01*
X401912Y881400D01*
X401927Y881301D01*
X401932Y881201D01*
X401953Y881129D01*
X401964Y881056D01*
X402001Y880962D01*
X402029Y880866D01*
X402065Y880801D01*
X402093Y880732D01*
X402150Y880649D01*
X402199Y880562D01*
X402264Y880485D01*
X402292Y880446D01*
X402318Y880422D01*
X402358Y880375D01*
X403561Y879172D01*
X404935Y875855D01*
X404935Y872265D01*
X403561Y868948D01*
X401022Y866409D01*
X397705Y865035D01*
X394115Y865035D01*
X390798Y866409D01*
X388259Y868948D01*
X386885Y872265D01*
X386885Y875855D01*
X388259Y879172D01*
X389462Y880375D01*
X389525Y880454D01*
X389595Y880526D01*
X389633Y880590D01*
X389679Y880648D01*
X389722Y880739D01*
X389774Y880825D01*
X389796Y880896D01*
X389828Y880963D01*
X389849Y881062D01*
X389880Y881157D01*
X389886Y881231D01*
X389901Y881304D01*
X389900Y881404D01*
X389908Y881505D01*
X389897Y881578D01*
X389895Y881653D01*
X389871Y881750D01*
X389856Y881849D01*
X389829Y881918D01*
X389810Y881991D01*
X389764Y882080D01*
X389727Y882173D01*
X389685Y882234D01*
X389651Y882300D01*
X389586Y882377D01*
X389528Y882459D01*
X389473Y882509D01*
X389425Y882566D01*
X389344Y882625D01*
X389270Y882693D01*
X389204Y882729D01*
X389145Y882773D01*
X389053Y882813D01*
X388965Y882861D01*
X388893Y882882D01*
X388825Y882911D01*
X388726Y882929D01*
X388629Y882956D01*
X388529Y882964D01*
X388482Y882973D01*
X388446Y882971D01*
X388385Y882976D01*
X378035Y882976D01*
X377935Y882964D01*
X377834Y882962D01*
X377762Y882944D01*
X377688Y882936D01*
X377594Y882902D01*
X377496Y882877D01*
X377430Y882843D01*
X377360Y882818D01*
X377276Y882764D01*
X377187Y882718D01*
X377130Y882670D01*
X377068Y882629D01*
X376998Y882557D01*
X376921Y882492D01*
X376877Y882432D01*
X376825Y882379D01*
X376774Y882292D01*
X376714Y882212D01*
X376685Y882143D01*
X376646Y882080D01*
X376616Y881984D01*
X376576Y881892D01*
X376563Y881818D01*
X376540Y881748D01*
X376532Y881648D01*
X376514Y881549D01*
X376518Y881474D01*
X376512Y881400D01*
X376527Y881301D01*
X376532Y881201D01*
X376553Y881129D01*
X376564Y881056D01*
X376601Y880962D01*
X376629Y880866D01*
X376665Y880801D01*
X376693Y880732D01*
X376750Y880649D01*
X376799Y880562D01*
X376864Y880485D01*
X376892Y880446D01*
X376918Y880422D01*
X376958Y880375D01*
X378161Y879172D01*
X379535Y875855D01*
X379535Y872265D01*
X378161Y868948D01*
X375622Y866409D01*
X372305Y865035D01*
X368715Y865035D01*
X365398Y866409D01*
X362859Y868948D01*
X361485Y872265D01*
X361485Y875855D01*
X362859Y879172D01*
X364062Y880375D01*
X364125Y880454D01*
X364195Y880526D01*
X364233Y880590D01*
X364279Y880648D01*
X364322Y880739D01*
X364374Y880825D01*
X364396Y880896D01*
X364428Y880963D01*
X364449Y881062D01*
X364480Y881157D01*
X364486Y881231D01*
X364501Y881304D01*
X364500Y881404D01*
X364508Y881505D01*
X364497Y881578D01*
X364495Y881653D01*
X364471Y881750D01*
X364456Y881849D01*
X364429Y881918D01*
X364410Y881991D01*
X364364Y882080D01*
X364327Y882173D01*
X364285Y882234D01*
X364251Y882300D01*
X364186Y882377D01*
X364128Y882459D01*
X364073Y882509D01*
X364025Y882566D01*
X363944Y882625D01*
X363870Y882693D01*
X363804Y882729D01*
X363745Y882773D01*
X363653Y882813D01*
X363565Y882861D01*
X363493Y882882D01*
X363425Y882911D01*
X363326Y882929D01*
X363229Y882956D01*
X363129Y882964D01*
X363082Y882973D01*
X363046Y882971D01*
X362985Y882976D01*
X352635Y882976D01*
X352535Y882964D01*
X352434Y882962D01*
X352362Y882944D01*
X352288Y882936D01*
X352194Y882902D01*
X352096Y882877D01*
X352030Y882843D01*
X351960Y882818D01*
X351876Y882764D01*
X351787Y882718D01*
X351730Y882670D01*
X351668Y882629D01*
X351598Y882557D01*
X351521Y882492D01*
X351477Y882432D01*
X351425Y882379D01*
X351374Y882292D01*
X351314Y882212D01*
X351285Y882143D01*
X351246Y882080D01*
X351216Y881984D01*
X351176Y881892D01*
X351163Y881818D01*
X351140Y881748D01*
X351132Y881648D01*
X351114Y881549D01*
X351118Y881474D01*
X351112Y881400D01*
X351127Y881301D01*
X351132Y881201D01*
X351153Y881129D01*
X351164Y881056D01*
X351201Y880962D01*
X351229Y880866D01*
X351265Y880801D01*
X351293Y880732D01*
X351350Y880649D01*
X351399Y880562D01*
X351464Y880485D01*
X351492Y880446D01*
X351518Y880422D01*
X351558Y880375D01*
X352761Y879172D01*
X354135Y875855D01*
X354135Y872265D01*
X352761Y868948D01*
X350222Y866409D01*
X346905Y865035D01*
X343315Y865035D01*
X339998Y866409D01*
X337459Y868948D01*
X336085Y872265D01*
X336085Y875855D01*
X337459Y879172D01*
X338662Y880375D01*
X338725Y880454D01*
X338795Y880526D01*
X338833Y880590D01*
X338879Y880648D01*
X338922Y880739D01*
X338974Y880825D01*
X338996Y880896D01*
X339028Y880963D01*
X339049Y881062D01*
X339080Y881157D01*
X339086Y881231D01*
X339101Y881304D01*
X339100Y881404D01*
X339108Y881505D01*
X339097Y881578D01*
X339095Y881653D01*
X339071Y881750D01*
X339056Y881849D01*
X339029Y881918D01*
X339010Y881991D01*
X338964Y882080D01*
X338927Y882173D01*
X338885Y882234D01*
X338851Y882300D01*
X338786Y882377D01*
X338728Y882459D01*
X338673Y882509D01*
X338625Y882566D01*
X338544Y882625D01*
X338470Y882693D01*
X338404Y882729D01*
X338345Y882773D01*
X338253Y882813D01*
X338165Y882861D01*
X338093Y882882D01*
X338025Y882911D01*
X337926Y882929D01*
X337829Y882956D01*
X337729Y882964D01*
X337682Y882973D01*
X337646Y882971D01*
X337585Y882976D01*
X327235Y882976D01*
X327135Y882964D01*
X327034Y882962D01*
X326962Y882944D01*
X326888Y882936D01*
X326794Y882902D01*
X326696Y882877D01*
X326630Y882843D01*
X326560Y882818D01*
X326476Y882764D01*
X326387Y882718D01*
X326330Y882670D01*
X326268Y882629D01*
X326198Y882557D01*
X326121Y882492D01*
X326077Y882432D01*
X326025Y882379D01*
X325974Y882292D01*
X325914Y882212D01*
X325885Y882143D01*
X325846Y882080D01*
X325816Y881984D01*
X325776Y881892D01*
X325763Y881818D01*
X325740Y881748D01*
X325732Y881648D01*
X325714Y881549D01*
X325718Y881474D01*
X325712Y881400D01*
X325727Y881301D01*
X325732Y881201D01*
X325753Y881129D01*
X325764Y881056D01*
X325801Y880962D01*
X325829Y880866D01*
X325865Y880801D01*
X325893Y880732D01*
X325950Y880649D01*
X325999Y880562D01*
X326064Y880485D01*
X326092Y880446D01*
X326118Y880422D01*
X326158Y880375D01*
X327361Y879172D01*
X328735Y875855D01*
X328735Y872265D01*
X327361Y868948D01*
X324822Y866409D01*
X321505Y865035D01*
X317915Y865035D01*
X314598Y866409D01*
X312059Y868948D01*
X310685Y872265D01*
X310685Y875855D01*
X312059Y879172D01*
X313262Y880375D01*
X313325Y880454D01*
X313395Y880526D01*
X313433Y880590D01*
X313479Y880648D01*
X313522Y880739D01*
X313574Y880825D01*
X313596Y880896D01*
X313628Y880963D01*
X313649Y881062D01*
X313680Y881157D01*
X313686Y881231D01*
X313701Y881304D01*
X313700Y881404D01*
X313708Y881505D01*
X313697Y881578D01*
X313695Y881653D01*
X313671Y881750D01*
X313656Y881849D01*
X313629Y881918D01*
X313610Y881991D01*
X313564Y882080D01*
X313527Y882173D01*
X313485Y882234D01*
X313451Y882300D01*
X313386Y882377D01*
X313328Y882459D01*
X313273Y882509D01*
X313225Y882566D01*
X313144Y882625D01*
X313070Y882693D01*
X313004Y882729D01*
X312945Y882773D01*
X312853Y882813D01*
X312765Y882861D01*
X312693Y882882D01*
X312625Y882911D01*
X312526Y882929D01*
X312429Y882956D01*
X312329Y882964D01*
X312282Y882973D01*
X312246Y882971D01*
X312185Y882976D01*
X301835Y882976D01*
X301735Y882964D01*
X301634Y882962D01*
X301562Y882944D01*
X301488Y882936D01*
X301394Y882902D01*
X301296Y882877D01*
X301230Y882843D01*
X301160Y882818D01*
X301076Y882764D01*
X300987Y882718D01*
X300930Y882670D01*
X300868Y882629D01*
X300798Y882557D01*
X300721Y882492D01*
X300677Y882432D01*
X300625Y882379D01*
X300574Y882292D01*
X300514Y882212D01*
X300485Y882143D01*
X300446Y882080D01*
X300416Y881984D01*
X300376Y881892D01*
X300363Y881818D01*
X300340Y881748D01*
X300332Y881648D01*
X300314Y881549D01*
X300318Y881474D01*
X300312Y881400D01*
X300327Y881301D01*
X300332Y881201D01*
X300353Y881129D01*
X300364Y881056D01*
X300401Y880962D01*
X300429Y880866D01*
X300465Y880801D01*
X300493Y880732D01*
X300550Y880649D01*
X300599Y880562D01*
X300664Y880485D01*
X300692Y880446D01*
X300718Y880422D01*
X300758Y880375D01*
X301961Y879172D01*
X303335Y875855D01*
X303335Y872265D01*
X301961Y868948D01*
X299422Y866409D01*
X296105Y865035D01*
X292515Y865035D01*
X289198Y866409D01*
X286659Y868948D01*
X285285Y872265D01*
X285285Y875855D01*
X286659Y879172D01*
X287862Y880375D01*
X287925Y880454D01*
X287995Y880526D01*
X288033Y880590D01*
X288079Y880648D01*
X288122Y880739D01*
X288174Y880825D01*
X288196Y880896D01*
X288228Y880963D01*
X288249Y881062D01*
X288280Y881157D01*
X288286Y881231D01*
X288301Y881304D01*
X288300Y881404D01*
X288308Y881505D01*
X288297Y881578D01*
X288295Y881653D01*
X288271Y881750D01*
X288256Y881849D01*
X288229Y881918D01*
X288210Y881991D01*
X288164Y882080D01*
X288127Y882173D01*
X288085Y882234D01*
X288051Y882300D01*
X287986Y882377D01*
X287928Y882459D01*
X287873Y882509D01*
X287825Y882566D01*
X287744Y882625D01*
X287670Y882693D01*
X287604Y882729D01*
X287545Y882773D01*
X287453Y882813D01*
X287365Y882861D01*
X287293Y882882D01*
X287225Y882911D01*
X287126Y882929D01*
X287029Y882956D01*
X286929Y882964D01*
X286882Y882973D01*
X286846Y882971D01*
X286785Y882976D01*
X276435Y882976D01*
X276335Y882964D01*
X276234Y882962D01*
X276162Y882944D01*
X276088Y882936D01*
X275994Y882902D01*
X275896Y882877D01*
X275830Y882843D01*
X275760Y882818D01*
X275676Y882764D01*
X275587Y882718D01*
X275530Y882670D01*
X275468Y882629D01*
X275398Y882557D01*
X275321Y882492D01*
X275277Y882432D01*
X275225Y882379D01*
X275174Y882292D01*
X275114Y882212D01*
X275085Y882143D01*
X275046Y882080D01*
X275016Y881984D01*
X274976Y881892D01*
X274963Y881818D01*
X274940Y881748D01*
X274932Y881648D01*
X274914Y881549D01*
X274918Y881474D01*
X274912Y881400D01*
X274927Y881301D01*
X274932Y881201D01*
X274953Y881129D01*
X274964Y881056D01*
X275001Y880962D01*
X275029Y880866D01*
X275065Y880801D01*
X275093Y880732D01*
X275150Y880649D01*
X275199Y880562D01*
X275264Y880485D01*
X275292Y880446D01*
X275318Y880422D01*
X275358Y880375D01*
X276561Y879172D01*
X277935Y875855D01*
X277935Y872265D01*
X276561Y868948D01*
X274022Y866409D01*
X270705Y865035D01*
X267115Y865035D01*
X263798Y866409D01*
X261259Y868948D01*
X259885Y872265D01*
X259885Y875855D01*
X261259Y879172D01*
X262462Y880375D01*
X262525Y880454D01*
X262595Y880526D01*
X262633Y880590D01*
X262679Y880648D01*
X262722Y880739D01*
X262774Y880825D01*
X262796Y880896D01*
X262828Y880963D01*
X262849Y881062D01*
X262880Y881157D01*
X262886Y881231D01*
X262901Y881304D01*
X262900Y881404D01*
X262908Y881505D01*
X262897Y881578D01*
X262895Y881653D01*
X262871Y881750D01*
X262856Y881849D01*
X262829Y881918D01*
X262810Y881991D01*
X262764Y882080D01*
X262727Y882173D01*
X262685Y882234D01*
X262651Y882300D01*
X262586Y882377D01*
X262528Y882459D01*
X262473Y882509D01*
X262425Y882566D01*
X262344Y882625D01*
X262270Y882693D01*
X262204Y882729D01*
X262145Y882773D01*
X262053Y882813D01*
X261965Y882861D01*
X261893Y882882D01*
X261825Y882911D01*
X261726Y882929D01*
X261629Y882956D01*
X261529Y882964D01*
X261482Y882973D01*
X261446Y882971D01*
X261385Y882976D01*
X251035Y882976D01*
X250935Y882964D01*
X250834Y882962D01*
X250762Y882944D01*
X250688Y882936D01*
X250594Y882902D01*
X250496Y882877D01*
X250430Y882843D01*
X250360Y882818D01*
X250276Y882764D01*
X250187Y882718D01*
X250130Y882670D01*
X250068Y882629D01*
X249998Y882557D01*
X249921Y882492D01*
X249877Y882432D01*
X249825Y882379D01*
X249774Y882292D01*
X249714Y882212D01*
X249685Y882143D01*
X249646Y882080D01*
X249616Y881984D01*
X249576Y881892D01*
X249563Y881818D01*
X249540Y881748D01*
X249532Y881648D01*
X249514Y881549D01*
X249518Y881474D01*
X249512Y881400D01*
X249527Y881301D01*
X249532Y881201D01*
X249553Y881129D01*
X249564Y881056D01*
X249601Y880962D01*
X249629Y880866D01*
X249665Y880801D01*
X249693Y880732D01*
X249750Y880649D01*
X249799Y880562D01*
X249864Y880485D01*
X249892Y880446D01*
X249918Y880422D01*
X249958Y880375D01*
X251161Y879172D01*
X252535Y875855D01*
X252535Y872265D01*
X251161Y868948D01*
X248622Y866409D01*
X245305Y865035D01*
X241715Y865035D01*
X238398Y866409D01*
X235859Y868948D01*
X234485Y872265D01*
X234485Y875855D01*
X235859Y879172D01*
X237062Y880375D01*
X237125Y880454D01*
X237195Y880526D01*
X237233Y880590D01*
X237279Y880648D01*
X237322Y880739D01*
X237374Y880825D01*
X237396Y880896D01*
X237428Y880963D01*
X237449Y881062D01*
X237480Y881157D01*
X237486Y881231D01*
X237501Y881304D01*
X237500Y881404D01*
X237508Y881505D01*
X237497Y881578D01*
X237495Y881653D01*
X237471Y881750D01*
X237456Y881849D01*
X237429Y881918D01*
X237410Y881991D01*
X237364Y882080D01*
X237327Y882173D01*
X237285Y882234D01*
X237251Y882300D01*
X237186Y882377D01*
X237128Y882459D01*
X237073Y882509D01*
X237025Y882566D01*
X236944Y882625D01*
X236870Y882693D01*
X236804Y882729D01*
X236745Y882773D01*
X236653Y882813D01*
X236565Y882861D01*
X236493Y882882D01*
X236425Y882911D01*
X236326Y882929D01*
X236229Y882956D01*
X236129Y882964D01*
X236082Y882973D01*
X236046Y882971D01*
X235985Y882976D01*
X225635Y882976D01*
X225535Y882964D01*
X225434Y882962D01*
X225362Y882944D01*
X225288Y882936D01*
X225194Y882902D01*
X225096Y882877D01*
X225030Y882843D01*
X224960Y882818D01*
X224876Y882764D01*
X224787Y882718D01*
X224730Y882670D01*
X224668Y882629D01*
X224598Y882557D01*
X224521Y882492D01*
X224477Y882432D01*
X224425Y882379D01*
X224374Y882292D01*
X224314Y882212D01*
X224285Y882143D01*
X224246Y882080D01*
X224216Y881984D01*
X224176Y881892D01*
X224163Y881818D01*
X224140Y881748D01*
X224132Y881648D01*
X224114Y881549D01*
X224118Y881474D01*
X224112Y881400D01*
X224127Y881301D01*
X224132Y881201D01*
X224153Y881129D01*
X224164Y881056D01*
X224201Y880962D01*
X224229Y880866D01*
X224265Y880801D01*
X224293Y880732D01*
X224350Y880649D01*
X224399Y880562D01*
X224464Y880485D01*
X224492Y880446D01*
X224518Y880422D01*
X224558Y880375D01*
X225761Y879172D01*
X227135Y875855D01*
X227135Y872265D01*
X225761Y868948D01*
X223222Y866409D01*
X219905Y865035D01*
X216315Y865035D01*
X212998Y866409D01*
X210459Y868948D01*
X209085Y872265D01*
X209085Y875855D01*
X210459Y879172D01*
X211662Y880375D01*
X211725Y880454D01*
X211795Y880526D01*
X211833Y880590D01*
X211879Y880648D01*
X211922Y880739D01*
X211974Y880825D01*
X211996Y880896D01*
X212028Y880963D01*
X212049Y881062D01*
X212080Y881157D01*
X212086Y881231D01*
X212101Y881304D01*
X212100Y881404D01*
X212108Y881505D01*
X212097Y881578D01*
X212095Y881653D01*
X212071Y881750D01*
X212056Y881849D01*
X212029Y881918D01*
X212010Y881991D01*
X211964Y882080D01*
X211927Y882173D01*
X211885Y882234D01*
X211851Y882300D01*
X211786Y882377D01*
X211728Y882459D01*
X211673Y882509D01*
X211625Y882566D01*
X211544Y882625D01*
X211470Y882693D01*
X211404Y882729D01*
X211345Y882773D01*
X211253Y882813D01*
X211165Y882861D01*
X211093Y882882D01*
X211025Y882911D01*
X210926Y882929D01*
X210829Y882956D01*
X210729Y882964D01*
X210682Y882973D01*
X210646Y882971D01*
X210585Y882976D01*
X197889Y882976D01*
X197814Y882967D01*
X197739Y882968D01*
X197642Y882947D01*
X197543Y882936D01*
X197472Y882910D01*
X197398Y882894D01*
X197308Y882852D01*
X197215Y882818D01*
X197151Y882777D01*
X197083Y882745D01*
X197006Y882683D01*
X196922Y882629D01*
X196870Y882575D01*
X196811Y882528D01*
X196749Y882450D01*
X196680Y882379D01*
X196641Y882314D01*
X196594Y882255D01*
X196552Y882165D01*
X196501Y882080D01*
X196478Y882008D01*
X196446Y881939D01*
X196425Y881842D01*
X196395Y881748D01*
X196389Y881672D01*
X196373Y881599D01*
X196375Y881499D01*
X196367Y881400D01*
X196378Y881326D01*
X196379Y881250D01*
X196404Y881154D01*
X196419Y881056D01*
X196446Y880985D01*
X196465Y880912D01*
X196511Y880824D01*
X196547Y880732D01*
X196590Y880670D01*
X196625Y880603D01*
X196689Y880527D01*
X196746Y880446D01*
X196802Y880395D01*
X196851Y880338D01*
X196970Y880243D01*
X197005Y880212D01*
X197021Y880203D01*
X197043Y880186D01*
X197492Y879886D01*
X198536Y878841D01*
X199357Y877613D01*
X199793Y876559D01*
X193686Y876559D01*
X193660Y876556D01*
X193634Y876558D01*
X193487Y876536D01*
X193340Y876519D01*
X193315Y876511D01*
X193289Y876507D01*
X193152Y876452D01*
X193012Y876402D01*
X192990Y876388D01*
X192965Y876378D01*
X192844Y876293D01*
X192719Y876213D01*
X192707Y876200D01*
X192660Y876245D01*
X192637Y876259D01*
X192618Y876276D01*
X192488Y876348D01*
X192361Y876424D01*
X192336Y876432D01*
X192313Y876445D01*
X192170Y876485D01*
X192029Y876530D01*
X192003Y876532D01*
X191978Y876540D01*
X191734Y876559D01*
X185627Y876559D01*
X186063Y877613D01*
X186884Y878841D01*
X187928Y879886D01*
X188377Y880186D01*
X188435Y880235D01*
X188498Y880276D01*
X188567Y880347D01*
X188643Y880411D01*
X188688Y880472D01*
X188740Y880526D01*
X188791Y880612D01*
X188850Y880691D01*
X188880Y880761D01*
X188919Y880825D01*
X188949Y880920D01*
X188989Y881011D01*
X189002Y881085D01*
X189025Y881157D01*
X189033Y881256D01*
X189051Y881354D01*
X189047Y881429D01*
X189053Y881505D01*
X189038Y881603D01*
X189034Y881702D01*
X189013Y881775D01*
X189002Y881849D01*
X188965Y881942D01*
X188937Y882037D01*
X188901Y882103D01*
X188873Y882173D01*
X188816Y882255D01*
X188768Y882342D01*
X188717Y882397D01*
X188674Y882459D01*
X188600Y882526D01*
X188533Y882599D01*
X188471Y882642D01*
X188415Y882693D01*
X188328Y882741D01*
X188246Y882797D01*
X188176Y882825D01*
X188110Y882861D01*
X188014Y882888D01*
X187922Y882925D01*
X187847Y882936D01*
X187775Y882956D01*
X187623Y882968D01*
X187577Y882975D01*
X187559Y882973D01*
X187531Y882976D01*
X168584Y882976D01*
X168418Y882957D01*
X168253Y882939D01*
X168246Y882937D01*
X168238Y882936D01*
X168080Y882879D01*
X167924Y882825D01*
X167918Y882821D01*
X167910Y882818D01*
X167770Y882728D01*
X167629Y882639D01*
X167624Y882634D01*
X167617Y882629D01*
X167502Y882510D01*
X167385Y882391D01*
X167381Y882384D01*
X167375Y882379D01*
X167290Y882236D01*
X167203Y882094D01*
X167200Y882086D01*
X167196Y882080D01*
X167146Y881922D01*
X167093Y881763D01*
X167092Y881755D01*
X167090Y881748D01*
X167077Y881583D01*
X167062Y881416D01*
X167063Y881408D01*
X167062Y881400D01*
X167087Y881235D01*
X167110Y881071D01*
X167113Y881063D01*
X167114Y881056D01*
X167176Y880900D01*
X167235Y880745D01*
X167240Y880739D01*
X167242Y880732D01*
X167338Y880594D01*
X167431Y880457D01*
X167438Y880451D01*
X167441Y880446D01*
X167461Y880428D01*
X167605Y880286D01*
X169122Y879013D01*
X173882Y870768D01*
X175536Y861391D01*
X173882Y852015D01*
X169122Y843770D01*
X161828Y837650D01*
X152882Y834394D01*
X143361Y834394D01*
X134414Y837650D01*
X127121Y843770D01*
X122360Y852015D01*
X120707Y861391D01*
X122360Y870768D01*
X127121Y879013D01*
X128638Y880286D01*
X128752Y880407D01*
X128868Y880526D01*
X128872Y880533D01*
X128877Y880539D01*
X128961Y880682D01*
X129047Y880825D01*
X129049Y880833D01*
X129053Y880840D01*
X129102Y880998D01*
X129153Y881157D01*
X129153Y881165D01*
X129156Y881173D01*
X129167Y881339D01*
X129181Y881505D01*
X129180Y881512D01*
X129180Y881520D01*
X129154Y881685D01*
X129129Y881849D01*
X129126Y881857D01*
X129125Y881864D01*
X129062Y882018D01*
X129000Y882173D01*
X128996Y882180D01*
X128993Y882187D01*
X128896Y882324D01*
X128801Y882459D01*
X128796Y882464D01*
X128791Y882471D01*
X128665Y882582D01*
X128543Y882693D01*
X128536Y882697D01*
X128530Y882702D01*
X128384Y882781D01*
X128238Y882861D01*
X128230Y882863D01*
X128223Y882867D01*
X128063Y882911D01*
X127902Y882956D01*
X127893Y882957D01*
X127887Y882958D01*
X127861Y882959D01*
X127658Y882976D01*
X65571Y882976D01*
X65543Y882972D01*
X65497Y882974D01*
X60418Y882724D01*
X60387Y882719D01*
X60196Y882697D01*
X50234Y880715D01*
X50208Y880707D01*
X50181Y880704D01*
X49949Y880629D01*
X40565Y876742D01*
X40541Y876729D01*
X40515Y876720D01*
X40302Y876601D01*
X31857Y870958D01*
X31836Y870941D01*
X31812Y870927D01*
X31626Y870769D01*
X24444Y863587D01*
X24427Y863566D01*
X24406Y863548D01*
X24254Y863356D01*
X18612Y854911D01*
X18599Y854887D01*
X18582Y854866D01*
X18514Y854732D01*
X18490Y854692D01*
X18484Y854674D01*
X18471Y854648D01*
X14584Y845264D01*
X14577Y845238D01*
X14564Y845214D01*
X14497Y844979D01*
X14429Y844634D01*
X13217Y838541D01*
X12914Y837018D01*
X12611Y835495D01*
X12611Y835494D01*
X12516Y835017D01*
X12513Y834986D01*
X12488Y834795D01*
X12239Y829716D01*
X12241Y829688D01*
X12237Y829642D01*
X12237Y759016D01*
X12239Y758999D01*
X12238Y758985D01*
X12242Y758959D01*
X12242Y758897D01*
X12293Y758242D01*
X12304Y758186D01*
X12307Y758129D01*
X12357Y757918D01*
X12360Y757900D01*
X12362Y757896D01*
X12363Y757891D01*
X12768Y756645D01*
X12816Y756539D01*
X12857Y756429D01*
X12896Y756366D01*
X12913Y756328D01*
X12940Y756293D01*
X12984Y756221D01*
X13754Y755161D01*
X13833Y755075D01*
X13905Y754983D01*
X13962Y754935D01*
X13990Y754904D01*
X14027Y754879D01*
X14091Y754824D01*
X15151Y754054D01*
X15253Y753997D01*
X15350Y753932D01*
X15418Y753903D01*
X15454Y753883D01*
X15497Y753871D01*
X15575Y753838D01*
X16821Y753433D01*
X16877Y753422D01*
X16931Y753402D01*
X17144Y753368D01*
X17162Y753364D01*
X17166Y753364D01*
X17172Y753363D01*
X17827Y753312D01*
X17869Y753313D01*
X17946Y753307D01*
X192321Y753307D01*
X196009Y752109D01*
X196122Y752086D01*
X196233Y752054D01*
X196293Y752051D01*
X196351Y752040D01*
X196466Y752043D01*
X196582Y752038D01*
X196640Y752048D01*
X196699Y752050D01*
X196811Y752080D01*
X196924Y752100D01*
X196979Y752124D01*
X197036Y752139D01*
X197138Y752193D01*
X197244Y752240D01*
X197291Y752275D01*
X197344Y752303D01*
X197431Y752379D01*
X197523Y752448D01*
X197562Y752493D01*
X197606Y752532D01*
X197674Y752626D01*
X197748Y752714D01*
X197775Y752767D01*
X197810Y752815D01*
X197854Y752921D01*
X197907Y753024D01*
X197921Y753082D01*
X197944Y753137D01*
X197963Y753250D01*
X197991Y753363D01*
X197991Y753422D01*
X198001Y753480D01*
X197994Y753596D01*
X197995Y753711D01*
X197982Y753786D01*
X197979Y753828D01*
X197966Y753870D01*
X197951Y753952D01*
X197103Y757116D01*
X197103Y764268D01*
X198954Y771176D01*
X202530Y777369D01*
X207587Y782426D01*
X213903Y786073D01*
X213964Y786118D01*
X214030Y786155D01*
X214104Y786221D01*
X214183Y786280D01*
X214232Y786338D01*
X214288Y786389D01*
X214345Y786471D01*
X214409Y786546D01*
X214443Y786614D01*
X214486Y786676D01*
X214523Y786768D01*
X214568Y786856D01*
X214586Y786930D01*
X214614Y787000D01*
X214628Y787098D01*
X214652Y787195D01*
X214653Y787270D01*
X214664Y787345D01*
X214656Y787444D01*
X214658Y787543D01*
X214641Y787617D01*
X214635Y787692D01*
X214605Y787787D01*
X214584Y787884D01*
X214551Y787952D01*
X214528Y788024D01*
X214476Y788109D01*
X214434Y788198D01*
X214387Y788258D01*
X214348Y788322D01*
X214279Y788394D01*
X214217Y788471D01*
X214158Y788518D01*
X214105Y788572D01*
X213980Y788658D01*
X213944Y788687D01*
X213927Y788695D01*
X213903Y788711D01*
X207587Y792358D01*
X202530Y797415D01*
X198954Y803608D01*
X197103Y810516D01*
X197103Y817668D01*
X198954Y824576D01*
X202530Y830769D01*
X207587Y835826D01*
X212584Y838711D01*
X212625Y838742D01*
X212671Y838765D01*
X212765Y838845D01*
X212864Y838919D01*
X212897Y838958D01*
X212936Y838991D01*
X213009Y839090D01*
X213089Y839185D01*
X213113Y839230D01*
X213143Y839271D01*
X213192Y839385D01*
X213249Y839495D01*
X213261Y839544D01*
X213281Y839591D01*
X213303Y839713D01*
X213333Y839833D01*
X213334Y839884D01*
X213343Y839934D01*
X213336Y840058D01*
X213338Y840181D01*
X213327Y840231D01*
X213325Y840282D01*
X213291Y840401D01*
X213264Y840522D01*
X213242Y840568D01*
X213228Y840617D01*
X213168Y840725D01*
X213115Y840837D01*
X213083Y840877D01*
X213058Y840921D01*
X212900Y841107D01*
X210459Y843548D01*
X209085Y846865D01*
X209085Y850455D01*
X210459Y853772D01*
X212998Y856311D01*
X216315Y857685D01*
X219905Y857685D01*
X223222Y856311D01*
X225761Y853772D01*
X227135Y850455D01*
X227135Y846865D01*
X225683Y843359D01*
X225641Y843214D01*
X225595Y843071D01*
X225593Y843047D01*
X225587Y843024D01*
X225579Y842873D01*
X225567Y842724D01*
X225571Y842700D01*
X225570Y842676D01*
X225597Y842528D01*
X225619Y842379D01*
X225628Y842357D01*
X225632Y842333D01*
X225692Y842195D01*
X225748Y842055D01*
X225762Y842035D01*
X225771Y842013D01*
X225861Y841892D01*
X225947Y841769D01*
X225965Y841753D01*
X225979Y841733D01*
X226094Y841636D01*
X226206Y841536D01*
X226227Y841524D01*
X226245Y841508D01*
X226379Y841440D01*
X226511Y841367D01*
X226534Y841361D01*
X226555Y841350D01*
X226701Y841313D01*
X226846Y841272D01*
X226875Y841270D01*
X226894Y841265D01*
X226941Y841265D01*
X227090Y841253D01*
X227840Y841253D01*
X234748Y839402D01*
X240941Y835826D01*
X245998Y830769D01*
X249574Y824576D01*
X251425Y817668D01*
X251425Y810516D01*
X249574Y803608D01*
X245998Y797415D01*
X240941Y792358D01*
X234625Y788711D01*
X234564Y788666D01*
X234498Y788629D01*
X234424Y788563D01*
X234345Y788504D01*
X234296Y788446D01*
X234240Y788395D01*
X234183Y788313D01*
X234119Y788238D01*
X234085Y788170D01*
X234042Y788108D01*
X234005Y788016D01*
X233960Y787928D01*
X233942Y787854D01*
X233914Y787784D01*
X233900Y787686D01*
X233876Y787589D01*
X233875Y787514D01*
X233864Y787439D01*
X233872Y787340D01*
X233870Y787241D01*
X233887Y787167D01*
X233893Y787091D01*
X233923Y786997D01*
X233944Y786900D01*
X233977Y786832D01*
X234000Y786760D01*
X234051Y786675D01*
X234094Y786586D01*
X234141Y786526D01*
X234180Y786461D01*
X234249Y786390D01*
X234311Y786313D01*
X234370Y786266D01*
X234423Y786212D01*
X234548Y786126D01*
X234584Y786097D01*
X234601Y786089D01*
X234625Y786073D01*
X240941Y782426D01*
X245998Y777369D01*
X249574Y771176D01*
X251425Y764268D01*
X251425Y757116D01*
X249574Y750208D01*
X245998Y744015D01*
X240941Y738958D01*
X234748Y735382D01*
X227840Y733531D01*
X220688Y733531D01*
X215570Y734903D01*
X215456Y734920D01*
X215343Y734945D01*
X215284Y734945D01*
X215225Y734954D01*
X215110Y734944D01*
X214995Y734944D01*
X214937Y734930D01*
X214878Y734925D01*
X214768Y734890D01*
X214656Y734863D01*
X214603Y734837D01*
X214546Y734818D01*
X214447Y734759D01*
X214344Y734707D01*
X214298Y734670D01*
X214247Y734639D01*
X214164Y734559D01*
X214076Y734485D01*
X214040Y734438D01*
X213997Y734396D01*
X213935Y734299D01*
X213865Y734207D01*
X213841Y734153D01*
X213809Y734103D01*
X213770Y733994D01*
X213723Y733889D01*
X213712Y733831D01*
X213692Y733775D01*
X213679Y733660D01*
X213657Y733547D01*
X213659Y733488D01*
X213653Y733429D01*
X213666Y733314D01*
X213670Y733199D01*
X213688Y733124D01*
X213693Y733082D01*
X213708Y733041D01*
X213727Y732961D01*
X214237Y731391D01*
X214237Y559892D01*
X211688Y552047D01*
X206840Y545373D01*
X200166Y540525D01*
X192321Y537976D01*
X17946Y537976D01*
X17904Y537971D01*
X17827Y537971D01*
X17172Y537919D01*
X17116Y537908D01*
X17059Y537906D01*
X16848Y537856D01*
X16830Y537853D01*
X16826Y537851D01*
X16821Y537850D01*
X15575Y537445D01*
X15469Y537396D01*
X15359Y537356D01*
X15296Y537317D01*
X15258Y537300D01*
X15223Y537273D01*
X15151Y537229D01*
X14091Y536459D01*
X14005Y536380D01*
X13913Y536307D01*
X13865Y536251D01*
X13834Y536223D01*
X13809Y536186D01*
X13754Y536122D01*
X12984Y535062D01*
X12927Y534960D01*
X12862Y534863D01*
X12833Y534795D01*
X12813Y534759D01*
X12801Y534716D01*
X12768Y534638D01*
X12363Y533392D01*
X12352Y533336D01*
X12332Y533282D01*
X12298Y533069D01*
X12294Y533050D01*
X12294Y533046D01*
X12293Y533041D01*
X12242Y532386D01*
X12243Y532344D01*
X12237Y532266D01*
X12237Y156684D01*
X12249Y156584D01*
X12250Y156484D01*
X12269Y156412D01*
X12277Y156338D01*
X12311Y156243D01*
X12335Y156146D01*
X12369Y156080D01*
X12395Y156010D01*
X12449Y155925D01*
X12495Y155836D01*
X12543Y155779D01*
X12584Y155717D01*
X12656Y155647D01*
X12721Y155571D01*
X12781Y155527D01*
X12834Y155475D01*
X12920Y155423D01*
X13001Y155364D01*
X13069Y155334D01*
X13133Y155296D01*
X13229Y155265D01*
X13321Y155226D01*
X13394Y155212D01*
X13465Y155190D01*
X13565Y155182D01*
X13664Y155164D01*
X13739Y155168D01*
X13813Y155162D01*
X13912Y155177D01*
X14012Y155182D01*
X14084Y155202D01*
X14157Y155213D01*
X14251Y155251D01*
X14347Y155278D01*
X14412Y155315D01*
X14481Y155342D01*
X14563Y155399D01*
X14651Y155449D01*
X14728Y155514D01*
X14767Y155541D01*
X14791Y155568D01*
X14837Y155607D01*
X17976Y158746D01*
X23223Y160919D01*
X28901Y160919D01*
X34148Y158746D01*
X38164Y154730D01*
X40337Y149483D01*
X40337Y143805D01*
X38164Y138558D01*
X34148Y134542D01*
X28901Y132369D01*
X23223Y132369D01*
X17976Y134542D01*
X14837Y137681D01*
X14759Y137743D01*
X14687Y137813D01*
X14623Y137851D01*
X14564Y137898D01*
X14474Y137941D01*
X14388Y137992D01*
X14317Y138015D01*
X14249Y138047D01*
X14151Y138068D01*
X14056Y138098D01*
X13981Y138104D01*
X13909Y138120D01*
X13808Y138118D01*
X13708Y138126D01*
X13635Y138115D01*
X13560Y138114D01*
X13463Y138089D01*
X13364Y138075D01*
X13294Y138047D01*
X13222Y138029D01*
X13133Y137983D01*
X13040Y137946D01*
X12979Y137903D01*
X12912Y137869D01*
X12836Y137804D01*
X12754Y137747D01*
X12704Y137692D01*
X12647Y137643D01*
X12587Y137563D01*
X12520Y137488D01*
X12484Y137423D01*
X12440Y137363D01*
X12400Y137271D01*
X12352Y137183D01*
X12331Y137111D01*
X12302Y137043D01*
X12284Y136944D01*
X12257Y136848D01*
X12249Y136748D01*
X12240Y136700D01*
X12242Y136664D01*
X12237Y136604D01*
X12237Y98141D01*
X12240Y98113D01*
X12239Y98067D01*
X12592Y90881D01*
X12597Y90850D01*
X12619Y90658D01*
X15423Y76563D01*
X15431Y76537D01*
X15435Y76510D01*
X15510Y76277D01*
X21010Y63000D01*
X21023Y62976D01*
X21031Y62950D01*
X21150Y62737D01*
X29135Y50787D01*
X29152Y50766D01*
X29166Y50743D01*
X29324Y50556D01*
X39486Y40394D01*
X39508Y40377D01*
X39525Y40356D01*
X39717Y40205D01*
X51667Y32220D01*
X51691Y32208D01*
X51712Y32191D01*
X51930Y32080D01*
X59500Y28944D01*
X59525Y28937D01*
X59547Y28925D01*
X59691Y28889D01*
X59835Y28848D01*
X59861Y28847D01*
X59886Y28841D01*
X60035Y28838D01*
X60183Y28831D01*
X60208Y28836D01*
X60234Y28835D01*
X60379Y28867D01*
X60526Y28894D01*
X60550Y28904D01*
X60575Y28909D01*
X60709Y28973D01*
X60846Y29033D01*
X60866Y29048D01*
X60889Y29059D01*
X61006Y29152D01*
X61126Y29241D01*
X61142Y29260D01*
X61162Y29276D01*
X61255Y29393D01*
X61351Y29507D01*
X61362Y29529D01*
X61378Y29549D01*
X61442Y29685D01*
X61509Y29817D01*
X61516Y29842D01*
X61527Y29865D01*
X61558Y30011D01*
X61594Y30155D01*
X61594Y30181D01*
X61599Y30206D01*
X61596Y30355D01*
X61599Y30504D01*
X61593Y30529D01*
X61593Y30554D01*
X61556Y30698D01*
X61524Y30844D01*
X61513Y30867D01*
X61507Y30892D01*
X61402Y31113D01*
X58860Y35515D01*
X57207Y44891D01*
X58860Y54268D01*
X63621Y62513D01*
X70914Y68633D01*
X79861Y71889D01*
X89382Y71889D01*
X98329Y68633D01*
X105622Y62513D01*
X110382Y54268D01*
X112036Y44891D01*
X110382Y35515D01*
X105622Y27270D01*
X104105Y25997D01*
X103991Y25877D01*
X103875Y25757D01*
X103871Y25750D01*
X103866Y25744D01*
X103781Y25600D01*
X103696Y25458D01*
X103694Y25450D01*
X103690Y25443D01*
X103640Y25283D01*
X103590Y25126D01*
X103589Y25118D01*
X103587Y25110D01*
X103575Y24943D01*
X103562Y24778D01*
X103563Y24771D01*
X103563Y24763D01*
X103589Y24598D01*
X103614Y24434D01*
X103617Y24426D01*
X103618Y24419D01*
X103681Y24265D01*
X103742Y24110D01*
X103747Y24103D01*
X103750Y24096D01*
X103847Y23959D01*
X103941Y23824D01*
X103947Y23818D01*
X103952Y23812D01*
X104077Y23701D01*
X104200Y23590D01*
X104207Y23586D01*
X104213Y23581D01*
X104359Y23503D01*
X104505Y23422D01*
X104513Y23419D01*
X104520Y23416D01*
X104679Y23372D01*
X104841Y23327D01*
X104850Y23326D01*
X104856Y23324D01*
X104882Y23323D01*
X105084Y23307D01*
X460702Y23307D01*
X460777Y23316D01*
G37*
%LPC*%
G36*
X140828Y51815D02*
X140828Y51815D01*
X139191Y53452D01*
X139191Y337454D01*
X140828Y339091D01*
X235653Y339091D01*
X235753Y339102D01*
X235854Y339104D01*
X235926Y339122D01*
X236000Y339131D01*
X236094Y339164D01*
X236192Y339189D01*
X236258Y339223D01*
X236328Y339248D01*
X236412Y339303D01*
X236501Y339349D01*
X236558Y339397D01*
X236621Y339437D01*
X236690Y339509D01*
X236767Y339574D01*
X236811Y339634D01*
X236863Y339688D01*
X236914Y339774D01*
X236974Y339855D01*
X237003Y339923D01*
X237042Y339987D01*
X237072Y340083D01*
X237112Y340175D01*
X237125Y340248D01*
X237148Y340319D01*
X237156Y340419D01*
X237174Y340518D01*
X237170Y340592D01*
X237176Y340666D01*
X237161Y340766D01*
X237156Y340866D01*
X237135Y340937D01*
X237124Y341011D01*
X237087Y341104D01*
X237059Y341201D01*
X237023Y341266D01*
X236995Y341335D01*
X236938Y341417D01*
X236889Y341505D01*
X236824Y341581D01*
X236796Y341621D01*
X236770Y341645D01*
X236731Y341691D01*
X221672Y356749D01*
X221612Y356797D01*
X221559Y356852D01*
X221476Y356905D01*
X221399Y356966D01*
X221330Y356999D01*
X221266Y357040D01*
X221173Y357073D01*
X221084Y357115D01*
X221009Y357131D01*
X220937Y357157D01*
X220839Y357168D01*
X220743Y357188D01*
X220667Y357187D01*
X220591Y357196D01*
X220493Y357184D01*
X220395Y357182D01*
X220321Y357164D01*
X220245Y357155D01*
X220103Y357109D01*
X220057Y357097D01*
X220040Y357089D01*
X220012Y357080D01*
X219905Y357035D01*
X216315Y357035D01*
X212998Y358409D01*
X210459Y360948D01*
X209085Y364265D01*
X209085Y367855D01*
X210459Y371172D01*
X212998Y373711D01*
X216315Y375085D01*
X219905Y375085D01*
X223222Y373711D01*
X225761Y371172D01*
X227135Y367855D01*
X227135Y364265D01*
X227090Y364158D01*
X227069Y364084D01*
X227039Y364014D01*
X227022Y363917D01*
X226995Y363823D01*
X226991Y363747D01*
X226977Y363671D01*
X226983Y363573D01*
X226978Y363475D01*
X226991Y363400D01*
X226995Y363323D01*
X227023Y363229D01*
X227040Y363132D01*
X227071Y363062D01*
X227092Y362988D01*
X227140Y362902D01*
X227179Y362812D01*
X227225Y362751D01*
X227262Y362684D01*
X227359Y362570D01*
X227387Y362532D01*
X227402Y362520D01*
X227421Y362498D01*
X240476Y349443D01*
X240575Y349364D01*
X240668Y349280D01*
X240711Y349256D01*
X240749Y349226D01*
X240863Y349172D01*
X240973Y349111D01*
X241020Y349098D01*
X241064Y349077D01*
X241187Y349051D01*
X241309Y349016D01*
X241370Y349011D01*
X241404Y349004D01*
X241452Y349005D01*
X241553Y348997D01*
X514002Y348997D01*
X530348Y332651D01*
X530447Y332572D01*
X530540Y332488D01*
X530583Y332464D01*
X530621Y332434D01*
X530735Y332380D01*
X530845Y332319D01*
X530892Y332306D01*
X530936Y332285D01*
X531059Y332259D01*
X531181Y332224D01*
X531242Y332219D01*
X531276Y332212D01*
X531324Y332213D01*
X531425Y332205D01*
X531473Y332205D01*
X534135Y329543D01*
X534135Y329495D01*
X534149Y329369D01*
X534156Y329243D01*
X534169Y329196D01*
X534175Y329148D01*
X534217Y329029D01*
X534252Y328908D01*
X534276Y328866D01*
X534292Y328820D01*
X534329Y328764D01*
X534330Y328760D01*
X534344Y328740D01*
X534361Y328714D01*
X534422Y328604D01*
X534462Y328558D01*
X534481Y328528D01*
X534513Y328496D01*
X534529Y328473D01*
X534547Y328458D01*
X534581Y328418D01*
X549116Y313883D01*
X549215Y313804D01*
X549308Y313720D01*
X549351Y313696D01*
X549389Y313666D01*
X549503Y313612D01*
X549613Y313551D01*
X549660Y313538D01*
X549704Y313517D01*
X549827Y313491D01*
X549949Y313456D01*
X550010Y313451D01*
X550044Y313444D01*
X550092Y313445D01*
X550193Y313437D01*
X564134Y313437D01*
X564160Y313440D01*
X564186Y313438D01*
X564333Y313460D01*
X564480Y313477D01*
X564505Y313485D01*
X564531Y313489D01*
X564669Y313544D01*
X564808Y313594D01*
X564830Y313608D01*
X564855Y313618D01*
X564976Y313703D01*
X565101Y313783D01*
X565119Y313802D01*
X565141Y313817D01*
X565240Y313927D01*
X565343Y314034D01*
X565357Y314056D01*
X565374Y314076D01*
X565446Y314206D01*
X565522Y314333D01*
X565530Y314358D01*
X565543Y314381D01*
X565583Y314523D01*
X565628Y314665D01*
X565630Y314691D01*
X565638Y314716D01*
X565657Y314960D01*
X565657Y361615D01*
X565657Y361617D01*
X565657Y361619D01*
X565637Y361790D01*
X565617Y361961D01*
X565617Y361963D01*
X565616Y361965D01*
X565541Y362198D01*
X564685Y364265D01*
X564685Y367855D01*
X565541Y369922D01*
X565542Y369924D01*
X565543Y369926D01*
X565588Y370087D01*
X565637Y370257D01*
X565637Y370259D01*
X565638Y370261D01*
X565657Y370505D01*
X565657Y387015D01*
X565657Y387017D01*
X565657Y387019D01*
X565638Y387186D01*
X565617Y387361D01*
X565617Y387363D01*
X565616Y387365D01*
X565541Y387598D01*
X564685Y389665D01*
X564685Y393255D01*
X565541Y395322D01*
X565542Y395324D01*
X565543Y395326D01*
X565588Y395487D01*
X565637Y395657D01*
X565637Y395659D01*
X565638Y395661D01*
X565657Y395905D01*
X565657Y399096D01*
X566104Y399543D01*
X569338Y399543D01*
X569340Y399543D01*
X569342Y399543D01*
X569518Y399564D01*
X569684Y399583D01*
X569686Y399583D01*
X569688Y399584D01*
X569921Y399659D01*
X571915Y400485D01*
X575505Y400485D01*
X577499Y399659D01*
X577501Y399658D01*
X577503Y399657D01*
X577665Y399611D01*
X577835Y399563D01*
X577837Y399563D01*
X577839Y399562D01*
X578082Y399543D01*
X594738Y399543D01*
X594740Y399543D01*
X594742Y399543D01*
X594913Y399563D01*
X595084Y399583D01*
X595086Y399583D01*
X595088Y399584D01*
X595321Y399659D01*
X597315Y400485D01*
X600905Y400485D01*
X602899Y399659D01*
X602901Y399658D01*
X602903Y399657D01*
X603073Y399609D01*
X603234Y399563D01*
X603237Y399563D01*
X603239Y399562D01*
X603482Y399543D01*
X620138Y399543D01*
X620140Y399543D01*
X620142Y399543D01*
X620313Y399563D01*
X620484Y399583D01*
X620486Y399583D01*
X620488Y399584D01*
X620721Y399659D01*
X622715Y400485D01*
X626305Y400485D01*
X628299Y399659D01*
X628301Y399658D01*
X628303Y399657D01*
X628473Y399609D01*
X628634Y399563D01*
X628637Y399563D01*
X628639Y399562D01*
X628882Y399543D01*
X645538Y399543D01*
X645540Y399543D01*
X645542Y399543D01*
X645713Y399563D01*
X645884Y399583D01*
X645886Y399583D01*
X645888Y399584D01*
X646121Y399659D01*
X648115Y400485D01*
X651705Y400485D01*
X655022Y399111D01*
X657561Y396572D01*
X658935Y393255D01*
X658935Y389665D01*
X657561Y386348D01*
X655022Y383809D01*
X651705Y382435D01*
X648115Y382435D01*
X648029Y382471D01*
X647884Y382512D01*
X647741Y382558D01*
X647717Y382560D01*
X647694Y382567D01*
X647544Y382574D01*
X647394Y382586D01*
X647370Y382582D01*
X647346Y382584D01*
X647198Y382557D01*
X647049Y382534D01*
X647027Y382525D01*
X647003Y382521D01*
X646865Y382461D01*
X646725Y382406D01*
X646705Y382392D01*
X646683Y382382D01*
X646562Y382292D01*
X646439Y382207D01*
X646423Y382189D01*
X646404Y382174D01*
X646307Y382060D01*
X646206Y381948D01*
X646194Y381927D01*
X646178Y381908D01*
X646110Y381775D01*
X646037Y381643D01*
X646031Y381619D01*
X646020Y381598D01*
X645983Y381452D01*
X645942Y381307D01*
X645940Y381278D01*
X645935Y381260D01*
X645935Y381213D01*
X645923Y381064D01*
X645923Y376456D01*
X645940Y376307D01*
X645952Y376157D01*
X645960Y376134D01*
X645963Y376110D01*
X646013Y375968D01*
X646060Y375826D01*
X646072Y375805D01*
X646080Y375782D01*
X646162Y375656D01*
X646239Y375527D01*
X646256Y375510D01*
X646269Y375489D01*
X646377Y375385D01*
X646482Y375277D01*
X646502Y375264D01*
X646520Y375247D01*
X646649Y375170D01*
X646775Y375089D01*
X646798Y375081D01*
X646819Y375068D01*
X646962Y375023D01*
X647104Y374972D01*
X647128Y374969D01*
X647151Y374962D01*
X647300Y374950D01*
X647450Y374933D01*
X647474Y374936D01*
X647498Y374934D01*
X647647Y374956D01*
X647796Y374974D01*
X647824Y374983D01*
X647843Y374986D01*
X647887Y375003D01*
X648029Y375049D01*
X648115Y375085D01*
X651705Y375085D01*
X655022Y373711D01*
X657561Y371172D01*
X658935Y367855D01*
X658935Y364265D01*
X657561Y360948D01*
X655022Y358409D01*
X651705Y357035D01*
X648115Y357035D01*
X648029Y357071D01*
X647884Y357112D01*
X647741Y357158D01*
X647717Y357160D01*
X647694Y357167D01*
X647544Y357174D01*
X647394Y357186D01*
X647370Y357182D01*
X647346Y357184D01*
X647198Y357157D01*
X647049Y357134D01*
X647027Y357125D01*
X647003Y357121D01*
X646865Y357061D01*
X646725Y357006D01*
X646705Y356992D01*
X646683Y356982D01*
X646562Y356892D01*
X646439Y356807D01*
X646423Y356789D01*
X646404Y356774D01*
X646307Y356660D01*
X646206Y356548D01*
X646194Y356527D01*
X646178Y356508D01*
X646110Y356375D01*
X646037Y356243D01*
X646031Y356219D01*
X646020Y356198D01*
X645983Y356052D01*
X645942Y355907D01*
X645940Y355878D01*
X645935Y355860D01*
X645935Y355813D01*
X645923Y355664D01*
X645923Y268924D01*
X645476Y268477D01*
X626647Y268477D01*
X626547Y268466D01*
X626446Y268464D01*
X626374Y268446D01*
X626300Y268437D01*
X626206Y268404D01*
X626108Y268379D01*
X626042Y268345D01*
X625972Y268320D01*
X625888Y268265D01*
X625799Y268219D01*
X625742Y268171D01*
X625679Y268131D01*
X625610Y268059D01*
X625533Y267994D01*
X625489Y267934D01*
X625437Y267880D01*
X625386Y267794D01*
X625326Y267713D01*
X625297Y267645D01*
X625258Y267581D01*
X625228Y267485D01*
X625188Y267393D01*
X625175Y267320D01*
X625152Y267249D01*
X625144Y267149D01*
X625126Y267050D01*
X625130Y266976D01*
X625124Y266902D01*
X625139Y266802D01*
X625144Y266702D01*
X625165Y266631D01*
X625176Y266557D01*
X625213Y266464D01*
X625241Y266367D01*
X625277Y266302D01*
X625305Y266233D01*
X625362Y266151D01*
X625411Y266063D01*
X625476Y265987D01*
X625504Y265947D01*
X625530Y265923D01*
X625569Y265877D01*
X633726Y257721D01*
X633825Y257642D01*
X633918Y257558D01*
X633961Y257534D01*
X633999Y257504D01*
X634113Y257450D01*
X634223Y257389D01*
X634270Y257376D01*
X634314Y257355D01*
X634437Y257329D01*
X634559Y257294D01*
X634620Y257289D01*
X634654Y257282D01*
X634702Y257283D01*
X634803Y257275D01*
X635105Y257275D01*
X637767Y254613D01*
X637767Y250847D01*
X635105Y248185D01*
X631339Y248185D01*
X628658Y250867D01*
X628656Y250893D01*
X628643Y250940D01*
X628637Y250988D01*
X628595Y251107D01*
X628560Y251228D01*
X628536Y251270D01*
X628520Y251316D01*
X628451Y251422D01*
X628390Y251532D01*
X628350Y251578D01*
X628331Y251608D01*
X628296Y251642D01*
X628231Y251718D01*
X611918Y268031D01*
X611819Y268110D01*
X611726Y268194D01*
X611683Y268218D01*
X611645Y268248D01*
X611531Y268302D01*
X611421Y268363D01*
X611374Y268376D01*
X611330Y268397D01*
X611207Y268423D01*
X611085Y268458D01*
X611024Y268463D01*
X610990Y268470D01*
X610942Y268469D01*
X610841Y268477D01*
X585216Y268477D01*
X585190Y268474D01*
X585164Y268476D01*
X585017Y268454D01*
X584870Y268437D01*
X584845Y268429D01*
X584819Y268425D01*
X584681Y268370D01*
X584542Y268320D01*
X584520Y268306D01*
X584495Y268296D01*
X584374Y268211D01*
X584249Y268131D01*
X584231Y268112D01*
X584209Y268097D01*
X584110Y267987D01*
X584007Y267880D01*
X583993Y267858D01*
X583976Y267838D01*
X583904Y267708D01*
X583828Y267581D01*
X583820Y267556D01*
X583807Y267533D01*
X583767Y267390D01*
X583722Y267249D01*
X583720Y267223D01*
X583712Y267198D01*
X583693Y266954D01*
X583693Y246133D01*
X581461Y243901D01*
X567883Y230323D01*
X567804Y230224D01*
X567720Y230130D01*
X567696Y230088D01*
X567666Y230050D01*
X567612Y229936D01*
X567551Y229825D01*
X567538Y229779D01*
X567517Y229735D01*
X567491Y229612D01*
X567456Y229490D01*
X567451Y229429D01*
X567444Y229395D01*
X567445Y229347D01*
X567437Y229246D01*
X567437Y119703D01*
X566097Y118363D01*
X443553Y118363D01*
X442213Y119703D01*
X442213Y166176D01*
X442196Y166325D01*
X442184Y166475D01*
X442176Y166498D01*
X442173Y166522D01*
X442123Y166663D01*
X442077Y166807D01*
X442064Y166827D01*
X442056Y166850D01*
X441974Y166977D01*
X441897Y167105D01*
X441880Y167123D01*
X441867Y167143D01*
X441758Y167248D01*
X441654Y167355D01*
X441634Y167368D01*
X441616Y167385D01*
X441487Y167462D01*
X441361Y167544D01*
X441338Y167552D01*
X441317Y167564D01*
X441174Y167610D01*
X441032Y167660D01*
X441008Y167663D01*
X440985Y167670D01*
X440836Y167682D01*
X440686Y167699D01*
X440662Y167696D01*
X440638Y167698D01*
X440489Y167676D01*
X440340Y167658D01*
X440312Y167649D01*
X440293Y167647D01*
X440249Y167629D01*
X440107Y167583D01*
X437176Y166369D01*
X434044Y166369D01*
X431149Y167568D01*
X428934Y169783D01*
X427735Y172678D01*
X427735Y305733D01*
X427721Y305859D01*
X427714Y305985D01*
X427701Y306031D01*
X427695Y306079D01*
X427653Y306198D01*
X427618Y306320D01*
X427594Y306362D01*
X427578Y306408D01*
X427509Y306514D01*
X427448Y306624D01*
X427408Y306670D01*
X427389Y306700D01*
X427354Y306734D01*
X427289Y306810D01*
X426060Y308039D01*
X426059Y308040D01*
X426057Y308042D01*
X425918Y308152D01*
X425787Y308256D01*
X425786Y308257D01*
X425784Y308258D01*
X425566Y308369D01*
X424545Y308792D01*
X422330Y311007D01*
X421131Y313902D01*
X421131Y317034D01*
X422330Y319929D01*
X424545Y322144D01*
X427440Y323343D01*
X431334Y323343D01*
X434229Y322144D01*
X442286Y314087D01*
X443485Y311192D01*
X443485Y264160D01*
X443488Y264134D01*
X443486Y264108D01*
X443508Y263961D01*
X443525Y263814D01*
X443533Y263789D01*
X443537Y263763D01*
X443592Y263625D01*
X443642Y263486D01*
X443656Y263464D01*
X443666Y263439D01*
X443751Y263318D01*
X443831Y263193D01*
X443850Y263175D01*
X443865Y263153D01*
X443975Y263054D01*
X444082Y262951D01*
X444104Y262937D01*
X444124Y262920D01*
X444254Y262848D01*
X444381Y262772D01*
X444406Y262764D01*
X444429Y262751D01*
X444572Y262711D01*
X444713Y262666D01*
X444739Y262664D01*
X444764Y262656D01*
X445008Y262637D01*
X466090Y262637D01*
X466116Y262640D01*
X466142Y262638D01*
X466289Y262660D01*
X466436Y262677D01*
X466461Y262685D01*
X466487Y262689D01*
X466625Y262744D01*
X466764Y262794D01*
X466786Y262808D01*
X466811Y262818D01*
X466932Y262903D01*
X467057Y262983D01*
X467075Y263002D01*
X467097Y263017D01*
X467196Y263127D01*
X467299Y263234D01*
X467313Y263256D01*
X467330Y263276D01*
X467402Y263406D01*
X467478Y263533D01*
X467486Y263558D01*
X467499Y263581D01*
X467539Y263724D01*
X467584Y263865D01*
X467586Y263891D01*
X467594Y263916D01*
X467613Y264160D01*
X467613Y312097D01*
X468953Y313437D01*
X534387Y313437D01*
X534487Y313448D01*
X534588Y313450D01*
X534660Y313468D01*
X534734Y313477D01*
X534828Y313510D01*
X534926Y313535D01*
X534992Y313569D01*
X535062Y313594D01*
X535146Y313649D01*
X535235Y313695D01*
X535292Y313743D01*
X535355Y313783D01*
X535424Y313855D01*
X535501Y313920D01*
X535545Y313980D01*
X535597Y314034D01*
X535648Y314120D01*
X535708Y314201D01*
X535737Y314269D01*
X535776Y314333D01*
X535806Y314429D01*
X535846Y314521D01*
X535859Y314594D01*
X535882Y314665D01*
X535890Y314765D01*
X535908Y314864D01*
X535904Y314938D01*
X535910Y315012D01*
X535895Y315112D01*
X535890Y315212D01*
X535869Y315283D01*
X535858Y315357D01*
X535821Y315450D01*
X535793Y315547D01*
X535757Y315612D01*
X535729Y315681D01*
X535672Y315763D01*
X535623Y315851D01*
X535558Y315927D01*
X535530Y315967D01*
X535504Y315991D01*
X535465Y316037D01*
X528832Y322669D01*
X528733Y322748D01*
X528640Y322832D01*
X528597Y322856D01*
X528559Y322886D01*
X528445Y322940D01*
X528335Y323001D01*
X528288Y323014D01*
X528244Y323035D01*
X528121Y323061D01*
X527999Y323096D01*
X527938Y323101D01*
X527904Y323108D01*
X527856Y323107D01*
X527755Y323115D01*
X527707Y323115D01*
X525045Y325777D01*
X525045Y325825D01*
X525031Y325951D01*
X525024Y326077D01*
X525011Y326124D01*
X525005Y326172D01*
X524963Y326291D01*
X524928Y326412D01*
X524904Y326454D01*
X524888Y326500D01*
X524819Y326606D01*
X524758Y326716D01*
X524718Y326762D01*
X524699Y326792D01*
X524664Y326826D01*
X524599Y326902D01*
X511080Y340421D01*
X510981Y340500D01*
X510888Y340584D01*
X510845Y340608D01*
X510807Y340638D01*
X510693Y340692D01*
X510583Y340753D01*
X510536Y340766D01*
X510492Y340787D01*
X510369Y340813D01*
X510247Y340848D01*
X510186Y340853D01*
X510152Y340860D01*
X510104Y340859D01*
X510003Y340867D01*
X405395Y340867D01*
X405295Y340856D01*
X405194Y340854D01*
X405122Y340836D01*
X405048Y340827D01*
X404954Y340794D01*
X404856Y340769D01*
X404790Y340735D01*
X404720Y340710D01*
X404636Y340655D01*
X404547Y340609D01*
X404490Y340561D01*
X404427Y340521D01*
X404358Y340449D01*
X404281Y340384D01*
X404237Y340324D01*
X404185Y340270D01*
X404134Y340184D01*
X404074Y340103D01*
X404045Y340035D01*
X404006Y339971D01*
X403976Y339875D01*
X403936Y339783D01*
X403923Y339710D01*
X403900Y339639D01*
X403892Y339539D01*
X403874Y339440D01*
X403878Y339366D01*
X403872Y339292D01*
X403887Y339192D01*
X403892Y339092D01*
X403913Y339021D01*
X403924Y338947D01*
X403961Y338854D01*
X403989Y338757D01*
X404025Y338692D01*
X404053Y338623D01*
X404110Y338541D01*
X404159Y338453D01*
X404224Y338377D01*
X404252Y338337D01*
X404278Y338313D01*
X404317Y338267D01*
X405131Y337454D01*
X405131Y53452D01*
X403494Y51815D01*
X140828Y51815D01*
G37*
%LPD*%
G36*
X402454Y53356D02*
X402454Y53356D01*
X402573Y53363D01*
X402611Y53376D01*
X402652Y53381D01*
X402762Y53424D01*
X402875Y53461D01*
X402910Y53483D01*
X402947Y53498D01*
X403043Y53568D01*
X403144Y53631D01*
X403172Y53661D01*
X403205Y53684D01*
X403281Y53776D01*
X403362Y53863D01*
X403382Y53898D01*
X403407Y53929D01*
X403458Y54037D01*
X403516Y54141D01*
X403526Y54181D01*
X403543Y54217D01*
X403565Y54334D01*
X403595Y54449D01*
X403599Y54510D01*
X403603Y54530D01*
X403601Y54550D01*
X403605Y54610D01*
X403605Y336296D01*
X403590Y336414D01*
X403583Y336533D01*
X403570Y336571D01*
X403565Y336612D01*
X403522Y336722D01*
X403485Y336835D01*
X403463Y336870D01*
X403448Y336907D01*
X403379Y337003D01*
X403315Y337104D01*
X403285Y337132D01*
X403262Y337165D01*
X403170Y337241D01*
X403083Y337322D01*
X403048Y337342D01*
X403017Y337367D01*
X402909Y337418D01*
X402805Y337476D01*
X402765Y337486D01*
X402729Y337503D01*
X402612Y337525D01*
X402497Y337555D01*
X402437Y337559D01*
X402417Y337563D01*
X402396Y337561D01*
X402336Y337565D01*
X141986Y337565D01*
X141868Y337550D01*
X141749Y337543D01*
X141711Y337530D01*
X141670Y337525D01*
X141560Y337482D01*
X141447Y337445D01*
X141412Y337423D01*
X141375Y337408D01*
X141279Y337339D01*
X141178Y337275D01*
X141150Y337245D01*
X141117Y337222D01*
X141042Y337130D01*
X140960Y337043D01*
X140940Y337008D01*
X140915Y336977D01*
X140864Y336869D01*
X140806Y336765D01*
X140796Y336725D01*
X140779Y336689D01*
X140757Y336572D01*
X140727Y336457D01*
X140723Y336397D01*
X140719Y336377D01*
X140721Y336356D01*
X140717Y336296D01*
X140717Y54610D01*
X140732Y54492D01*
X140739Y54373D01*
X140752Y54335D01*
X140757Y54294D01*
X140800Y54184D01*
X140837Y54071D01*
X140859Y54036D01*
X140874Y53999D01*
X140944Y53903D01*
X141007Y53802D01*
X141037Y53774D01*
X141060Y53741D01*
X141152Y53666D01*
X141239Y53584D01*
X141274Y53564D01*
X141305Y53539D01*
X141413Y53488D01*
X141517Y53430D01*
X141557Y53420D01*
X141593Y53403D01*
X141710Y53381D01*
X141825Y53351D01*
X141886Y53347D01*
X141906Y53343D01*
X141926Y53345D01*
X141986Y53341D01*
X402336Y53341D01*
X402454Y53356D01*
G37*
%LPC*%
G36*
X266918Y676401D02*
X266918Y676401D01*
X265429Y677890D01*
X265429Y791500D01*
X266918Y792989D01*
X455966Y792989D01*
X457455Y791500D01*
X457455Y677890D01*
X455966Y676401D01*
X266918Y676401D01*
G37*
%LPD*%
G36*
X565170Y119892D02*
X565170Y119892D01*
X565189Y119890D01*
X565291Y119912D01*
X565393Y119929D01*
X565410Y119938D01*
X565430Y119942D01*
X565519Y119995D01*
X565610Y120044D01*
X565624Y120058D01*
X565641Y120068D01*
X565708Y120147D01*
X565780Y120222D01*
X565788Y120240D01*
X565801Y120255D01*
X565840Y120351D01*
X565883Y120445D01*
X565885Y120465D01*
X565893Y120483D01*
X565911Y120650D01*
X565911Y226514D01*
X565900Y226585D01*
X565898Y226656D01*
X565880Y226705D01*
X565872Y226757D01*
X565838Y226820D01*
X565813Y226887D01*
X565781Y226928D01*
X565756Y226974D01*
X565705Y227023D01*
X565660Y227079D01*
X565616Y227108D01*
X565578Y227143D01*
X565513Y227174D01*
X565453Y227212D01*
X565402Y227225D01*
X565355Y227247D01*
X565284Y227255D01*
X565214Y227272D01*
X565162Y227268D01*
X565111Y227274D01*
X565040Y227259D01*
X564969Y227253D01*
X564921Y227233D01*
X564870Y227222D01*
X564809Y227185D01*
X564743Y227157D01*
X564687Y227112D01*
X564659Y227096D01*
X564644Y227078D01*
X564612Y227052D01*
X553916Y216356D01*
X553863Y216282D01*
X553803Y216213D01*
X553791Y216183D01*
X553772Y216156D01*
X553745Y216069D01*
X553729Y216029D01*
X553721Y216011D01*
X553720Y216007D01*
X553711Y215985D01*
X553707Y215944D01*
X553700Y215921D01*
X553701Y215889D01*
X553693Y215818D01*
X553693Y214017D01*
X551031Y211355D01*
X547265Y211355D01*
X544603Y214017D01*
X544603Y217783D01*
X547265Y220445D01*
X549066Y220445D01*
X549156Y220459D01*
X549247Y220467D01*
X549277Y220479D01*
X549309Y220484D01*
X549389Y220527D01*
X549473Y220563D01*
X549505Y220589D01*
X549526Y220600D01*
X549548Y220623D01*
X549604Y220668D01*
X565688Y236752D01*
X565741Y236826D01*
X565801Y236895D01*
X565813Y236925D01*
X565832Y236952D01*
X565859Y237039D01*
X565893Y237123D01*
X565897Y237164D01*
X565904Y237187D01*
X565903Y237219D01*
X565911Y237290D01*
X565911Y268355D01*
X565910Y268365D01*
X565910Y268372D01*
X565903Y268405D01*
X565897Y268445D01*
X565889Y268536D01*
X565877Y268566D01*
X565872Y268598D01*
X565829Y268678D01*
X565793Y268762D01*
X565767Y268794D01*
X565756Y268815D01*
X565733Y268837D01*
X565688Y268893D01*
X565657Y268924D01*
X565657Y296926D01*
X565654Y296946D01*
X565656Y296965D01*
X565634Y297067D01*
X565618Y297169D01*
X565608Y297186D01*
X565604Y297206D01*
X565551Y297295D01*
X565502Y297386D01*
X565488Y297400D01*
X565478Y297417D01*
X565399Y297484D01*
X565324Y297556D01*
X565306Y297564D01*
X565291Y297577D01*
X565195Y297616D01*
X565101Y297659D01*
X565081Y297661D01*
X565063Y297669D01*
X564896Y297687D01*
X553814Y297687D01*
X551210Y300291D01*
X539813Y311688D01*
X539739Y311741D01*
X539670Y311801D01*
X539640Y311813D01*
X539614Y311832D01*
X539527Y311859D01*
X539442Y311893D01*
X539401Y311897D01*
X539379Y311904D01*
X539346Y311903D01*
X539275Y311911D01*
X469900Y311911D01*
X469880Y311908D01*
X469861Y311910D01*
X469759Y311888D01*
X469657Y311872D01*
X469640Y311862D01*
X469620Y311858D01*
X469531Y311805D01*
X469440Y311756D01*
X469426Y311742D01*
X469409Y311732D01*
X469342Y311653D01*
X469271Y311578D01*
X469262Y311560D01*
X469249Y311545D01*
X469210Y311449D01*
X469167Y311355D01*
X469165Y311335D01*
X469157Y311317D01*
X469139Y311150D01*
X469139Y261111D01*
X444246Y261111D01*
X444226Y261108D01*
X444207Y261110D01*
X444105Y261088D01*
X444003Y261072D01*
X443986Y261062D01*
X443966Y261058D01*
X443877Y261005D01*
X443786Y260956D01*
X443772Y260942D01*
X443755Y260932D01*
X443688Y260853D01*
X443616Y260778D01*
X443608Y260760D01*
X443595Y260745D01*
X443556Y260649D01*
X443513Y260555D01*
X443511Y260535D01*
X443503Y260517D01*
X443485Y260350D01*
X443485Y209550D01*
X443488Y209530D01*
X443486Y209511D01*
X443508Y209409D01*
X443524Y209307D01*
X443534Y209290D01*
X443538Y209270D01*
X443591Y209181D01*
X443640Y209090D01*
X443654Y209076D01*
X443664Y209059D01*
X443739Y208995D01*
X443739Y120650D01*
X443742Y120630D01*
X443740Y120611D01*
X443762Y120509D01*
X443779Y120407D01*
X443788Y120390D01*
X443792Y120370D01*
X443845Y120281D01*
X443894Y120190D01*
X443908Y120176D01*
X443918Y120159D01*
X443997Y120092D01*
X444072Y120021D01*
X444090Y120012D01*
X444105Y119999D01*
X444201Y119960D01*
X444295Y119917D01*
X444315Y119915D01*
X444333Y119907D01*
X444500Y119889D01*
X565150Y119889D01*
X565170Y119892D01*
G37*
G36*
X454972Y677935D02*
X454972Y677935D01*
X455030Y677933D01*
X455112Y677955D01*
X455196Y677967D01*
X455249Y677991D01*
X455305Y678005D01*
X455378Y678048D01*
X455455Y678083D01*
X455500Y678121D01*
X455550Y678151D01*
X455608Y678212D01*
X455672Y678267D01*
X455704Y678315D01*
X455744Y678358D01*
X455783Y678433D01*
X455830Y678503D01*
X455847Y678559D01*
X455874Y678611D01*
X455885Y678679D01*
X455915Y678774D01*
X455918Y678874D01*
X455929Y678942D01*
X455929Y790448D01*
X455921Y790506D01*
X455923Y790564D01*
X455901Y790646D01*
X455889Y790730D01*
X455866Y790783D01*
X455851Y790839D01*
X455808Y790912D01*
X455773Y790989D01*
X455735Y791034D01*
X455706Y791084D01*
X455644Y791142D01*
X455590Y791206D01*
X455541Y791238D01*
X455498Y791278D01*
X455423Y791317D01*
X455353Y791364D01*
X455297Y791381D01*
X455245Y791408D01*
X455177Y791419D01*
X455082Y791449D01*
X454982Y791452D01*
X454914Y791463D01*
X267970Y791463D01*
X267912Y791455D01*
X267854Y791457D01*
X267772Y791435D01*
X267689Y791423D01*
X267635Y791400D01*
X267579Y791385D01*
X267506Y791342D01*
X267429Y791307D01*
X267384Y791269D01*
X267334Y791240D01*
X267276Y791178D01*
X267212Y791124D01*
X267180Y791075D01*
X267140Y791032D01*
X267101Y790957D01*
X267055Y790887D01*
X267037Y790831D01*
X267010Y790779D01*
X266999Y790711D01*
X266969Y790616D01*
X266966Y790516D01*
X266955Y790448D01*
X266955Y678942D01*
X266963Y678884D01*
X266961Y678826D01*
X266983Y678744D01*
X266995Y678661D01*
X267019Y678607D01*
X267033Y678551D01*
X267076Y678478D01*
X267111Y678401D01*
X267149Y678356D01*
X267179Y678306D01*
X267240Y678248D01*
X267295Y678184D01*
X267343Y678152D01*
X267386Y678112D01*
X267461Y678073D01*
X267531Y678027D01*
X267587Y678009D01*
X267639Y677982D01*
X267707Y677971D01*
X267802Y677941D01*
X267902Y677938D01*
X267970Y677927D01*
X454914Y677927D01*
X454972Y677935D01*
G37*
%LPC*%
G36*
X394115Y357035D02*
X394115Y357035D01*
X390798Y358409D01*
X388259Y360948D01*
X386885Y364265D01*
X386885Y367855D01*
X388259Y371172D01*
X390798Y373711D01*
X394115Y375085D01*
X397705Y375085D01*
X399336Y374409D01*
X399410Y374388D01*
X399480Y374358D01*
X399577Y374340D01*
X399671Y374313D01*
X399748Y374310D01*
X399823Y374296D01*
X399921Y374301D01*
X400019Y374296D01*
X400095Y374310D01*
X400171Y374314D01*
X400265Y374341D01*
X400362Y374359D01*
X400432Y374389D01*
X400506Y374411D01*
X400592Y374459D01*
X400682Y374498D01*
X400743Y374543D01*
X400810Y374581D01*
X400924Y374678D01*
X400962Y374706D01*
X400974Y374720D01*
X400996Y374739D01*
X405699Y379442D01*
X405778Y379541D01*
X405862Y379635D01*
X405886Y379677D01*
X405916Y379715D01*
X405970Y379829D01*
X406031Y379940D01*
X406044Y379987D01*
X406065Y380030D01*
X406091Y380154D01*
X406126Y380276D01*
X406131Y380336D01*
X406138Y380371D01*
X406137Y380419D01*
X406145Y380519D01*
X406145Y385255D01*
X406134Y385355D01*
X406132Y385455D01*
X406114Y385527D01*
X406105Y385601D01*
X406072Y385696D01*
X406047Y385793D01*
X406013Y385859D01*
X405988Y385929D01*
X405933Y386014D01*
X405887Y386103D01*
X405839Y386160D01*
X405799Y386222D01*
X405727Y386292D01*
X405662Y386368D01*
X405602Y386413D01*
X405548Y386464D01*
X405462Y386516D01*
X405381Y386575D01*
X405313Y386605D01*
X405249Y386643D01*
X405153Y386674D01*
X405061Y386713D01*
X404988Y386727D01*
X404917Y386749D01*
X404817Y386757D01*
X404718Y386775D01*
X404644Y386771D01*
X404570Y386777D01*
X404470Y386762D01*
X404370Y386757D01*
X404299Y386737D01*
X404225Y386726D01*
X404132Y386689D01*
X404035Y386661D01*
X403970Y386624D01*
X403901Y386597D01*
X403819Y386540D01*
X403731Y386491D01*
X403655Y386425D01*
X403615Y386398D01*
X403591Y386371D01*
X403545Y386332D01*
X401022Y383809D01*
X397705Y382435D01*
X394115Y382435D01*
X390798Y383809D01*
X388259Y386348D01*
X386885Y389665D01*
X386885Y393255D01*
X388259Y396572D01*
X390706Y399019D01*
X390768Y399097D01*
X390838Y399170D01*
X390876Y399234D01*
X390923Y399292D01*
X390966Y399383D01*
X391017Y399469D01*
X391040Y399540D01*
X391072Y399607D01*
X391093Y399705D01*
X391123Y399801D01*
X391129Y399875D01*
X391145Y399948D01*
X391143Y400048D01*
X391151Y400148D01*
X391140Y400222D01*
X391139Y400296D01*
X391115Y400393D01*
X391100Y400493D01*
X391072Y400562D01*
X391054Y400634D01*
X391008Y400723D01*
X390971Y400817D01*
X390928Y400878D01*
X390894Y400944D01*
X390829Y401020D01*
X390772Y401103D01*
X390717Y401153D01*
X390669Y401209D01*
X390588Y401269D01*
X390513Y401336D01*
X390448Y401372D01*
X390388Y401417D01*
X390296Y401456D01*
X390208Y401505D01*
X390137Y401525D01*
X390068Y401555D01*
X389969Y401572D01*
X389873Y401600D01*
X389773Y401608D01*
X389725Y401616D01*
X389689Y401614D01*
X389629Y401619D01*
X376791Y401619D01*
X376691Y401608D01*
X376591Y401606D01*
X376519Y401588D01*
X376445Y401579D01*
X376350Y401546D01*
X376253Y401521D01*
X376187Y401487D01*
X376117Y401462D01*
X376032Y401407D01*
X375943Y401361D01*
X375886Y401313D01*
X375824Y401273D01*
X375754Y401200D01*
X375678Y401136D01*
X375634Y401076D01*
X375582Y401022D01*
X375530Y400936D01*
X375471Y400855D01*
X375441Y400787D01*
X375403Y400723D01*
X375372Y400627D01*
X375333Y400535D01*
X375319Y400462D01*
X375297Y400391D01*
X375289Y400291D01*
X375271Y400192D01*
X375275Y400118D01*
X375269Y400044D01*
X375284Y399944D01*
X375289Y399844D01*
X375309Y399773D01*
X375320Y399699D01*
X375357Y399606D01*
X375385Y399509D01*
X375422Y399444D01*
X375449Y399375D01*
X375506Y399293D01*
X375555Y399205D01*
X375621Y399129D01*
X375648Y399089D01*
X375675Y399065D01*
X375714Y399019D01*
X378161Y396572D01*
X379535Y393255D01*
X379535Y389665D01*
X378161Y386348D01*
X375622Y383809D01*
X372305Y382435D01*
X368715Y382435D01*
X365398Y383809D01*
X362859Y386348D01*
X361485Y389665D01*
X361485Y393255D01*
X362859Y396572D01*
X365306Y399019D01*
X365368Y399097D01*
X365438Y399170D01*
X365476Y399234D01*
X365523Y399292D01*
X365566Y399383D01*
X365617Y399469D01*
X365640Y399540D01*
X365672Y399607D01*
X365693Y399705D01*
X365723Y399801D01*
X365729Y399875D01*
X365745Y399948D01*
X365743Y400048D01*
X365751Y400148D01*
X365740Y400222D01*
X365739Y400296D01*
X365715Y400393D01*
X365700Y400493D01*
X365672Y400562D01*
X365654Y400634D01*
X365608Y400723D01*
X365571Y400817D01*
X365528Y400878D01*
X365494Y400944D01*
X365429Y401020D01*
X365372Y401103D01*
X365317Y401153D01*
X365269Y401209D01*
X365188Y401269D01*
X365113Y401336D01*
X365048Y401372D01*
X364988Y401417D01*
X364896Y401456D01*
X364808Y401505D01*
X364737Y401525D01*
X364668Y401555D01*
X364569Y401572D01*
X364473Y401600D01*
X364373Y401608D01*
X364325Y401616D01*
X364289Y401614D01*
X364229Y401619D01*
X359493Y401619D01*
X359368Y401605D01*
X359242Y401598D01*
X359195Y401585D01*
X359147Y401579D01*
X359028Y401537D01*
X358907Y401502D01*
X358865Y401478D01*
X358819Y401462D01*
X358713Y401393D01*
X358603Y401332D01*
X358556Y401292D01*
X358526Y401273D01*
X358493Y401238D01*
X358416Y401173D01*
X353789Y396546D01*
X353742Y396486D01*
X353687Y396433D01*
X353634Y396350D01*
X353573Y396273D01*
X353540Y396204D01*
X353499Y396140D01*
X353466Y396047D01*
X353424Y395958D01*
X353408Y395883D01*
X353382Y395811D01*
X353371Y395713D01*
X353350Y395617D01*
X353352Y395541D01*
X353343Y395465D01*
X353355Y395367D01*
X353356Y395269D01*
X353375Y395195D01*
X353384Y395119D01*
X353430Y394977D01*
X353441Y394931D01*
X353450Y394914D01*
X353459Y394886D01*
X354135Y393255D01*
X354135Y389665D01*
X352761Y386348D01*
X350222Y383809D01*
X346905Y382435D01*
X343315Y382435D01*
X339998Y383809D01*
X337459Y386348D01*
X336085Y389665D01*
X336085Y393255D01*
X337459Y396572D01*
X339998Y399111D01*
X343315Y400485D01*
X346905Y400485D01*
X348536Y399809D01*
X348610Y399788D01*
X348680Y399758D01*
X348777Y399740D01*
X348871Y399713D01*
X348948Y399710D01*
X349023Y399696D01*
X349121Y399701D01*
X349219Y399696D01*
X349295Y399710D01*
X349371Y399714D01*
X349465Y399741D01*
X349562Y399759D01*
X349632Y399790D01*
X349706Y399811D01*
X349792Y399859D01*
X349882Y399898D01*
X349943Y399943D01*
X350010Y399981D01*
X350124Y400078D01*
X350162Y400106D01*
X350174Y400120D01*
X350196Y400139D01*
X356758Y406701D01*
X401110Y406701D01*
X401235Y406715D01*
X401362Y406722D01*
X401408Y406735D01*
X401456Y406741D01*
X401575Y406783D01*
X401697Y406818D01*
X401739Y406842D01*
X401784Y406858D01*
X401890Y406927D01*
X402001Y406988D01*
X402047Y407028D01*
X402077Y407047D01*
X402111Y407082D01*
X402187Y407147D01*
X445891Y450851D01*
X716376Y450851D01*
X716501Y450865D01*
X716627Y450872D01*
X716674Y450885D01*
X716722Y450891D01*
X716841Y450933D01*
X716962Y450968D01*
X717004Y450992D01*
X717050Y451008D01*
X717156Y451077D01*
X717266Y451138D01*
X717313Y451178D01*
X717343Y451197D01*
X717376Y451232D01*
X717453Y451297D01*
X805495Y539339D01*
X805574Y539438D01*
X805658Y539532D01*
X805682Y539574D01*
X805712Y539612D01*
X805766Y539726D01*
X805827Y539837D01*
X805840Y539884D01*
X805861Y539927D01*
X805887Y540051D01*
X805922Y540173D01*
X805927Y540233D01*
X805934Y540268D01*
X805933Y540316D01*
X805941Y540416D01*
X805941Y657269D01*
X805927Y657395D01*
X805920Y657521D01*
X805907Y657567D01*
X805901Y657615D01*
X805859Y657734D01*
X805824Y657856D01*
X805800Y657898D01*
X805784Y657944D01*
X805715Y658050D01*
X805654Y658160D01*
X805614Y658206D01*
X805595Y658236D01*
X805560Y658270D01*
X805495Y658346D01*
X800099Y663742D01*
X800099Y697266D01*
X805749Y702916D01*
X805828Y703015D01*
X805912Y703109D01*
X805936Y703151D01*
X805966Y703189D01*
X806020Y703303D01*
X806081Y703414D01*
X806094Y703461D01*
X806115Y703504D01*
X806141Y703628D01*
X806176Y703750D01*
X806181Y703810D01*
X806188Y703845D01*
X806187Y703893D01*
X806195Y703993D01*
X806195Y705877D01*
X808725Y708407D01*
X812303Y708407D01*
X814833Y705877D01*
X814833Y702299D01*
X813444Y700911D01*
X813428Y700890D01*
X813408Y700873D01*
X813320Y700754D01*
X813228Y700638D01*
X813216Y700614D01*
X813201Y700593D01*
X813142Y700457D01*
X813079Y700323D01*
X813073Y700297D01*
X813063Y700273D01*
X813036Y700127D01*
X813005Y699982D01*
X813006Y699956D01*
X813001Y699930D01*
X813009Y699781D01*
X813011Y699633D01*
X813018Y699608D01*
X813019Y699582D01*
X813060Y699439D01*
X813096Y699295D01*
X813108Y699272D01*
X813116Y699247D01*
X813188Y699117D01*
X813256Y698986D01*
X813273Y698966D01*
X813286Y698943D01*
X813444Y698756D01*
X814833Y697368D01*
X814833Y694087D01*
X814847Y693962D01*
X814854Y693836D01*
X814867Y693789D01*
X814873Y693741D01*
X814915Y693622D01*
X814950Y693501D01*
X814974Y693459D01*
X814990Y693413D01*
X815059Y693307D01*
X815120Y693197D01*
X815160Y693150D01*
X815179Y693120D01*
X815214Y693087D01*
X815279Y693010D01*
X822707Y685582D01*
X822707Y683394D01*
X822718Y683294D01*
X822720Y683194D01*
X822738Y683121D01*
X822747Y683048D01*
X822780Y682953D01*
X822805Y682856D01*
X822839Y682789D01*
X822864Y682719D01*
X822919Y682635D01*
X822965Y682546D01*
X823013Y682489D01*
X823053Y682427D01*
X823125Y682357D01*
X823190Y682280D01*
X823250Y682236D01*
X823304Y682184D01*
X823390Y682133D01*
X823471Y682073D01*
X823539Y682044D01*
X823603Y682006D01*
X823699Y681975D01*
X823791Y681935D01*
X823864Y681922D01*
X823935Y681899D01*
X824035Y681891D01*
X824134Y681874D01*
X824208Y681877D01*
X824282Y681871D01*
X824382Y681886D01*
X824482Y681891D01*
X824553Y681912D01*
X824627Y681923D01*
X824720Y681960D01*
X824817Y681988D01*
X824882Y682024D01*
X824951Y682052D01*
X825033Y682109D01*
X825121Y682158D01*
X825197Y682223D01*
X825237Y682251D01*
X825261Y682277D01*
X825307Y682317D01*
X827013Y684023D01*
X830591Y684023D01*
X833121Y681493D01*
X833121Y677915D01*
X831789Y676583D01*
X831710Y676484D01*
X831626Y676390D01*
X831602Y676348D01*
X831572Y676310D01*
X831518Y676196D01*
X831457Y676085D01*
X831444Y676039D01*
X831423Y675995D01*
X831397Y675872D01*
X831362Y675750D01*
X831357Y675689D01*
X831350Y675654D01*
X831351Y675606D01*
X831343Y675506D01*
X831343Y522188D01*
X730286Y421131D01*
X518705Y421131D01*
X518580Y421117D01*
X518454Y421110D01*
X518407Y421097D01*
X518359Y421091D01*
X518240Y421049D01*
X518119Y421014D01*
X518077Y420990D01*
X518031Y420974D01*
X517925Y420905D01*
X517815Y420844D01*
X517768Y420804D01*
X517738Y420785D01*
X517705Y420750D01*
X517628Y420685D01*
X500497Y403554D01*
X500418Y403455D01*
X500334Y403361D01*
X500310Y403319D01*
X500280Y403281D01*
X500226Y403167D01*
X500165Y403056D01*
X500152Y403009D01*
X500131Y402966D01*
X500105Y402842D01*
X500070Y402720D01*
X500065Y402660D01*
X500058Y402625D01*
X500059Y402577D01*
X500051Y402477D01*
X500051Y401194D01*
X500059Y401118D01*
X500058Y401041D01*
X500079Y400945D01*
X500091Y400847D01*
X500116Y400776D01*
X500133Y400701D01*
X500175Y400612D01*
X500208Y400519D01*
X500250Y400455D01*
X500282Y400386D01*
X500344Y400309D01*
X500397Y400227D01*
X500452Y400173D01*
X500500Y400114D01*
X500577Y400053D01*
X500648Y399984D01*
X500713Y399945D01*
X500773Y399898D01*
X500906Y399830D01*
X500947Y399806D01*
X500965Y399800D01*
X500991Y399786D01*
X502622Y399111D01*
X505161Y396572D01*
X506535Y393255D01*
X506535Y389665D01*
X505161Y386348D01*
X502622Y383809D01*
X499305Y382435D01*
X495715Y382435D01*
X492398Y383809D01*
X489859Y386348D01*
X488485Y389665D01*
X488485Y393255D01*
X489859Y396572D01*
X492398Y399111D01*
X494029Y399786D01*
X494096Y399824D01*
X494167Y399852D01*
X494248Y399908D01*
X494334Y399956D01*
X494390Y400007D01*
X494453Y400051D01*
X494519Y400124D01*
X494592Y400190D01*
X494635Y400253D01*
X494686Y400309D01*
X494734Y400396D01*
X494790Y400477D01*
X494818Y400548D01*
X494855Y400615D01*
X494882Y400709D01*
X494918Y400801D01*
X494929Y400876D01*
X494950Y400950D01*
X494962Y401099D01*
X494969Y401146D01*
X494967Y401165D01*
X494969Y401194D01*
X494969Y405212D01*
X496904Y407147D01*
X513622Y423865D01*
X513684Y423943D01*
X513754Y424016D01*
X513792Y424080D01*
X513838Y424138D01*
X513881Y424229D01*
X513933Y424315D01*
X513956Y424386D01*
X513987Y424453D01*
X514008Y424551D01*
X514039Y424647D01*
X514045Y424721D01*
X514061Y424794D01*
X514059Y424894D01*
X514067Y424994D01*
X514056Y425068D01*
X514055Y425142D01*
X514030Y425239D01*
X514015Y425339D01*
X513988Y425408D01*
X513970Y425480D01*
X513924Y425570D01*
X513887Y425663D01*
X513844Y425724D01*
X513810Y425790D01*
X513745Y425867D01*
X513688Y425949D01*
X513633Y425999D01*
X513584Y426055D01*
X513503Y426115D01*
X513429Y426182D01*
X513364Y426218D01*
X513304Y426263D01*
X513212Y426302D01*
X513124Y426351D01*
X513052Y426371D01*
X512984Y426401D01*
X512885Y426418D01*
X512788Y426446D01*
X512688Y426454D01*
X512641Y426462D01*
X512605Y426460D01*
X512545Y426465D01*
X455327Y426465D01*
X455202Y426451D01*
X455076Y426444D01*
X455029Y426431D01*
X454981Y426425D01*
X454862Y426383D01*
X454741Y426348D01*
X454699Y426324D01*
X454653Y426308D01*
X454547Y426239D01*
X454437Y426178D01*
X454390Y426138D01*
X454360Y426119D01*
X454327Y426084D01*
X454250Y426019D01*
X436565Y408334D01*
X436486Y408235D01*
X436402Y408141D01*
X436378Y408099D01*
X436348Y408061D01*
X436294Y407947D01*
X436233Y407836D01*
X436220Y407789D01*
X436199Y407746D01*
X436173Y407622D01*
X436138Y407500D01*
X436133Y407440D01*
X436126Y407405D01*
X436127Y407357D01*
X436119Y407257D01*
X436119Y397131D01*
X436124Y397081D01*
X436122Y397031D01*
X436144Y396908D01*
X436159Y396785D01*
X436176Y396737D01*
X436185Y396688D01*
X436234Y396574D01*
X436276Y396457D01*
X436303Y396414D01*
X436324Y396368D01*
X436398Y396268D01*
X436465Y396164D01*
X436501Y396129D01*
X436531Y396088D01*
X436626Y396008D01*
X436716Y395922D01*
X436759Y395896D01*
X436797Y395863D01*
X436908Y395807D01*
X437015Y395743D01*
X437063Y395728D01*
X437108Y395705D01*
X437228Y395675D01*
X437347Y395637D01*
X437397Y395633D01*
X437446Y395620D01*
X437570Y395619D01*
X437694Y395609D01*
X437744Y395616D01*
X437794Y395615D01*
X437916Y395642D01*
X438039Y395660D01*
X438086Y395679D01*
X438135Y395690D01*
X438247Y395743D01*
X438363Y395789D01*
X438404Y395818D01*
X438450Y395839D01*
X438547Y395917D01*
X438649Y395988D01*
X438683Y396025D01*
X438722Y396057D01*
X438799Y396154D01*
X438882Y396247D01*
X438907Y396291D01*
X438938Y396330D01*
X439049Y396548D01*
X439059Y396572D01*
X441598Y399111D01*
X444915Y400485D01*
X448505Y400485D01*
X451822Y399111D01*
X454361Y396572D01*
X455735Y393255D01*
X455735Y389665D01*
X454361Y386348D01*
X451822Y383809D01*
X448505Y382435D01*
X444915Y382435D01*
X441598Y383809D01*
X439059Y386348D01*
X439049Y386372D01*
X439025Y386416D01*
X439008Y386463D01*
X438940Y386568D01*
X438880Y386676D01*
X438846Y386714D01*
X438819Y386756D01*
X438729Y386843D01*
X438646Y386935D01*
X438604Y386963D01*
X438568Y386998D01*
X438461Y387062D01*
X438359Y387133D01*
X438312Y387151D01*
X438269Y387177D01*
X438151Y387215D01*
X438035Y387261D01*
X437985Y387268D01*
X437937Y387283D01*
X437814Y387293D01*
X437690Y387311D01*
X437640Y387307D01*
X437590Y387311D01*
X437467Y387293D01*
X437343Y387283D01*
X437295Y387267D01*
X437245Y387260D01*
X437129Y387214D01*
X437011Y387176D01*
X436968Y387150D01*
X436921Y387131D01*
X436819Y387060D01*
X436713Y386996D01*
X436676Y386961D01*
X436635Y386932D01*
X436552Y386840D01*
X436463Y386753D01*
X436435Y386711D01*
X436402Y386673D01*
X436342Y386564D01*
X436274Y386460D01*
X436257Y386412D01*
X436233Y386368D01*
X436199Y386248D01*
X436158Y386131D01*
X436152Y386081D01*
X436138Y386033D01*
X436119Y385789D01*
X436119Y377276D01*
X434184Y375341D01*
X429989Y371146D01*
X429942Y371086D01*
X429887Y371033D01*
X429834Y370950D01*
X429773Y370873D01*
X429740Y370804D01*
X429699Y370740D01*
X429666Y370647D01*
X429624Y370558D01*
X429608Y370483D01*
X429582Y370411D01*
X429571Y370313D01*
X429550Y370217D01*
X429552Y370141D01*
X429543Y370065D01*
X429555Y369967D01*
X429556Y369869D01*
X429575Y369795D01*
X429584Y369719D01*
X429630Y369577D01*
X429641Y369531D01*
X429650Y369514D01*
X429659Y369486D01*
X430335Y367855D01*
X430335Y364265D01*
X428961Y360948D01*
X426422Y358409D01*
X423105Y357035D01*
X419515Y357035D01*
X416198Y358409D01*
X413659Y360948D01*
X412285Y364265D01*
X412285Y367855D01*
X413659Y371172D01*
X416198Y373711D01*
X419515Y375085D01*
X423105Y375085D01*
X424736Y374409D01*
X424810Y374388D01*
X424880Y374358D01*
X424977Y374340D01*
X425071Y374313D01*
X425148Y374310D01*
X425223Y374296D01*
X425321Y374301D01*
X425419Y374296D01*
X425495Y374310D01*
X425571Y374314D01*
X425665Y374341D01*
X425762Y374359D01*
X425832Y374390D01*
X425906Y374411D01*
X425992Y374459D01*
X426082Y374498D01*
X426143Y374543D01*
X426210Y374581D01*
X426324Y374678D01*
X426362Y374706D01*
X426374Y374720D01*
X426396Y374739D01*
X430591Y378934D01*
X430670Y379033D01*
X430754Y379127D01*
X430778Y379169D01*
X430808Y379207D01*
X430862Y379321D01*
X430923Y379432D01*
X430936Y379479D01*
X430957Y379522D01*
X430983Y379646D01*
X431018Y379768D01*
X431023Y379828D01*
X431030Y379863D01*
X431029Y379911D01*
X431037Y380011D01*
X431037Y384747D01*
X431026Y384847D01*
X431024Y384947D01*
X431006Y385019D01*
X430997Y385093D01*
X430964Y385188D01*
X430939Y385285D01*
X430905Y385351D01*
X430880Y385421D01*
X430825Y385506D01*
X430779Y385595D01*
X430731Y385652D01*
X430691Y385714D01*
X430619Y385784D01*
X430554Y385860D01*
X430494Y385904D01*
X430440Y385956D01*
X430354Y386008D01*
X430273Y386067D01*
X430205Y386097D01*
X430141Y386135D01*
X430045Y386166D01*
X429953Y386205D01*
X429880Y386219D01*
X429809Y386241D01*
X429709Y386249D01*
X429610Y386267D01*
X429536Y386263D01*
X429462Y386269D01*
X429362Y386254D01*
X429262Y386249D01*
X429191Y386229D01*
X429117Y386218D01*
X429024Y386181D01*
X428927Y386153D01*
X428862Y386116D01*
X428793Y386089D01*
X428711Y386032D01*
X428623Y385983D01*
X428547Y385917D01*
X428507Y385890D01*
X428483Y385863D01*
X428437Y385824D01*
X426422Y383809D01*
X423105Y382435D01*
X419515Y382435D01*
X416198Y383809D01*
X413827Y386180D01*
X413749Y386242D01*
X413676Y386312D01*
X413612Y386350D01*
X413554Y386397D01*
X413463Y386440D01*
X413377Y386491D01*
X413306Y386514D01*
X413239Y386546D01*
X413141Y386567D01*
X413045Y386597D01*
X412971Y386603D01*
X412898Y386619D01*
X412798Y386617D01*
X412698Y386625D01*
X412624Y386614D01*
X412550Y386613D01*
X412453Y386589D01*
X412353Y386574D01*
X412284Y386546D01*
X412212Y386528D01*
X412123Y386482D01*
X412029Y386445D01*
X411968Y386402D01*
X411902Y386368D01*
X411826Y386303D01*
X411743Y386246D01*
X411693Y386191D01*
X411637Y386143D01*
X411577Y386062D01*
X411510Y385987D01*
X411474Y385922D01*
X411429Y385862D01*
X411390Y385770D01*
X411341Y385682D01*
X411321Y385611D01*
X411291Y385542D01*
X411274Y385443D01*
X411246Y385347D01*
X411238Y385247D01*
X411230Y385199D01*
X411232Y385163D01*
X411227Y385103D01*
X411227Y377784D01*
X404589Y371146D01*
X404542Y371086D01*
X404487Y371033D01*
X404434Y370950D01*
X404373Y370873D01*
X404340Y370804D01*
X404299Y370740D01*
X404266Y370647D01*
X404224Y370558D01*
X404208Y370483D01*
X404182Y370411D01*
X404171Y370313D01*
X404150Y370217D01*
X404152Y370141D01*
X404143Y370065D01*
X404155Y369967D01*
X404156Y369869D01*
X404175Y369795D01*
X404184Y369719D01*
X404230Y369577D01*
X404241Y369531D01*
X404250Y369514D01*
X404259Y369486D01*
X404935Y367855D01*
X404935Y364265D01*
X403561Y360948D01*
X401022Y358409D01*
X397705Y357035D01*
X394115Y357035D01*
G37*
%LPD*%
%LPC*%
G36*
X600324Y206303D02*
X600324Y206303D01*
X597662Y208965D01*
X597662Y212730D01*
X600324Y215392D01*
X604089Y215392D01*
X605139Y214342D01*
X605238Y214263D01*
X605332Y214179D01*
X605374Y214156D01*
X605412Y214126D01*
X605526Y214072D01*
X605637Y214010D01*
X605684Y213997D01*
X605727Y213977D01*
X605851Y213950D01*
X605972Y213916D01*
X606033Y213911D01*
X606068Y213903D01*
X606116Y213904D01*
X606216Y213896D01*
X638268Y213896D01*
X638394Y213910D01*
X638520Y213917D01*
X638566Y213930D01*
X638614Y213936D01*
X638733Y213978D01*
X638855Y214013D01*
X638897Y214037D01*
X638942Y214053D01*
X639049Y214122D01*
X639159Y214184D01*
X639205Y214223D01*
X639235Y214242D01*
X639269Y214277D01*
X639345Y214342D01*
X647988Y222985D01*
X687206Y222985D01*
X687331Y222999D01*
X687457Y223006D01*
X687504Y223019D01*
X687552Y223025D01*
X687671Y223067D01*
X687792Y223102D01*
X687834Y223126D01*
X687880Y223142D01*
X687986Y223211D01*
X688096Y223272D01*
X688143Y223312D01*
X688173Y223331D01*
X688206Y223366D01*
X688283Y223431D01*
X689590Y224738D01*
X693355Y224738D01*
X696022Y222071D01*
X696028Y222013D01*
X696030Y221913D01*
X696048Y221841D01*
X696057Y221767D01*
X696090Y221673D01*
X696115Y221575D01*
X696149Y221509D01*
X696174Y221439D01*
X696229Y221355D01*
X696275Y221265D01*
X696323Y221209D01*
X696363Y221146D01*
X696435Y221076D01*
X696500Y221000D01*
X696560Y220956D01*
X696614Y220904D01*
X696700Y220852D01*
X696781Y220793D01*
X696849Y220763D01*
X696913Y220725D01*
X697009Y220694D01*
X697101Y220655D01*
X697174Y220642D01*
X697245Y220619D01*
X697345Y220611D01*
X697444Y220593D01*
X697518Y220597D01*
X697592Y220591D01*
X697692Y220606D01*
X697792Y220611D01*
X697863Y220632D01*
X697937Y220643D01*
X698030Y220680D01*
X698127Y220707D01*
X698192Y220744D01*
X698261Y220771D01*
X698343Y220829D01*
X698431Y220878D01*
X698507Y220943D01*
X698547Y220970D01*
X698571Y220997D01*
X698617Y221036D01*
X702427Y224846D01*
X702493Y224929D01*
X702535Y224973D01*
X702544Y224988D01*
X702590Y225039D01*
X702614Y225081D01*
X702644Y225119D01*
X702698Y225233D01*
X702759Y225344D01*
X702772Y225391D01*
X702793Y225434D01*
X702819Y225558D01*
X702854Y225680D01*
X702859Y225740D01*
X702866Y225775D01*
X702865Y225823D01*
X702873Y225923D01*
X702873Y227408D01*
X705535Y230070D01*
X709676Y230070D01*
X709702Y230073D01*
X709728Y230071D01*
X709875Y230093D01*
X710022Y230110D01*
X710047Y230119D01*
X710073Y230123D01*
X710211Y230178D01*
X710350Y230228D01*
X710372Y230242D01*
X710397Y230252D01*
X710518Y230336D01*
X710643Y230417D01*
X710661Y230436D01*
X710683Y230450D01*
X710782Y230560D01*
X710885Y230667D01*
X710899Y230690D01*
X710916Y230709D01*
X710988Y230839D01*
X711064Y230966D01*
X711072Y230991D01*
X711085Y231014D01*
X711125Y231157D01*
X711170Y231298D01*
X711172Y231324D01*
X711180Y231350D01*
X711199Y231593D01*
X711199Y251996D01*
X711196Y252022D01*
X711198Y252048D01*
X711176Y252195D01*
X711159Y252342D01*
X711151Y252367D01*
X711147Y252393D01*
X711092Y252531D01*
X711042Y252670D01*
X711028Y252692D01*
X711018Y252717D01*
X710933Y252838D01*
X710853Y252963D01*
X710834Y252981D01*
X710819Y253003D01*
X710709Y253102D01*
X710602Y253205D01*
X710580Y253219D01*
X710560Y253236D01*
X710430Y253308D01*
X710303Y253384D01*
X710278Y253392D01*
X710255Y253405D01*
X710112Y253445D01*
X709971Y253490D01*
X709945Y253492D01*
X709920Y253500D01*
X709676Y253519D01*
X708809Y253519D01*
X706943Y255386D01*
X706922Y255402D01*
X706906Y255422D01*
X706786Y255510D01*
X706670Y255602D01*
X706646Y255613D01*
X706625Y255629D01*
X706489Y255688D01*
X706355Y255751D01*
X706329Y255757D01*
X706305Y255767D01*
X706159Y255793D01*
X706014Y255825D01*
X705988Y255824D01*
X705962Y255829D01*
X705814Y255821D01*
X705666Y255819D01*
X705640Y255812D01*
X705614Y255811D01*
X705472Y255770D01*
X705328Y255734D01*
X705305Y255722D01*
X705279Y255714D01*
X705150Y255642D01*
X705018Y255574D01*
X704998Y255557D01*
X704975Y255544D01*
X704789Y255386D01*
X702923Y253519D01*
X699157Y253519D01*
X696495Y256181D01*
X696495Y259947D01*
X696529Y259980D01*
X696608Y260079D01*
X696692Y260173D01*
X696716Y260216D01*
X696746Y260253D01*
X696800Y260368D01*
X696861Y260478D01*
X696874Y260525D01*
X696895Y260568D01*
X696921Y260692D01*
X696956Y260814D01*
X696961Y260874D01*
X696968Y260909D01*
X696967Y260957D01*
X696975Y261057D01*
X696975Y356821D01*
X696967Y356897D01*
X696968Y356973D01*
X696947Y357069D01*
X696935Y357167D01*
X696910Y357239D01*
X696893Y357314D01*
X696851Y357403D01*
X696818Y357495D01*
X696776Y357559D01*
X696744Y357628D01*
X696682Y357705D01*
X696629Y357788D01*
X696574Y357841D01*
X696526Y357901D01*
X696449Y357962D01*
X696378Y358030D01*
X696313Y358069D01*
X696253Y358117D01*
X696120Y358185D01*
X696079Y358209D01*
X696061Y358215D01*
X696035Y358228D01*
X695598Y358409D01*
X693059Y360948D01*
X691685Y364265D01*
X691685Y367855D01*
X693059Y371172D01*
X695598Y373711D01*
X698915Y375085D01*
X702505Y375085D01*
X705822Y373711D01*
X708361Y371172D01*
X709735Y367855D01*
X709735Y364265D01*
X708361Y360948D01*
X705822Y358409D01*
X704013Y357660D01*
X703946Y357623D01*
X703875Y357595D01*
X703795Y357538D01*
X703708Y357491D01*
X703652Y357439D01*
X703589Y357396D01*
X703523Y357323D01*
X703450Y357256D01*
X703407Y357194D01*
X703356Y357137D01*
X703308Y357051D01*
X703252Y356970D01*
X703224Y356899D01*
X703187Y356832D01*
X703160Y356737D01*
X703124Y356646D01*
X703113Y356570D01*
X703092Y356496D01*
X703080Y356347D01*
X703073Y356301D01*
X703075Y356282D01*
X703073Y356253D01*
X703073Y336522D01*
X703076Y336496D01*
X703074Y336470D01*
X703096Y336323D01*
X703113Y336176D01*
X703121Y336151D01*
X703125Y336125D01*
X703180Y335987D01*
X703230Y335848D01*
X703244Y335826D01*
X703254Y335801D01*
X703339Y335680D01*
X703419Y335555D01*
X703438Y335537D01*
X703453Y335515D01*
X703563Y335416D01*
X703670Y335313D01*
X703692Y335299D01*
X703712Y335282D01*
X703842Y335210D01*
X703969Y335134D01*
X703994Y335126D01*
X704017Y335113D01*
X704160Y335073D01*
X704301Y335028D01*
X704327Y335026D01*
X704352Y335018D01*
X704596Y334999D01*
X708991Y334999D01*
X710040Y333949D01*
X710139Y333870D01*
X710233Y333786D01*
X710276Y333762D01*
X710313Y333732D01*
X710428Y333678D01*
X710538Y333617D01*
X710585Y333604D01*
X710628Y333583D01*
X710752Y333557D01*
X710874Y333522D01*
X710934Y333517D01*
X710969Y333510D01*
X711017Y333511D01*
X711117Y333503D01*
X721415Y333503D01*
X721540Y333517D01*
X721666Y333524D01*
X721713Y333537D01*
X721761Y333543D01*
X721880Y333585D01*
X722001Y333620D01*
X722043Y333644D01*
X722089Y333660D01*
X722195Y333729D01*
X722305Y333790D01*
X722352Y333830D01*
X722382Y333849D01*
X722415Y333884D01*
X722492Y333949D01*
X723541Y334999D01*
X727307Y334999D01*
X729969Y332337D01*
X729969Y328571D01*
X727307Y325909D01*
X723541Y325909D01*
X722492Y326959D01*
X722393Y327038D01*
X722299Y327122D01*
X722256Y327146D01*
X722219Y327176D01*
X722104Y327230D01*
X721994Y327291D01*
X721947Y327304D01*
X721904Y327325D01*
X721780Y327351D01*
X721658Y327386D01*
X721598Y327391D01*
X721563Y327398D01*
X721515Y327397D01*
X721415Y327405D01*
X711117Y327405D01*
X710992Y327391D01*
X710866Y327384D01*
X710819Y327371D01*
X710771Y327365D01*
X710652Y327323D01*
X710531Y327288D01*
X710489Y327264D01*
X710443Y327248D01*
X710337Y327179D01*
X710227Y327118D01*
X710180Y327078D01*
X710150Y327059D01*
X710117Y327024D01*
X710040Y326959D01*
X708991Y325909D01*
X704596Y325909D01*
X704570Y325906D01*
X704544Y325908D01*
X704397Y325886D01*
X704250Y325869D01*
X704225Y325861D01*
X704199Y325857D01*
X704061Y325802D01*
X703922Y325752D01*
X703900Y325738D01*
X703875Y325728D01*
X703754Y325643D01*
X703629Y325563D01*
X703611Y325544D01*
X703589Y325529D01*
X703490Y325419D01*
X703387Y325312D01*
X703373Y325290D01*
X703356Y325270D01*
X703284Y325140D01*
X703208Y325013D01*
X703200Y324988D01*
X703187Y324965D01*
X703147Y324822D01*
X703102Y324681D01*
X703100Y324655D01*
X703092Y324630D01*
X703073Y324386D01*
X703073Y316027D01*
X703076Y316001D01*
X703074Y315975D01*
X703096Y315828D01*
X703113Y315681D01*
X703121Y315656D01*
X703125Y315630D01*
X703180Y315492D01*
X703230Y315352D01*
X703244Y315330D01*
X703254Y315306D01*
X703339Y315185D01*
X703419Y315060D01*
X703438Y315041D01*
X703453Y315020D01*
X703563Y314921D01*
X703670Y314817D01*
X703692Y314804D01*
X703712Y314786D01*
X703842Y314715D01*
X703969Y314639D01*
X703994Y314631D01*
X704017Y314618D01*
X704160Y314578D01*
X704301Y314532D01*
X704327Y314530D01*
X704352Y314523D01*
X704596Y314504D01*
X720957Y314504D01*
X721083Y314518D01*
X721209Y314525D01*
X721256Y314538D01*
X721304Y314543D01*
X721423Y314586D01*
X721544Y314621D01*
X721586Y314645D01*
X721632Y314661D01*
X721738Y314730D01*
X721848Y314791D01*
X721894Y314831D01*
X721924Y314850D01*
X721958Y314885D01*
X722034Y314950D01*
X723287Y316203D01*
X727053Y316203D01*
X729715Y313541D01*
X729715Y309775D01*
X727053Y307113D01*
X723287Y307113D01*
X722441Y307960D01*
X722342Y308038D01*
X722248Y308123D01*
X722206Y308147D01*
X722168Y308177D01*
X722054Y308231D01*
X721943Y308292D01*
X721896Y308305D01*
X721853Y308325D01*
X721729Y308352D01*
X721608Y308386D01*
X721547Y308391D01*
X721512Y308399D01*
X721464Y308398D01*
X721364Y308406D01*
X704596Y308406D01*
X704570Y308403D01*
X704544Y308405D01*
X704397Y308383D01*
X704250Y308366D01*
X704225Y308357D01*
X704199Y308353D01*
X704061Y308299D01*
X703922Y308249D01*
X703900Y308234D01*
X703875Y308225D01*
X703754Y308140D01*
X703629Y308060D01*
X703611Y308041D01*
X703589Y308026D01*
X703490Y307916D01*
X703387Y307809D01*
X703373Y307786D01*
X703356Y307767D01*
X703284Y307637D01*
X703208Y307510D01*
X703200Y307485D01*
X703187Y307462D01*
X703147Y307319D01*
X703102Y307178D01*
X703100Y307152D01*
X703092Y307127D01*
X703073Y306883D01*
X703073Y263089D01*
X703087Y262964D01*
X703094Y262838D01*
X703107Y262791D01*
X703113Y262743D01*
X703155Y262624D01*
X703190Y262503D01*
X703214Y262461D01*
X703230Y262415D01*
X703299Y262309D01*
X703360Y262199D01*
X703400Y262152D01*
X703419Y262122D01*
X703454Y262089D01*
X703519Y262012D01*
X704789Y260742D01*
X704809Y260726D01*
X704826Y260706D01*
X704946Y260618D01*
X705062Y260526D01*
X705086Y260515D01*
X705107Y260499D01*
X705243Y260440D01*
X705377Y260377D01*
X705403Y260371D01*
X705427Y260361D01*
X705573Y260335D01*
X705718Y260303D01*
X705744Y260304D01*
X705770Y260299D01*
X705918Y260307D01*
X706066Y260309D01*
X706092Y260316D01*
X706118Y260317D01*
X706260Y260358D01*
X706404Y260394D01*
X706427Y260406D01*
X706453Y260414D01*
X706582Y260486D01*
X706714Y260554D01*
X706734Y260571D01*
X706757Y260584D01*
X706943Y260742D01*
X708809Y262609D01*
X712575Y262609D01*
X715237Y259947D01*
X715237Y258462D01*
X715251Y258336D01*
X715258Y258210D01*
X715271Y258164D01*
X715277Y258116D01*
X715319Y257997D01*
X715354Y257875D01*
X715378Y257833D01*
X715394Y257787D01*
X715463Y257681D01*
X715524Y257571D01*
X715564Y257525D01*
X715583Y257495D01*
X715618Y257461D01*
X715683Y257385D01*
X717297Y255771D01*
X717297Y219209D01*
X712381Y214293D01*
X712302Y214194D01*
X712218Y214100D01*
X712194Y214058D01*
X712164Y214020D01*
X712110Y213906D01*
X712049Y213795D01*
X712036Y213749D01*
X712015Y213705D01*
X711989Y213582D01*
X711954Y213460D01*
X711949Y213399D01*
X711942Y213365D01*
X711943Y213317D01*
X711935Y213216D01*
X711935Y211731D01*
X709273Y209069D01*
X705507Y209069D01*
X702845Y211731D01*
X702845Y212964D01*
X702834Y213064D01*
X702832Y213164D01*
X702814Y213236D01*
X702805Y213310D01*
X702772Y213404D01*
X702747Y213502D01*
X702713Y213568D01*
X702688Y213638D01*
X702633Y213722D01*
X702587Y213812D01*
X702539Y213868D01*
X702499Y213931D01*
X702427Y214001D01*
X702362Y214077D01*
X702302Y214121D01*
X702248Y214173D01*
X702162Y214225D01*
X702081Y214284D01*
X702013Y214314D01*
X701949Y214352D01*
X701853Y214383D01*
X701761Y214422D01*
X701688Y214435D01*
X701617Y214458D01*
X701517Y214466D01*
X701418Y214484D01*
X701344Y214480D01*
X701270Y214486D01*
X701170Y214471D01*
X701070Y214466D01*
X700999Y214445D01*
X700925Y214434D01*
X700832Y214397D01*
X700735Y214370D01*
X700670Y214333D01*
X700601Y214306D01*
X700519Y214248D01*
X700431Y214199D01*
X700355Y214134D01*
X700315Y214107D01*
X700291Y214080D01*
X700245Y214041D01*
X696515Y210311D01*
X657043Y210311D01*
X656918Y210297D01*
X656792Y210290D01*
X656745Y210277D01*
X656697Y210271D01*
X656578Y210229D01*
X656457Y210194D01*
X656415Y210170D01*
X656369Y210154D01*
X656263Y210085D01*
X656153Y210024D01*
X656106Y209984D01*
X656076Y209965D01*
X656043Y209930D01*
X655966Y209865D01*
X654917Y208815D01*
X651151Y208815D01*
X648451Y211515D01*
X648449Y211532D01*
X648416Y211626D01*
X648391Y211724D01*
X648357Y211790D01*
X648332Y211860D01*
X648277Y211944D01*
X648231Y212034D01*
X648183Y212090D01*
X648143Y212153D01*
X648071Y212223D01*
X648006Y212299D01*
X647946Y212343D01*
X647892Y212395D01*
X647806Y212447D01*
X647725Y212506D01*
X647657Y212536D01*
X647593Y212574D01*
X647497Y212605D01*
X647405Y212644D01*
X647332Y212657D01*
X647261Y212680D01*
X647161Y212688D01*
X647062Y212706D01*
X646988Y212702D01*
X646914Y212708D01*
X646814Y212693D01*
X646714Y212688D01*
X646643Y212667D01*
X646569Y212656D01*
X646476Y212619D01*
X646379Y212592D01*
X646314Y212555D01*
X646245Y212528D01*
X646163Y212470D01*
X646075Y212421D01*
X645999Y212356D01*
X645959Y212329D01*
X645935Y212302D01*
X645889Y212263D01*
X641425Y207799D01*
X606216Y207799D01*
X606091Y207784D01*
X605964Y207778D01*
X605918Y207764D01*
X605870Y207759D01*
X605751Y207716D01*
X605629Y207681D01*
X605587Y207657D01*
X605542Y207641D01*
X605436Y207573D01*
X605325Y207511D01*
X605279Y207471D01*
X605249Y207452D01*
X605216Y207417D01*
X605139Y207352D01*
X604089Y206303D01*
X600324Y206303D01*
G37*
%LPD*%
%LPC*%
G36*
X803761Y383544D02*
X803761Y383544D01*
X794814Y386800D01*
X787521Y392920D01*
X782760Y401165D01*
X781107Y410541D01*
X782760Y419918D01*
X787521Y428163D01*
X794814Y434283D01*
X803761Y437539D01*
X813282Y437539D01*
X822229Y434283D01*
X829522Y428163D01*
X834282Y419918D01*
X835936Y410541D01*
X834282Y401165D01*
X829522Y392920D01*
X822229Y386800D01*
X813282Y383544D01*
X803761Y383544D01*
G37*
%LPD*%
%LPC*%
G36*
X143361Y351794D02*
X143361Y351794D01*
X134414Y355050D01*
X127121Y361170D01*
X122360Y369415D01*
X120707Y378791D01*
X122360Y388168D01*
X127121Y396413D01*
X134414Y402533D01*
X143361Y405789D01*
X152882Y405789D01*
X161829Y402533D01*
X169122Y396413D01*
X173882Y388168D01*
X175536Y378791D01*
X173882Y369415D01*
X169122Y361170D01*
X161829Y355050D01*
X152882Y351794D01*
X143361Y351794D01*
G37*
%LPD*%
%LPC*%
G36*
X115971Y133619D02*
X115971Y133619D01*
X111184Y135602D01*
X107520Y139266D01*
X105537Y144053D01*
X105537Y149235D01*
X107520Y154022D01*
X111184Y157686D01*
X115971Y159669D01*
X121153Y159669D01*
X125940Y157686D01*
X129604Y154022D01*
X131587Y149235D01*
X131587Y144053D01*
X129604Y139266D01*
X125940Y135602D01*
X121153Y133619D01*
X115971Y133619D01*
G37*
%LPD*%
%LPC*%
G36*
X98170Y182119D02*
X98170Y182119D01*
X93750Y183950D01*
X90368Y187332D01*
X88537Y191752D01*
X88537Y196536D01*
X90368Y200956D01*
X93750Y204338D01*
X98170Y206169D01*
X102954Y206169D01*
X107374Y204338D01*
X110756Y200956D01*
X112587Y196536D01*
X112587Y191752D01*
X110756Y187332D01*
X107374Y183950D01*
X102954Y182119D01*
X98170Y182119D01*
G37*
%LPD*%
%LPC*%
G36*
X51170Y182119D02*
X51170Y182119D01*
X46750Y183950D01*
X43368Y187332D01*
X41537Y191752D01*
X41537Y196536D01*
X43368Y200956D01*
X46750Y204338D01*
X51170Y206169D01*
X55954Y206169D01*
X60374Y204338D01*
X63756Y200956D01*
X65587Y196536D01*
X65587Y191752D01*
X63756Y187332D01*
X60374Y183950D01*
X55954Y182119D01*
X51170Y182119D01*
G37*
%LPD*%
%LPC*%
G36*
X51170Y87119D02*
X51170Y87119D01*
X46750Y88950D01*
X43368Y92332D01*
X41537Y96752D01*
X41537Y101536D01*
X43368Y105956D01*
X46750Y109338D01*
X51170Y111169D01*
X55954Y111169D01*
X60374Y109338D01*
X63756Y105956D01*
X65587Y101536D01*
X65587Y96752D01*
X63756Y92332D01*
X60374Y88950D01*
X55954Y87119D01*
X51170Y87119D01*
G37*
%LPD*%
%LPC*%
G36*
X98170Y87119D02*
X98170Y87119D01*
X93750Y88950D01*
X90368Y92332D01*
X88537Y96752D01*
X88537Y101536D01*
X90368Y105956D01*
X93750Y109338D01*
X98170Y111169D01*
X102954Y111169D01*
X107374Y109338D01*
X110756Y105956D01*
X112587Y101536D01*
X112587Y96752D01*
X110756Y92332D01*
X107374Y88950D01*
X102954Y87119D01*
X98170Y87119D01*
G37*
%LPD*%
%LPC*%
G36*
X442363Y33945D02*
X442363Y33945D01*
X439701Y36607D01*
X439701Y40372D01*
X441005Y41676D01*
X441084Y41775D01*
X441168Y41869D01*
X441192Y41912D01*
X441222Y41949D01*
X441276Y42064D01*
X441337Y42174D01*
X441350Y42221D01*
X441371Y42264D01*
X441397Y42388D01*
X441432Y42510D01*
X441437Y42570D01*
X441444Y42605D01*
X441443Y42653D01*
X441451Y42753D01*
X441451Y72379D01*
X441437Y72505D01*
X441430Y72631D01*
X441417Y72678D01*
X441411Y72726D01*
X441369Y72845D01*
X441334Y72966D01*
X441310Y73008D01*
X441294Y73054D01*
X441225Y73160D01*
X441164Y73270D01*
X441124Y73317D01*
X441105Y73347D01*
X441070Y73380D01*
X441005Y73457D01*
X424965Y89497D01*
X424866Y89576D01*
X424772Y89660D01*
X424729Y89684D01*
X424692Y89714D01*
X424577Y89768D01*
X424467Y89829D01*
X424420Y89842D01*
X424376Y89863D01*
X424253Y89889D01*
X424131Y89924D01*
X424070Y89929D01*
X424036Y89936D01*
X423988Y89935D01*
X423887Y89943D01*
X422043Y89943D01*
X419381Y92605D01*
X419381Y96371D01*
X422043Y99033D01*
X425809Y99033D01*
X428471Y96371D01*
X428471Y94527D01*
X428485Y94401D01*
X428492Y94275D01*
X428505Y94228D01*
X428511Y94180D01*
X428553Y94061D01*
X428588Y93940D01*
X428612Y93898D01*
X428628Y93852D01*
X428697Y93746D01*
X428758Y93636D01*
X428798Y93589D01*
X428817Y93559D01*
X428852Y93526D01*
X428917Y93449D01*
X447041Y75326D01*
X447041Y42753D01*
X447055Y42628D01*
X447062Y42502D01*
X447075Y42455D01*
X447081Y42407D01*
X447123Y42288D01*
X447158Y42167D01*
X447182Y42125D01*
X447198Y42079D01*
X447267Y41973D01*
X447328Y41863D01*
X447368Y41816D01*
X447387Y41786D01*
X447422Y41753D01*
X447487Y41676D01*
X448791Y40372D01*
X448791Y36607D01*
X446129Y33945D01*
X442363Y33945D01*
G37*
%LPD*%
%LPC*%
G36*
X267115Y839635D02*
X267115Y839635D01*
X263798Y841009D01*
X261259Y843548D01*
X259885Y846865D01*
X259885Y850455D01*
X261259Y853772D01*
X263798Y856311D01*
X267115Y857685D01*
X270705Y857685D01*
X274022Y856311D01*
X276561Y853772D01*
X277935Y850455D01*
X277935Y846865D01*
X276561Y843548D01*
X274022Y841009D01*
X270705Y839635D01*
X267115Y839635D01*
G37*
%LPD*%
%LPC*%
G36*
X495715Y357035D02*
X495715Y357035D01*
X492398Y358409D01*
X489859Y360948D01*
X488485Y364265D01*
X488485Y367855D01*
X489859Y371172D01*
X492398Y373711D01*
X495715Y375085D01*
X499305Y375085D01*
X502622Y373711D01*
X505161Y371172D01*
X506535Y367855D01*
X506535Y364265D01*
X505161Y360948D01*
X502622Y358409D01*
X499305Y357035D01*
X495715Y357035D01*
G37*
%LPD*%
%LPC*%
G36*
X470315Y839635D02*
X470315Y839635D01*
X466998Y841009D01*
X464459Y843548D01*
X463085Y846865D01*
X463085Y850455D01*
X464459Y853772D01*
X466998Y856311D01*
X470315Y857685D01*
X473905Y857685D01*
X477222Y856311D01*
X479761Y853772D01*
X481135Y850455D01*
X481135Y846865D01*
X479761Y843548D01*
X477222Y841009D01*
X473905Y839635D01*
X470315Y839635D01*
G37*
%LPD*%
%LPC*%
G36*
X444915Y839635D02*
X444915Y839635D01*
X441598Y841009D01*
X439059Y843548D01*
X437685Y846865D01*
X437685Y850455D01*
X439059Y853772D01*
X441598Y856311D01*
X444915Y857685D01*
X448505Y857685D01*
X451822Y856311D01*
X454361Y853772D01*
X455735Y850455D01*
X455735Y846865D01*
X454361Y843548D01*
X451822Y841009D01*
X448505Y839635D01*
X444915Y839635D01*
G37*
%LPD*%
%LPC*%
G36*
X419515Y839635D02*
X419515Y839635D01*
X416198Y841009D01*
X413659Y843548D01*
X412285Y846865D01*
X412285Y850455D01*
X413659Y853772D01*
X416198Y856311D01*
X419515Y857685D01*
X423105Y857685D01*
X426422Y856311D01*
X428961Y853772D01*
X430335Y850455D01*
X430335Y846865D01*
X428961Y843548D01*
X426422Y841009D01*
X423105Y839635D01*
X419515Y839635D01*
G37*
%LPD*%
%LPC*%
G36*
X394115Y839635D02*
X394115Y839635D01*
X390798Y841009D01*
X388259Y843548D01*
X386885Y846865D01*
X386885Y850455D01*
X388259Y853772D01*
X390798Y856311D01*
X394115Y857685D01*
X397705Y857685D01*
X401022Y856311D01*
X403561Y853772D01*
X404935Y850455D01*
X404935Y846865D01*
X403561Y843548D01*
X401022Y841009D01*
X397705Y839635D01*
X394115Y839635D01*
G37*
%LPD*%
%LPC*%
G36*
X368715Y839635D02*
X368715Y839635D01*
X365398Y841009D01*
X362859Y843548D01*
X361485Y846865D01*
X361485Y850455D01*
X362859Y853772D01*
X365398Y856311D01*
X368715Y857685D01*
X372305Y857685D01*
X375622Y856311D01*
X378161Y853772D01*
X379535Y850455D01*
X379535Y846865D01*
X378161Y843548D01*
X375622Y841009D01*
X372305Y839635D01*
X368715Y839635D01*
G37*
%LPD*%
%LPC*%
G36*
X343315Y839635D02*
X343315Y839635D01*
X339998Y841009D01*
X337459Y843548D01*
X336085Y846865D01*
X336085Y850455D01*
X337459Y853772D01*
X339998Y856311D01*
X343315Y857685D01*
X346905Y857685D01*
X350222Y856311D01*
X352761Y853772D01*
X354135Y850455D01*
X354135Y846865D01*
X352761Y843548D01*
X350222Y841009D01*
X346905Y839635D01*
X343315Y839635D01*
G37*
%LPD*%
%LPC*%
G36*
X673515Y382435D02*
X673515Y382435D01*
X670198Y383809D01*
X667659Y386348D01*
X666285Y389665D01*
X666285Y393255D01*
X667659Y396572D01*
X670198Y399111D01*
X673515Y400485D01*
X677105Y400485D01*
X680422Y399111D01*
X682961Y396572D01*
X684335Y393255D01*
X684335Y389665D01*
X682961Y386348D01*
X680422Y383809D01*
X677105Y382435D01*
X673515Y382435D01*
G37*
%LPD*%
%LPC*%
G36*
X292515Y839635D02*
X292515Y839635D01*
X289198Y841009D01*
X286659Y843548D01*
X285285Y846865D01*
X285285Y850455D01*
X286659Y853772D01*
X289198Y856311D01*
X292515Y857685D01*
X296105Y857685D01*
X299422Y856311D01*
X301961Y853772D01*
X303335Y850455D01*
X303335Y846865D01*
X301961Y843548D01*
X299422Y841009D01*
X296105Y839635D01*
X292515Y839635D01*
G37*
%LPD*%
%LPC*%
G36*
X317915Y839635D02*
X317915Y839635D01*
X314598Y841009D01*
X312059Y843548D01*
X310685Y846865D01*
X310685Y850455D01*
X312059Y853772D01*
X314598Y856311D01*
X317915Y857685D01*
X321505Y857685D01*
X324822Y856311D01*
X327361Y853772D01*
X328735Y850455D01*
X328735Y846865D01*
X327361Y843548D01*
X324822Y841009D01*
X321505Y839635D01*
X317915Y839635D01*
G37*
%LPD*%
%LPC*%
G36*
X368715Y357035D02*
X368715Y357035D01*
X365398Y358409D01*
X362859Y360948D01*
X361485Y364265D01*
X361485Y367855D01*
X362859Y371172D01*
X365398Y373711D01*
X368715Y375085D01*
X372305Y375085D01*
X375622Y373711D01*
X378161Y371172D01*
X379535Y367855D01*
X379535Y364265D01*
X378161Y360948D01*
X375622Y358409D01*
X372305Y357035D01*
X368715Y357035D01*
G37*
%LPD*%
%LPC*%
G36*
X521115Y357035D02*
X521115Y357035D01*
X517798Y358409D01*
X515259Y360948D01*
X513885Y364265D01*
X513885Y367855D01*
X515259Y371172D01*
X517798Y373711D01*
X521115Y375085D01*
X524705Y375085D01*
X528022Y373711D01*
X530561Y371172D01*
X531935Y367855D01*
X531935Y364265D01*
X530561Y360948D01*
X528022Y358409D01*
X524705Y357035D01*
X521115Y357035D01*
G37*
%LPD*%
%LPC*%
G36*
X444915Y357035D02*
X444915Y357035D01*
X441598Y358409D01*
X439059Y360948D01*
X437685Y364265D01*
X437685Y367855D01*
X439059Y371172D01*
X441598Y373711D01*
X444915Y375085D01*
X448505Y375085D01*
X451822Y373711D01*
X454361Y371172D01*
X455735Y367855D01*
X455735Y364265D01*
X454361Y360948D01*
X451822Y358409D01*
X448505Y357035D01*
X444915Y357035D01*
G37*
%LPD*%
%LPC*%
G36*
X470315Y357035D02*
X470315Y357035D01*
X466998Y358409D01*
X464459Y360948D01*
X463085Y364265D01*
X463085Y367855D01*
X464459Y371172D01*
X466998Y373711D01*
X470315Y375085D01*
X473905Y375085D01*
X477222Y373711D01*
X479761Y371172D01*
X481135Y367855D01*
X481135Y364265D01*
X479761Y360948D01*
X477222Y358409D01*
X473905Y357035D01*
X470315Y357035D01*
G37*
%LPD*%
%LPC*%
G36*
X241715Y839635D02*
X241715Y839635D01*
X238398Y841009D01*
X235859Y843548D01*
X234485Y846865D01*
X234485Y850455D01*
X235859Y853772D01*
X238398Y856311D01*
X241715Y857685D01*
X245305Y857685D01*
X248622Y856311D01*
X251161Y853772D01*
X252535Y850455D01*
X252535Y846865D01*
X251161Y843548D01*
X248622Y841009D01*
X245305Y839635D01*
X241715Y839635D01*
G37*
%LPD*%
%LPC*%
G36*
X343315Y357035D02*
X343315Y357035D01*
X339998Y358409D01*
X337459Y360948D01*
X336085Y364265D01*
X336085Y367855D01*
X337459Y371172D01*
X339998Y373711D01*
X343315Y375085D01*
X346905Y375085D01*
X350222Y373711D01*
X352761Y371172D01*
X354135Y367855D01*
X354135Y364265D01*
X352761Y360948D01*
X350222Y358409D01*
X346905Y357035D01*
X343315Y357035D01*
G37*
%LPD*%
%LPC*%
G36*
X546515Y382435D02*
X546515Y382435D01*
X543198Y383809D01*
X540659Y386348D01*
X539285Y389665D01*
X539285Y393255D01*
X540659Y396572D01*
X543198Y399111D01*
X546515Y400485D01*
X550105Y400485D01*
X553422Y399111D01*
X555961Y396572D01*
X557335Y393255D01*
X557335Y389665D01*
X555961Y386348D01*
X553422Y383809D01*
X550105Y382435D01*
X546515Y382435D01*
G37*
%LPD*%
%LPC*%
G36*
X521115Y382435D02*
X521115Y382435D01*
X517798Y383809D01*
X515259Y386348D01*
X513885Y389665D01*
X513885Y393255D01*
X515259Y396572D01*
X517798Y399111D01*
X521115Y400485D01*
X524705Y400485D01*
X528022Y399111D01*
X530561Y396572D01*
X531935Y393255D01*
X531935Y389665D01*
X530561Y386348D01*
X528022Y383809D01*
X524705Y382435D01*
X521115Y382435D01*
G37*
%LPD*%
%LPC*%
G36*
X470315Y382435D02*
X470315Y382435D01*
X466998Y383809D01*
X464459Y386348D01*
X463085Y389665D01*
X463085Y393255D01*
X464459Y396572D01*
X466998Y399111D01*
X470315Y400485D01*
X473905Y400485D01*
X477222Y399111D01*
X479761Y396572D01*
X481135Y393255D01*
X481135Y389665D01*
X479761Y386348D01*
X477222Y383809D01*
X473905Y382435D01*
X470315Y382435D01*
G37*
%LPD*%
%LPC*%
G36*
X317915Y382435D02*
X317915Y382435D01*
X314598Y383809D01*
X312059Y386348D01*
X310685Y389665D01*
X310685Y393255D01*
X312059Y396572D01*
X314598Y399111D01*
X317915Y400485D01*
X321505Y400485D01*
X324822Y399111D01*
X327361Y396572D01*
X328735Y393255D01*
X328735Y389665D01*
X327361Y386348D01*
X324822Y383809D01*
X321505Y382435D01*
X317915Y382435D01*
G37*
%LPD*%
%LPC*%
G36*
X292515Y382435D02*
X292515Y382435D01*
X289198Y383809D01*
X286659Y386348D01*
X285285Y389665D01*
X285285Y393255D01*
X286659Y396572D01*
X289198Y399111D01*
X292515Y400485D01*
X296105Y400485D01*
X299422Y399111D01*
X301961Y396572D01*
X303335Y393255D01*
X303335Y389665D01*
X301961Y386348D01*
X299422Y383809D01*
X296105Y382435D01*
X292515Y382435D01*
G37*
%LPD*%
%LPC*%
G36*
X267115Y382435D02*
X267115Y382435D01*
X263798Y383809D01*
X261259Y386348D01*
X259885Y389665D01*
X259885Y393255D01*
X261259Y396572D01*
X263798Y399111D01*
X267115Y400485D01*
X270705Y400485D01*
X274022Y399111D01*
X276561Y396572D01*
X277935Y393255D01*
X277935Y389665D01*
X276561Y386348D01*
X274022Y383809D01*
X270705Y382435D01*
X267115Y382435D01*
G37*
%LPD*%
%LPC*%
G36*
X241715Y382435D02*
X241715Y382435D01*
X238398Y383809D01*
X235859Y386348D01*
X234485Y389665D01*
X234485Y393255D01*
X235859Y396572D01*
X238398Y399111D01*
X241715Y400485D01*
X245305Y400485D01*
X248622Y399111D01*
X251161Y396572D01*
X252535Y393255D01*
X252535Y389665D01*
X251161Y386348D01*
X248622Y383809D01*
X245305Y382435D01*
X241715Y382435D01*
G37*
%LPD*%
%LPC*%
G36*
X216315Y382435D02*
X216315Y382435D01*
X212998Y383809D01*
X210459Y386348D01*
X209085Y389665D01*
X209085Y393255D01*
X210459Y396572D01*
X212998Y399111D01*
X216315Y400485D01*
X219905Y400485D01*
X223222Y399111D01*
X225761Y396572D01*
X227135Y393255D01*
X227135Y389665D01*
X225761Y386348D01*
X223222Y383809D01*
X219905Y382435D01*
X216315Y382435D01*
G37*
%LPD*%
%LPC*%
G36*
X698915Y382435D02*
X698915Y382435D01*
X695598Y383809D01*
X693059Y386348D01*
X691685Y389665D01*
X691685Y393255D01*
X693059Y396572D01*
X695598Y399111D01*
X698915Y400485D01*
X702505Y400485D01*
X705822Y399111D01*
X708361Y396572D01*
X709735Y393255D01*
X709735Y389665D01*
X708361Y386348D01*
X705822Y383809D01*
X702505Y382435D01*
X698915Y382435D01*
G37*
%LPD*%
%LPC*%
G36*
X317915Y357035D02*
X317915Y357035D01*
X314598Y358409D01*
X312059Y360948D01*
X310685Y364265D01*
X310685Y367855D01*
X312059Y371172D01*
X314598Y373711D01*
X317915Y375085D01*
X321505Y375085D01*
X324822Y373711D01*
X327361Y371172D01*
X328735Y367855D01*
X328735Y364265D01*
X327361Y360948D01*
X324822Y358409D01*
X321505Y357035D01*
X317915Y357035D01*
G37*
%LPD*%
%LPC*%
G36*
X292515Y357035D02*
X292515Y357035D01*
X289198Y358409D01*
X286659Y360948D01*
X285285Y364265D01*
X285285Y367855D01*
X286659Y371172D01*
X289198Y373711D01*
X292515Y375085D01*
X296105Y375085D01*
X299422Y373711D01*
X301961Y371172D01*
X303335Y367855D01*
X303335Y364265D01*
X301961Y360948D01*
X299422Y358409D01*
X296105Y357035D01*
X292515Y357035D01*
G37*
%LPD*%
%LPC*%
G36*
X546515Y357035D02*
X546515Y357035D01*
X543198Y358409D01*
X540659Y360948D01*
X539285Y364265D01*
X539285Y367855D01*
X540659Y371172D01*
X543198Y373711D01*
X546515Y375085D01*
X550105Y375085D01*
X553422Y373711D01*
X555961Y371172D01*
X557335Y367855D01*
X557335Y364265D01*
X555961Y360948D01*
X553422Y358409D01*
X550105Y357035D01*
X546515Y357035D01*
G37*
%LPD*%
%LPC*%
G36*
X241715Y357035D02*
X241715Y357035D01*
X238398Y358409D01*
X235859Y360948D01*
X234485Y364265D01*
X234485Y367855D01*
X235859Y371172D01*
X238398Y373711D01*
X241715Y375085D01*
X245305Y375085D01*
X248622Y373711D01*
X251161Y371172D01*
X252535Y367855D01*
X252535Y364265D01*
X251161Y360948D01*
X248622Y358409D01*
X245305Y357035D01*
X241715Y357035D01*
G37*
%LPD*%
%LPC*%
G36*
X673515Y357035D02*
X673515Y357035D01*
X670198Y358409D01*
X667659Y360948D01*
X666285Y364265D01*
X666285Y367855D01*
X667659Y371172D01*
X670198Y373711D01*
X673515Y375085D01*
X677105Y375085D01*
X680422Y373711D01*
X682961Y371172D01*
X684335Y367855D01*
X684335Y364265D01*
X682961Y360948D01*
X680422Y358409D01*
X677105Y357035D01*
X673515Y357035D01*
G37*
%LPD*%
%LPC*%
G36*
X267115Y357035D02*
X267115Y357035D01*
X263798Y358409D01*
X261259Y360948D01*
X259885Y364265D01*
X259885Y367855D01*
X261259Y371172D01*
X263798Y373711D01*
X267115Y375085D01*
X270705Y375085D01*
X274022Y373711D01*
X276561Y371172D01*
X277935Y367855D01*
X277935Y364265D01*
X276561Y360948D01*
X274022Y358409D01*
X270705Y357035D01*
X267115Y357035D01*
G37*
%LPD*%
%LPC*%
G36*
X61609Y149691D02*
X61609Y149691D01*
X61609Y158351D01*
X63198Y157835D01*
X64891Y156972D01*
X66429Y155855D01*
X67773Y154511D01*
X68890Y152973D01*
X69753Y151280D01*
X70269Y149691D01*
X61609Y149691D01*
G37*
%LPD*%
%LPC*%
G36*
X46855Y149691D02*
X46855Y149691D01*
X47371Y151280D01*
X48234Y152973D01*
X49351Y154511D01*
X50695Y155855D01*
X52233Y156972D01*
X53926Y157835D01*
X55515Y158351D01*
X55515Y149691D01*
X46855Y149691D01*
G37*
%LPD*%
%LPC*%
G36*
X61609Y143597D02*
X61609Y143597D01*
X70269Y143597D01*
X69753Y142008D01*
X68890Y140315D01*
X67773Y138777D01*
X66429Y137433D01*
X64891Y136316D01*
X63198Y135453D01*
X61609Y134937D01*
X61609Y143597D01*
G37*
%LPD*%
%LPC*%
G36*
X53926Y135453D02*
X53926Y135453D01*
X52233Y136316D01*
X50695Y137433D01*
X49351Y138777D01*
X48234Y140315D01*
X47371Y142008D01*
X46855Y143597D01*
X55515Y143597D01*
X55515Y134937D01*
X53926Y135453D01*
G37*
%LPD*%
%LPC*%
G36*
X195209Y851159D02*
X195209Y851159D01*
X195209Y856161D01*
X200210Y856161D01*
X200211Y856160D01*
X200211Y851159D01*
X195209Y851159D01*
G37*
%LPD*%
%LPC*%
G36*
X195209Y368559D02*
X195209Y368559D01*
X195209Y373561D01*
X200210Y373561D01*
X200211Y373560D01*
X200211Y368559D01*
X195209Y368559D01*
G37*
%LPD*%
%LPC*%
G36*
X185209Y851159D02*
X185209Y851159D01*
X185209Y856160D01*
X185210Y856161D01*
X190211Y856161D01*
X190211Y851159D01*
X185209Y851159D01*
G37*
%LPD*%
%LPC*%
G36*
X185209Y368559D02*
X185209Y368559D01*
X185209Y373560D01*
X185210Y373561D01*
X190211Y373561D01*
X190211Y368559D01*
X185209Y368559D01*
G37*
%LPD*%
%LPC*%
G36*
X195209Y841159D02*
X195209Y841159D01*
X195209Y846161D01*
X200211Y846161D01*
X200211Y841160D01*
X200210Y841159D01*
X195209Y841159D01*
G37*
%LPD*%
%LPC*%
G36*
X195209Y358559D02*
X195209Y358559D01*
X195209Y363561D01*
X200211Y363561D01*
X200211Y358560D01*
X200210Y358559D01*
X195209Y358559D01*
G37*
%LPD*%
%LPC*%
G36*
X185210Y358559D02*
X185210Y358559D01*
X185209Y358560D01*
X185209Y363561D01*
X190211Y363561D01*
X190211Y358559D01*
X185210Y358559D01*
G37*
%LPD*%
%LPC*%
G36*
X185210Y841159D02*
X185210Y841159D01*
X185209Y841160D01*
X185209Y846161D01*
X190211Y846161D01*
X190211Y841159D01*
X185210Y841159D01*
G37*
%LPD*%
%LPC*%
G36*
X728609Y368559D02*
X728609Y368559D01*
X728609Y373143D01*
X729663Y372707D01*
X730891Y371886D01*
X731936Y370841D01*
X732757Y369613D01*
X733193Y368559D01*
X728609Y368559D01*
G37*
%LPD*%
%LPC*%
G36*
X754009Y368559D02*
X754009Y368559D01*
X754009Y373143D01*
X755063Y372707D01*
X756291Y371886D01*
X757336Y370841D01*
X758157Y369613D01*
X758593Y368559D01*
X754009Y368559D01*
G37*
%LPD*%
%LPC*%
G36*
X195209Y393959D02*
X195209Y393959D01*
X195209Y398543D01*
X196263Y398107D01*
X197491Y397286D01*
X198536Y396241D01*
X199357Y395013D01*
X199793Y393959D01*
X195209Y393959D01*
G37*
%LPD*%
%LPC*%
G36*
X728609Y393959D02*
X728609Y393959D01*
X728609Y398543D01*
X729663Y398107D01*
X730891Y397286D01*
X731936Y396241D01*
X732757Y395013D01*
X733193Y393959D01*
X728609Y393959D01*
G37*
%LPD*%
%LPC*%
G36*
X754009Y393959D02*
X754009Y393959D01*
X754009Y398543D01*
X755063Y398107D01*
X756291Y397286D01*
X757336Y396241D01*
X758157Y395013D01*
X758593Y393959D01*
X754009Y393959D01*
G37*
%LPD*%
%LPC*%
G36*
X195209Y871561D02*
X195209Y871561D01*
X199793Y871561D01*
X199357Y870507D01*
X198536Y869279D01*
X197491Y868234D01*
X196263Y867413D01*
X195209Y866977D01*
X195209Y871561D01*
G37*
%LPD*%
%LPC*%
G36*
X754009Y388961D02*
X754009Y388961D01*
X758593Y388961D01*
X758157Y387907D01*
X757336Y386679D01*
X756291Y385634D01*
X755063Y384813D01*
X754009Y384377D01*
X754009Y388961D01*
G37*
%LPD*%
%LPC*%
G36*
X195209Y388961D02*
X195209Y388961D01*
X199793Y388961D01*
X199357Y387907D01*
X198536Y386679D01*
X197491Y385634D01*
X196263Y384813D01*
X195209Y384377D01*
X195209Y388961D01*
G37*
%LPD*%
%LPC*%
G36*
X719027Y368559D02*
X719027Y368559D01*
X719463Y369613D01*
X720284Y370841D01*
X721329Y371886D01*
X722557Y372707D01*
X723611Y373143D01*
X723611Y368559D01*
X719027Y368559D01*
G37*
%LPD*%
%LPC*%
G36*
X185627Y393959D02*
X185627Y393959D01*
X186063Y395013D01*
X186884Y396241D01*
X187929Y397286D01*
X189157Y398107D01*
X190211Y398543D01*
X190211Y393959D01*
X185627Y393959D01*
G37*
%LPD*%
%LPC*%
G36*
X754009Y363561D02*
X754009Y363561D01*
X758593Y363561D01*
X758157Y362507D01*
X757336Y361279D01*
X756291Y360234D01*
X755063Y359413D01*
X754009Y358977D01*
X754009Y363561D01*
G37*
%LPD*%
%LPC*%
G36*
X728609Y363561D02*
X728609Y363561D01*
X733193Y363561D01*
X732757Y362507D01*
X731936Y361279D01*
X730891Y360234D01*
X729663Y359413D01*
X728609Y358977D01*
X728609Y363561D01*
G37*
%LPD*%
%LPC*%
G36*
X719027Y393959D02*
X719027Y393959D01*
X719463Y395013D01*
X720284Y396241D01*
X721329Y397286D01*
X722557Y398107D01*
X723611Y398543D01*
X723611Y393959D01*
X719027Y393959D01*
G37*
%LPD*%
%LPC*%
G36*
X728609Y388961D02*
X728609Y388961D01*
X733193Y388961D01*
X732757Y387907D01*
X731936Y386679D01*
X730891Y385634D01*
X729663Y384813D01*
X728609Y384377D01*
X728609Y388961D01*
G37*
%LPD*%
%LPC*%
G36*
X744427Y368559D02*
X744427Y368559D01*
X744863Y369613D01*
X745684Y370841D01*
X746729Y371886D01*
X747957Y372707D01*
X749011Y373143D01*
X749011Y368559D01*
X744427Y368559D01*
G37*
%LPD*%
%LPC*%
G36*
X744427Y393959D02*
X744427Y393959D01*
X744863Y395013D01*
X745684Y396241D01*
X746729Y397286D01*
X747957Y398107D01*
X749011Y398543D01*
X749011Y393959D01*
X744427Y393959D01*
G37*
%LPD*%
%LPC*%
G36*
X747957Y384813D02*
X747957Y384813D01*
X746729Y385634D01*
X745684Y386679D01*
X744863Y387907D01*
X744427Y388961D01*
X749011Y388961D01*
X749011Y384377D01*
X747957Y384813D01*
G37*
%LPD*%
%LPC*%
G36*
X189157Y384813D02*
X189157Y384813D01*
X187929Y385634D01*
X186884Y386679D01*
X186063Y387907D01*
X185627Y388961D01*
X190211Y388961D01*
X190211Y384377D01*
X189157Y384813D01*
G37*
%LPD*%
%LPC*%
G36*
X722557Y384813D02*
X722557Y384813D01*
X721329Y385634D01*
X720284Y386679D01*
X719463Y387907D01*
X719027Y388961D01*
X723611Y388961D01*
X723611Y384377D01*
X722557Y384813D01*
G37*
%LPD*%
%LPC*%
G36*
X747957Y359413D02*
X747957Y359413D01*
X746729Y360234D01*
X745684Y361279D01*
X744863Y362507D01*
X744427Y363561D01*
X749011Y363561D01*
X749011Y358977D01*
X747957Y359413D01*
G37*
%LPD*%
%LPC*%
G36*
X189157Y867413D02*
X189157Y867413D01*
X187929Y868234D01*
X186884Y869279D01*
X186063Y870507D01*
X185627Y871561D01*
X190211Y871561D01*
X190211Y866977D01*
X189157Y867413D01*
G37*
%LPD*%
%LPC*%
G36*
X722557Y359413D02*
X722557Y359413D01*
X721329Y360234D01*
X720284Y361279D01*
X719463Y362507D01*
X719027Y363561D01*
X723611Y363561D01*
X723611Y358977D01*
X722557Y359413D01*
G37*
%LPD*%
%LPC*%
G36*
X58561Y146643D02*
X58561Y146643D01*
X58561Y146645D01*
X58563Y146645D01*
X58563Y146643D01*
X58561Y146643D01*
G37*
%LPD*%
D10*
X192710Y848660D03*
D11*
X192710Y874060D03*
X218110Y848660D03*
X218110Y874060D03*
X243510Y848660D03*
X243510Y874060D03*
X268910Y848660D03*
X268910Y874060D03*
X294310Y848660D03*
X294310Y874060D03*
X319710Y848660D03*
X319710Y874060D03*
X345110Y848660D03*
X345110Y874060D03*
X370510Y848660D03*
X370510Y874060D03*
X395910Y848660D03*
X395910Y874060D03*
X421310Y848660D03*
X421310Y874060D03*
X446710Y848660D03*
X446710Y874060D03*
X472110Y848660D03*
X472110Y874060D03*
X497510Y848660D03*
X497510Y874060D03*
X522910Y848660D03*
X522910Y874060D03*
X548310Y848660D03*
X548310Y874060D03*
X573710Y848660D03*
X573710Y874060D03*
X599110Y848660D03*
X599110Y874060D03*
X624510Y848660D03*
X624510Y874060D03*
X649910Y848660D03*
X649910Y874060D03*
X675310Y848660D03*
X675310Y874060D03*
X700710Y848660D03*
X700710Y874060D03*
X726110Y848660D03*
X726110Y874060D03*
X751510Y848660D03*
X751510Y874060D03*
D10*
X192710Y366060D03*
D11*
X192710Y391460D03*
X218110Y366060D03*
X218110Y391460D03*
X243510Y366060D03*
X243510Y391460D03*
X268910Y366060D03*
X268910Y391460D03*
X294310Y366060D03*
X294310Y391460D03*
X319710Y366060D03*
X319710Y391460D03*
X345110Y366060D03*
X345110Y391460D03*
X370510Y366060D03*
X370510Y391460D03*
X395910Y366060D03*
X395910Y391460D03*
X421310Y366060D03*
X421310Y391460D03*
X446710Y366060D03*
X446710Y391460D03*
X472110Y366060D03*
X472110Y391460D03*
X497510Y366060D03*
X497510Y391460D03*
X522910Y366060D03*
X522910Y391460D03*
X548310Y366060D03*
X548310Y391460D03*
X573710Y366060D03*
X573710Y391460D03*
X599110Y366060D03*
X599110Y391460D03*
X624510Y366060D03*
X624510Y391460D03*
X649910Y366060D03*
X649910Y391460D03*
X675310Y366060D03*
X675310Y391460D03*
X700710Y366060D03*
X700710Y391460D03*
X726110Y366060D03*
X726110Y391460D03*
X751510Y366060D03*
X751510Y391460D03*
D12*
X118562Y146644D03*
D13*
X58562Y146644D03*
D14*
X26062Y146644D03*
D15*
X53562Y194144D03*
X100562Y194144D03*
X100562Y99144D03*
X53562Y99144D03*
D16*
X755650Y177800D03*
X742950Y165100D03*
X730250Y152400D03*
X717550Y139700D03*
X717550Y177800D03*
X745490Y293624D03*
X745490Y312081D03*
X745490Y330285D03*
X745490Y348488D03*
X457708Y291846D03*
X457708Y283464D03*
X152400Y450850D03*
X171450Y469900D03*
X190500Y488950D03*
X209550Y508000D03*
X228600Y527050D03*
X184150Y527050D03*
X165100Y508000D03*
X146050Y488950D03*
X127000Y469900D03*
X107950Y450850D03*
X90170Y425450D03*
X90170Y400050D03*
X90170Y374650D03*
X127000Y425450D03*
X120650Y400050D03*
X120650Y361950D03*
X412750Y165100D03*
X412750Y95250D03*
X263144Y819150D03*
X338582Y819912D03*
X107950Y844550D03*
X107950Y876300D03*
X31750Y857250D03*
X31750Y806450D03*
X435610Y174244D03*
D17*
X435610Y309626D01*
X429768Y315468D01*
D18*
X429006Y315468D03*
D17*
X429768Y315468D01*
D16*
X393700Y330200D03*
X393700Y311150D03*
X393700Y292100D03*
X393700Y273050D03*
X393700Y254000D03*
X393700Y234950D03*
X393700Y215900D03*
X393700Y196850D03*
X393700Y177800D03*
X393700Y158750D03*
X393700Y139700D03*
X393700Y120650D03*
X393700Y101600D03*
X393700Y82550D03*
X374650Y330200D03*
X355600Y330200D03*
X336550Y330200D03*
X317500Y330200D03*
X298450Y330200D03*
X279400Y330200D03*
X266700Y330200D03*
X209550Y330200D03*
X222250Y330200D03*
X298450Y82550D03*
X298450Y101600D03*
X298450Y120650D03*
X298450Y139700D03*
X298450Y158750D03*
X298450Y177800D03*
X298450Y196850D03*
X298450Y215900D03*
X298450Y234950D03*
X298450Y254000D03*
X298450Y273050D03*
X298450Y292100D03*
X298450Y311150D03*
X317500Y311150D03*
X336550Y311150D03*
X355600Y311150D03*
X374650Y311150D03*
X374650Y292100D03*
X355600Y292100D03*
X336550Y292100D03*
X317500Y292100D03*
X317500Y273050D03*
X336550Y273050D03*
X355600Y273050D03*
X374650Y273050D03*
X374650Y260350D03*
X355600Y260350D03*
X336550Y260350D03*
X317500Y260350D03*
X374650Y133350D03*
X355600Y133350D03*
X336550Y133350D03*
X317500Y133350D03*
X317500Y120650D03*
X336550Y120650D03*
X355600Y120650D03*
X374650Y120650D03*
X374650Y101600D03*
X355600Y101600D03*
X336550Y101600D03*
X317500Y101600D03*
X317500Y82550D03*
X336550Y82550D03*
X355600Y82550D03*
X374650Y82550D03*
X279400Y82550D03*
X260350Y82550D03*
X241300Y82550D03*
X222250Y82550D03*
X222250Y101600D03*
X241300Y101600D03*
X260350Y101600D03*
X279400Y101600D03*
X279400Y120650D03*
X260350Y120650D03*
X241300Y120650D03*
X222250Y120650D03*
X222250Y139700D03*
X241300Y139700D03*
X260350Y139700D03*
X279400Y139700D03*
X279400Y158750D03*
X260350Y158750D03*
X241300Y158750D03*
X279400Y177800D03*
X279400Y196850D03*
X279400Y215900D03*
X279400Y234950D03*
X260350Y234950D03*
X260350Y254000D03*
X279400Y254000D03*
X222250Y317500D03*
X311150Y234950D03*
X311150Y215900D03*
X311150Y196850D03*
X311150Y177800D03*
X311150Y158750D03*
X222250Y215900D03*
X203200Y215900D03*
X203200Y234950D03*
X222250Y234950D03*
X222250Y254000D03*
X203200Y254000D03*
X203200Y273050D03*
X222250Y273050D03*
X203200Y292100D03*
X222250Y196850D03*
X266700Y311150D03*
X266700Y292100D03*
X184150Y292100D03*
X184150Y273050D03*
X184150Y254000D03*
X184150Y234950D03*
X165100Y254000D03*
X165100Y273050D03*
X165100Y292100D03*
X184150Y311150D03*
X165100Y311150D03*
X165100Y330200D03*
X707390Y213614D03*
D19*
X714248Y222504D02*
X714248Y254508D01*
D16*
X710692Y258064D03*
D19*
X714248Y254508D01*
X714248Y222504D02*
X714248Y220472D01*
X707390Y213614D01*
D16*
X602207Y210847D03*
X691472Y220193D03*
D19*
X640162Y210847D02*
X602207Y210847D01*
X640162Y210847D02*
X649251Y219936D01*
X691215Y219936D02*
X691472Y220193D01*
X691215Y219936D02*
X649251Y219936D01*
D16*
X653034Y213360D03*
D19*
X695253Y213360D01*
X707418Y225526D01*
D16*
X707418Y225526D03*
D20*
X476250Y304800D03*
X495300Y304800D03*
X514350Y304800D03*
X533400Y304800D03*
X476250Y285750D03*
X495300Y285750D03*
X514350Y285750D03*
X533400Y285750D03*
X552450Y285750D03*
X552450Y266700D03*
X495300Y266700D03*
X495300Y247650D03*
X495300Y228600D03*
X495300Y209550D03*
X476250Y190500D03*
X476250Y177800D03*
X476250Y209550D03*
X476250Y228600D03*
X476250Y247650D03*
X476250Y266700D03*
D16*
X549148Y215900D03*
D19*
X580644Y247396D01*
X580644Y294132D01*
D16*
X580644Y294132D03*
D21*
X529590Y327660D02*
X512318Y344932D01*
D16*
X529590Y327660D03*
D21*
X512318Y344932D02*
X239238Y344932D01*
X529590Y327660D02*
X555498Y301752D01*
X583946Y301752D01*
X632968Y252730D01*
D16*
X633222Y252730D03*
D21*
X632968Y252730D01*
X239238Y344932D02*
X218110Y366060D01*
D16*
X725424Y330454D03*
D19*
X707108Y330454D01*
D16*
X707108Y330454D03*
X701040Y258064D03*
X725170Y311658D03*
D19*
X724967Y311455D02*
X700024Y311455D01*
X700024Y259080D01*
X701040Y258064D01*
X724967Y311455D02*
X725170Y311658D01*
X700024Y365374D02*
X700710Y366060D01*
X700024Y365374D02*
X700024Y311455D01*
D20*
X273050Y685800D03*
X292100Y685800D03*
X311150Y685800D03*
X330200Y685800D03*
X349250Y685800D03*
X368300Y685800D03*
X387350Y685800D03*
X406400Y685800D03*
X425450Y685800D03*
X444500Y685800D03*
X444500Y704850D03*
X444500Y723900D03*
X425450Y723900D03*
X406400Y723900D03*
X387350Y723900D03*
X387350Y742950D03*
X273050Y704850D03*
X273050Y723900D03*
X273050Y742950D03*
X273050Y762000D03*
X273050Y781050D03*
X292100Y781050D03*
X292100Y762000D03*
X292100Y742950D03*
X292100Y723900D03*
X292100Y704850D03*
X311150Y704850D03*
X311150Y723900D03*
X311150Y742950D03*
X311150Y761492D03*
X330200Y761492D03*
X330200Y742950D03*
X330200Y723900D03*
X330200Y704850D03*
X349250Y704850D03*
X349250Y723900D03*
X349250Y742950D03*
X349250Y761238D03*
X368300Y762000D03*
X368300Y742950D03*
X368300Y723900D03*
X368300Y704850D03*
X387350Y704850D03*
X406400Y704850D03*
X425450Y704850D03*
X775716Y629158D03*
D22*
X775716Y805688D01*
X738930Y842474D02*
X738930Y861480D01*
X738930Y842474D02*
X775716Y805688D01*
X738930Y861480D02*
X751510Y874060D01*
D20*
X763778Y640842D03*
D22*
X763778Y792226D01*
X713486Y842518D02*
X713486Y861568D01*
X725978Y874060D01*
X713486Y842518D02*
X763778Y792226D01*
X726110Y874060D02*
X725978Y874060D01*
X700710Y874060D02*
X688340Y861690D01*
X688340Y841502D01*
D20*
X781304Y594614D03*
D22*
X752094Y777748D02*
X688340Y841502D01*
X752094Y777748D02*
X752094Y644221D01*
X781304Y615011D02*
X781304Y594614D01*
X781304Y615011D02*
X752094Y644221D01*
D20*
X766572Y598170D03*
D22*
X766572Y618161D01*
X743966Y640767D01*
X743966Y760222D02*
X662432Y841756D01*
X743966Y760222D02*
X743966Y640767D01*
X662432Y841756D02*
X662432Y861182D01*
X675310Y874060D01*
D20*
X754787Y610007D03*
D22*
X754787Y617602D01*
X735838Y636551D01*
X735838Y743204D02*
X639318Y839724D01*
X735838Y743204D02*
X735838Y636551D01*
X639318Y839724D02*
X639318Y863468D01*
X649910Y874060D01*
D20*
X748717Y615367D03*
D22*
X748717Y617881D02*
X731774Y634824D01*
X731774Y735635D01*
X635254Y832155D01*
X635254Y863316D01*
X748717Y617881D02*
X748717Y615367D01*
X635254Y863316D02*
X624510Y874060D01*
X611930Y861240D02*
X611930Y834143D01*
X723646Y722427D01*
X723646Y626364D02*
X770128Y579882D01*
D20*
X770128Y573532D03*
D22*
X723646Y626364D02*
X723646Y722427D01*
X770128Y579882D02*
X770128Y573532D01*
X611930Y861240D02*
X599110Y874060D01*
X586486Y861284D02*
X586486Y835914D01*
X715518Y706882D01*
D20*
X748348Y587058D03*
D22*
X748348Y589572D02*
X715518Y622402D01*
X715518Y706882D01*
X748348Y589572D02*
X748348Y587058D01*
X586486Y861284D02*
X573710Y874060D01*
D20*
X705612Y666856D03*
D22*
X707390Y668634D02*
X707390Y698297D01*
X561086Y844601D01*
X561086Y861284D01*
X707390Y668634D02*
X705612Y666856D01*
X561086Y861284D02*
X548310Y874060D01*
D20*
X689864Y654812D03*
D22*
X550164Y830580D02*
X521716Y830580D01*
X510286Y842010D01*
X689864Y690880D02*
X689864Y654812D01*
X689864Y690880D02*
X550164Y830580D01*
X510286Y842010D02*
X510286Y861436D01*
X522910Y874060D01*
D20*
X782066Y624840D03*
D22*
X782066Y811754D01*
X751510Y842310D01*
X751510Y848660D01*
D20*
X769620Y635000D03*
D22*
X769620Y798546D01*
X726110Y842056D01*
X726110Y848660D01*
D20*
X757936Y646938D03*
D22*
X757936Y784576D01*
X700710Y841802D01*
X700710Y848660D01*
D20*
X773430Y594614D03*
D22*
X773430Y617094D01*
X748030Y642494D01*
X748030Y769366D01*
X675310Y842086D01*
X675310Y848660D01*
D20*
X760730Y603504D03*
D22*
X760730Y617958D01*
X739902Y638786D01*
X739902Y751078D01*
X649910Y841070D02*
X649910Y848660D01*
X649910Y841070D02*
X739902Y751078D01*
D20*
X778002Y574548D03*
D22*
X778002Y577776D02*
X727710Y628068D01*
X727710Y729488D01*
X624510Y832688D01*
X778002Y577776D02*
X778002Y574548D01*
X624510Y832688D02*
X624510Y848660D01*
D20*
X762546Y574332D03*
D22*
X719582Y624383D02*
X719582Y714502D01*
X719582Y624383D02*
X762546Y581419D01*
X719582Y714502D02*
X599110Y834974D01*
X762546Y581419D02*
X762546Y574332D01*
X599110Y834974D02*
X599110Y848660D01*
D20*
X755079Y580581D03*
D22*
X711454Y620522D02*
X711454Y702564D01*
X573710Y840308D01*
X742506Y589470D02*
X742506Y584638D01*
X746563Y580581D02*
X755079Y580581D01*
X746563Y580581D02*
X742506Y584638D01*
X742506Y589470D02*
X711454Y620522D01*
X573710Y840308D02*
X573710Y848660D01*
D20*
X705612Y655066D03*
D22*
X703326Y694182D02*
X548848Y848660D01*
X703326Y672832D02*
X699770Y669276D01*
X703326Y672832D02*
X703326Y694182D01*
X699770Y664210D02*
X705612Y658368D01*
X699770Y664210D02*
X699770Y669276D01*
X705612Y658368D02*
X705612Y655066D01*
X548848Y848660D02*
X548310Y848660D01*
D20*
X697992Y655066D03*
D22*
X553166Y835960D02*
X535356Y835960D01*
X697992Y660241D02*
X697992Y655066D01*
X697992Y660241D02*
X695706Y662527D01*
X695706Y693420D01*
X553166Y835960D01*
X535356Y835960D02*
X522910Y848406D01*
X522910Y848660D01*
X402793Y404160D02*
X357810Y404160D01*
X402793Y404160D02*
X446943Y448310D01*
X718059Y448310D01*
X808482Y538733D01*
D20*
X810514Y704088D03*
D22*
X802640Y696214D02*
X802640Y664795D01*
X808482Y658953D02*
X808482Y538733D01*
X802640Y696214D02*
X810514Y704088D01*
X802640Y664795D02*
X808482Y658953D01*
X357810Y404160D02*
X345110Y391460D01*
X395910Y391460D02*
X447934Y443484D01*
X720294Y443484D01*
X812546Y535736D01*
X812546Y663448D02*
X810514Y665480D01*
D20*
X810514Y665480D03*
D22*
X812546Y663448D02*
X812546Y535736D01*
X451490Y433832D02*
X421310Y403652D01*
X451490Y433832D02*
X725272Y433832D01*
X820674Y529234D01*
D20*
X810514Y685800D03*
D22*
X820674Y673228D02*
X820674Y529234D01*
X820674Y673228D02*
X810514Y683388D01*
X810514Y685800D01*
X421310Y403652D02*
X421310Y391460D01*
D20*
X828802Y679704D03*
D22*
X517022Y423672D02*
X497510Y404160D01*
X517022Y423672D02*
X729234Y423672D01*
X828802Y523240D01*
X828802Y663982D01*
X828802Y679704D01*
X497510Y404160D02*
X497510Y391460D01*
X408686Y397764D02*
X408686Y378836D01*
X408686Y397764D02*
X449834Y438912D01*
X722783Y438912D01*
X816610Y532739D01*
X816610Y667893D02*
X810514Y673989D01*
D20*
X810514Y673989D03*
D22*
X816610Y667893D02*
X816610Y532739D01*
X408686Y378836D02*
X395910Y366060D01*
X433578Y378328D02*
X433578Y408940D01*
X453644Y429006D01*
X727507Y429006D01*
X824738Y526237D01*
D20*
X810514Y695579D03*
D22*
X820166Y679781D02*
X824738Y675209D01*
X824738Y526237D01*
X820166Y679781D02*
X820166Y684530D01*
X810514Y694182D01*
X810514Y695579D01*
X433578Y378328D02*
X421310Y366060D01*
D16*
X423926Y94488D03*
X444246Y38490D03*
D23*
X444246Y74168D02*
X423926Y94488D01*
X444246Y74168D02*
X444246Y38490D01*
M02*
