G04 EAGLE Gerber RS-274X export*
G75*
%MOMM*%
%FSLAX34Y34*%
%LPD*%
%IN*%
%IPPOS*%
%AMOC8*
5,1,8,0,0,1.08239X$1,22.5*%
G01*
%ADD10C,0.254000*%


D10*
X2071Y98141D02*
X2395Y90733D01*
X3363Y83381D01*
X4968Y76142D01*
X7198Y69070D01*
X10035Y62219D01*
X13459Y55641D01*
X17444Y49387D01*
X21958Y43504D01*
X26967Y38037D01*
X32434Y33028D01*
X38317Y28513D01*
X44571Y24529D01*
X51149Y21105D01*
X58000Y18268D01*
X65072Y16038D01*
X72311Y14433D01*
X79663Y13465D01*
X87071Y13141D01*
X780671Y13141D01*
X788080Y13465D01*
X795432Y14433D01*
X802671Y16038D01*
X809743Y18268D01*
X816594Y21105D01*
X823171Y24529D01*
X829425Y28513D01*
X835308Y33028D01*
X840776Y38037D01*
X845785Y43504D01*
X850299Y49387D01*
X854284Y55641D01*
X857708Y62219D01*
X860545Y69070D01*
X862775Y76142D01*
X864380Y83381D01*
X865348Y90733D01*
X865671Y98141D01*
X865671Y766141D01*
X865188Y777210D01*
X863742Y788195D01*
X861344Y799011D01*
X858012Y809578D01*
X853773Y819814D01*
X848657Y829641D01*
X842704Y838986D01*
X835959Y847775D01*
X828474Y855944D01*
X820305Y863429D01*
X811516Y870174D01*
X802171Y876127D01*
X792344Y881243D01*
X782108Y885482D01*
X771541Y888814D01*
X760725Y891212D01*
X749740Y892658D01*
X738671Y893141D01*
X65571Y893141D01*
X60037Y892900D01*
X54545Y892177D01*
X49136Y890978D01*
X43853Y889312D01*
X38735Y887192D01*
X33821Y884634D01*
X29149Y881658D01*
X24754Y878285D01*
X20670Y874543D01*
X16928Y870458D01*
X13555Y866064D01*
X10579Y861391D01*
X8021Y856478D01*
X5901Y851360D01*
X4235Y846076D01*
X3036Y840668D01*
X2313Y835176D01*
X2071Y829641D01*
X2071Y759016D01*
X2132Y757633D01*
X2313Y756260D01*
X2612Y754908D01*
X3029Y753587D01*
X3559Y752307D01*
X4198Y751079D01*
X4942Y749911D01*
X5785Y748812D01*
X6721Y747791D01*
X7742Y746855D01*
X8841Y746012D01*
X10009Y745268D01*
X11237Y744629D01*
X12517Y744099D01*
X13838Y743682D01*
X15190Y743383D01*
X16563Y743202D01*
X17946Y743141D01*
X188196Y743141D01*
X189580Y743081D01*
X190953Y742900D01*
X192305Y742600D01*
X193626Y742184D01*
X194905Y741654D01*
X196134Y741015D01*
X197302Y740270D01*
X198401Y739427D01*
X199422Y738492D01*
X200357Y737471D01*
X201200Y736372D01*
X201945Y735204D01*
X202584Y733975D01*
X203114Y732696D01*
X203530Y731375D01*
X203830Y730023D01*
X204011Y728650D01*
X204071Y727266D01*
X204071Y564016D01*
X204011Y562633D01*
X203830Y561260D01*
X203530Y559908D01*
X203114Y558587D01*
X202584Y557307D01*
X201945Y556079D01*
X201200Y554911D01*
X200357Y553812D01*
X199422Y552791D01*
X198401Y551855D01*
X197302Y551012D01*
X196134Y550268D01*
X194905Y549629D01*
X193626Y549099D01*
X192305Y548682D01*
X190953Y548383D01*
X189580Y548202D01*
X188196Y548141D01*
X17946Y548141D01*
X16563Y548081D01*
X15190Y547900D01*
X13838Y547600D01*
X12517Y547184D01*
X11237Y546654D01*
X10009Y546015D01*
X8841Y545270D01*
X7742Y544427D01*
X6721Y543492D01*
X5785Y542471D01*
X4942Y541372D01*
X4198Y540204D01*
X3559Y538975D01*
X3029Y537696D01*
X2612Y536375D01*
X2313Y535023D01*
X2132Y533650D01*
X2071Y532266D01*
X2071Y98141D01*
X165393Y860826D02*
X165393Y861957D01*
X165319Y863085D01*
X165172Y864206D01*
X164951Y865316D01*
X164659Y866408D01*
X164295Y867479D01*
X163862Y868524D01*
X163362Y869538D01*
X162797Y870517D01*
X162168Y871457D01*
X161480Y872355D01*
X160734Y873205D01*
X159935Y874004D01*
X159085Y874750D01*
X158187Y875438D01*
X157247Y876067D01*
X156268Y876632D01*
X155254Y877132D01*
X154209Y877565D01*
X153138Y877929D01*
X152046Y878221D01*
X150936Y878442D01*
X149815Y878589D01*
X148687Y878663D01*
X147556Y878663D01*
X146428Y878589D01*
X145306Y878442D01*
X144197Y878221D01*
X143105Y877929D01*
X142034Y877565D01*
X140989Y877132D01*
X139975Y876632D01*
X138996Y876067D01*
X138055Y875438D01*
X137158Y874750D01*
X136308Y874004D01*
X135508Y873205D01*
X134763Y872355D01*
X134074Y871457D01*
X133446Y870517D01*
X132881Y869538D01*
X132381Y868524D01*
X131948Y867479D01*
X131584Y866408D01*
X131292Y865316D01*
X131071Y864206D01*
X130923Y863085D01*
X130849Y861957D01*
X130849Y860826D01*
X130923Y859698D01*
X131071Y858576D01*
X131292Y857467D01*
X131584Y856375D01*
X131948Y855304D01*
X132381Y854259D01*
X132881Y853245D01*
X133446Y852266D01*
X134074Y851325D01*
X134763Y850428D01*
X135508Y849578D01*
X136308Y848778D01*
X137158Y848033D01*
X138055Y847344D01*
X138996Y846716D01*
X139975Y846151D01*
X140989Y845651D01*
X142034Y845218D01*
X143105Y844854D01*
X144197Y844562D01*
X145306Y844341D01*
X146428Y844193D01*
X147556Y844119D01*
X148687Y844119D01*
X149815Y844193D01*
X150936Y844341D01*
X152046Y844562D01*
X153138Y844854D01*
X154209Y845218D01*
X155254Y845651D01*
X156268Y846151D01*
X157247Y846716D01*
X158187Y847344D01*
X159085Y848033D01*
X159935Y848778D01*
X160734Y849578D01*
X161480Y850428D01*
X162168Y851325D01*
X162797Y852266D01*
X163362Y853245D01*
X163862Y854259D01*
X164295Y855304D01*
X164659Y856375D01*
X164951Y857467D01*
X165172Y858576D01*
X165319Y859698D01*
X165393Y860826D01*
X825793Y829076D02*
X825793Y830207D01*
X825719Y831335D01*
X825572Y832456D01*
X825351Y833566D01*
X825059Y834658D01*
X824695Y835729D01*
X824262Y836774D01*
X823762Y837788D01*
X823197Y838767D01*
X822568Y839707D01*
X821880Y840605D01*
X821134Y841455D01*
X820335Y842254D01*
X819485Y843000D01*
X818587Y843688D01*
X817647Y844317D01*
X816668Y844882D01*
X815654Y845382D01*
X814609Y845815D01*
X813538Y846179D01*
X812446Y846471D01*
X811336Y846692D01*
X810215Y846839D01*
X809087Y846913D01*
X807956Y846913D01*
X806828Y846839D01*
X805706Y846692D01*
X804597Y846471D01*
X803505Y846179D01*
X802434Y845815D01*
X801389Y845382D01*
X800375Y844882D01*
X799396Y844317D01*
X798455Y843688D01*
X797558Y843000D01*
X796708Y842254D01*
X795908Y841455D01*
X795163Y840605D01*
X794474Y839707D01*
X793846Y838767D01*
X793281Y837788D01*
X792781Y836774D01*
X792348Y835729D01*
X791984Y834658D01*
X791692Y833566D01*
X791471Y832456D01*
X791323Y831335D01*
X791249Y830207D01*
X791249Y829076D01*
X791323Y827948D01*
X791471Y826826D01*
X791692Y825717D01*
X791984Y824625D01*
X792348Y823554D01*
X792781Y822509D01*
X793281Y821495D01*
X793846Y820516D01*
X794474Y819575D01*
X795163Y818678D01*
X795908Y817828D01*
X796708Y817028D01*
X797558Y816283D01*
X798455Y815594D01*
X799396Y814966D01*
X800375Y814401D01*
X801389Y813901D01*
X802434Y813468D01*
X803505Y813104D01*
X804597Y812812D01*
X805706Y812591D01*
X806828Y812443D01*
X807956Y812369D01*
X809087Y812369D01*
X810215Y812443D01*
X811336Y812591D01*
X812446Y812812D01*
X813538Y813104D01*
X814609Y813468D01*
X815654Y813901D01*
X816668Y814401D01*
X817647Y814966D01*
X818587Y815594D01*
X819485Y816283D01*
X820335Y817028D01*
X821134Y817828D01*
X821880Y818678D01*
X822568Y819575D01*
X823197Y820516D01*
X823762Y821495D01*
X824262Y822509D01*
X824695Y823554D01*
X825059Y824625D01*
X825351Y825717D01*
X825572Y826826D01*
X825719Y827948D01*
X825793Y829076D01*
X825793Y409976D02*
X825793Y411107D01*
X825719Y412235D01*
X825572Y413356D01*
X825351Y414466D01*
X825059Y415558D01*
X824695Y416629D01*
X824262Y417674D01*
X823762Y418688D01*
X823197Y419667D01*
X822568Y420607D01*
X821880Y421505D01*
X821134Y422355D01*
X820335Y423154D01*
X819485Y423900D01*
X818587Y424588D01*
X817647Y425217D01*
X816668Y425782D01*
X815654Y426282D01*
X814609Y426715D01*
X813538Y427079D01*
X812446Y427371D01*
X811336Y427592D01*
X810215Y427739D01*
X809087Y427813D01*
X807956Y427813D01*
X806828Y427739D01*
X805706Y427592D01*
X804597Y427371D01*
X803505Y427079D01*
X802434Y426715D01*
X801389Y426282D01*
X800375Y425782D01*
X799396Y425217D01*
X798455Y424588D01*
X797558Y423900D01*
X796708Y423154D01*
X795908Y422355D01*
X795163Y421505D01*
X794474Y420607D01*
X793846Y419667D01*
X793281Y418688D01*
X792781Y417674D01*
X792348Y416629D01*
X791984Y415558D01*
X791692Y414466D01*
X791471Y413356D01*
X791323Y412235D01*
X791249Y411107D01*
X791249Y409976D01*
X791323Y408848D01*
X791471Y407726D01*
X791692Y406617D01*
X791984Y405525D01*
X792348Y404454D01*
X792781Y403409D01*
X793281Y402395D01*
X793846Y401416D01*
X794474Y400475D01*
X795163Y399578D01*
X795908Y398728D01*
X796708Y397928D01*
X797558Y397183D01*
X798455Y396494D01*
X799396Y395866D01*
X800375Y395301D01*
X801389Y394801D01*
X802434Y394368D01*
X803505Y394004D01*
X804597Y393712D01*
X805706Y393491D01*
X806828Y393343D01*
X807956Y393269D01*
X809087Y393269D01*
X810215Y393343D01*
X811336Y393491D01*
X812446Y393712D01*
X813538Y394004D01*
X814609Y394368D01*
X815654Y394801D01*
X816668Y395301D01*
X817647Y395866D01*
X818587Y396494D01*
X819485Y397183D01*
X820335Y397928D01*
X821134Y398728D01*
X821880Y399578D01*
X822568Y400475D01*
X823197Y401416D01*
X823762Y402395D01*
X824262Y403409D01*
X824695Y404454D01*
X825059Y405525D01*
X825351Y406617D01*
X825572Y407726D01*
X825719Y408848D01*
X825793Y409976D01*
X165393Y378226D02*
X165393Y379357D01*
X165319Y380485D01*
X165172Y381606D01*
X164951Y382716D01*
X164659Y383808D01*
X164295Y384879D01*
X163862Y385924D01*
X163362Y386938D01*
X162797Y387917D01*
X162168Y388857D01*
X161480Y389755D01*
X160734Y390605D01*
X159935Y391404D01*
X159085Y392150D01*
X158187Y392838D01*
X157247Y393467D01*
X156268Y394032D01*
X155254Y394532D01*
X154209Y394965D01*
X153138Y395329D01*
X152046Y395621D01*
X150936Y395842D01*
X149815Y395989D01*
X148687Y396063D01*
X147556Y396063D01*
X146428Y395989D01*
X145306Y395842D01*
X144197Y395621D01*
X143105Y395329D01*
X142034Y394965D01*
X140989Y394532D01*
X139975Y394032D01*
X138996Y393467D01*
X138055Y392838D01*
X137158Y392150D01*
X136308Y391404D01*
X135508Y390605D01*
X134763Y389755D01*
X134074Y388857D01*
X133446Y387917D01*
X132881Y386938D01*
X132381Y385924D01*
X131948Y384879D01*
X131584Y383808D01*
X131292Y382716D01*
X131071Y381606D01*
X130923Y380485D01*
X130849Y379357D01*
X130849Y378226D01*
X130923Y377098D01*
X131071Y375976D01*
X131292Y374867D01*
X131584Y373775D01*
X131948Y372704D01*
X132381Y371659D01*
X132881Y370645D01*
X133446Y369666D01*
X134074Y368725D01*
X134763Y367828D01*
X135508Y366978D01*
X136308Y366178D01*
X137158Y365433D01*
X138055Y364744D01*
X138996Y364116D01*
X139975Y363551D01*
X140989Y363051D01*
X142034Y362618D01*
X143105Y362254D01*
X144197Y361962D01*
X145306Y361741D01*
X146428Y361593D01*
X147556Y361519D01*
X148687Y361519D01*
X149815Y361593D01*
X150936Y361741D01*
X152046Y361962D01*
X153138Y362254D01*
X154209Y362618D01*
X155254Y363051D01*
X156268Y363551D01*
X157247Y364116D01*
X158187Y364744D01*
X159085Y365433D01*
X159935Y366178D01*
X160734Y366978D01*
X161480Y367828D01*
X162168Y368725D01*
X162797Y369666D01*
X163362Y370645D01*
X163862Y371659D01*
X164295Y372704D01*
X164659Y373775D01*
X164951Y374867D01*
X165172Y375976D01*
X165319Y377098D01*
X165393Y378226D01*
X101893Y44326D02*
X101893Y45457D01*
X101819Y46585D01*
X101672Y47706D01*
X101451Y48816D01*
X101159Y49908D01*
X100795Y50979D01*
X100362Y52024D01*
X99862Y53038D01*
X99297Y54017D01*
X98668Y54957D01*
X97980Y55855D01*
X97234Y56705D01*
X96435Y57504D01*
X95585Y58250D01*
X94687Y58938D01*
X93747Y59567D01*
X92768Y60132D01*
X91754Y60632D01*
X90709Y61065D01*
X89638Y61429D01*
X88546Y61721D01*
X87436Y61942D01*
X86315Y62089D01*
X85187Y62163D01*
X84056Y62163D01*
X82928Y62089D01*
X81806Y61942D01*
X80697Y61721D01*
X79605Y61429D01*
X78534Y61065D01*
X77489Y60632D01*
X76475Y60132D01*
X75496Y59567D01*
X74555Y58938D01*
X73658Y58250D01*
X72808Y57504D01*
X72008Y56705D01*
X71263Y55855D01*
X70574Y54957D01*
X69946Y54017D01*
X69381Y53038D01*
X68881Y52024D01*
X68448Y50979D01*
X68084Y49908D01*
X67792Y48816D01*
X67571Y47706D01*
X67423Y46585D01*
X67349Y45457D01*
X67349Y44326D01*
X67423Y43198D01*
X67571Y42076D01*
X67792Y40967D01*
X68084Y39875D01*
X68448Y38804D01*
X68881Y37759D01*
X69381Y36745D01*
X69946Y35766D01*
X70574Y34825D01*
X71263Y33928D01*
X72008Y33078D01*
X72808Y32278D01*
X73658Y31533D01*
X74555Y30844D01*
X75496Y30216D01*
X76475Y29651D01*
X77489Y29151D01*
X78534Y28718D01*
X79605Y28354D01*
X80697Y28062D01*
X81806Y27841D01*
X82928Y27693D01*
X84056Y27619D01*
X85187Y27619D01*
X86315Y27693D01*
X87436Y27841D01*
X88546Y28062D01*
X89638Y28354D01*
X90709Y28718D01*
X91754Y29151D01*
X92768Y29651D01*
X93747Y30216D01*
X94687Y30844D01*
X95585Y31533D01*
X96435Y32278D01*
X97234Y33078D01*
X97980Y33928D01*
X98668Y34825D01*
X99297Y35766D01*
X99862Y36745D01*
X100362Y37759D01*
X100795Y38804D01*
X101159Y39875D01*
X101451Y40967D01*
X101672Y42076D01*
X101819Y43198D01*
X101893Y44326D01*
X800393Y44326D02*
X800393Y45457D01*
X800319Y46585D01*
X800172Y47706D01*
X799951Y48816D01*
X799659Y49908D01*
X799295Y50979D01*
X798862Y52024D01*
X798362Y53038D01*
X797797Y54017D01*
X797168Y54957D01*
X796480Y55855D01*
X795734Y56705D01*
X794935Y57504D01*
X794085Y58250D01*
X793187Y58938D01*
X792247Y59567D01*
X791268Y60132D01*
X790254Y60632D01*
X789209Y61065D01*
X788138Y61429D01*
X787046Y61721D01*
X785936Y61942D01*
X784815Y62089D01*
X783687Y62163D01*
X782556Y62163D01*
X781428Y62089D01*
X780306Y61942D01*
X779197Y61721D01*
X778105Y61429D01*
X777034Y61065D01*
X775989Y60632D01*
X774975Y60132D01*
X773996Y59567D01*
X773055Y58938D01*
X772158Y58250D01*
X771308Y57504D01*
X770508Y56705D01*
X769763Y55855D01*
X769074Y54957D01*
X768446Y54017D01*
X767881Y53038D01*
X767381Y52024D01*
X766948Y50979D01*
X766584Y49908D01*
X766292Y48816D01*
X766071Y47706D01*
X765923Y46585D01*
X765849Y45457D01*
X765849Y44326D01*
X765923Y43198D01*
X766071Y42076D01*
X766292Y40967D01*
X766584Y39875D01*
X766948Y38804D01*
X767381Y37759D01*
X767881Y36745D01*
X768446Y35766D01*
X769074Y34825D01*
X769763Y33928D01*
X770508Y33078D01*
X771308Y32278D01*
X772158Y31533D01*
X773055Y30844D01*
X773996Y30216D01*
X774975Y29651D01*
X775989Y29151D01*
X777034Y28718D01*
X778105Y28354D01*
X779197Y28062D01*
X780306Y27841D01*
X781428Y27693D01*
X782556Y27619D01*
X783687Y27619D01*
X784815Y27693D01*
X785936Y27841D01*
X787046Y28062D01*
X788138Y28354D01*
X789209Y28718D01*
X790254Y29151D01*
X791268Y29651D01*
X792247Y30216D01*
X793187Y30844D01*
X794085Y31533D01*
X794935Y32278D01*
X795734Y33078D01*
X796480Y33928D01*
X797168Y34825D01*
X797797Y35766D01*
X798362Y36745D01*
X798862Y37759D01*
X799295Y38804D01*
X799659Y39875D01*
X799951Y40967D01*
X800172Y42076D01*
X800319Y43198D01*
X800393Y44326D01*
X725650Y37293D02*
X725577Y36183D01*
X725432Y35079D01*
X725215Y33988D01*
X724927Y32913D01*
X724569Y31859D01*
X724143Y30830D01*
X723651Y29832D01*
X723094Y28868D01*
X722476Y27943D01*
X721798Y27060D01*
X721064Y26223D01*
X720277Y25436D01*
X719440Y24702D01*
X718557Y24024D01*
X717632Y23406D01*
X716668Y22849D01*
X715670Y22357D01*
X714641Y21931D01*
X713587Y21573D01*
X712512Y21285D01*
X711421Y21068D01*
X710317Y20923D01*
X709207Y20850D01*
X708093Y20850D01*
X706983Y20923D01*
X705879Y21068D01*
X704788Y21285D01*
X703713Y21573D01*
X702659Y21931D01*
X701630Y22357D01*
X700632Y22849D01*
X699668Y23406D01*
X698743Y24024D01*
X697860Y24702D01*
X697023Y25436D01*
X696236Y26223D01*
X695502Y27060D01*
X694824Y27943D01*
X694206Y28868D01*
X693649Y29832D01*
X693157Y30830D01*
X692731Y31859D01*
X692373Y32913D01*
X692085Y33988D01*
X691868Y35079D01*
X691723Y36183D01*
X691650Y37293D01*
X691650Y38407D01*
X691723Y39517D01*
X691868Y40621D01*
X692085Y41712D01*
X692373Y42787D01*
X692731Y43841D01*
X693157Y44870D01*
X693649Y45868D01*
X694206Y46832D01*
X694824Y47757D01*
X695502Y48640D01*
X696236Y49477D01*
X697023Y50264D01*
X697860Y50998D01*
X698743Y51676D01*
X699668Y52294D01*
X700632Y52851D01*
X701630Y53343D01*
X702659Y53769D01*
X703713Y54127D01*
X704788Y54415D01*
X705879Y54632D01*
X706983Y54777D01*
X708093Y54850D01*
X709207Y54850D01*
X710317Y54777D01*
X711421Y54632D01*
X712512Y54415D01*
X713587Y54127D01*
X714641Y53769D01*
X715670Y53343D01*
X716668Y52851D01*
X717632Y52294D01*
X718557Y51676D01*
X719440Y50998D01*
X720277Y50264D01*
X721064Y49477D01*
X721798Y48640D01*
X722476Y47757D01*
X723094Y46832D01*
X723651Y45868D01*
X724143Y44870D01*
X724569Y43841D01*
X724927Y42787D01*
X725215Y41712D01*
X725432Y40621D01*
X725577Y39517D01*
X725650Y38407D01*
X725650Y37293D01*
X596050Y37293D02*
X595977Y36183D01*
X595832Y35079D01*
X595615Y33988D01*
X595327Y32913D01*
X594969Y31859D01*
X594543Y30830D01*
X594051Y29832D01*
X593494Y28868D01*
X592876Y27943D01*
X592198Y27060D01*
X591464Y26223D01*
X590677Y25436D01*
X589840Y24702D01*
X588957Y24024D01*
X588032Y23406D01*
X587068Y22849D01*
X586070Y22357D01*
X585041Y21931D01*
X583987Y21573D01*
X582912Y21285D01*
X581821Y21068D01*
X580717Y20923D01*
X579607Y20850D01*
X578493Y20850D01*
X577383Y20923D01*
X576279Y21068D01*
X575188Y21285D01*
X574113Y21573D01*
X573059Y21931D01*
X572030Y22357D01*
X571032Y22849D01*
X570068Y23406D01*
X569143Y24024D01*
X568260Y24702D01*
X567423Y25436D01*
X566636Y26223D01*
X565902Y27060D01*
X565224Y27943D01*
X564606Y28868D01*
X564049Y29832D01*
X563557Y30830D01*
X563131Y31859D01*
X562773Y32913D01*
X562485Y33988D01*
X562268Y35079D01*
X562123Y36183D01*
X562050Y37293D01*
X562050Y38407D01*
X562123Y39517D01*
X562268Y40621D01*
X562485Y41712D01*
X562773Y42787D01*
X563131Y43841D01*
X563557Y44870D01*
X564049Y45868D01*
X564606Y46832D01*
X565224Y47757D01*
X565902Y48640D01*
X566636Y49477D01*
X567423Y50264D01*
X568260Y50998D01*
X569143Y51676D01*
X570068Y52294D01*
X571032Y52851D01*
X572030Y53343D01*
X573059Y53769D01*
X574113Y54127D01*
X575188Y54415D01*
X576279Y54632D01*
X577383Y54777D01*
X578493Y54850D01*
X579607Y54850D01*
X580717Y54777D01*
X581821Y54632D01*
X582912Y54415D01*
X583987Y54127D01*
X585041Y53769D01*
X586070Y53343D01*
X587068Y52851D01*
X588032Y52294D01*
X588957Y51676D01*
X589840Y50998D01*
X590677Y50264D01*
X591464Y49477D01*
X592198Y48640D01*
X592876Y47757D01*
X593494Y46832D01*
X594051Y45868D01*
X594543Y44870D01*
X594969Y43841D01*
X595327Y42787D01*
X595615Y41712D01*
X595832Y40621D01*
X595977Y39517D01*
X596050Y38407D01*
X596050Y37293D01*
X556458Y37723D02*
X556385Y36613D01*
X556240Y35509D01*
X556023Y34418D01*
X555735Y33343D01*
X555377Y32289D01*
X554951Y31260D01*
X554459Y30262D01*
X553902Y29298D01*
X553284Y28373D01*
X552606Y27490D01*
X551872Y26653D01*
X551085Y25866D01*
X550248Y25132D01*
X549365Y24454D01*
X548440Y23836D01*
X547476Y23279D01*
X546478Y22787D01*
X545449Y22361D01*
X544395Y22003D01*
X543320Y21715D01*
X542229Y21498D01*
X541125Y21353D01*
X540015Y21280D01*
X538901Y21280D01*
X537791Y21353D01*
X536687Y21498D01*
X535596Y21715D01*
X534521Y22003D01*
X533467Y22361D01*
X532438Y22787D01*
X531440Y23279D01*
X530476Y23836D01*
X529551Y24454D01*
X528668Y25132D01*
X527831Y25866D01*
X527044Y26653D01*
X526310Y27490D01*
X525632Y28373D01*
X525014Y29298D01*
X524457Y30262D01*
X523965Y31260D01*
X523539Y32289D01*
X523181Y33343D01*
X522893Y34418D01*
X522676Y35509D01*
X522531Y36613D01*
X522458Y37723D01*
X522458Y38837D01*
X522531Y39947D01*
X522676Y41051D01*
X522893Y42142D01*
X523181Y43217D01*
X523539Y44271D01*
X523965Y45300D01*
X524457Y46298D01*
X525014Y47262D01*
X525632Y48187D01*
X526310Y49070D01*
X527044Y49907D01*
X527831Y50694D01*
X528668Y51428D01*
X529551Y52106D01*
X530476Y52724D01*
X531440Y53281D01*
X532438Y53773D01*
X533467Y54199D01*
X534521Y54557D01*
X535596Y54845D01*
X536687Y55062D01*
X537791Y55207D01*
X538901Y55280D01*
X540015Y55280D01*
X541125Y55207D01*
X542229Y55062D01*
X543320Y54845D01*
X544395Y54557D01*
X545449Y54199D01*
X546478Y53773D01*
X547476Y53281D01*
X548440Y52724D01*
X549365Y52106D01*
X550248Y51428D01*
X551085Y50694D01*
X551872Y49907D01*
X552606Y49070D01*
X553284Y48187D01*
X553902Y47262D01*
X554459Y46298D01*
X554951Y45300D01*
X555377Y44271D01*
X555735Y43217D01*
X556023Y42142D01*
X556240Y41051D01*
X556385Y39947D01*
X556458Y38837D01*
X556458Y37723D01*
X503058Y37723D02*
X502985Y36613D01*
X502840Y35509D01*
X502623Y34418D01*
X502335Y33343D01*
X501977Y32289D01*
X501551Y31260D01*
X501059Y30262D01*
X500502Y29298D01*
X499884Y28373D01*
X499206Y27490D01*
X498472Y26653D01*
X497685Y25866D01*
X496848Y25132D01*
X495965Y24454D01*
X495040Y23836D01*
X494076Y23279D01*
X493078Y22787D01*
X492049Y22361D01*
X490995Y22003D01*
X489920Y21715D01*
X488829Y21498D01*
X487725Y21353D01*
X486615Y21280D01*
X485501Y21280D01*
X484391Y21353D01*
X483287Y21498D01*
X482196Y21715D01*
X481121Y22003D01*
X480067Y22361D01*
X479038Y22787D01*
X478040Y23279D01*
X477076Y23836D01*
X476151Y24454D01*
X475268Y25132D01*
X474431Y25866D01*
X473644Y26653D01*
X472910Y27490D01*
X472232Y28373D01*
X471614Y29298D01*
X471057Y30262D01*
X470565Y31260D01*
X470139Y32289D01*
X469781Y33343D01*
X469493Y34418D01*
X469276Y35509D01*
X469131Y36613D01*
X469058Y37723D01*
X469058Y38837D01*
X469131Y39947D01*
X469276Y41051D01*
X469493Y42142D01*
X469781Y43217D01*
X470139Y44271D01*
X470565Y45300D01*
X471057Y46298D01*
X471614Y47262D01*
X472232Y48187D01*
X472910Y49070D01*
X473644Y49907D01*
X474431Y50694D01*
X475268Y51428D01*
X476151Y52106D01*
X477076Y52724D01*
X478040Y53281D01*
X479038Y53773D01*
X480067Y54199D01*
X481121Y54557D01*
X482196Y54845D01*
X483287Y55062D01*
X484391Y55207D01*
X485501Y55280D01*
X486615Y55280D01*
X487725Y55207D01*
X488829Y55062D01*
X489920Y54845D01*
X490995Y54557D01*
X492049Y54199D01*
X493078Y53773D01*
X494076Y53281D01*
X495040Y52724D01*
X495965Y52106D01*
X496848Y51428D01*
X497685Y50694D01*
X498472Y49907D01*
X499206Y49070D01*
X499884Y48187D01*
X500502Y47262D01*
X501059Y46298D01*
X501551Y45300D01*
X501977Y44271D01*
X502335Y43217D01*
X502623Y42142D01*
X502840Y41051D01*
X502985Y39947D01*
X503058Y38837D01*
X503058Y37723D01*
X223707Y743692D02*
X222597Y743765D01*
X221493Y743910D01*
X220402Y744127D01*
X219327Y744415D01*
X218273Y744773D01*
X217244Y745199D01*
X216246Y745691D01*
X215282Y746248D01*
X214357Y746866D01*
X213474Y747544D01*
X212637Y748278D01*
X211850Y749065D01*
X211116Y749902D01*
X210438Y750785D01*
X209820Y751710D01*
X209263Y752674D01*
X208771Y753672D01*
X208345Y754701D01*
X207987Y755755D01*
X207699Y756830D01*
X207482Y757921D01*
X207337Y759025D01*
X207264Y760135D01*
X207264Y761249D01*
X207337Y762359D01*
X207482Y763463D01*
X207699Y764554D01*
X207987Y765629D01*
X208345Y766683D01*
X208771Y767712D01*
X209263Y768710D01*
X209820Y769674D01*
X210438Y770599D01*
X211116Y771482D01*
X211850Y772319D01*
X212637Y773106D01*
X213474Y773840D01*
X214357Y774518D01*
X215282Y775136D01*
X216246Y775693D01*
X217244Y776185D01*
X218273Y776611D01*
X219327Y776969D01*
X220402Y777257D01*
X221493Y777474D01*
X222597Y777619D01*
X223707Y777692D01*
X224821Y777692D01*
X225931Y777619D01*
X227035Y777474D01*
X228126Y777257D01*
X229201Y776969D01*
X230255Y776611D01*
X231284Y776185D01*
X232282Y775693D01*
X233246Y775136D01*
X234171Y774518D01*
X235054Y773840D01*
X235891Y773106D01*
X236678Y772319D01*
X237412Y771482D01*
X238090Y770599D01*
X238708Y769674D01*
X239265Y768710D01*
X239757Y767712D01*
X240183Y766683D01*
X240541Y765629D01*
X240829Y764554D01*
X241046Y763463D01*
X241191Y762359D01*
X241264Y761249D01*
X241264Y760135D01*
X241191Y759025D01*
X241046Y757921D01*
X240829Y756830D01*
X240541Y755755D01*
X240183Y754701D01*
X239757Y753672D01*
X239265Y752674D01*
X238708Y751710D01*
X238090Y750785D01*
X237412Y749902D01*
X236678Y749065D01*
X235891Y748278D01*
X235054Y747544D01*
X234171Y746866D01*
X233246Y746248D01*
X232282Y745691D01*
X231284Y745199D01*
X230255Y744773D01*
X229201Y744415D01*
X228126Y744127D01*
X227035Y743910D01*
X225931Y743765D01*
X224821Y743692D01*
X223707Y743692D01*
X223707Y797092D02*
X222597Y797165D01*
X221493Y797310D01*
X220402Y797527D01*
X219327Y797815D01*
X218273Y798173D01*
X217244Y798599D01*
X216246Y799091D01*
X215282Y799648D01*
X214357Y800266D01*
X213474Y800944D01*
X212637Y801678D01*
X211850Y802465D01*
X211116Y803302D01*
X210438Y804185D01*
X209820Y805110D01*
X209263Y806074D01*
X208771Y807072D01*
X208345Y808101D01*
X207987Y809155D01*
X207699Y810230D01*
X207482Y811321D01*
X207337Y812425D01*
X207264Y813535D01*
X207264Y814649D01*
X207337Y815759D01*
X207482Y816863D01*
X207699Y817954D01*
X207987Y819029D01*
X208345Y820083D01*
X208771Y821112D01*
X209263Y822110D01*
X209820Y823074D01*
X210438Y823999D01*
X211116Y824882D01*
X211850Y825719D01*
X212637Y826506D01*
X213474Y827240D01*
X214357Y827918D01*
X215282Y828536D01*
X216246Y829093D01*
X217244Y829585D01*
X218273Y830011D01*
X219327Y830369D01*
X220402Y830657D01*
X221493Y830874D01*
X222597Y831019D01*
X223707Y831092D01*
X224821Y831092D01*
X225931Y831019D01*
X227035Y830874D01*
X228126Y830657D01*
X229201Y830369D01*
X230255Y830011D01*
X231284Y829585D01*
X232282Y829093D01*
X233246Y828536D01*
X234171Y827918D01*
X235054Y827240D01*
X235891Y826506D01*
X236678Y825719D01*
X237412Y824882D01*
X238090Y823999D01*
X238708Y823074D01*
X239265Y822110D01*
X239757Y821112D01*
X240183Y820083D01*
X240541Y819029D01*
X240829Y817954D01*
X241046Y816863D01*
X241191Y815759D01*
X241264Y814649D01*
X241264Y813535D01*
X241191Y812425D01*
X241046Y811321D01*
X240829Y810230D01*
X240541Y809155D01*
X240183Y808101D01*
X239757Y807072D01*
X239265Y806074D01*
X238708Y805110D01*
X238090Y804185D01*
X237412Y803302D01*
X236678Y802465D01*
X235891Y801678D01*
X235054Y800944D01*
X234171Y800266D01*
X233246Y799648D01*
X232282Y799091D01*
X231284Y798599D01*
X230255Y798173D01*
X229201Y797815D01*
X228126Y797527D01*
X227035Y797310D01*
X225931Y797165D01*
X224821Y797092D01*
X223707Y797092D01*
M02*
