G04 EAGLE Gerber RS-274X export*
G75*
%MOMM*%
%FSLAX34Y34*%
%LPD*%
%INSilkscreen Top*%
%IPPOS*%
%AMOC8*
5,1,8,0,0,1.08239X$1,22.5*%
G01*
%ADD10C,0.152400*%
%ADD11C,0.101600*%
%ADD12C,0.076200*%
%ADD13C,0.203200*%
%ADD14R,0.400000X6.000000*%
%ADD15C,0.020319*%
%ADD16C,0.127000*%
%ADD17C,0.406400*%
%ADD18C,0.100000*%
%ADD19C,0.254000*%
%ADD20C,0.300000*%

G36*
X20084Y765725D02*
X20084Y765725D01*
X20154Y765722D01*
X20195Y765735D01*
X20238Y765740D01*
X20301Y765770D01*
X20367Y765792D01*
X20401Y765819D01*
X20440Y765838D01*
X20503Y765900D01*
X20543Y765932D01*
X20554Y765950D01*
X20573Y765969D01*
X23573Y769969D01*
X23593Y770009D01*
X23621Y770044D01*
X23643Y770109D01*
X23674Y770170D01*
X23679Y770214D01*
X23693Y770256D01*
X23691Y770325D01*
X23699Y770393D01*
X23688Y770436D01*
X23687Y770481D01*
X23661Y770544D01*
X23644Y770611D01*
X23619Y770647D01*
X23602Y770688D01*
X23556Y770739D01*
X23517Y770796D01*
X23481Y770821D01*
X23451Y770854D01*
X23390Y770885D01*
X23334Y770925D01*
X23291Y770936D01*
X23251Y770957D01*
X23166Y770969D01*
X23117Y770982D01*
X23095Y770980D01*
X23066Y770984D01*
X17066Y770984D01*
X17022Y770976D01*
X16978Y770978D01*
X16913Y770957D01*
X16845Y770945D01*
X16807Y770922D01*
X16765Y770908D01*
X16711Y770865D01*
X16652Y770830D01*
X16624Y770796D01*
X16589Y770768D01*
X16554Y770709D01*
X16511Y770656D01*
X16496Y770614D01*
X16473Y770576D01*
X16461Y770509D01*
X16439Y770444D01*
X16440Y770399D01*
X16432Y770356D01*
X16443Y770288D01*
X16445Y770219D01*
X16462Y770178D01*
X16470Y770134D01*
X16511Y770058D01*
X16530Y770012D01*
X16545Y769995D01*
X16559Y769969D01*
X19559Y765969D01*
X19590Y765940D01*
X19615Y765904D01*
X19672Y765864D01*
X19723Y765817D01*
X19763Y765800D01*
X19798Y765775D01*
X19866Y765757D01*
X19930Y765731D01*
X19973Y765729D01*
X20015Y765718D01*
X20084Y765725D01*
G37*
G36*
X438204Y25334D02*
X438204Y25334D01*
X438249Y25335D01*
X438312Y25361D01*
X438379Y25378D01*
X438415Y25403D01*
X438456Y25420D01*
X438507Y25466D01*
X438564Y25505D01*
X438589Y25541D01*
X438622Y25571D01*
X438653Y25632D01*
X438693Y25688D01*
X438704Y25731D01*
X438725Y25771D01*
X438737Y25857D01*
X438750Y25905D01*
X438748Y25927D01*
X438752Y25956D01*
X438752Y31956D01*
X438744Y32000D01*
X438746Y32044D01*
X438725Y32109D01*
X438713Y32177D01*
X438690Y32215D01*
X438676Y32257D01*
X438633Y32311D01*
X438598Y32370D01*
X438564Y32398D01*
X438536Y32433D01*
X438477Y32468D01*
X438424Y32511D01*
X438382Y32526D01*
X438344Y32549D01*
X438277Y32561D01*
X438212Y32583D01*
X438167Y32582D01*
X438124Y32590D01*
X438056Y32579D01*
X437987Y32577D01*
X437946Y32560D01*
X437902Y32552D01*
X437826Y32511D01*
X437780Y32492D01*
X437763Y32477D01*
X437737Y32463D01*
X433737Y29463D01*
X433708Y29432D01*
X433672Y29407D01*
X433632Y29350D01*
X433585Y29299D01*
X433568Y29259D01*
X433543Y29224D01*
X433525Y29156D01*
X433499Y29092D01*
X433497Y29049D01*
X433486Y29007D01*
X433493Y28938D01*
X433490Y28868D01*
X433503Y28827D01*
X433508Y28784D01*
X433538Y28721D01*
X433560Y28655D01*
X433587Y28621D01*
X433606Y28582D01*
X433668Y28519D01*
X433700Y28479D01*
X433718Y28468D01*
X433737Y28449D01*
X437737Y25449D01*
X437777Y25429D01*
X437812Y25401D01*
X437877Y25379D01*
X437938Y25348D01*
X437982Y25343D01*
X438024Y25329D01*
X438093Y25331D01*
X438161Y25323D01*
X438204Y25334D01*
G37*
D10*
X149271Y290812D02*
X143848Y296235D01*
X160118Y296235D01*
X160118Y290812D02*
X160118Y301659D01*
X160118Y307184D02*
X160118Y318030D01*
X160118Y307184D02*
X149271Y318030D01*
X146560Y318030D01*
X143848Y315319D01*
X143848Y309895D01*
X146560Y307184D01*
X143848Y323555D02*
X154695Y323555D01*
X160118Y328978D01*
X154695Y334402D01*
X143848Y334402D01*
X218864Y355646D02*
X218864Y367509D01*
X574092Y196360D02*
X574092Y180090D01*
X574092Y196360D02*
X582227Y196360D01*
X584939Y193648D01*
X584939Y190937D01*
X582227Y188225D01*
X584939Y185513D01*
X584939Y182802D01*
X582227Y180090D01*
X574092Y180090D01*
X574092Y188225D02*
X582227Y188225D01*
X606835Y185513D02*
X606835Y196360D01*
X606835Y185513D02*
X612258Y180090D01*
X617682Y185513D01*
X617682Y196360D01*
X639578Y190937D02*
X639578Y180090D01*
X639578Y190937D02*
X645002Y196360D01*
X650425Y190937D01*
X650425Y180090D01*
X650425Y188225D02*
X639578Y188225D01*
X672321Y180090D02*
X677745Y180090D01*
X675033Y180090D02*
X675033Y196360D01*
X672321Y196360D02*
X677745Y196360D01*
X707742Y196360D02*
X710454Y193648D01*
X707742Y196360D02*
X702319Y196360D01*
X699607Y193648D01*
X699607Y182802D01*
X702319Y180090D01*
X707742Y180090D01*
X710454Y182802D01*
X710454Y188225D01*
X705031Y188225D01*
X488980Y180202D02*
X488980Y196472D01*
X494403Y191049D01*
X499827Y196472D01*
X499827Y180202D01*
X505352Y180202D02*
X505352Y196472D01*
X513487Y196472D01*
X516198Y193760D01*
X516198Y188337D01*
X513487Y185625D01*
X505352Y185625D01*
X521723Y180202D02*
X521723Y196472D01*
X529858Y196472D01*
X532570Y193760D01*
X532570Y191049D01*
X529858Y188337D01*
X532570Y185625D01*
X532570Y182914D01*
X529858Y180202D01*
X521723Y180202D01*
X521723Y188337D02*
X529858Y188337D01*
X158464Y772159D02*
X161176Y774871D01*
X158464Y772159D02*
X158464Y766736D01*
X161176Y764024D01*
X163887Y764024D01*
X166599Y766736D01*
X166599Y772159D01*
X169311Y774871D01*
X172022Y774871D01*
X174734Y772159D01*
X174734Y766736D01*
X172022Y764024D01*
X158464Y783107D02*
X158464Y788531D01*
X158464Y783107D02*
X161176Y780396D01*
X172022Y780396D01*
X174734Y783107D01*
X174734Y788531D01*
X172022Y791242D01*
X161176Y791242D01*
X158464Y788531D01*
X158464Y796767D02*
X174734Y796767D01*
X174734Y807614D01*
X764210Y834690D02*
X764210Y888030D01*
X764210Y834690D02*
X180010Y834690D01*
X180010Y888030D01*
X764210Y888030D01*
X764210Y405430D02*
X764210Y352090D01*
X180010Y352090D01*
X180010Y405430D01*
X764210Y405430D01*
D11*
X772338Y384612D02*
X772338Y372918D01*
X772338Y384612D02*
X778185Y384612D01*
X780134Y382663D01*
X780134Y378765D01*
X778185Y376816D01*
X772338Y376816D01*
X784032Y374867D02*
X785981Y372918D01*
X789879Y372918D01*
X791828Y374867D01*
X791828Y382663D01*
X789879Y384612D01*
X785981Y384612D01*
X784032Y382663D01*
X784032Y380714D01*
X785981Y378765D01*
X791828Y378765D01*
X772338Y850438D02*
X772338Y862132D01*
X778185Y862132D01*
X780134Y860183D01*
X780134Y856285D01*
X778185Y854336D01*
X772338Y854336D01*
X784032Y860183D02*
X785981Y862132D01*
X789879Y862132D01*
X791828Y860183D01*
X791828Y858234D01*
X789879Y856285D01*
X791828Y854336D01*
X791828Y852387D01*
X789879Y850438D01*
X785981Y850438D01*
X784032Y852387D01*
X784032Y854336D01*
X785981Y856285D01*
X784032Y858234D01*
X784032Y860183D01*
X785981Y856285D02*
X789879Y856285D01*
D12*
X173962Y870631D02*
X167691Y870631D01*
X173962Y876902D01*
X173962Y878469D01*
X172394Y880037D01*
X169259Y880037D01*
X167691Y878469D01*
X170826Y854637D02*
X167691Y851502D01*
X170826Y854637D02*
X170826Y845231D01*
X167691Y845231D02*
X173962Y845231D01*
X170826Y369497D02*
X167691Y366362D01*
X170826Y369497D02*
X170826Y360091D01*
X167691Y360091D02*
X173962Y360091D01*
X173962Y388031D02*
X167691Y388031D01*
X173962Y394302D01*
X173962Y395869D01*
X172394Y397437D01*
X169259Y397437D01*
X167691Y395869D01*
X771834Y835071D02*
X771834Y844477D01*
X767131Y839774D01*
X773402Y839774D01*
X776486Y844477D02*
X782757Y844477D01*
X776486Y844477D02*
X776486Y839774D01*
X779622Y841342D01*
X781189Y841342D01*
X782757Y839774D01*
X782757Y836639D01*
X781189Y835071D01*
X778054Y835071D01*
X776486Y836639D01*
X774374Y366957D02*
X774374Y357551D01*
X769671Y362254D02*
X774374Y366957D01*
X775942Y362254D02*
X769671Y362254D01*
X779026Y366957D02*
X785297Y366957D01*
X779026Y366957D02*
X779026Y362254D01*
X782162Y363822D01*
X783729Y363822D01*
X785297Y362254D01*
X785297Y359119D01*
X783729Y357551D01*
X780594Y357551D01*
X779026Y359119D01*
X774374Y393111D02*
X774374Y402517D01*
X769671Y397814D01*
X775942Y397814D01*
X782162Y400949D02*
X785297Y402517D01*
X782162Y400949D02*
X779026Y397814D01*
X779026Y394679D01*
X780594Y393111D01*
X783729Y393111D01*
X785297Y394679D01*
X785297Y396246D01*
X783729Y397814D01*
X779026Y397814D01*
X771834Y868091D02*
X771834Y877497D01*
X767131Y872794D01*
X773402Y872794D01*
X779622Y875929D02*
X782757Y877497D01*
X779622Y875929D02*
X776486Y872794D01*
X776486Y869659D01*
X778054Y868091D01*
X781189Y868091D01*
X782757Y869659D01*
X782757Y871226D01*
X781189Y872794D01*
X776486Y872794D01*
D13*
X206082Y28020D02*
X136082Y28020D01*
X136082Y88020D02*
X206082Y88020D01*
X179382Y58020D02*
X165652Y48020D01*
X179382Y58020D02*
X165652Y68020D01*
X165652Y48020D01*
X206082Y38020D02*
X206082Y28020D01*
X206082Y78020D02*
X206082Y88020D01*
X136082Y38020D02*
X136082Y28020D01*
X136082Y78020D02*
X136082Y88020D01*
D14*
X186082Y58020D03*
D12*
X163353Y92965D02*
X163353Y100337D01*
X163353Y92965D02*
X167039Y92965D01*
X168268Y94194D01*
X168268Y99109D01*
X167039Y100337D01*
X163353Y100337D01*
X170837Y97880D02*
X173294Y100337D01*
X173294Y92965D01*
X170837Y92965D02*
X175752Y92965D01*
D13*
X37666Y278330D02*
X37666Y319330D01*
X116666Y319330D01*
X139666Y296330D01*
X139666Y278330D01*
X139666Y258330D02*
X139666Y240330D01*
X116666Y217330D01*
X37666Y217330D01*
X37666Y258330D01*
D15*
X39291Y258046D02*
X41082Y258416D01*
X41082Y258415D02*
X41338Y257258D01*
X41622Y256108D01*
X41934Y254964D01*
X42274Y253829D01*
X42641Y252702D01*
X43035Y251585D01*
X43457Y250477D01*
X43906Y249381D01*
X44381Y248295D01*
X44883Y247221D01*
X45410Y246160D01*
X45964Y245112D01*
X46543Y244078D01*
X47146Y243058D01*
X47775Y242054D01*
X48427Y241065D01*
X49104Y240092D01*
X49804Y239136D01*
X50528Y238197D01*
X51274Y237276D01*
X52042Y236374D01*
X52832Y235490D01*
X53643Y234626D01*
X54475Y233783D01*
X55327Y232959D01*
X56200Y232157D01*
X57091Y231376D01*
X58001Y230618D01*
X58930Y229881D01*
X59876Y229168D01*
X60839Y228477D01*
X61819Y227811D01*
X62815Y227168D01*
X63826Y226550D01*
X64852Y225957D01*
X65892Y225389D01*
X66946Y224847D01*
X68013Y224330D01*
X69091Y223840D01*
X70182Y223376D01*
X71283Y222939D01*
X72395Y222528D01*
X73516Y222145D01*
X74647Y221790D01*
X75786Y221462D01*
X76932Y221162D01*
X78086Y220890D01*
X79245Y220646D01*
X80411Y220430D01*
X81581Y220243D01*
X82755Y220085D01*
X83933Y219955D01*
X85114Y219854D01*
X86297Y219782D01*
X87481Y219738D01*
X88666Y219724D01*
X89851Y219738D01*
X91035Y219782D01*
X92218Y219854D01*
X93399Y219955D01*
X94577Y220085D01*
X95751Y220243D01*
X96921Y220430D01*
X98087Y220646D01*
X99246Y220890D01*
X100400Y221162D01*
X101546Y221462D01*
X102685Y221790D01*
X103816Y222145D01*
X104937Y222528D01*
X106049Y222939D01*
X107150Y223376D01*
X108241Y223840D01*
X109319Y224330D01*
X110386Y224847D01*
X111440Y225389D01*
X112480Y225957D01*
X113506Y226550D01*
X114517Y227168D01*
X115513Y227811D01*
X116493Y228477D01*
X117456Y229168D01*
X118402Y229881D01*
X119331Y230618D01*
X120241Y231376D01*
X121132Y232157D01*
X122005Y232959D01*
X122857Y233783D01*
X123689Y234626D01*
X124500Y235490D01*
X125290Y236374D01*
X126058Y237276D01*
X126804Y238197D01*
X127528Y239136D01*
X128228Y240092D01*
X128905Y241065D01*
X129557Y242054D01*
X130186Y243058D01*
X130789Y244078D01*
X131368Y245112D01*
X131922Y246160D01*
X132449Y247221D01*
X132951Y248295D01*
X133426Y249381D01*
X133875Y250477D01*
X134297Y251585D01*
X134691Y252702D01*
X135058Y253829D01*
X135398Y254964D01*
X135710Y256108D01*
X135994Y257258D01*
X136250Y258415D01*
X138041Y258046D01*
X137776Y256845D01*
X137481Y255651D01*
X137158Y254465D01*
X136805Y253287D01*
X136424Y252118D01*
X136015Y250958D01*
X135577Y249809D01*
X135112Y248671D01*
X134618Y247544D01*
X134098Y246430D01*
X133551Y245329D01*
X132976Y244241D01*
X132376Y243168D01*
X131750Y242110D01*
X131097Y241067D01*
X130420Y240041D01*
X129718Y239031D01*
X128992Y238039D01*
X128241Y237065D01*
X127467Y236109D01*
X126670Y235173D01*
X125850Y234256D01*
X125008Y233360D01*
X124145Y232484D01*
X123261Y231630D01*
X122356Y230797D01*
X121430Y229987D01*
X120486Y229200D01*
X119522Y228435D01*
X118541Y227695D01*
X117541Y226979D01*
X116524Y226287D01*
X115491Y225620D01*
X114442Y224979D01*
X113377Y224364D01*
X112298Y223774D01*
X111204Y223211D01*
X110098Y222675D01*
X108978Y222166D01*
X107847Y221685D01*
X106704Y221231D01*
X105550Y220805D01*
X104386Y220408D01*
X103213Y220039D01*
X102032Y219698D01*
X100842Y219387D01*
X99645Y219105D01*
X98442Y218851D01*
X97233Y218628D01*
X96018Y218434D01*
X94800Y218269D01*
X93577Y218135D01*
X92352Y218030D01*
X91125Y217955D01*
X89896Y217910D01*
X88666Y217895D01*
X87436Y217910D01*
X86207Y217955D01*
X84980Y218030D01*
X83755Y218135D01*
X82532Y218269D01*
X81314Y218434D01*
X80099Y218628D01*
X78890Y218851D01*
X77687Y219105D01*
X76490Y219387D01*
X75300Y219698D01*
X74119Y220039D01*
X72946Y220408D01*
X71782Y220805D01*
X70628Y221231D01*
X69485Y221685D01*
X68354Y222166D01*
X67234Y222675D01*
X66128Y223211D01*
X65034Y223774D01*
X63955Y224364D01*
X62890Y224979D01*
X61841Y225620D01*
X60808Y226287D01*
X59791Y226979D01*
X58791Y227695D01*
X57810Y228435D01*
X56846Y229200D01*
X55902Y229987D01*
X54976Y230797D01*
X54071Y231630D01*
X53187Y232484D01*
X52324Y233360D01*
X51482Y234256D01*
X50662Y235173D01*
X49865Y236109D01*
X49091Y237065D01*
X48340Y238039D01*
X47614Y239031D01*
X46912Y240041D01*
X46235Y241067D01*
X45582Y242110D01*
X44956Y243168D01*
X44356Y244241D01*
X43781Y245329D01*
X43234Y246430D01*
X42714Y247544D01*
X42220Y248671D01*
X41755Y249809D01*
X41317Y250958D01*
X40908Y252118D01*
X40527Y253287D01*
X40174Y254465D01*
X39851Y255651D01*
X39556Y256845D01*
X39291Y258046D01*
X39479Y258085D01*
X39743Y256888D01*
X40037Y255699D01*
X40359Y254517D01*
X40710Y253344D01*
X41090Y252179D01*
X41498Y251024D01*
X41934Y249879D01*
X42397Y248745D01*
X42889Y247623D01*
X43407Y246513D01*
X43952Y245416D01*
X44524Y244333D01*
X45123Y243264D01*
X45747Y242209D01*
X46396Y241171D01*
X47071Y240148D01*
X47770Y239143D01*
X48494Y238154D01*
X49242Y237184D01*
X50013Y236232D01*
X50807Y235299D01*
X51623Y234386D01*
X52462Y233493D01*
X53322Y232620D01*
X54203Y231769D01*
X55105Y230940D01*
X56026Y230133D01*
X56967Y229348D01*
X57927Y228587D01*
X58905Y227850D01*
X59901Y227136D01*
X60914Y226447D01*
X61943Y225783D01*
X62989Y225144D01*
X64049Y224531D01*
X65124Y223944D01*
X66213Y223383D01*
X67316Y222849D01*
X68431Y222342D01*
X69558Y221862D01*
X70697Y221410D01*
X71846Y220986D01*
X73005Y220590D01*
X74174Y220222D01*
X75351Y219883D01*
X76536Y219573D01*
X77729Y219292D01*
X78927Y219040D01*
X80132Y218817D01*
X81342Y218624D01*
X82556Y218460D01*
X83773Y218326D01*
X84994Y218221D01*
X86217Y218147D01*
X87441Y218102D01*
X88666Y218087D01*
X89891Y218102D01*
X91115Y218147D01*
X92338Y218221D01*
X93559Y218326D01*
X94776Y218460D01*
X95990Y218624D01*
X97200Y218817D01*
X98405Y219040D01*
X99603Y219292D01*
X100796Y219573D01*
X101981Y219883D01*
X103158Y220222D01*
X104327Y220590D01*
X105486Y220986D01*
X106635Y221410D01*
X107774Y221862D01*
X108901Y222342D01*
X110016Y222849D01*
X111119Y223383D01*
X112208Y223944D01*
X113283Y224531D01*
X114343Y225144D01*
X115389Y225783D01*
X116418Y226447D01*
X117431Y227136D01*
X118427Y227850D01*
X119405Y228587D01*
X120365Y229348D01*
X121306Y230133D01*
X122227Y230940D01*
X123129Y231769D01*
X124010Y232620D01*
X124870Y233493D01*
X125709Y234386D01*
X126525Y235299D01*
X127319Y236232D01*
X128090Y237184D01*
X128838Y238154D01*
X129562Y239143D01*
X130261Y240148D01*
X130936Y241171D01*
X131585Y242209D01*
X132209Y243264D01*
X132808Y244333D01*
X133380Y245416D01*
X133925Y246513D01*
X134443Y247623D01*
X134935Y248745D01*
X135398Y249879D01*
X135834Y251024D01*
X136242Y252179D01*
X136622Y253344D01*
X136973Y254517D01*
X137295Y255699D01*
X137589Y256888D01*
X137853Y258085D01*
X137665Y258123D01*
X137402Y256932D01*
X137109Y255747D01*
X136788Y254570D01*
X136439Y253401D01*
X136060Y252240D01*
X135654Y251090D01*
X135220Y249949D01*
X134758Y248820D01*
X134268Y247702D01*
X133752Y246596D01*
X133209Y245503D01*
X132639Y244424D01*
X132043Y243359D01*
X131421Y242309D01*
X130774Y241274D01*
X130102Y240256D01*
X129405Y239254D01*
X128684Y238269D01*
X127939Y237303D01*
X127171Y236354D01*
X126380Y235425D01*
X125567Y234515D01*
X124731Y233626D01*
X123875Y232757D01*
X122997Y231909D01*
X122099Y231083D01*
X121181Y230279D01*
X120243Y229497D01*
X119287Y228739D01*
X118313Y228004D01*
X117321Y227293D01*
X116312Y226607D01*
X115286Y225945D01*
X114245Y225309D01*
X113189Y224698D01*
X112118Y224113D01*
X111033Y223555D01*
X109934Y223023D01*
X108823Y222518D01*
X107701Y222040D01*
X106566Y221589D01*
X105421Y221167D01*
X104267Y220772D01*
X103102Y220406D01*
X101930Y220068D01*
X100749Y219759D01*
X99561Y219479D01*
X98367Y219228D01*
X97167Y219006D01*
X95962Y218814D01*
X94753Y218650D01*
X93540Y218517D01*
X92324Y218413D01*
X91106Y218339D01*
X89886Y218294D01*
X88666Y218279D01*
X87446Y218294D01*
X86226Y218339D01*
X85008Y218413D01*
X83792Y218517D01*
X82579Y218650D01*
X81370Y218814D01*
X80165Y219006D01*
X78965Y219228D01*
X77771Y219479D01*
X76583Y219759D01*
X75402Y220068D01*
X74230Y220406D01*
X73065Y220772D01*
X71911Y221167D01*
X70766Y221589D01*
X69631Y222040D01*
X68509Y222518D01*
X67398Y223023D01*
X66299Y223555D01*
X65214Y224113D01*
X64143Y224698D01*
X63087Y225309D01*
X62046Y225945D01*
X61020Y226607D01*
X60011Y227293D01*
X59019Y228004D01*
X58045Y228739D01*
X57089Y229497D01*
X56151Y230279D01*
X55233Y231083D01*
X54335Y231909D01*
X53457Y232757D01*
X52601Y233626D01*
X51765Y234515D01*
X50952Y235425D01*
X50161Y236354D01*
X49393Y237303D01*
X48648Y238269D01*
X47927Y239254D01*
X47230Y240256D01*
X46558Y241274D01*
X45911Y242309D01*
X45289Y243359D01*
X44693Y244424D01*
X44123Y245503D01*
X43580Y246596D01*
X43064Y247702D01*
X42574Y248820D01*
X42112Y249949D01*
X41678Y251090D01*
X41272Y252240D01*
X40893Y253401D01*
X40544Y254570D01*
X40223Y255747D01*
X39930Y256932D01*
X39667Y258123D01*
X39855Y258162D01*
X40117Y256975D01*
X40408Y255795D01*
X40728Y254622D01*
X41077Y253457D01*
X41454Y252302D01*
X41858Y251155D01*
X42291Y250019D01*
X42751Y248894D01*
X43239Y247780D01*
X43753Y246679D01*
X44294Y245591D01*
X44862Y244516D01*
X45456Y243455D01*
X46075Y242409D01*
X46720Y241378D01*
X47389Y240363D01*
X48083Y239365D01*
X48801Y238384D01*
X49543Y237421D01*
X50309Y236477D01*
X51097Y235551D01*
X51907Y234645D01*
X52739Y233759D01*
X53593Y232893D01*
X54467Y232049D01*
X55362Y231226D01*
X56276Y230425D01*
X57210Y229646D01*
X58162Y228891D01*
X59133Y228159D01*
X60121Y227451D01*
X61126Y226767D01*
X62148Y226108D01*
X63185Y225474D01*
X64238Y224865D01*
X65304Y224283D01*
X66385Y223726D01*
X67479Y223196D01*
X68586Y222693D01*
X69705Y222217D01*
X70834Y221769D01*
X71975Y221348D01*
X73125Y220955D01*
X74285Y220590D01*
X75453Y220254D01*
X76629Y219946D01*
X77812Y219667D01*
X79002Y219417D01*
X80197Y219195D01*
X81398Y219004D01*
X82603Y218841D01*
X83811Y218708D01*
X85022Y218604D01*
X86236Y218530D01*
X87450Y218486D01*
X88666Y218471D01*
X89882Y218486D01*
X91096Y218530D01*
X92310Y218604D01*
X93521Y218708D01*
X94729Y218841D01*
X95934Y219004D01*
X97135Y219195D01*
X98330Y219417D01*
X99520Y219667D01*
X100703Y219946D01*
X101879Y220254D01*
X103047Y220590D01*
X104207Y220955D01*
X105357Y221348D01*
X106498Y221769D01*
X107627Y222217D01*
X108746Y222693D01*
X109853Y223196D01*
X110947Y223726D01*
X112028Y224283D01*
X113094Y224865D01*
X114147Y225474D01*
X115184Y226108D01*
X116206Y226767D01*
X117211Y227451D01*
X118199Y228159D01*
X119170Y228891D01*
X120122Y229646D01*
X121056Y230425D01*
X121970Y231226D01*
X122865Y232049D01*
X123739Y232893D01*
X124593Y233759D01*
X125425Y234645D01*
X126235Y235551D01*
X127023Y236477D01*
X127789Y237421D01*
X128531Y238384D01*
X129249Y239365D01*
X129943Y240363D01*
X130612Y241378D01*
X131257Y242409D01*
X131876Y243455D01*
X132470Y244516D01*
X133038Y245591D01*
X133579Y246679D01*
X134093Y247780D01*
X134581Y248894D01*
X135041Y250019D01*
X135474Y251155D01*
X135878Y252302D01*
X136255Y253457D01*
X136604Y254622D01*
X136924Y255795D01*
X137215Y256975D01*
X137477Y258162D01*
X137289Y258201D01*
X137028Y257019D01*
X136738Y255843D01*
X136419Y254675D01*
X136072Y253514D01*
X135696Y252363D01*
X135293Y251221D01*
X134862Y250090D01*
X134404Y248969D01*
X133918Y247859D01*
X133406Y246762D01*
X132867Y245678D01*
X132301Y244607D01*
X131710Y243550D01*
X131093Y242508D01*
X130451Y241481D01*
X129784Y240471D01*
X129092Y239477D01*
X128377Y238500D01*
X127638Y237540D01*
X126876Y236599D01*
X126091Y235677D01*
X125283Y234774D01*
X124454Y233892D01*
X123604Y233029D01*
X122733Y232188D01*
X121842Y231368D01*
X120931Y230570D01*
X120001Y229795D01*
X119052Y229043D01*
X118085Y228313D01*
X117101Y227608D01*
X116099Y226927D01*
X115082Y226270D01*
X114049Y225639D01*
X113000Y225033D01*
X111937Y224452D01*
X110861Y223898D01*
X109771Y223370D01*
X108669Y222869D01*
X107554Y222395D01*
X106429Y221948D01*
X105293Y221529D01*
X104147Y221137D01*
X102992Y220774D01*
X101828Y220439D01*
X100656Y220132D01*
X99478Y219854D01*
X98293Y219605D01*
X97102Y219385D01*
X95906Y219194D01*
X94706Y219032D01*
X93502Y218899D01*
X92296Y218796D01*
X91087Y218722D01*
X89877Y218678D01*
X88666Y218663D01*
X87455Y218678D01*
X86245Y218722D01*
X85036Y218796D01*
X83830Y218899D01*
X82626Y219032D01*
X81426Y219194D01*
X80230Y219385D01*
X79039Y219605D01*
X77854Y219854D01*
X76676Y220132D01*
X75504Y220439D01*
X74340Y220774D01*
X73185Y221137D01*
X72039Y221529D01*
X70903Y221948D01*
X69778Y222395D01*
X68663Y222869D01*
X67561Y223370D01*
X66471Y223898D01*
X65395Y224452D01*
X64332Y225033D01*
X63283Y225639D01*
X62250Y226270D01*
X61233Y226927D01*
X60231Y227608D01*
X59247Y228313D01*
X58280Y229043D01*
X57331Y229795D01*
X56401Y230570D01*
X55490Y231368D01*
X54599Y232188D01*
X53728Y233029D01*
X52878Y233892D01*
X52049Y234774D01*
X51241Y235677D01*
X50456Y236599D01*
X49694Y237540D01*
X48955Y238500D01*
X48240Y239477D01*
X47548Y240471D01*
X46881Y241481D01*
X46239Y242508D01*
X45622Y243550D01*
X45031Y244607D01*
X44465Y245678D01*
X43926Y246762D01*
X43414Y247859D01*
X42928Y248969D01*
X42470Y250090D01*
X42039Y251221D01*
X41636Y252363D01*
X41260Y253514D01*
X40913Y254675D01*
X40594Y255843D01*
X40304Y257019D01*
X40043Y258201D01*
X40231Y258240D01*
X40491Y257062D01*
X40780Y255891D01*
X41098Y254727D01*
X41444Y253571D01*
X41817Y252424D01*
X42219Y251287D01*
X42648Y250160D01*
X43105Y249043D01*
X43589Y247938D01*
X44099Y246845D01*
X44636Y245765D01*
X45200Y244698D01*
X45789Y243646D01*
X46403Y242608D01*
X47043Y241585D01*
X47707Y240578D01*
X48396Y239588D01*
X49109Y238615D01*
X49845Y237659D01*
X50604Y236722D01*
X51386Y235803D01*
X52190Y234904D01*
X53016Y234025D01*
X53863Y233166D01*
X54731Y232328D01*
X55619Y231511D01*
X56526Y230716D01*
X57453Y229944D01*
X58398Y229194D01*
X59361Y228468D01*
X60341Y227765D01*
X61339Y227087D01*
X62352Y226433D01*
X63382Y225804D01*
X64426Y225200D01*
X65485Y224622D01*
X66557Y224070D01*
X67643Y223544D01*
X68741Y223045D01*
X69851Y222572D01*
X70972Y222127D01*
X72104Y221710D01*
X73245Y221320D01*
X74396Y220958D01*
X75555Y220624D01*
X76722Y220318D01*
X77896Y220041D01*
X79077Y219793D01*
X80263Y219574D01*
X81454Y219383D01*
X82649Y219222D01*
X83848Y219090D01*
X85050Y218987D01*
X86254Y218914D01*
X87460Y218870D01*
X88666Y218855D01*
X89872Y218870D01*
X91078Y218914D01*
X92282Y218987D01*
X93484Y219090D01*
X94683Y219222D01*
X95878Y219383D01*
X97069Y219574D01*
X98255Y219793D01*
X99436Y220041D01*
X100610Y220318D01*
X101777Y220624D01*
X102936Y220958D01*
X104087Y221320D01*
X105228Y221710D01*
X106360Y222127D01*
X107481Y222572D01*
X108591Y223045D01*
X109689Y223544D01*
X110775Y224070D01*
X111847Y224622D01*
X112906Y225200D01*
X113950Y225804D01*
X114980Y226433D01*
X115993Y227087D01*
X116991Y227765D01*
X117971Y228468D01*
X118934Y229194D01*
X119879Y229944D01*
X120806Y230716D01*
X121713Y231511D01*
X122601Y232328D01*
X123469Y233166D01*
X124316Y234025D01*
X125142Y234904D01*
X125946Y235803D01*
X126728Y236722D01*
X127487Y237659D01*
X128223Y238615D01*
X128936Y239588D01*
X129625Y240578D01*
X130289Y241585D01*
X130929Y242608D01*
X131543Y243646D01*
X132132Y244698D01*
X132696Y245765D01*
X133233Y246845D01*
X133743Y247938D01*
X134227Y249043D01*
X134684Y250160D01*
X135113Y251287D01*
X135515Y252424D01*
X135888Y253571D01*
X136234Y254727D01*
X136552Y255891D01*
X136841Y257062D01*
X137101Y258240D01*
X136913Y258279D01*
X136654Y257105D01*
X136366Y255939D01*
X136050Y254779D01*
X135705Y253628D01*
X135333Y252486D01*
X134933Y251353D01*
X134505Y250230D01*
X134050Y249118D01*
X133568Y248017D01*
X133060Y246928D01*
X132525Y245852D01*
X131964Y244790D01*
X131377Y243741D01*
X130765Y242707D01*
X130127Y241689D01*
X129466Y240686D01*
X128779Y239699D01*
X128070Y238730D01*
X127336Y237778D01*
X126580Y236844D01*
X125801Y235929D01*
X125000Y235034D01*
X124177Y234158D01*
X123334Y233302D01*
X122469Y232467D01*
X121585Y231654D01*
X120681Y230862D01*
X119758Y230093D01*
X118817Y229346D01*
X117857Y228623D01*
X116881Y227923D01*
X115887Y227247D01*
X114877Y226595D01*
X113852Y225969D01*
X112812Y225367D01*
X111757Y224791D01*
X110689Y224241D01*
X109608Y223718D01*
X108514Y223220D01*
X107408Y222750D01*
X106291Y222306D01*
X105164Y221890D01*
X104027Y221502D01*
X102881Y221141D01*
X101726Y220809D01*
X100564Y220505D01*
X99394Y220229D01*
X98218Y219982D01*
X97037Y219763D01*
X95850Y219573D01*
X94659Y219413D01*
X93465Y219281D01*
X92268Y219179D01*
X91068Y219106D01*
X89868Y219062D01*
X88666Y219047D01*
X87464Y219062D01*
X86264Y219106D01*
X85064Y219179D01*
X83867Y219281D01*
X82673Y219413D01*
X81482Y219573D01*
X80295Y219763D01*
X79114Y219982D01*
X77938Y220229D01*
X76768Y220505D01*
X75606Y220809D01*
X74451Y221141D01*
X73305Y221502D01*
X72168Y221890D01*
X71041Y222306D01*
X69924Y222750D01*
X68818Y223220D01*
X67724Y223718D01*
X66643Y224241D01*
X65575Y224791D01*
X64520Y225367D01*
X63480Y225969D01*
X62455Y226595D01*
X61445Y227247D01*
X60451Y227923D01*
X59475Y228623D01*
X58515Y229346D01*
X57574Y230093D01*
X56651Y230862D01*
X55747Y231654D01*
X54863Y232467D01*
X53998Y233302D01*
X53155Y234158D01*
X52332Y235034D01*
X51531Y235929D01*
X50752Y236844D01*
X49996Y237778D01*
X49262Y238730D01*
X48553Y239699D01*
X47866Y240686D01*
X47205Y241689D01*
X46567Y242707D01*
X45955Y243741D01*
X45368Y244790D01*
X44807Y245852D01*
X44272Y246928D01*
X43764Y248017D01*
X43282Y249118D01*
X42827Y250230D01*
X42399Y251353D01*
X41999Y252486D01*
X41627Y253628D01*
X41282Y254779D01*
X40966Y255939D01*
X40678Y257105D01*
X40419Y258279D01*
X40607Y258317D01*
X40865Y257149D01*
X41152Y255987D01*
X41467Y254832D01*
X41810Y253685D01*
X42181Y252547D01*
X42580Y251419D01*
X43006Y250300D01*
X43459Y249192D01*
X43939Y248096D01*
X44446Y247011D01*
X44978Y245940D01*
X45537Y244881D01*
X46122Y243837D01*
X46732Y242807D01*
X47366Y241792D01*
X48026Y240793D01*
X48709Y239810D01*
X49416Y238845D01*
X50147Y237897D01*
X50900Y236967D01*
X51676Y236055D01*
X52474Y235163D01*
X53293Y234291D01*
X54133Y233438D01*
X54994Y232607D01*
X55875Y231796D01*
X56776Y231008D01*
X57695Y230242D01*
X58633Y229498D01*
X59589Y228777D01*
X60561Y228080D01*
X61551Y227407D01*
X62557Y226758D01*
X63578Y226134D01*
X64614Y225535D01*
X65665Y224961D01*
X66729Y224413D01*
X67806Y223891D01*
X68896Y223396D01*
X69997Y222927D01*
X71110Y222486D01*
X72232Y222071D01*
X73365Y221684D01*
X74507Y221325D01*
X75657Y220994D01*
X76815Y220691D01*
X77980Y220416D01*
X79151Y220170D01*
X80328Y219952D01*
X81510Y219763D01*
X82696Y219603D01*
X83886Y219472D01*
X85078Y219370D01*
X86273Y219297D01*
X87469Y219254D01*
X88666Y219239D01*
X89863Y219254D01*
X91059Y219297D01*
X92254Y219370D01*
X93446Y219472D01*
X94636Y219603D01*
X95822Y219763D01*
X97004Y219952D01*
X98181Y220170D01*
X99352Y220416D01*
X100517Y220691D01*
X101675Y220994D01*
X102825Y221325D01*
X103967Y221684D01*
X105100Y222071D01*
X106222Y222486D01*
X107335Y222927D01*
X108436Y223396D01*
X109526Y223891D01*
X110603Y224413D01*
X111667Y224961D01*
X112718Y225535D01*
X113754Y226134D01*
X114775Y226758D01*
X115781Y227407D01*
X116771Y228080D01*
X117743Y228777D01*
X118699Y229498D01*
X119637Y230242D01*
X120556Y231008D01*
X121457Y231796D01*
X122338Y232607D01*
X123199Y233438D01*
X124039Y234291D01*
X124858Y235163D01*
X125656Y236055D01*
X126432Y236967D01*
X127185Y237897D01*
X127916Y238845D01*
X128623Y239810D01*
X129306Y240793D01*
X129966Y241792D01*
X130600Y242807D01*
X131210Y243837D01*
X131795Y244881D01*
X132354Y245940D01*
X132886Y247011D01*
X133393Y248096D01*
X133873Y249192D01*
X134326Y250300D01*
X134752Y251419D01*
X135151Y252547D01*
X135522Y253685D01*
X135865Y254832D01*
X136180Y255987D01*
X136467Y257149D01*
X136725Y258317D01*
X136537Y258356D01*
X136280Y257192D01*
X135994Y256034D01*
X135680Y254884D01*
X135338Y253742D01*
X134969Y252609D01*
X134572Y251484D01*
X134147Y250370D01*
X133696Y249267D01*
X133218Y248175D01*
X132713Y247095D01*
X132183Y246027D01*
X131626Y244973D01*
X131044Y243932D01*
X130436Y242906D01*
X129804Y241896D01*
X129147Y240901D01*
X128467Y239922D01*
X127762Y238960D01*
X127035Y238016D01*
X126284Y237089D01*
X125511Y236181D01*
X124717Y235293D01*
X123900Y234424D01*
X123063Y233575D01*
X122206Y232746D01*
X121328Y231939D01*
X120431Y231154D01*
X119516Y230390D01*
X118581Y229650D01*
X117630Y228932D01*
X116660Y228237D01*
X115675Y227567D01*
X114673Y226920D01*
X113656Y226299D01*
X112624Y225702D01*
X111577Y225131D01*
X110517Y224585D01*
X109444Y224065D01*
X108359Y223572D01*
X107262Y223105D01*
X106154Y222665D01*
X105035Y222252D01*
X103907Y221867D01*
X102770Y221509D01*
X101624Y221179D01*
X100471Y220877D01*
X99310Y220604D01*
X98144Y220358D01*
X96971Y220141D01*
X95794Y219953D01*
X94612Y219794D01*
X93427Y219663D01*
X92240Y219562D01*
X91050Y219489D01*
X89858Y219446D01*
X88666Y219431D01*
X87474Y219446D01*
X86282Y219489D01*
X85092Y219562D01*
X83905Y219663D01*
X82720Y219794D01*
X81538Y219953D01*
X80361Y220141D01*
X79188Y220358D01*
X78022Y220604D01*
X76861Y220877D01*
X75708Y221179D01*
X74562Y221509D01*
X73425Y221867D01*
X72297Y222252D01*
X71178Y222665D01*
X70070Y223105D01*
X68973Y223572D01*
X67888Y224065D01*
X66815Y224585D01*
X65755Y225131D01*
X64708Y225702D01*
X63676Y226299D01*
X62659Y226920D01*
X61657Y227567D01*
X60672Y228237D01*
X59702Y228932D01*
X58751Y229650D01*
X57816Y230390D01*
X56901Y231154D01*
X56004Y231939D01*
X55126Y232746D01*
X54269Y233575D01*
X53432Y234424D01*
X52615Y235293D01*
X51821Y236181D01*
X51048Y237089D01*
X50297Y238016D01*
X49570Y238960D01*
X48865Y239922D01*
X48185Y240901D01*
X47528Y241896D01*
X46896Y242906D01*
X46288Y243932D01*
X45706Y244973D01*
X45149Y246027D01*
X44619Y247095D01*
X44114Y248175D01*
X43636Y249267D01*
X43185Y250370D01*
X42760Y251484D01*
X42363Y252609D01*
X41994Y253742D01*
X41652Y254884D01*
X41338Y256034D01*
X41052Y257192D01*
X40795Y258356D01*
X40983Y258395D01*
X41239Y257235D01*
X41524Y256082D01*
X41837Y254937D01*
X42177Y253799D01*
X42545Y252670D01*
X42941Y251550D01*
X43363Y250440D01*
X43813Y249341D01*
X44289Y248254D01*
X44792Y247178D01*
X45320Y246114D01*
X45875Y245064D01*
X46455Y244028D01*
X47060Y243006D01*
X47690Y241999D01*
X48344Y241008D01*
X49022Y240033D01*
X49723Y239075D01*
X50448Y238134D01*
X51196Y237212D01*
X51966Y236307D01*
X52757Y235422D01*
X53570Y234556D01*
X54404Y233711D01*
X55258Y232886D01*
X56132Y232082D01*
X57025Y231300D01*
X57938Y230539D01*
X58868Y229801D01*
X59816Y229086D01*
X60782Y228395D01*
X61763Y227727D01*
X62761Y227083D01*
X63775Y226464D01*
X64803Y225869D01*
X65845Y225300D01*
X66901Y224757D01*
X67970Y224239D01*
X69051Y223747D01*
X70143Y223282D01*
X71247Y222844D01*
X72361Y222433D01*
X73485Y222049D01*
X74618Y221693D01*
X75759Y221364D01*
X76908Y221064D01*
X78064Y220791D01*
X79226Y220547D01*
X80393Y220331D01*
X81566Y220143D01*
X82743Y219984D01*
X83923Y219854D01*
X85106Y219753D01*
X86292Y219681D01*
X87479Y219637D01*
X88666Y219623D01*
X89853Y219637D01*
X91040Y219681D01*
X92226Y219753D01*
X93409Y219854D01*
X94589Y219984D01*
X95766Y220143D01*
X96939Y220331D01*
X98106Y220547D01*
X99268Y220791D01*
X100424Y221064D01*
X101573Y221364D01*
X102714Y221693D01*
X103847Y222049D01*
X104971Y222433D01*
X106085Y222844D01*
X107189Y223282D01*
X108281Y223747D01*
X109362Y224239D01*
X110431Y224757D01*
X111487Y225300D01*
X112529Y225869D01*
X113557Y226464D01*
X114571Y227083D01*
X115569Y227727D01*
X116550Y228395D01*
X117516Y229086D01*
X118464Y229801D01*
X119394Y230539D01*
X120307Y231300D01*
X121200Y232082D01*
X122074Y232886D01*
X122928Y233711D01*
X123762Y234556D01*
X124575Y235422D01*
X125366Y236307D01*
X126136Y237212D01*
X126884Y238134D01*
X127609Y239075D01*
X128310Y240033D01*
X128988Y241008D01*
X129642Y241999D01*
X130272Y243006D01*
X130877Y244028D01*
X131457Y245064D01*
X132012Y246114D01*
X132540Y247178D01*
X133043Y248254D01*
X133519Y249341D01*
X133969Y250440D01*
X134391Y251550D01*
X134787Y252670D01*
X135155Y253799D01*
X135495Y254937D01*
X135808Y256082D01*
X136093Y257235D01*
X136349Y258395D01*
X138041Y278614D02*
X136250Y278244D01*
X136250Y278245D02*
X135994Y279402D01*
X135710Y280552D01*
X135398Y281696D01*
X135058Y282831D01*
X134691Y283958D01*
X134297Y285075D01*
X133875Y286183D01*
X133426Y287279D01*
X132951Y288365D01*
X132449Y289439D01*
X131922Y290500D01*
X131368Y291548D01*
X130789Y292582D01*
X130186Y293602D01*
X129557Y294606D01*
X128905Y295595D01*
X128228Y296568D01*
X127528Y297524D01*
X126804Y298463D01*
X126058Y299384D01*
X125290Y300286D01*
X124500Y301170D01*
X123689Y302034D01*
X122857Y302877D01*
X122005Y303701D01*
X121132Y304503D01*
X120241Y305284D01*
X119331Y306042D01*
X118402Y306779D01*
X117456Y307492D01*
X116493Y308183D01*
X115513Y308849D01*
X114517Y309492D01*
X113506Y310110D01*
X112480Y310703D01*
X111440Y311271D01*
X110386Y311813D01*
X109319Y312330D01*
X108241Y312820D01*
X107150Y313284D01*
X106049Y313721D01*
X104937Y314132D01*
X103816Y314515D01*
X102685Y314870D01*
X101546Y315198D01*
X100400Y315498D01*
X99246Y315770D01*
X98087Y316014D01*
X96921Y316230D01*
X95751Y316417D01*
X94577Y316575D01*
X93399Y316705D01*
X92218Y316806D01*
X91035Y316878D01*
X89851Y316922D01*
X88666Y316936D01*
X87481Y316922D01*
X86297Y316878D01*
X85114Y316806D01*
X83933Y316705D01*
X82755Y316575D01*
X81581Y316417D01*
X80411Y316230D01*
X79245Y316014D01*
X78086Y315770D01*
X76932Y315498D01*
X75786Y315198D01*
X74647Y314870D01*
X73516Y314515D01*
X72395Y314132D01*
X71283Y313721D01*
X70182Y313284D01*
X69091Y312820D01*
X68013Y312330D01*
X66946Y311813D01*
X65892Y311271D01*
X64852Y310703D01*
X63826Y310110D01*
X62815Y309492D01*
X61819Y308849D01*
X60839Y308183D01*
X59876Y307492D01*
X58930Y306779D01*
X58001Y306042D01*
X57091Y305284D01*
X56200Y304503D01*
X55327Y303701D01*
X54475Y302877D01*
X53643Y302034D01*
X52832Y301170D01*
X52042Y300286D01*
X51274Y299384D01*
X50528Y298463D01*
X49804Y297524D01*
X49104Y296568D01*
X48427Y295595D01*
X47775Y294606D01*
X47146Y293602D01*
X46543Y292582D01*
X45964Y291548D01*
X45410Y290500D01*
X44883Y289439D01*
X44381Y288365D01*
X43906Y287279D01*
X43457Y286183D01*
X43035Y285075D01*
X42641Y283958D01*
X42274Y282831D01*
X41934Y281696D01*
X41622Y280552D01*
X41338Y279402D01*
X41082Y278245D01*
X39291Y278614D01*
X39556Y279815D01*
X39851Y281009D01*
X40174Y282195D01*
X40527Y283373D01*
X40908Y284542D01*
X41317Y285702D01*
X41755Y286851D01*
X42220Y287989D01*
X42714Y289116D01*
X43234Y290230D01*
X43781Y291331D01*
X44356Y292419D01*
X44956Y293492D01*
X45582Y294550D01*
X46235Y295593D01*
X46912Y296619D01*
X47614Y297629D01*
X48340Y298621D01*
X49091Y299595D01*
X49865Y300551D01*
X50662Y301487D01*
X51482Y302404D01*
X52324Y303300D01*
X53187Y304176D01*
X54071Y305030D01*
X54976Y305863D01*
X55902Y306673D01*
X56846Y307460D01*
X57810Y308225D01*
X58791Y308965D01*
X59791Y309681D01*
X60808Y310373D01*
X61841Y311040D01*
X62890Y311681D01*
X63955Y312296D01*
X65034Y312886D01*
X66128Y313449D01*
X67234Y313985D01*
X68354Y314494D01*
X69485Y314975D01*
X70628Y315429D01*
X71782Y315855D01*
X72946Y316252D01*
X74119Y316621D01*
X75300Y316962D01*
X76490Y317273D01*
X77687Y317555D01*
X78890Y317809D01*
X80099Y318032D01*
X81314Y318226D01*
X82532Y318391D01*
X83755Y318525D01*
X84980Y318630D01*
X86207Y318705D01*
X87436Y318750D01*
X88666Y318765D01*
X89896Y318750D01*
X91125Y318705D01*
X92352Y318630D01*
X93577Y318525D01*
X94800Y318391D01*
X96018Y318226D01*
X97233Y318032D01*
X98442Y317809D01*
X99645Y317555D01*
X100842Y317273D01*
X102032Y316962D01*
X103213Y316621D01*
X104386Y316252D01*
X105550Y315855D01*
X106704Y315429D01*
X107847Y314975D01*
X108978Y314494D01*
X110098Y313985D01*
X111204Y313449D01*
X112298Y312886D01*
X113377Y312296D01*
X114442Y311681D01*
X115491Y311040D01*
X116524Y310373D01*
X117541Y309681D01*
X118541Y308965D01*
X119522Y308225D01*
X120486Y307460D01*
X121430Y306673D01*
X122356Y305863D01*
X123261Y305030D01*
X124145Y304176D01*
X125008Y303300D01*
X125850Y302404D01*
X126670Y301487D01*
X127467Y300551D01*
X128241Y299595D01*
X128992Y298621D01*
X129718Y297629D01*
X130420Y296619D01*
X131097Y295593D01*
X131750Y294550D01*
X132376Y293492D01*
X132976Y292419D01*
X133551Y291331D01*
X134098Y290230D01*
X134618Y289116D01*
X135112Y287989D01*
X135577Y286851D01*
X136015Y285702D01*
X136424Y284542D01*
X136805Y283373D01*
X137158Y282195D01*
X137481Y281009D01*
X137776Y279815D01*
X138041Y278614D01*
X137853Y278575D01*
X137589Y279772D01*
X137295Y280961D01*
X136973Y282143D01*
X136622Y283316D01*
X136242Y284481D01*
X135834Y285636D01*
X135398Y286781D01*
X134935Y287915D01*
X134443Y289037D01*
X133925Y290147D01*
X133380Y291244D01*
X132808Y292327D01*
X132209Y293396D01*
X131585Y294451D01*
X130936Y295489D01*
X130261Y296512D01*
X129562Y297517D01*
X128838Y298506D01*
X128090Y299476D01*
X127319Y300428D01*
X126525Y301361D01*
X125709Y302274D01*
X124870Y303167D01*
X124010Y304040D01*
X123129Y304891D01*
X122227Y305720D01*
X121306Y306527D01*
X120365Y307312D01*
X119405Y308073D01*
X118427Y308810D01*
X117431Y309524D01*
X116418Y310213D01*
X115389Y310877D01*
X114343Y311516D01*
X113283Y312129D01*
X112208Y312716D01*
X111119Y313277D01*
X110016Y313811D01*
X108901Y314318D01*
X107774Y314798D01*
X106635Y315250D01*
X105486Y315674D01*
X104327Y316070D01*
X103158Y316438D01*
X101981Y316777D01*
X100796Y317087D01*
X99603Y317368D01*
X98405Y317620D01*
X97200Y317843D01*
X95990Y318036D01*
X94776Y318200D01*
X93559Y318334D01*
X92338Y318439D01*
X91115Y318513D01*
X89891Y318558D01*
X88666Y318573D01*
X87441Y318558D01*
X86217Y318513D01*
X84994Y318439D01*
X83773Y318334D01*
X82556Y318200D01*
X81342Y318036D01*
X80132Y317843D01*
X78927Y317620D01*
X77729Y317368D01*
X76536Y317087D01*
X75351Y316777D01*
X74174Y316438D01*
X73005Y316070D01*
X71846Y315674D01*
X70697Y315250D01*
X69558Y314798D01*
X68431Y314318D01*
X67316Y313811D01*
X66213Y313277D01*
X65124Y312716D01*
X64049Y312129D01*
X62989Y311516D01*
X61943Y310877D01*
X60914Y310213D01*
X59901Y309524D01*
X58905Y308810D01*
X57927Y308073D01*
X56967Y307312D01*
X56026Y306527D01*
X55105Y305720D01*
X54203Y304891D01*
X53322Y304040D01*
X52462Y303167D01*
X51623Y302274D01*
X50807Y301361D01*
X50013Y300428D01*
X49242Y299476D01*
X48494Y298506D01*
X47770Y297517D01*
X47071Y296512D01*
X46396Y295489D01*
X45747Y294451D01*
X45123Y293396D01*
X44524Y292327D01*
X43952Y291244D01*
X43407Y290147D01*
X42889Y289037D01*
X42397Y287915D01*
X41934Y286781D01*
X41498Y285636D01*
X41090Y284481D01*
X40710Y283316D01*
X40359Y282143D01*
X40037Y280961D01*
X39743Y279772D01*
X39479Y278575D01*
X39667Y278537D01*
X39930Y279728D01*
X40223Y280913D01*
X40544Y282090D01*
X40893Y283259D01*
X41272Y284420D01*
X41678Y285570D01*
X42112Y286711D01*
X42574Y287840D01*
X43064Y288958D01*
X43580Y290064D01*
X44123Y291157D01*
X44693Y292236D01*
X45289Y293301D01*
X45911Y294351D01*
X46558Y295386D01*
X47230Y296404D01*
X47927Y297406D01*
X48648Y298391D01*
X49393Y299357D01*
X50161Y300306D01*
X50952Y301235D01*
X51765Y302145D01*
X52601Y303034D01*
X53457Y303903D01*
X54335Y304751D01*
X55233Y305577D01*
X56151Y306381D01*
X57089Y307163D01*
X58045Y307921D01*
X59019Y308656D01*
X60011Y309367D01*
X61020Y310053D01*
X62046Y310715D01*
X63087Y311351D01*
X64143Y311962D01*
X65214Y312547D01*
X66299Y313105D01*
X67398Y313637D01*
X68509Y314142D01*
X69631Y314620D01*
X70766Y315071D01*
X71911Y315493D01*
X73065Y315888D01*
X74230Y316254D01*
X75402Y316592D01*
X76583Y316901D01*
X77771Y317181D01*
X78965Y317432D01*
X80165Y317654D01*
X81370Y317846D01*
X82579Y318010D01*
X83792Y318143D01*
X85008Y318247D01*
X86226Y318321D01*
X87446Y318366D01*
X88666Y318381D01*
X89886Y318366D01*
X91106Y318321D01*
X92324Y318247D01*
X93540Y318143D01*
X94753Y318010D01*
X95962Y317846D01*
X97167Y317654D01*
X98367Y317432D01*
X99561Y317181D01*
X100749Y316901D01*
X101930Y316592D01*
X103102Y316254D01*
X104267Y315888D01*
X105421Y315493D01*
X106566Y315071D01*
X107701Y314620D01*
X108823Y314142D01*
X109934Y313637D01*
X111033Y313105D01*
X112118Y312547D01*
X113189Y311962D01*
X114245Y311351D01*
X115286Y310715D01*
X116312Y310053D01*
X117321Y309367D01*
X118313Y308656D01*
X119287Y307921D01*
X120243Y307163D01*
X121181Y306381D01*
X122099Y305577D01*
X122997Y304751D01*
X123875Y303903D01*
X124731Y303034D01*
X125567Y302145D01*
X126380Y301235D01*
X127171Y300306D01*
X127939Y299357D01*
X128684Y298391D01*
X129405Y297406D01*
X130102Y296404D01*
X130774Y295386D01*
X131421Y294351D01*
X132043Y293301D01*
X132639Y292236D01*
X133209Y291157D01*
X133752Y290064D01*
X134268Y288958D01*
X134758Y287840D01*
X135220Y286711D01*
X135654Y285570D01*
X136060Y284420D01*
X136439Y283259D01*
X136788Y282090D01*
X137109Y280913D01*
X137402Y279728D01*
X137665Y278537D01*
X137477Y278498D01*
X137215Y279685D01*
X136924Y280865D01*
X136604Y282038D01*
X136255Y283203D01*
X135878Y284358D01*
X135474Y285505D01*
X135041Y286641D01*
X134581Y287766D01*
X134093Y288880D01*
X133579Y289981D01*
X133038Y291069D01*
X132470Y292144D01*
X131876Y293205D01*
X131257Y294251D01*
X130612Y295282D01*
X129943Y296297D01*
X129249Y297295D01*
X128531Y298276D01*
X127789Y299239D01*
X127023Y300183D01*
X126235Y301109D01*
X125425Y302015D01*
X124593Y302901D01*
X123739Y303767D01*
X122865Y304611D01*
X121970Y305434D01*
X121056Y306235D01*
X120122Y307014D01*
X119170Y307769D01*
X118199Y308501D01*
X117211Y309209D01*
X116206Y309893D01*
X115184Y310552D01*
X114147Y311186D01*
X113094Y311795D01*
X112028Y312377D01*
X110947Y312934D01*
X109853Y313464D01*
X108746Y313967D01*
X107627Y314443D01*
X106498Y314891D01*
X105357Y315312D01*
X104207Y315705D01*
X103047Y316070D01*
X101879Y316406D01*
X100703Y316714D01*
X99520Y316993D01*
X98330Y317243D01*
X97135Y317465D01*
X95934Y317656D01*
X94729Y317819D01*
X93521Y317952D01*
X92310Y318056D01*
X91096Y318130D01*
X89882Y318174D01*
X88666Y318189D01*
X87450Y318174D01*
X86236Y318130D01*
X85022Y318056D01*
X83811Y317952D01*
X82603Y317819D01*
X81398Y317656D01*
X80197Y317465D01*
X79002Y317243D01*
X77812Y316993D01*
X76629Y316714D01*
X75453Y316406D01*
X74285Y316070D01*
X73125Y315705D01*
X71975Y315312D01*
X70834Y314891D01*
X69705Y314443D01*
X68586Y313967D01*
X67479Y313464D01*
X66385Y312934D01*
X65304Y312377D01*
X64238Y311795D01*
X63185Y311186D01*
X62148Y310552D01*
X61126Y309893D01*
X60121Y309209D01*
X59133Y308501D01*
X58162Y307769D01*
X57210Y307014D01*
X56276Y306235D01*
X55362Y305434D01*
X54467Y304611D01*
X53593Y303767D01*
X52739Y302901D01*
X51907Y302015D01*
X51097Y301109D01*
X50309Y300183D01*
X49543Y299239D01*
X48801Y298276D01*
X48083Y297295D01*
X47389Y296297D01*
X46720Y295282D01*
X46075Y294251D01*
X45456Y293205D01*
X44862Y292144D01*
X44294Y291069D01*
X43753Y289981D01*
X43239Y288880D01*
X42751Y287766D01*
X42291Y286641D01*
X41858Y285505D01*
X41454Y284358D01*
X41077Y283203D01*
X40728Y282038D01*
X40408Y280865D01*
X40117Y279685D01*
X39855Y278498D01*
X40043Y278459D01*
X40304Y279641D01*
X40594Y280817D01*
X40913Y281985D01*
X41260Y283146D01*
X41636Y284297D01*
X42039Y285439D01*
X42470Y286570D01*
X42928Y287691D01*
X43414Y288801D01*
X43926Y289898D01*
X44465Y290982D01*
X45031Y292053D01*
X45622Y293110D01*
X46239Y294152D01*
X46881Y295179D01*
X47548Y296189D01*
X48240Y297183D01*
X48955Y298160D01*
X49694Y299120D01*
X50456Y300061D01*
X51241Y300983D01*
X52049Y301886D01*
X52878Y302768D01*
X53728Y303631D01*
X54599Y304472D01*
X55490Y305292D01*
X56401Y306090D01*
X57331Y306865D01*
X58280Y307617D01*
X59247Y308347D01*
X60231Y309052D01*
X61233Y309733D01*
X62250Y310390D01*
X63283Y311021D01*
X64332Y311627D01*
X65395Y312208D01*
X66471Y312762D01*
X67561Y313290D01*
X68663Y313791D01*
X69778Y314265D01*
X70903Y314712D01*
X72039Y315131D01*
X73185Y315523D01*
X74340Y315886D01*
X75504Y316221D01*
X76676Y316528D01*
X77854Y316806D01*
X79039Y317055D01*
X80230Y317275D01*
X81426Y317466D01*
X82626Y317628D01*
X83830Y317761D01*
X85036Y317864D01*
X86245Y317938D01*
X87455Y317982D01*
X88666Y317997D01*
X89877Y317982D01*
X91087Y317938D01*
X92296Y317864D01*
X93502Y317761D01*
X94706Y317628D01*
X95906Y317466D01*
X97102Y317275D01*
X98293Y317055D01*
X99478Y316806D01*
X100656Y316528D01*
X101828Y316221D01*
X102992Y315886D01*
X104147Y315523D01*
X105293Y315131D01*
X106429Y314712D01*
X107554Y314265D01*
X108669Y313791D01*
X109771Y313290D01*
X110861Y312762D01*
X111937Y312208D01*
X113000Y311627D01*
X114049Y311021D01*
X115082Y310390D01*
X116099Y309733D01*
X117101Y309052D01*
X118085Y308347D01*
X119052Y307617D01*
X120001Y306865D01*
X120931Y306090D01*
X121842Y305292D01*
X122733Y304472D01*
X123604Y303631D01*
X124454Y302768D01*
X125283Y301886D01*
X126091Y300983D01*
X126876Y300061D01*
X127638Y299120D01*
X128377Y298160D01*
X129092Y297183D01*
X129784Y296189D01*
X130451Y295179D01*
X131093Y294152D01*
X131710Y293110D01*
X132301Y292053D01*
X132867Y290982D01*
X133406Y289898D01*
X133918Y288801D01*
X134404Y287691D01*
X134862Y286570D01*
X135293Y285439D01*
X135696Y284297D01*
X136072Y283146D01*
X136419Y281985D01*
X136738Y280817D01*
X137028Y279641D01*
X137289Y278459D01*
X137101Y278420D01*
X136841Y279598D01*
X136552Y280769D01*
X136234Y281933D01*
X135888Y283089D01*
X135515Y284236D01*
X135113Y285373D01*
X134684Y286500D01*
X134227Y287617D01*
X133743Y288722D01*
X133233Y289815D01*
X132696Y290895D01*
X132132Y291962D01*
X131543Y293014D01*
X130929Y294052D01*
X130289Y295075D01*
X129625Y296082D01*
X128936Y297072D01*
X128223Y298045D01*
X127487Y299001D01*
X126728Y299938D01*
X125946Y300857D01*
X125142Y301756D01*
X124316Y302635D01*
X123469Y303494D01*
X122601Y304332D01*
X121713Y305149D01*
X120806Y305944D01*
X119879Y306716D01*
X118934Y307466D01*
X117971Y308192D01*
X116991Y308895D01*
X115993Y309573D01*
X114980Y310227D01*
X113950Y310856D01*
X112906Y311460D01*
X111847Y312038D01*
X110775Y312590D01*
X109689Y313116D01*
X108591Y313615D01*
X107481Y314088D01*
X106360Y314533D01*
X105228Y314950D01*
X104087Y315340D01*
X102936Y315702D01*
X101777Y316036D01*
X100610Y316342D01*
X99436Y316619D01*
X98255Y316867D01*
X97069Y317086D01*
X95878Y317277D01*
X94683Y317438D01*
X93484Y317570D01*
X92282Y317673D01*
X91078Y317746D01*
X89872Y317790D01*
X88666Y317805D01*
X87460Y317790D01*
X86254Y317746D01*
X85050Y317673D01*
X83848Y317570D01*
X82649Y317438D01*
X81454Y317277D01*
X80263Y317086D01*
X79077Y316867D01*
X77896Y316619D01*
X76722Y316342D01*
X75555Y316036D01*
X74396Y315702D01*
X73245Y315340D01*
X72104Y314950D01*
X70972Y314533D01*
X69851Y314088D01*
X68741Y313615D01*
X67643Y313116D01*
X66557Y312590D01*
X65485Y312038D01*
X64426Y311460D01*
X63382Y310856D01*
X62352Y310227D01*
X61339Y309573D01*
X60341Y308895D01*
X59361Y308192D01*
X58398Y307466D01*
X57453Y306716D01*
X56526Y305944D01*
X55619Y305149D01*
X54731Y304332D01*
X53863Y303494D01*
X53016Y302635D01*
X52190Y301756D01*
X51386Y300857D01*
X50604Y299938D01*
X49845Y299001D01*
X49109Y298045D01*
X48396Y297072D01*
X47707Y296082D01*
X47043Y295075D01*
X46403Y294052D01*
X45789Y293014D01*
X45200Y291962D01*
X44636Y290895D01*
X44099Y289815D01*
X43589Y288722D01*
X43105Y287617D01*
X42648Y286500D01*
X42219Y285373D01*
X41817Y284236D01*
X41444Y283089D01*
X41098Y281933D01*
X40780Y280769D01*
X40491Y279598D01*
X40231Y278420D01*
X40419Y278381D01*
X40678Y279555D01*
X40966Y280721D01*
X41282Y281881D01*
X41627Y283032D01*
X41999Y284174D01*
X42399Y285307D01*
X42827Y286430D01*
X43282Y287542D01*
X43764Y288643D01*
X44272Y289732D01*
X44807Y290808D01*
X45368Y291870D01*
X45955Y292919D01*
X46567Y293953D01*
X47205Y294971D01*
X47866Y295974D01*
X48553Y296961D01*
X49262Y297930D01*
X49996Y298882D01*
X50752Y299816D01*
X51531Y300731D01*
X52332Y301626D01*
X53155Y302502D01*
X53998Y303358D01*
X54863Y304193D01*
X55747Y305006D01*
X56651Y305798D01*
X57574Y306567D01*
X58515Y307314D01*
X59475Y308037D01*
X60451Y308737D01*
X61445Y309413D01*
X62455Y310065D01*
X63480Y310691D01*
X64520Y311293D01*
X65575Y311869D01*
X66643Y312419D01*
X67724Y312942D01*
X68818Y313440D01*
X69924Y313910D01*
X71041Y314354D01*
X72168Y314770D01*
X73305Y315158D01*
X74451Y315519D01*
X75606Y315851D01*
X76768Y316155D01*
X77938Y316431D01*
X79114Y316678D01*
X80295Y316897D01*
X81482Y317087D01*
X82673Y317247D01*
X83867Y317379D01*
X85064Y317481D01*
X86264Y317554D01*
X87464Y317598D01*
X88666Y317613D01*
X89868Y317598D01*
X91068Y317554D01*
X92268Y317481D01*
X93465Y317379D01*
X94659Y317247D01*
X95850Y317087D01*
X97037Y316897D01*
X98218Y316678D01*
X99394Y316431D01*
X100564Y316155D01*
X101726Y315851D01*
X102881Y315519D01*
X104027Y315158D01*
X105164Y314770D01*
X106291Y314354D01*
X107408Y313910D01*
X108514Y313440D01*
X109608Y312942D01*
X110689Y312419D01*
X111757Y311869D01*
X112812Y311293D01*
X113852Y310691D01*
X114877Y310065D01*
X115887Y309413D01*
X116881Y308737D01*
X117857Y308037D01*
X118817Y307314D01*
X119758Y306567D01*
X120681Y305798D01*
X121585Y305006D01*
X122469Y304193D01*
X123334Y303358D01*
X124177Y302502D01*
X125000Y301626D01*
X125801Y300731D01*
X126580Y299816D01*
X127336Y298882D01*
X128070Y297930D01*
X128779Y296961D01*
X129466Y295974D01*
X130127Y294971D01*
X130765Y293953D01*
X131377Y292919D01*
X131964Y291870D01*
X132525Y290808D01*
X133060Y289732D01*
X133568Y288643D01*
X134050Y287542D01*
X134505Y286430D01*
X134933Y285307D01*
X135333Y284174D01*
X135705Y283032D01*
X136050Y281881D01*
X136366Y280721D01*
X136654Y279555D01*
X136913Y278381D01*
X136725Y278343D01*
X136467Y279511D01*
X136180Y280673D01*
X135865Y281828D01*
X135522Y282975D01*
X135151Y284113D01*
X134752Y285241D01*
X134326Y286360D01*
X133873Y287468D01*
X133393Y288564D01*
X132886Y289649D01*
X132354Y290720D01*
X131795Y291779D01*
X131210Y292823D01*
X130600Y293853D01*
X129966Y294868D01*
X129306Y295867D01*
X128623Y296850D01*
X127916Y297815D01*
X127185Y298763D01*
X126432Y299693D01*
X125656Y300605D01*
X124858Y301497D01*
X124039Y302369D01*
X123199Y303222D01*
X122338Y304053D01*
X121457Y304864D01*
X120556Y305652D01*
X119637Y306418D01*
X118699Y307162D01*
X117743Y307883D01*
X116771Y308580D01*
X115781Y309253D01*
X114775Y309902D01*
X113754Y310526D01*
X112718Y311125D01*
X111667Y311699D01*
X110603Y312247D01*
X109526Y312769D01*
X108436Y313264D01*
X107335Y313733D01*
X106222Y314174D01*
X105100Y314589D01*
X103967Y314976D01*
X102825Y315335D01*
X101675Y315666D01*
X100517Y315969D01*
X99352Y316244D01*
X98181Y316490D01*
X97004Y316708D01*
X95822Y316897D01*
X94636Y317057D01*
X93446Y317188D01*
X92254Y317290D01*
X91059Y317363D01*
X89863Y317406D01*
X88666Y317421D01*
X87469Y317406D01*
X86273Y317363D01*
X85078Y317290D01*
X83886Y317188D01*
X82696Y317057D01*
X81510Y316897D01*
X80328Y316708D01*
X79151Y316490D01*
X77980Y316244D01*
X76815Y315969D01*
X75657Y315666D01*
X74507Y315335D01*
X73365Y314976D01*
X72232Y314589D01*
X71110Y314174D01*
X69997Y313733D01*
X68896Y313264D01*
X67806Y312769D01*
X66729Y312247D01*
X65665Y311699D01*
X64614Y311125D01*
X63578Y310526D01*
X62557Y309902D01*
X61551Y309253D01*
X60561Y308580D01*
X59589Y307883D01*
X58633Y307162D01*
X57695Y306418D01*
X56776Y305652D01*
X55875Y304864D01*
X54994Y304053D01*
X54133Y303222D01*
X53293Y302369D01*
X52474Y301497D01*
X51676Y300605D01*
X50900Y299693D01*
X50147Y298763D01*
X49416Y297815D01*
X48709Y296850D01*
X48026Y295867D01*
X47366Y294868D01*
X46732Y293853D01*
X46122Y292823D01*
X45537Y291779D01*
X44978Y290720D01*
X44446Y289649D01*
X43939Y288564D01*
X43459Y287468D01*
X43006Y286360D01*
X42580Y285241D01*
X42181Y284113D01*
X41810Y282975D01*
X41467Y281828D01*
X41152Y280673D01*
X40865Y279511D01*
X40607Y278343D01*
X40795Y278304D01*
X41052Y279468D01*
X41338Y280626D01*
X41652Y281776D01*
X41994Y282918D01*
X42363Y284051D01*
X42760Y285176D01*
X43185Y286290D01*
X43636Y287393D01*
X44114Y288485D01*
X44619Y289565D01*
X45149Y290633D01*
X45706Y291687D01*
X46288Y292728D01*
X46896Y293754D01*
X47528Y294764D01*
X48185Y295759D01*
X48865Y296738D01*
X49570Y297700D01*
X50297Y298644D01*
X51048Y299571D01*
X51821Y300479D01*
X52615Y301367D01*
X53432Y302236D01*
X54269Y303085D01*
X55126Y303914D01*
X56004Y304721D01*
X56901Y305506D01*
X57816Y306270D01*
X58751Y307010D01*
X59702Y307728D01*
X60672Y308423D01*
X61657Y309093D01*
X62659Y309740D01*
X63676Y310361D01*
X64708Y310958D01*
X65755Y311529D01*
X66815Y312075D01*
X67888Y312595D01*
X68973Y313088D01*
X70070Y313555D01*
X71178Y313995D01*
X72297Y314408D01*
X73425Y314793D01*
X74562Y315151D01*
X75708Y315481D01*
X76861Y315783D01*
X78022Y316056D01*
X79188Y316302D01*
X80361Y316519D01*
X81538Y316707D01*
X82720Y316866D01*
X83905Y316997D01*
X85092Y317098D01*
X86282Y317171D01*
X87474Y317214D01*
X88666Y317229D01*
X89858Y317214D01*
X91050Y317171D01*
X92240Y317098D01*
X93427Y316997D01*
X94612Y316866D01*
X95794Y316707D01*
X96971Y316519D01*
X98144Y316302D01*
X99310Y316056D01*
X100471Y315783D01*
X101624Y315481D01*
X102770Y315151D01*
X103907Y314793D01*
X105035Y314408D01*
X106154Y313995D01*
X107262Y313555D01*
X108359Y313088D01*
X109444Y312595D01*
X110517Y312075D01*
X111577Y311529D01*
X112624Y310958D01*
X113656Y310361D01*
X114673Y309740D01*
X115675Y309093D01*
X116660Y308423D01*
X117630Y307728D01*
X118581Y307010D01*
X119516Y306270D01*
X120431Y305506D01*
X121328Y304721D01*
X122206Y303914D01*
X123063Y303085D01*
X123900Y302236D01*
X124717Y301367D01*
X125511Y300479D01*
X126284Y299571D01*
X127035Y298644D01*
X127762Y297700D01*
X128467Y296738D01*
X129147Y295759D01*
X129804Y294764D01*
X130436Y293754D01*
X131044Y292728D01*
X131626Y291687D01*
X132183Y290633D01*
X132713Y289565D01*
X133218Y288485D01*
X133696Y287393D01*
X134147Y286290D01*
X134572Y285176D01*
X134969Y284051D01*
X135338Y282918D01*
X135680Y281776D01*
X135994Y280626D01*
X136280Y279468D01*
X136537Y278304D01*
X136349Y278265D01*
X136093Y279425D01*
X135808Y280578D01*
X135495Y281723D01*
X135155Y282861D01*
X134787Y283990D01*
X134391Y285110D01*
X133969Y286220D01*
X133519Y287319D01*
X133043Y288406D01*
X132540Y289482D01*
X132012Y290546D01*
X131457Y291596D01*
X130877Y292632D01*
X130272Y293654D01*
X129642Y294661D01*
X128988Y295652D01*
X128310Y296627D01*
X127609Y297585D01*
X126884Y298526D01*
X126136Y299448D01*
X125366Y300353D01*
X124575Y301238D01*
X123762Y302104D01*
X122928Y302949D01*
X122074Y303774D01*
X121200Y304578D01*
X120307Y305360D01*
X119394Y306121D01*
X118464Y306859D01*
X117516Y307574D01*
X116550Y308265D01*
X115569Y308933D01*
X114571Y309577D01*
X113557Y310196D01*
X112529Y310791D01*
X111487Y311360D01*
X110431Y311903D01*
X109362Y312421D01*
X108281Y312913D01*
X107189Y313378D01*
X106085Y313816D01*
X104971Y314227D01*
X103847Y314611D01*
X102714Y314967D01*
X101573Y315296D01*
X100424Y315596D01*
X99268Y315869D01*
X98106Y316113D01*
X96939Y316329D01*
X95766Y316517D01*
X94589Y316676D01*
X93409Y316806D01*
X92226Y316907D01*
X91040Y316979D01*
X89853Y317023D01*
X88666Y317037D01*
X87479Y317023D01*
X86292Y316979D01*
X85106Y316907D01*
X83923Y316806D01*
X82743Y316676D01*
X81566Y316517D01*
X80393Y316329D01*
X79226Y316113D01*
X78064Y315869D01*
X76908Y315596D01*
X75759Y315296D01*
X74618Y314967D01*
X73485Y314611D01*
X72361Y314227D01*
X71247Y313816D01*
X70143Y313378D01*
X69051Y312913D01*
X67970Y312421D01*
X66901Y311903D01*
X65845Y311360D01*
X64803Y310791D01*
X63775Y310196D01*
X62761Y309577D01*
X61763Y308933D01*
X60782Y308265D01*
X59816Y307574D01*
X58868Y306859D01*
X57938Y306121D01*
X57025Y305360D01*
X56132Y304578D01*
X55258Y303774D01*
X54404Y302949D01*
X53570Y302104D01*
X52757Y301238D01*
X51966Y300353D01*
X51196Y299448D01*
X50448Y298526D01*
X49723Y297585D01*
X49022Y296627D01*
X48344Y295652D01*
X47690Y294661D01*
X47060Y293654D01*
X46455Y292632D01*
X45875Y291596D01*
X45320Y290546D01*
X44792Y289482D01*
X44289Y288406D01*
X43813Y287319D01*
X43363Y286220D01*
X42941Y285110D01*
X42545Y283990D01*
X42177Y282861D01*
X41837Y281723D01*
X41524Y280578D01*
X41239Y279425D01*
X40983Y278265D01*
D11*
X145174Y251685D02*
X152970Y251685D01*
X149072Y255583D02*
X149072Y247787D01*
D12*
X86896Y331011D02*
X85667Y332239D01*
X83210Y332239D01*
X81981Y331011D01*
X81981Y326096D01*
X83210Y324867D01*
X85667Y324867D01*
X86896Y326096D01*
X89465Y329782D02*
X91922Y332239D01*
X91922Y324867D01*
X89465Y324867D02*
X94380Y324867D01*
D13*
X234090Y264270D02*
X254090Y264270D01*
X234090Y264270D02*
X234090Y288270D01*
X254090Y288270D01*
X274090Y264270D02*
X290090Y264270D01*
X294090Y268270D01*
X294090Y284270D01*
X290090Y288270D01*
X274090Y288270D01*
D16*
X267900Y286430D02*
X267900Y266110D01*
D12*
X304539Y279165D02*
X305768Y277937D01*
X304539Y279165D02*
X302081Y279165D01*
X300853Y277937D01*
X300853Y273022D01*
X302081Y271793D01*
X304539Y271793D01*
X305768Y273022D01*
X308337Y271793D02*
X313252Y271793D01*
X308337Y271793D02*
X313252Y276708D01*
X313252Y277937D01*
X312023Y279165D01*
X309566Y279165D01*
X308337Y277937D01*
D13*
X286212Y291884D02*
X286212Y293384D01*
X286212Y291884D02*
X240212Y291884D01*
X240212Y293384D01*
X240212Y319384D02*
X240212Y320884D01*
X286212Y320884D01*
X286212Y319384D01*
X257212Y316384D02*
X257212Y296384D01*
D12*
X295167Y302203D02*
X295167Y309575D01*
X295167Y302203D02*
X298853Y302203D01*
X300082Y303432D01*
X300082Y308347D01*
X298853Y309575D01*
X295167Y309575D01*
X302651Y308347D02*
X303880Y309575D01*
X306337Y309575D01*
X307566Y308347D01*
X307566Y307118D01*
X306337Y305889D01*
X305108Y305889D01*
X306337Y305889D02*
X307566Y304660D01*
X307566Y303432D01*
X306337Y302203D01*
X303880Y302203D01*
X302651Y303432D01*
D16*
X561850Y177850D02*
X561850Y-5150D01*
X725850Y-5150D01*
X725850Y177850D01*
X561850Y177850D01*
D12*
X633471Y67572D02*
X634699Y66343D01*
X635928Y66343D01*
X637157Y67572D01*
X637157Y73715D01*
X635928Y73715D02*
X638386Y73715D01*
X640955Y72487D02*
X642184Y73715D01*
X644641Y73715D01*
X645870Y72487D01*
X645870Y71258D01*
X644641Y70029D01*
X643412Y70029D01*
X644641Y70029D02*
X645870Y68800D01*
X645870Y67572D01*
X644641Y66343D01*
X642184Y66343D01*
X640955Y67572D01*
D16*
X596676Y220236D02*
X588676Y220236D01*
D12*
X587119Y233235D02*
X587119Y240607D01*
X590805Y240607D01*
X592034Y239379D01*
X592034Y236921D01*
X590805Y235692D01*
X587119Y235692D01*
X589576Y235692D02*
X592034Y233235D01*
X598289Y233235D02*
X598289Y240607D01*
X594603Y236921D01*
X599518Y236921D01*
D16*
X639821Y220236D02*
X647821Y220236D01*
D12*
X637647Y234096D02*
X637647Y241468D01*
X641333Y241468D01*
X642562Y240240D01*
X642562Y237782D01*
X641333Y236553D01*
X637647Y236553D01*
X640104Y236553D02*
X642562Y234096D01*
X647588Y240240D02*
X650046Y241468D01*
X647588Y240240D02*
X645131Y237782D01*
X645131Y235325D01*
X646360Y234096D01*
X648817Y234096D01*
X650046Y235325D01*
X650046Y236553D01*
X648817Y237782D01*
X645131Y237782D01*
D16*
X665058Y220236D02*
X673058Y220236D01*
D12*
X664801Y233429D02*
X664801Y240801D01*
X668487Y240801D01*
X669716Y239573D01*
X669716Y237115D01*
X668487Y235886D01*
X664801Y235886D01*
X667258Y235886D02*
X669716Y233429D01*
X672285Y240801D02*
X677200Y240801D01*
X677200Y239573D01*
X672285Y234658D01*
X672285Y233429D01*
D16*
X732264Y298512D02*
X732264Y306512D01*
D12*
X752981Y305027D02*
X752981Y297655D01*
X752981Y305027D02*
X756667Y305027D01*
X757896Y303799D01*
X757896Y301341D01*
X756667Y300112D01*
X752981Y300112D01*
X755438Y300112D02*
X757896Y297655D01*
X760465Y298884D02*
X761694Y297655D01*
X764151Y297655D01*
X765380Y298884D01*
X765380Y303799D01*
X764151Y305027D01*
X761694Y305027D01*
X760465Y303799D01*
X760465Y302570D01*
X761694Y301341D01*
X765380Y301341D01*
D16*
X732010Y335759D02*
X732010Y343759D01*
D12*
X744735Y343036D02*
X744735Y335664D01*
X744735Y343036D02*
X748421Y343036D01*
X749649Y341808D01*
X749649Y339350D01*
X748421Y338121D01*
X744735Y338121D01*
X747192Y338121D02*
X749649Y335664D01*
X752219Y340579D02*
X754676Y343036D01*
X754676Y335664D01*
X752219Y335664D02*
X757134Y335664D01*
X759703Y336893D02*
X759703Y341808D01*
X760932Y343036D01*
X763389Y343036D01*
X764618Y341808D01*
X764618Y336893D01*
X763389Y335664D01*
X760932Y335664D01*
X759703Y336893D01*
X764618Y341808D01*
D16*
X732264Y325009D02*
X732264Y317009D01*
D12*
X745497Y315898D02*
X745497Y323270D01*
X749183Y323270D01*
X750411Y322041D01*
X750411Y319584D01*
X749183Y318355D01*
X745497Y318355D01*
X747954Y318355D02*
X750411Y315898D01*
X752981Y320812D02*
X755438Y323270D01*
X755438Y315898D01*
X752981Y315898D02*
X757896Y315898D01*
X760465Y320812D02*
X762922Y323270D01*
X762922Y315898D01*
X760465Y315898D02*
X765380Y315898D01*
D16*
X468758Y178280D02*
X468758Y-5720D01*
X556758Y-5720D01*
X556758Y178280D01*
X468758Y178280D01*
D12*
X505155Y70298D02*
X506383Y69069D01*
X507612Y69069D01*
X508841Y70298D01*
X508841Y76441D01*
X507612Y76441D02*
X510070Y76441D01*
X516325Y76441D02*
X516325Y69069D01*
X512639Y72755D02*
X516325Y76441D01*
X517554Y72755D02*
X512639Y72755D01*
D16*
X629254Y257810D02*
X629254Y274810D01*
X619254Y257810D02*
X609254Y257810D01*
X599254Y257810D02*
X599254Y274810D01*
D13*
X625176Y287900D02*
X625178Y287945D01*
X625184Y287989D01*
X625194Y288033D01*
X625207Y288076D01*
X625225Y288118D01*
X625246Y288157D01*
X625270Y288195D01*
X625298Y288230D01*
X625329Y288263D01*
X625362Y288293D01*
X625398Y288320D01*
X625437Y288344D01*
X625477Y288364D01*
X625518Y288380D01*
X625562Y288393D01*
X625606Y288402D01*
X625650Y288407D01*
X625695Y288408D01*
X625740Y288405D01*
X625784Y288398D01*
X625828Y288387D01*
X625871Y288372D01*
X625912Y288354D01*
X625951Y288332D01*
X625988Y288307D01*
X626023Y288279D01*
X626055Y288247D01*
X626084Y288213D01*
X626110Y288176D01*
X626133Y288138D01*
X626152Y288097D01*
X626168Y288055D01*
X626180Y288011D01*
X626188Y287967D01*
X626192Y287922D01*
X626192Y287878D01*
X626188Y287833D01*
X626180Y287789D01*
X626168Y287745D01*
X626152Y287703D01*
X626133Y287662D01*
X626110Y287624D01*
X626084Y287587D01*
X626055Y287553D01*
X626023Y287521D01*
X625988Y287493D01*
X625951Y287468D01*
X625912Y287446D01*
X625871Y287428D01*
X625828Y287413D01*
X625784Y287402D01*
X625740Y287395D01*
X625695Y287392D01*
X625650Y287393D01*
X625606Y287398D01*
X625562Y287407D01*
X625518Y287420D01*
X625477Y287436D01*
X625437Y287456D01*
X625398Y287480D01*
X625362Y287507D01*
X625329Y287537D01*
X625298Y287570D01*
X625270Y287605D01*
X625246Y287643D01*
X625225Y287682D01*
X625207Y287724D01*
X625194Y287767D01*
X625184Y287811D01*
X625178Y287855D01*
X625176Y287900D01*
D12*
X612239Y243849D02*
X612239Y238934D01*
X612239Y243849D02*
X613468Y245077D01*
X615925Y245077D01*
X617154Y243849D01*
X617154Y238934D01*
X615925Y237705D01*
X613468Y237705D01*
X612239Y238934D01*
X614696Y240162D02*
X617154Y237705D01*
X619723Y245077D02*
X624638Y245077D01*
X619723Y245077D02*
X619723Y241391D01*
X622181Y242620D01*
X623409Y242620D01*
X624638Y241391D01*
X624638Y238934D01*
X623409Y237705D01*
X620952Y237705D01*
X619723Y238934D01*
D16*
X541494Y235292D02*
X509494Y235292D01*
D12*
X548103Y232211D02*
X548103Y239583D01*
X551789Y239583D01*
X553018Y238355D01*
X553018Y235897D01*
X551789Y234668D01*
X548103Y234668D01*
X550560Y234668D02*
X553018Y232211D01*
X555587Y237126D02*
X558044Y239583D01*
X558044Y232211D01*
X555587Y232211D02*
X560502Y232211D01*
D16*
X586886Y287138D02*
X594886Y287138D01*
D12*
X569987Y286885D02*
X569987Y279513D01*
X569987Y286885D02*
X573673Y286885D01*
X574902Y285657D01*
X574902Y283199D01*
X573673Y281970D01*
X569987Y281970D01*
X572444Y281970D02*
X574902Y279513D01*
X577471Y279513D02*
X582386Y279513D01*
X577471Y279513D02*
X582386Y284428D01*
X582386Y285657D01*
X581157Y286885D01*
X578700Y286885D01*
X577471Y285657D01*
D16*
X587140Y259198D02*
X595140Y259198D01*
D12*
X571511Y257161D02*
X571511Y264533D01*
X575197Y264533D01*
X576426Y263305D01*
X576426Y260847D01*
X575197Y259618D01*
X571511Y259618D01*
X573968Y259618D02*
X576426Y257161D01*
X578995Y263305D02*
X580224Y264533D01*
X582681Y264533D01*
X583910Y263305D01*
X583910Y262076D01*
X582681Y260847D01*
X581453Y260847D01*
X582681Y260847D02*
X583910Y259618D01*
X583910Y258390D01*
X582681Y257161D01*
X580224Y257161D01*
X578995Y258390D01*
D16*
X600856Y301362D02*
X608856Y301362D01*
D12*
X611657Y297739D02*
X611657Y305111D01*
X615343Y305111D01*
X616572Y303883D01*
X616572Y301425D01*
X615343Y300196D01*
X611657Y300196D01*
X614114Y300196D02*
X616572Y297739D01*
X619141Y305111D02*
X624056Y305111D01*
X619141Y305111D02*
X619141Y301425D01*
X621598Y302654D01*
X622827Y302654D01*
X624056Y301425D01*
X624056Y298968D01*
X622827Y297739D01*
X620370Y297739D01*
X619141Y298968D01*
D16*
X633368Y272152D02*
X641368Y272152D01*
D12*
X645693Y275139D02*
X645693Y267767D01*
X645693Y275139D02*
X649379Y275139D01*
X650608Y273911D01*
X650608Y271453D01*
X649379Y270224D01*
X645693Y270224D01*
X648150Y270224D02*
X650608Y267767D01*
X653177Y273911D02*
X654406Y275139D01*
X656863Y275139D01*
X658092Y273911D01*
X658092Y272682D01*
X656863Y271453D01*
X658092Y270224D01*
X658092Y268996D01*
X656863Y267767D01*
X654406Y267767D01*
X653177Y268996D01*
X653177Y270224D01*
X654406Y271453D01*
X653177Y272682D01*
X653177Y273911D01*
X654406Y271453D02*
X656863Y271453D01*
D16*
X457424Y270400D02*
X457426Y270444D01*
X457432Y270488D01*
X457442Y270531D01*
X457455Y270573D01*
X457472Y270614D01*
X457493Y270653D01*
X457517Y270690D01*
X457544Y270725D01*
X457574Y270757D01*
X457607Y270787D01*
X457643Y270813D01*
X457680Y270837D01*
X457720Y270856D01*
X457761Y270873D01*
X457804Y270885D01*
X457847Y270894D01*
X457891Y270899D01*
X457935Y270900D01*
X457979Y270897D01*
X458023Y270890D01*
X458066Y270879D01*
X458108Y270865D01*
X458148Y270847D01*
X458187Y270825D01*
X458223Y270801D01*
X458257Y270773D01*
X458289Y270742D01*
X458318Y270708D01*
X458344Y270672D01*
X458366Y270634D01*
X458385Y270594D01*
X458400Y270552D01*
X458412Y270510D01*
X458420Y270466D01*
X458424Y270422D01*
X458424Y270378D01*
X458420Y270334D01*
X458412Y270290D01*
X458400Y270248D01*
X458385Y270206D01*
X458366Y270166D01*
X458344Y270128D01*
X458318Y270092D01*
X458289Y270058D01*
X458257Y270027D01*
X458223Y269999D01*
X458187Y269975D01*
X458148Y269953D01*
X458108Y269935D01*
X458066Y269921D01*
X458023Y269910D01*
X457979Y269903D01*
X457935Y269900D01*
X457891Y269901D01*
X457847Y269906D01*
X457804Y269915D01*
X457761Y269927D01*
X457720Y269944D01*
X457680Y269963D01*
X457643Y269987D01*
X457607Y270013D01*
X457574Y270043D01*
X457544Y270075D01*
X457517Y270110D01*
X457493Y270147D01*
X457472Y270186D01*
X457455Y270227D01*
X457442Y270269D01*
X457432Y270312D01*
X457426Y270356D01*
X457424Y270400D01*
D12*
X464757Y226331D02*
X464757Y221416D01*
X464757Y226331D02*
X465985Y227559D01*
X468443Y227559D01*
X469672Y226331D01*
X469672Y221416D01*
X468443Y220187D01*
X465985Y220187D01*
X464757Y221416D01*
X467214Y222644D02*
X469672Y220187D01*
X475927Y220187D02*
X475927Y227559D01*
X472241Y223873D01*
X477156Y223873D01*
D13*
X450132Y195012D02*
X445632Y195012D01*
X450132Y195012D02*
X450132Y149012D01*
X445632Y149012D01*
X425632Y149012D02*
X421132Y149012D01*
X421132Y195012D01*
X425632Y195012D01*
X425632Y162012D02*
X445632Y162012D01*
D12*
X406727Y170329D02*
X406727Y177701D01*
X406727Y170329D02*
X410413Y170329D01*
X411642Y171558D01*
X411642Y176473D01*
X410413Y177701D01*
X406727Y177701D01*
X417897Y177701D02*
X417897Y170329D01*
X414211Y174015D02*
X417897Y177701D01*
X419126Y174015D02*
X414211Y174015D01*
D16*
X466086Y739974D02*
X466088Y740018D01*
X466094Y740062D01*
X466104Y740105D01*
X466117Y740147D01*
X466134Y740188D01*
X466155Y740227D01*
X466179Y740264D01*
X466206Y740299D01*
X466236Y740331D01*
X466269Y740361D01*
X466305Y740387D01*
X466342Y740411D01*
X466382Y740430D01*
X466423Y740447D01*
X466466Y740459D01*
X466509Y740468D01*
X466553Y740473D01*
X466597Y740474D01*
X466641Y740471D01*
X466685Y740464D01*
X466728Y740453D01*
X466770Y740439D01*
X466810Y740421D01*
X466849Y740399D01*
X466885Y740375D01*
X466919Y740347D01*
X466951Y740316D01*
X466980Y740282D01*
X467006Y740246D01*
X467028Y740208D01*
X467047Y740168D01*
X467062Y740126D01*
X467074Y740084D01*
X467082Y740040D01*
X467086Y739996D01*
X467086Y739952D01*
X467082Y739908D01*
X467074Y739864D01*
X467062Y739822D01*
X467047Y739780D01*
X467028Y739740D01*
X467006Y739702D01*
X466980Y739666D01*
X466951Y739632D01*
X466919Y739601D01*
X466885Y739573D01*
X466849Y739549D01*
X466810Y739527D01*
X466770Y739509D01*
X466728Y739495D01*
X466685Y739484D01*
X466641Y739477D01*
X466597Y739474D01*
X466553Y739475D01*
X466509Y739480D01*
X466466Y739489D01*
X466423Y739501D01*
X466382Y739518D01*
X466342Y739537D01*
X466305Y739561D01*
X466269Y739587D01*
X466236Y739617D01*
X466206Y739649D01*
X466179Y739684D01*
X466155Y739721D01*
X466134Y739760D01*
X466117Y739801D01*
X466104Y739843D01*
X466094Y739886D01*
X466088Y739930D01*
X466086Y739974D01*
D12*
X429169Y731703D02*
X429169Y726788D01*
X429169Y731703D02*
X430397Y732931D01*
X432855Y732931D01*
X434084Y731703D01*
X434084Y726788D01*
X432855Y725559D01*
X430397Y725559D01*
X429169Y726788D01*
X431626Y728016D02*
X434084Y725559D01*
X436653Y725559D02*
X441568Y725559D01*
X436653Y725559D02*
X441568Y730474D01*
X441568Y731703D01*
X440339Y732931D01*
X437882Y732931D01*
X436653Y731703D01*
D13*
X372796Y756026D02*
X368296Y756026D01*
X368296Y802026D01*
X372796Y802026D01*
X392796Y802026D02*
X397296Y802026D01*
X397296Y756026D01*
X392796Y756026D01*
X392796Y789026D02*
X372796Y789026D01*
D12*
X374279Y750213D02*
X374279Y742841D01*
X377965Y742841D01*
X379194Y744070D01*
X379194Y748985D01*
X377965Y750213D01*
X374279Y750213D01*
X381763Y742841D02*
X386678Y742841D01*
X381763Y742841D02*
X386678Y747756D01*
X386678Y748985D01*
X385449Y750213D01*
X382992Y750213D01*
X381763Y748985D01*
D16*
X364264Y831392D02*
X180264Y831392D01*
X180264Y743392D01*
X364264Y743392D01*
X364264Y831392D01*
D12*
X257804Y789283D02*
X256575Y790512D01*
X257804Y789283D02*
X259032Y789283D01*
X260261Y790512D01*
X260261Y796655D01*
X259032Y796655D02*
X261490Y796655D01*
X264059Y789283D02*
X268974Y789283D01*
X264059Y789283D02*
X268974Y794198D01*
X268974Y795427D01*
X267745Y796655D01*
X265288Y796655D01*
X264059Y795427D01*
D17*
X405060Y791524D03*
D16*
X400790Y805334D02*
X400790Y822334D01*
X410790Y822334D02*
X420790Y822334D01*
X430790Y822334D02*
X430790Y805334D01*
D12*
X434147Y812396D02*
X434147Y817311D01*
X435375Y818539D01*
X437833Y818539D01*
X439062Y817311D01*
X439062Y812396D01*
X437833Y811167D01*
X435375Y811167D01*
X434147Y812396D01*
X436604Y813624D02*
X439062Y811167D01*
X441631Y816082D02*
X444088Y818539D01*
X444088Y811167D01*
X441631Y811167D02*
X446546Y811167D01*
D17*
X409056Y302686D03*
D16*
X422866Y306956D02*
X439866Y306956D01*
X439866Y296956D02*
X439866Y286956D01*
X439866Y276956D02*
X422866Y276956D01*
D12*
X431665Y311354D02*
X431665Y316269D01*
X432894Y317497D01*
X435351Y317497D01*
X436580Y316269D01*
X436580Y311354D01*
X435351Y310125D01*
X432894Y310125D01*
X431665Y311354D01*
X434122Y312582D02*
X436580Y310125D01*
X439149Y316269D02*
X440378Y317497D01*
X442835Y317497D01*
X444064Y316269D01*
X444064Y315040D01*
X442835Y313811D01*
X441607Y313811D01*
X442835Y313811D02*
X444064Y312582D01*
X444064Y311354D01*
X442835Y310125D01*
X440378Y310125D01*
X439149Y311354D01*
D13*
X578384Y339660D02*
X598384Y339660D01*
X598384Y315660D01*
X578384Y315660D01*
X558384Y339660D02*
X542384Y339660D01*
X538384Y335660D01*
X538384Y319660D01*
X542384Y315660D01*
X558384Y315660D01*
D16*
X564574Y317500D02*
X564574Y337820D01*
D12*
X566177Y310545D02*
X567406Y309317D01*
X566177Y310545D02*
X563720Y310545D01*
X562491Y309317D01*
X562491Y304402D01*
X563720Y303173D01*
X566177Y303173D01*
X567406Y304402D01*
X569975Y309317D02*
X571204Y310545D01*
X573661Y310545D01*
X574890Y309317D01*
X574890Y308088D01*
X573661Y306859D01*
X572433Y306859D01*
X573661Y306859D02*
X574890Y305630D01*
X574890Y304402D01*
X573661Y303173D01*
X571204Y303173D01*
X569975Y304402D01*
D18*
X843450Y722650D02*
X855450Y722650D01*
X855450Y531650D01*
X843450Y531650D01*
X803450Y722650D02*
X793450Y722650D01*
X793450Y707150D01*
X793450Y547150D02*
X793450Y531650D01*
X803450Y531650D01*
X784450Y700200D02*
X784406Y700202D01*
X784363Y700208D01*
X784321Y700217D01*
X784279Y700230D01*
X784239Y700247D01*
X784200Y700267D01*
X784163Y700290D01*
X784129Y700317D01*
X784096Y700346D01*
X784067Y700379D01*
X784040Y700413D01*
X784017Y700450D01*
X783997Y700489D01*
X783980Y700529D01*
X783967Y700571D01*
X783958Y700613D01*
X783952Y700656D01*
X783950Y700700D01*
X783952Y700744D01*
X783958Y700787D01*
X783967Y700829D01*
X783980Y700871D01*
X783997Y700911D01*
X784017Y700950D01*
X784040Y700987D01*
X784067Y701021D01*
X784096Y701054D01*
X784129Y701083D01*
X784163Y701110D01*
X784200Y701133D01*
X784239Y701153D01*
X784279Y701170D01*
X784321Y701183D01*
X784363Y701192D01*
X784406Y701198D01*
X784450Y701200D01*
X784494Y701198D01*
X784537Y701192D01*
X784579Y701183D01*
X784621Y701170D01*
X784661Y701153D01*
X784700Y701133D01*
X784737Y701110D01*
X784771Y701083D01*
X784804Y701054D01*
X784833Y701021D01*
X784860Y700987D01*
X784883Y700950D01*
X784903Y700911D01*
X784920Y700871D01*
X784933Y700829D01*
X784942Y700787D01*
X784948Y700744D01*
X784950Y700700D01*
X784948Y700656D01*
X784942Y700613D01*
X784933Y700571D01*
X784920Y700529D01*
X784903Y700489D01*
X784883Y700450D01*
X784860Y700413D01*
X784833Y700379D01*
X784804Y700346D01*
X784771Y700317D01*
X784737Y700290D01*
X784700Y700267D01*
X784661Y700247D01*
X784621Y700230D01*
X784579Y700217D01*
X784537Y700208D01*
X784494Y700202D01*
X784450Y700200D01*
D12*
X817103Y621666D02*
X818332Y620437D01*
X819560Y620437D01*
X820789Y621666D01*
X820789Y627809D01*
X819560Y627809D02*
X822018Y627809D01*
X824587Y627809D02*
X829502Y627809D01*
X824587Y627809D02*
X824587Y624123D01*
X827044Y625352D01*
X828273Y625352D01*
X829502Y624123D01*
X829502Y621666D01*
X828273Y620437D01*
X825816Y620437D01*
X824587Y621666D01*
D19*
X-1438Y196644D02*
X-1438Y96644D01*
X-1438Y196644D02*
X39562Y196644D01*
X39562Y96644D02*
X-1438Y96644D01*
X128562Y157644D02*
X128562Y196644D01*
X128562Y135644D02*
X128562Y96644D01*
X87062Y196644D02*
X66952Y196644D01*
X66952Y96644D02*
X87062Y96644D01*
X136312Y147244D02*
X136314Y147307D01*
X136320Y147371D01*
X136330Y147433D01*
X136344Y147495D01*
X136361Y147556D01*
X136383Y147616D01*
X136408Y147674D01*
X136437Y147731D01*
X136469Y147785D01*
X136505Y147838D01*
X136544Y147888D01*
X136586Y147935D01*
X136631Y147980D01*
X136678Y148022D01*
X136728Y148061D01*
X136781Y148097D01*
X136835Y148129D01*
X136892Y148158D01*
X136950Y148183D01*
X137010Y148205D01*
X137071Y148222D01*
X137133Y148236D01*
X137195Y148246D01*
X137259Y148252D01*
X137322Y148254D01*
X137385Y148252D01*
X137449Y148246D01*
X137511Y148236D01*
X137573Y148222D01*
X137634Y148205D01*
X137694Y148183D01*
X137752Y148158D01*
X137809Y148129D01*
X137863Y148097D01*
X137916Y148061D01*
X137966Y148022D01*
X138013Y147980D01*
X138058Y147935D01*
X138100Y147888D01*
X138139Y147838D01*
X138175Y147785D01*
X138207Y147731D01*
X138236Y147674D01*
X138261Y147616D01*
X138283Y147556D01*
X138300Y147495D01*
X138314Y147433D01*
X138324Y147371D01*
X138330Y147307D01*
X138332Y147244D01*
X138330Y147181D01*
X138324Y147117D01*
X138314Y147055D01*
X138300Y146993D01*
X138283Y146932D01*
X138261Y146872D01*
X138236Y146814D01*
X138207Y146757D01*
X138175Y146703D01*
X138139Y146650D01*
X138100Y146600D01*
X138058Y146553D01*
X138013Y146508D01*
X137966Y146466D01*
X137916Y146427D01*
X137863Y146391D01*
X137809Y146359D01*
X137752Y146330D01*
X137694Y146305D01*
X137634Y146283D01*
X137573Y146266D01*
X137511Y146252D01*
X137449Y146242D01*
X137385Y146236D01*
X137322Y146234D01*
X137259Y146236D01*
X137195Y146242D01*
X137133Y146252D01*
X137071Y146266D01*
X137010Y146283D01*
X136950Y146305D01*
X136892Y146330D01*
X136835Y146359D01*
X136781Y146391D01*
X136728Y146427D01*
X136678Y146466D01*
X136631Y146508D01*
X136586Y146553D01*
X136544Y146600D01*
X136505Y146650D01*
X136469Y146703D01*
X136437Y146757D01*
X136408Y146814D01*
X136383Y146872D01*
X136361Y146932D01*
X136344Y146993D01*
X136330Y147055D01*
X136320Y147117D01*
X136314Y147181D01*
X136312Y147244D01*
D12*
X84167Y143102D02*
X82938Y144331D01*
X84167Y143102D02*
X85395Y143102D01*
X86624Y144331D01*
X86624Y150474D01*
X85395Y150474D02*
X87853Y150474D01*
X90422Y148017D02*
X92880Y150474D01*
X92880Y143102D01*
X95337Y143102D02*
X90422Y143102D01*
D20*
X693092Y228572D02*
X693094Y228649D01*
X693100Y228726D01*
X693110Y228803D01*
X693124Y228879D01*
X693141Y228954D01*
X693163Y229028D01*
X693188Y229101D01*
X693218Y229173D01*
X693250Y229243D01*
X693287Y229311D01*
X693326Y229377D01*
X693369Y229441D01*
X693416Y229503D01*
X693465Y229562D01*
X693518Y229619D01*
X693573Y229673D01*
X693631Y229724D01*
X693692Y229772D01*
X693755Y229817D01*
X693820Y229858D01*
X693887Y229896D01*
X693956Y229931D01*
X694027Y229961D01*
X694099Y229989D01*
X694173Y230012D01*
X694247Y230032D01*
X694323Y230048D01*
X694399Y230060D01*
X694476Y230068D01*
X694553Y230072D01*
X694631Y230072D01*
X694708Y230068D01*
X694785Y230060D01*
X694861Y230048D01*
X694937Y230032D01*
X695011Y230012D01*
X695085Y229989D01*
X695157Y229961D01*
X695228Y229931D01*
X695297Y229896D01*
X695364Y229858D01*
X695429Y229817D01*
X695492Y229772D01*
X695553Y229724D01*
X695611Y229673D01*
X695666Y229619D01*
X695719Y229562D01*
X695768Y229503D01*
X695815Y229441D01*
X695858Y229377D01*
X695897Y229311D01*
X695934Y229243D01*
X695966Y229173D01*
X695996Y229101D01*
X696021Y229028D01*
X696043Y228954D01*
X696060Y228879D01*
X696074Y228803D01*
X696084Y228726D01*
X696090Y228649D01*
X696092Y228572D01*
X696090Y228495D01*
X696084Y228418D01*
X696074Y228341D01*
X696060Y228265D01*
X696043Y228190D01*
X696021Y228116D01*
X695996Y228043D01*
X695966Y227971D01*
X695934Y227901D01*
X695897Y227833D01*
X695858Y227767D01*
X695815Y227703D01*
X695768Y227641D01*
X695719Y227582D01*
X695666Y227525D01*
X695611Y227471D01*
X695553Y227420D01*
X695492Y227372D01*
X695429Y227327D01*
X695364Y227286D01*
X695297Y227248D01*
X695228Y227213D01*
X695157Y227183D01*
X695085Y227155D01*
X695011Y227132D01*
X694937Y227112D01*
X694861Y227096D01*
X694785Y227084D01*
X694708Y227076D01*
X694631Y227072D01*
X694553Y227072D01*
X694476Y227076D01*
X694399Y227084D01*
X694323Y227096D01*
X694247Y227112D01*
X694173Y227132D01*
X694099Y227155D01*
X694027Y227183D01*
X693956Y227213D01*
X693887Y227248D01*
X693820Y227286D01*
X693755Y227327D01*
X693692Y227372D01*
X693631Y227420D01*
X693573Y227471D01*
X693518Y227525D01*
X693465Y227582D01*
X693416Y227641D01*
X693369Y227703D01*
X693326Y227767D01*
X693287Y227833D01*
X693250Y227901D01*
X693218Y227971D01*
X693188Y228043D01*
X693163Y228116D01*
X693141Y228190D01*
X693124Y228265D01*
X693110Y228341D01*
X693100Y228418D01*
X693094Y228495D01*
X693092Y228572D01*
D16*
X717342Y273572D02*
X720342Y273572D01*
X720342Y243572D01*
X717342Y243572D01*
X691342Y273572D02*
X688342Y273572D01*
X688342Y243572D01*
X691342Y243572D01*
D12*
X724047Y257972D02*
X724047Y262887D01*
X725276Y264115D01*
X727733Y264115D01*
X728962Y262887D01*
X728962Y257972D01*
X727733Y256743D01*
X725276Y256743D01*
X724047Y257972D01*
X726504Y259200D02*
X728962Y256743D01*
X733989Y262887D02*
X736446Y264115D01*
X733989Y262887D02*
X731531Y260429D01*
X731531Y257972D01*
X732760Y256743D01*
X735217Y256743D01*
X736446Y257972D01*
X736446Y259200D01*
X735217Y260429D01*
X731531Y260429D01*
D16*
X42418Y756349D02*
X42418Y764349D01*
D12*
X32895Y766984D02*
X32895Y774356D01*
X36581Y774356D01*
X37810Y773128D01*
X37810Y770670D01*
X36581Y769441D01*
X32895Y769441D01*
X35352Y769441D02*
X37810Y766984D01*
X40379Y771899D02*
X42837Y774356D01*
X42837Y766984D01*
X45294Y766984D02*
X40379Y766984D01*
X47863Y766984D02*
X52778Y766984D01*
X47863Y766984D02*
X52778Y771899D01*
X52778Y773128D01*
X51549Y774356D01*
X49092Y774356D01*
X47863Y773128D01*
D16*
X409448Y32956D02*
X409448Y24956D01*
D12*
X400433Y35591D02*
X400433Y42963D01*
X404119Y42963D01*
X405348Y41735D01*
X405348Y39277D01*
X404119Y38048D01*
X400433Y38048D01*
X402890Y38048D02*
X405348Y35591D01*
X407917Y40506D02*
X410375Y42963D01*
X410375Y35591D01*
X412832Y35591D02*
X407917Y35591D01*
X415401Y41735D02*
X416630Y42963D01*
X419087Y42963D01*
X420316Y41735D01*
X420316Y40506D01*
X419087Y39277D01*
X417859Y39277D01*
X419087Y39277D02*
X420316Y38048D01*
X420316Y36820D01*
X419087Y35591D01*
X416630Y35591D01*
X415401Y36820D01*
D16*
X428118Y33956D02*
X444118Y33956D01*
X444118Y23956D02*
X428118Y23956D01*
X433118Y25956D02*
X433118Y31956D01*
D12*
X426835Y35829D02*
X426835Y43201D01*
X426835Y35829D02*
X430521Y35829D01*
X431750Y37058D01*
X431750Y41973D01*
X430521Y43201D01*
X426835Y43201D01*
X434319Y43201D02*
X439234Y43201D01*
X434319Y43201D02*
X434319Y39515D01*
X436777Y40744D01*
X438005Y40744D01*
X439234Y39515D01*
X439234Y37058D01*
X438005Y35829D01*
X435548Y35829D01*
X434319Y37058D01*
D16*
X15066Y760350D02*
X15066Y776350D01*
X25066Y776350D02*
X25066Y760350D01*
X23066Y765350D02*
X17066Y765350D01*
D12*
X15397Y784845D02*
X15397Y792217D01*
X15397Y784845D02*
X19083Y784845D01*
X20312Y786074D01*
X20312Y790989D01*
X19083Y792217D01*
X15397Y792217D01*
X25338Y790989D02*
X27796Y792217D01*
X25338Y790989D02*
X22881Y788531D01*
X22881Y786074D01*
X24110Y784845D01*
X26567Y784845D01*
X27796Y786074D01*
X27796Y787302D01*
X26567Y788531D01*
X22881Y788531D01*
D16*
X383794Y32956D02*
X383794Y24956D01*
D12*
X374017Y35845D02*
X374017Y43217D01*
X377703Y43217D01*
X378932Y41989D01*
X378932Y39531D01*
X377703Y38302D01*
X374017Y38302D01*
X376474Y38302D02*
X378932Y35845D01*
X381501Y40760D02*
X383959Y43217D01*
X383959Y35845D01*
X386416Y35845D02*
X381501Y35845D01*
X392671Y35845D02*
X392671Y43217D01*
X388985Y39531D01*
X393900Y39531D01*
D16*
X69342Y756349D02*
X69342Y764349D01*
D12*
X59819Y766984D02*
X59819Y774356D01*
X63505Y774356D01*
X64734Y773128D01*
X64734Y770670D01*
X63505Y769441D01*
X59819Y769441D01*
X62276Y769441D02*
X64734Y766984D01*
X67303Y771899D02*
X69761Y774356D01*
X69761Y766984D01*
X72218Y766984D02*
X67303Y766984D01*
X74787Y774356D02*
X79702Y774356D01*
X74787Y774356D02*
X74787Y770670D01*
X77245Y771899D01*
X78473Y771899D01*
X79702Y770670D01*
X79702Y768213D01*
X78473Y766984D01*
X76016Y766984D01*
X74787Y768213D01*
M02*
