G04 EAGLE Gerber RS-274X export*
G75*
%MOMM*%
%FSLAX34Y34*%
%LPD*%
%INSolderpaste Top*%
%IPPOS*%
%AMOC8*
5,1,8,0,0,1.08239X$1,22.5*%
G01*
%ADD10R,1.778000X3.175000*%
%ADD11R,4.100000X2.000000*%
%ADD12R,1.900000X1.600000*%
%ADD13R,2.000000X2.000000*%
%ADD14R,7.000000X10.800000*%
%ADD15R,2.160000X1.070000*%
%ADD16R,1.650000X5.330000*%
%ADD17R,0.800000X0.900000*%
%ADD18R,0.900000X0.800000*%
%ADD19C,0.050800*%
%ADD20R,3.600000X3.250000*%
%ADD21R,0.650000X0.750000*%
%ADD22R,4.550000X4.300000*%
%ADD23R,0.650000X0.650000*%
%ADD24R,1.470000X1.270000*%
%ADD25R,0.750000X0.650000*%
%ADD26R,4.300000X4.550000*%
%ADD27R,5.330000X1.650000*%
%ADD28R,1.300000X0.300000*%
%ADD29R,2.200000X1.800000*%
%ADD30R,0.300000X1.600000*%
%ADD31R,0.800000X0.800000*%


D10*
X204102Y58020D03*
X138062Y58020D03*
D11*
X45166Y268330D03*
X132166Y268330D03*
D12*
X247590Y276270D03*
X280590Y276270D03*
D13*
X283212Y306384D03*
X243212Y306384D03*
D14*
X351602Y195658D03*
D15*
X244902Y170258D03*
X244902Y221058D03*
X244902Y195658D03*
D16*
X593050Y144750D03*
X618450Y144750D03*
X643850Y144750D03*
X669250Y144750D03*
X694650Y144750D03*
D17*
X592676Y213236D03*
X592676Y227236D03*
X643821Y213236D03*
X643821Y227236D03*
X669058Y213236D03*
X669058Y227236D03*
D18*
X739264Y302512D03*
X725264Y302512D03*
X739010Y339759D03*
X725010Y339759D03*
X739264Y321009D03*
X725264Y321009D03*
D16*
X500058Y145180D03*
X525458Y145180D03*
D19*
X620833Y273214D02*
X620833Y285406D01*
X626675Y285406D01*
X626675Y273214D01*
X620833Y273214D01*
X620833Y273697D02*
X626675Y273697D01*
X626675Y274180D02*
X620833Y274180D01*
X620833Y274663D02*
X626675Y274663D01*
X626675Y275146D02*
X620833Y275146D01*
X620833Y275629D02*
X626675Y275629D01*
X626675Y276112D02*
X620833Y276112D01*
X620833Y276595D02*
X626675Y276595D01*
X626675Y277078D02*
X620833Y277078D01*
X620833Y277561D02*
X626675Y277561D01*
X626675Y278044D02*
X620833Y278044D01*
X620833Y278527D02*
X626675Y278527D01*
X626675Y279010D02*
X620833Y279010D01*
X620833Y279493D02*
X626675Y279493D01*
X626675Y279976D02*
X620833Y279976D01*
X620833Y280459D02*
X626675Y280459D01*
X626675Y280942D02*
X620833Y280942D01*
X620833Y281425D02*
X626675Y281425D01*
X626675Y281908D02*
X620833Y281908D01*
X620833Y282391D02*
X626675Y282391D01*
X626675Y282874D02*
X620833Y282874D01*
X620833Y283357D02*
X626675Y283357D01*
X626675Y283840D02*
X620833Y283840D01*
X620833Y284323D02*
X626675Y284323D01*
X626675Y284806D02*
X620833Y284806D01*
X620833Y285289D02*
X626675Y285289D01*
X611333Y285406D02*
X611333Y273214D01*
X611333Y285406D02*
X617175Y285406D01*
X617175Y273214D01*
X611333Y273214D01*
X611333Y273697D02*
X617175Y273697D01*
X617175Y274180D02*
X611333Y274180D01*
X611333Y274663D02*
X617175Y274663D01*
X617175Y275146D02*
X611333Y275146D01*
X611333Y275629D02*
X617175Y275629D01*
X617175Y276112D02*
X611333Y276112D01*
X611333Y276595D02*
X617175Y276595D01*
X617175Y277078D02*
X611333Y277078D01*
X611333Y277561D02*
X617175Y277561D01*
X617175Y278044D02*
X611333Y278044D01*
X611333Y278527D02*
X617175Y278527D01*
X617175Y279010D02*
X611333Y279010D01*
X611333Y279493D02*
X617175Y279493D01*
X617175Y279976D02*
X611333Y279976D01*
X611333Y280459D02*
X617175Y280459D01*
X617175Y280942D02*
X611333Y280942D01*
X611333Y281425D02*
X617175Y281425D01*
X617175Y281908D02*
X611333Y281908D01*
X611333Y282391D02*
X617175Y282391D01*
X617175Y282874D02*
X611333Y282874D01*
X611333Y283357D02*
X617175Y283357D01*
X617175Y283840D02*
X611333Y283840D01*
X611333Y284323D02*
X617175Y284323D01*
X617175Y284806D02*
X611333Y284806D01*
X611333Y285289D02*
X617175Y285289D01*
X601833Y285406D02*
X601833Y273214D01*
X601833Y285406D02*
X607675Y285406D01*
X607675Y273214D01*
X601833Y273214D01*
X601833Y273697D02*
X607675Y273697D01*
X607675Y274180D02*
X601833Y274180D01*
X601833Y274663D02*
X607675Y274663D01*
X607675Y275146D02*
X601833Y275146D01*
X601833Y275629D02*
X607675Y275629D01*
X607675Y276112D02*
X601833Y276112D01*
X601833Y276595D02*
X607675Y276595D01*
X607675Y277078D02*
X601833Y277078D01*
X601833Y277561D02*
X607675Y277561D01*
X607675Y278044D02*
X601833Y278044D01*
X601833Y278527D02*
X607675Y278527D01*
X607675Y279010D02*
X601833Y279010D01*
X601833Y279493D02*
X607675Y279493D01*
X607675Y279976D02*
X601833Y279976D01*
X601833Y280459D02*
X607675Y280459D01*
X607675Y280942D02*
X601833Y280942D01*
X601833Y281425D02*
X607675Y281425D01*
X607675Y281908D02*
X601833Y281908D01*
X601833Y282391D02*
X607675Y282391D01*
X607675Y282874D02*
X601833Y282874D01*
X601833Y283357D02*
X607675Y283357D01*
X607675Y283840D02*
X601833Y283840D01*
X601833Y284323D02*
X607675Y284323D01*
X607675Y284806D02*
X601833Y284806D01*
X601833Y285289D02*
X607675Y285289D01*
X620833Y259406D02*
X620833Y247214D01*
X620833Y259406D02*
X626675Y259406D01*
X626675Y247214D01*
X620833Y247214D01*
X620833Y247697D02*
X626675Y247697D01*
X626675Y248180D02*
X620833Y248180D01*
X620833Y248663D02*
X626675Y248663D01*
X626675Y249146D02*
X620833Y249146D01*
X620833Y249629D02*
X626675Y249629D01*
X626675Y250112D02*
X620833Y250112D01*
X620833Y250595D02*
X626675Y250595D01*
X626675Y251078D02*
X620833Y251078D01*
X620833Y251561D02*
X626675Y251561D01*
X626675Y252044D02*
X620833Y252044D01*
X620833Y252527D02*
X626675Y252527D01*
X626675Y253010D02*
X620833Y253010D01*
X620833Y253493D02*
X626675Y253493D01*
X626675Y253976D02*
X620833Y253976D01*
X620833Y254459D02*
X626675Y254459D01*
X626675Y254942D02*
X620833Y254942D01*
X620833Y255425D02*
X626675Y255425D01*
X626675Y255908D02*
X620833Y255908D01*
X620833Y256391D02*
X626675Y256391D01*
X626675Y256874D02*
X620833Y256874D01*
X620833Y257357D02*
X626675Y257357D01*
X626675Y257840D02*
X620833Y257840D01*
X620833Y258323D02*
X626675Y258323D01*
X626675Y258806D02*
X620833Y258806D01*
X620833Y259289D02*
X626675Y259289D01*
X601833Y259406D02*
X601833Y247214D01*
X601833Y259406D02*
X607675Y259406D01*
X607675Y247214D01*
X601833Y247214D01*
X601833Y247697D02*
X607675Y247697D01*
X607675Y248180D02*
X601833Y248180D01*
X601833Y248663D02*
X607675Y248663D01*
X607675Y249146D02*
X601833Y249146D01*
X601833Y249629D02*
X607675Y249629D01*
X607675Y250112D02*
X601833Y250112D01*
X601833Y250595D02*
X607675Y250595D01*
X607675Y251078D02*
X601833Y251078D01*
X601833Y251561D02*
X607675Y251561D01*
X607675Y252044D02*
X601833Y252044D01*
X601833Y252527D02*
X607675Y252527D01*
X607675Y253010D02*
X601833Y253010D01*
X601833Y253493D02*
X607675Y253493D01*
X607675Y253976D02*
X601833Y253976D01*
X601833Y254459D02*
X607675Y254459D01*
X607675Y254942D02*
X601833Y254942D01*
X601833Y255425D02*
X607675Y255425D01*
X607675Y255908D02*
X601833Y255908D01*
X601833Y256391D02*
X607675Y256391D01*
X607675Y256874D02*
X601833Y256874D01*
X601833Y257357D02*
X607675Y257357D01*
X607675Y257840D02*
X601833Y257840D01*
X601833Y258323D02*
X607675Y258323D01*
X607675Y258806D02*
X601833Y258806D01*
X601833Y259289D02*
X607675Y259289D01*
D20*
X525494Y254542D03*
X525494Y216042D03*
D17*
X590886Y294138D03*
X590886Y280138D03*
X591140Y266198D03*
X591140Y252198D03*
X604856Y294362D03*
X604856Y308362D03*
X637368Y265152D03*
X637368Y279152D03*
D21*
X455924Y268150D03*
X442924Y268150D03*
X429924Y268150D03*
X416924Y268150D03*
D22*
X436424Y237400D03*
D23*
X416924Y212650D03*
X429924Y212650D03*
X442924Y212650D03*
X455924Y212650D03*
D24*
X435632Y193512D03*
X435632Y150512D03*
D25*
X464336Y741974D03*
X464336Y754974D03*
X464336Y767974D03*
X464336Y780974D03*
D26*
X433586Y761474D03*
D23*
X408836Y780974D03*
X408836Y767974D03*
X408836Y754974D03*
X408836Y741974D03*
D24*
X382796Y757526D03*
X382796Y800526D03*
D27*
X331164Y800092D03*
X331164Y774692D03*
D19*
X409211Y794738D02*
X409211Y806930D01*
X409211Y794738D02*
X403369Y794738D01*
X403369Y806930D01*
X409211Y806930D01*
X409211Y795221D02*
X403369Y795221D01*
X403369Y795704D02*
X409211Y795704D01*
X409211Y796187D02*
X403369Y796187D01*
X403369Y796670D02*
X409211Y796670D01*
X409211Y797153D02*
X403369Y797153D01*
X403369Y797636D02*
X409211Y797636D01*
X409211Y798119D02*
X403369Y798119D01*
X403369Y798602D02*
X409211Y798602D01*
X409211Y799085D02*
X403369Y799085D01*
X403369Y799568D02*
X409211Y799568D01*
X409211Y800051D02*
X403369Y800051D01*
X403369Y800534D02*
X409211Y800534D01*
X409211Y801017D02*
X403369Y801017D01*
X403369Y801500D02*
X409211Y801500D01*
X409211Y801983D02*
X403369Y801983D01*
X403369Y802466D02*
X409211Y802466D01*
X409211Y802949D02*
X403369Y802949D01*
X403369Y803432D02*
X409211Y803432D01*
X409211Y803915D02*
X403369Y803915D01*
X403369Y804398D02*
X409211Y804398D01*
X409211Y804881D02*
X403369Y804881D01*
X403369Y805364D02*
X409211Y805364D01*
X409211Y805847D02*
X403369Y805847D01*
X403369Y806330D02*
X409211Y806330D01*
X409211Y806813D02*
X403369Y806813D01*
X418711Y806930D02*
X418711Y794738D01*
X412869Y794738D01*
X412869Y806930D01*
X418711Y806930D01*
X418711Y795221D02*
X412869Y795221D01*
X412869Y795704D02*
X418711Y795704D01*
X418711Y796187D02*
X412869Y796187D01*
X412869Y796670D02*
X418711Y796670D01*
X418711Y797153D02*
X412869Y797153D01*
X412869Y797636D02*
X418711Y797636D01*
X418711Y798119D02*
X412869Y798119D01*
X412869Y798602D02*
X418711Y798602D01*
X418711Y799085D02*
X412869Y799085D01*
X412869Y799568D02*
X418711Y799568D01*
X418711Y800051D02*
X412869Y800051D01*
X412869Y800534D02*
X418711Y800534D01*
X418711Y801017D02*
X412869Y801017D01*
X412869Y801500D02*
X418711Y801500D01*
X418711Y801983D02*
X412869Y801983D01*
X412869Y802466D02*
X418711Y802466D01*
X418711Y802949D02*
X412869Y802949D01*
X412869Y803432D02*
X418711Y803432D01*
X418711Y803915D02*
X412869Y803915D01*
X412869Y804398D02*
X418711Y804398D01*
X418711Y804881D02*
X412869Y804881D01*
X412869Y805364D02*
X418711Y805364D01*
X418711Y805847D02*
X412869Y805847D01*
X412869Y806330D02*
X418711Y806330D01*
X418711Y806813D02*
X412869Y806813D01*
X428211Y806930D02*
X428211Y794738D01*
X422369Y794738D01*
X422369Y806930D01*
X428211Y806930D01*
X428211Y795221D02*
X422369Y795221D01*
X422369Y795704D02*
X428211Y795704D01*
X428211Y796187D02*
X422369Y796187D01*
X422369Y796670D02*
X428211Y796670D01*
X428211Y797153D02*
X422369Y797153D01*
X422369Y797636D02*
X428211Y797636D01*
X428211Y798119D02*
X422369Y798119D01*
X422369Y798602D02*
X428211Y798602D01*
X428211Y799085D02*
X422369Y799085D01*
X422369Y799568D02*
X428211Y799568D01*
X428211Y800051D02*
X422369Y800051D01*
X422369Y800534D02*
X428211Y800534D01*
X428211Y801017D02*
X422369Y801017D01*
X422369Y801500D02*
X428211Y801500D01*
X428211Y801983D02*
X422369Y801983D01*
X422369Y802466D02*
X428211Y802466D01*
X428211Y802949D02*
X422369Y802949D01*
X422369Y803432D02*
X428211Y803432D01*
X428211Y803915D02*
X422369Y803915D01*
X422369Y804398D02*
X428211Y804398D01*
X428211Y804881D02*
X422369Y804881D01*
X422369Y805364D02*
X428211Y805364D01*
X428211Y805847D02*
X422369Y805847D01*
X422369Y806330D02*
X428211Y806330D01*
X428211Y806813D02*
X422369Y806813D01*
X409211Y820738D02*
X409211Y832930D01*
X409211Y820738D02*
X403369Y820738D01*
X403369Y832930D01*
X409211Y832930D01*
X409211Y821221D02*
X403369Y821221D01*
X403369Y821704D02*
X409211Y821704D01*
X409211Y822187D02*
X403369Y822187D01*
X403369Y822670D02*
X409211Y822670D01*
X409211Y823153D02*
X403369Y823153D01*
X403369Y823636D02*
X409211Y823636D01*
X409211Y824119D02*
X403369Y824119D01*
X403369Y824602D02*
X409211Y824602D01*
X409211Y825085D02*
X403369Y825085D01*
X403369Y825568D02*
X409211Y825568D01*
X409211Y826051D02*
X403369Y826051D01*
X403369Y826534D02*
X409211Y826534D01*
X409211Y827017D02*
X403369Y827017D01*
X403369Y827500D02*
X409211Y827500D01*
X409211Y827983D02*
X403369Y827983D01*
X403369Y828466D02*
X409211Y828466D01*
X409211Y828949D02*
X403369Y828949D01*
X403369Y829432D02*
X409211Y829432D01*
X409211Y829915D02*
X403369Y829915D01*
X403369Y830398D02*
X409211Y830398D01*
X409211Y830881D02*
X403369Y830881D01*
X403369Y831364D02*
X409211Y831364D01*
X409211Y831847D02*
X403369Y831847D01*
X403369Y832330D02*
X409211Y832330D01*
X409211Y832813D02*
X403369Y832813D01*
X428211Y832930D02*
X428211Y820738D01*
X422369Y820738D01*
X422369Y832930D01*
X428211Y832930D01*
X428211Y821221D02*
X422369Y821221D01*
X422369Y821704D02*
X428211Y821704D01*
X428211Y822187D02*
X422369Y822187D01*
X422369Y822670D02*
X428211Y822670D01*
X428211Y823153D02*
X422369Y823153D01*
X422369Y823636D02*
X428211Y823636D01*
X428211Y824119D02*
X422369Y824119D01*
X422369Y824602D02*
X428211Y824602D01*
X428211Y825085D02*
X422369Y825085D01*
X422369Y825568D02*
X428211Y825568D01*
X428211Y826051D02*
X422369Y826051D01*
X422369Y826534D02*
X428211Y826534D01*
X428211Y827017D02*
X422369Y827017D01*
X422369Y827500D02*
X428211Y827500D01*
X428211Y827983D02*
X422369Y827983D01*
X422369Y828466D02*
X428211Y828466D01*
X428211Y828949D02*
X422369Y828949D01*
X422369Y829432D02*
X428211Y829432D01*
X428211Y829915D02*
X422369Y829915D01*
X422369Y830398D02*
X428211Y830398D01*
X428211Y830881D02*
X422369Y830881D01*
X422369Y831364D02*
X428211Y831364D01*
X428211Y831847D02*
X422369Y831847D01*
X422369Y832330D02*
X428211Y832330D01*
X428211Y832813D02*
X422369Y832813D01*
X418711Y832930D02*
X418711Y820738D01*
X412869Y820738D01*
X412869Y832930D01*
X418711Y832930D01*
X418711Y821221D02*
X412869Y821221D01*
X412869Y821704D02*
X418711Y821704D01*
X418711Y822187D02*
X412869Y822187D01*
X412869Y822670D02*
X418711Y822670D01*
X418711Y823153D02*
X412869Y823153D01*
X412869Y823636D02*
X418711Y823636D01*
X418711Y824119D02*
X412869Y824119D01*
X412869Y824602D02*
X418711Y824602D01*
X418711Y825085D02*
X412869Y825085D01*
X412869Y825568D02*
X418711Y825568D01*
X418711Y826051D02*
X412869Y826051D01*
X412869Y826534D02*
X418711Y826534D01*
X418711Y827017D02*
X412869Y827017D01*
X412869Y827500D02*
X418711Y827500D01*
X418711Y827983D02*
X412869Y827983D01*
X412869Y828466D02*
X418711Y828466D01*
X418711Y828949D02*
X412869Y828949D01*
X412869Y829432D02*
X418711Y829432D01*
X418711Y829915D02*
X412869Y829915D01*
X412869Y830398D02*
X418711Y830398D01*
X418711Y830881D02*
X412869Y830881D01*
X412869Y831364D02*
X418711Y831364D01*
X418711Y831847D02*
X412869Y831847D01*
X412869Y832330D02*
X418711Y832330D01*
X418711Y832813D02*
X412869Y832813D01*
X412270Y298535D02*
X424462Y298535D01*
X412270Y298535D02*
X412270Y304377D01*
X424462Y304377D01*
X424462Y298535D01*
X424462Y299018D02*
X412270Y299018D01*
X412270Y299501D02*
X424462Y299501D01*
X424462Y299984D02*
X412270Y299984D01*
X412270Y300467D02*
X424462Y300467D01*
X424462Y300950D02*
X412270Y300950D01*
X412270Y301433D02*
X424462Y301433D01*
X424462Y301916D02*
X412270Y301916D01*
X412270Y302399D02*
X424462Y302399D01*
X424462Y302882D02*
X412270Y302882D01*
X412270Y303365D02*
X424462Y303365D01*
X424462Y303848D02*
X412270Y303848D01*
X412270Y304331D02*
X424462Y304331D01*
X424462Y289035D02*
X412270Y289035D01*
X412270Y294877D01*
X424462Y294877D01*
X424462Y289035D01*
X424462Y289518D02*
X412270Y289518D01*
X412270Y290001D02*
X424462Y290001D01*
X424462Y290484D02*
X412270Y290484D01*
X412270Y290967D02*
X424462Y290967D01*
X424462Y291450D02*
X412270Y291450D01*
X412270Y291933D02*
X424462Y291933D01*
X424462Y292416D02*
X412270Y292416D01*
X412270Y292899D02*
X424462Y292899D01*
X424462Y293382D02*
X412270Y293382D01*
X412270Y293865D02*
X424462Y293865D01*
X424462Y294348D02*
X412270Y294348D01*
X412270Y294831D02*
X424462Y294831D01*
X424462Y279535D02*
X412270Y279535D01*
X412270Y285377D01*
X424462Y285377D01*
X424462Y279535D01*
X424462Y280018D02*
X412270Y280018D01*
X412270Y280501D02*
X424462Y280501D01*
X424462Y280984D02*
X412270Y280984D01*
X412270Y281467D02*
X424462Y281467D01*
X424462Y281950D02*
X412270Y281950D01*
X412270Y282433D02*
X424462Y282433D01*
X424462Y282916D02*
X412270Y282916D01*
X412270Y283399D02*
X424462Y283399D01*
X424462Y283882D02*
X412270Y283882D01*
X412270Y284365D02*
X424462Y284365D01*
X424462Y284848D02*
X412270Y284848D01*
X412270Y285331D02*
X424462Y285331D01*
X438270Y298535D02*
X450462Y298535D01*
X438270Y298535D02*
X438270Y304377D01*
X450462Y304377D01*
X450462Y298535D01*
X450462Y299018D02*
X438270Y299018D01*
X438270Y299501D02*
X450462Y299501D01*
X450462Y299984D02*
X438270Y299984D01*
X438270Y300467D02*
X450462Y300467D01*
X450462Y300950D02*
X438270Y300950D01*
X438270Y301433D02*
X450462Y301433D01*
X450462Y301916D02*
X438270Y301916D01*
X438270Y302399D02*
X450462Y302399D01*
X450462Y302882D02*
X438270Y302882D01*
X438270Y303365D02*
X450462Y303365D01*
X450462Y303848D02*
X438270Y303848D01*
X438270Y304331D02*
X450462Y304331D01*
X450462Y279535D02*
X438270Y279535D01*
X438270Y285377D01*
X450462Y285377D01*
X450462Y279535D01*
X450462Y280018D02*
X438270Y280018D01*
X438270Y280501D02*
X450462Y280501D01*
X450462Y280984D02*
X438270Y280984D01*
X438270Y281467D02*
X450462Y281467D01*
X450462Y281950D02*
X438270Y281950D01*
X438270Y282433D02*
X450462Y282433D01*
X450462Y282916D02*
X438270Y282916D01*
X438270Y283399D02*
X450462Y283399D01*
X450462Y283882D02*
X438270Y283882D01*
X438270Y284365D02*
X450462Y284365D01*
X450462Y284848D02*
X438270Y284848D01*
X438270Y285331D02*
X450462Y285331D01*
X450462Y289035D02*
X438270Y289035D01*
X438270Y294877D01*
X450462Y294877D01*
X450462Y289035D01*
X450462Y289518D02*
X438270Y289518D01*
X438270Y290001D02*
X450462Y290001D01*
X450462Y290484D02*
X438270Y290484D01*
X438270Y290967D02*
X450462Y290967D01*
X450462Y291450D02*
X438270Y291450D01*
X438270Y291933D02*
X450462Y291933D01*
X450462Y292416D02*
X438270Y292416D01*
X438270Y292899D02*
X450462Y292899D01*
X450462Y293382D02*
X438270Y293382D01*
X438270Y293865D02*
X450462Y293865D01*
X450462Y294348D02*
X438270Y294348D01*
X438270Y294831D02*
X450462Y294831D01*
D12*
X584884Y327660D03*
X551884Y327660D03*
D28*
X793450Y554650D03*
X793450Y559650D03*
X793450Y564650D03*
X793450Y569650D03*
X793450Y574650D03*
X793450Y579650D03*
X793450Y584650D03*
X793450Y589650D03*
X793450Y594650D03*
X793450Y599650D03*
X793450Y604650D03*
X793450Y609650D03*
X793450Y614650D03*
X793450Y619650D03*
X793450Y624650D03*
X793450Y629650D03*
X793450Y634650D03*
X793450Y639650D03*
X793450Y644650D03*
X793450Y649650D03*
X793450Y654650D03*
X793450Y659650D03*
X793450Y664650D03*
X793450Y669650D03*
X793450Y674650D03*
X793450Y679650D03*
X793450Y684650D03*
X793450Y689650D03*
X793450Y694650D03*
X793450Y699650D03*
D29*
X825950Y718650D03*
X825950Y535650D03*
D30*
X707592Y275572D03*
X701092Y275572D03*
X694592Y275572D03*
X714092Y275572D03*
X714092Y241572D03*
X707592Y241572D03*
X701092Y241572D03*
X694592Y241572D03*
D18*
X49418Y760349D03*
X35418Y760349D03*
X402448Y28956D03*
X416448Y28956D03*
D31*
X444118Y28956D03*
X428118Y28956D03*
X20066Y776350D03*
X20066Y760350D03*
D18*
X376794Y28956D03*
X390794Y28956D03*
X76342Y760349D03*
X62342Y760349D03*
M02*
